<?xml version="1.0" standalone="no"?>
<!DOCTYPE svg PUBLIC "-//W3C//DTD SVG 1.1//EN" "http://www.w3.org/Graphics/SVG/1.1/DTD/svg11.dtd" >
<svg>
<metadata>
Created by FontForge 20110222 at Wed Oct  1 06:34:35 2014
 By deploy user
</metadata>
<defs>
<font id="NokiaSansS60-Bold" horiz-adv-x="838" >
  <font-face 
    font-family="Nokia Sans S60"
    font-weight="700"
    font-stretch="normal"
    units-per-em="1000"
    panose-1="0 0 0 0 0 0 0 0 0 0"
    ascent="800"
    descent="-200"
    x-height="532"
    cap-height="722"
    bbox="-1021 -410 7414 1126"
    underline-thickness="102"
    underline-position="-8"
    unicode-range="U+0008-FFFD"
  />
<missing-glyph horiz-adv-x="480" 
d="M169 52z" />
    <glyph glyph-name="uniFB52" unicode="&#x67b;" horiz-adv-x="941" arabic-form="isolated" 
d="M403 -151h73v-73h-73v73zM403 -29h73v-73h-73v73zM857 347q8 -44 8 -78q0 -66 -37 -116q-63 -83 -218 -114q-139 -29 -229 -29q-93 0 -156 19q-162 47 -162 178q0 67 31 112h90q-32 -46 -32 -112q0 -61 99 -94q51 -16 125 -16q90 0 220 27q124 27 157 82q27 45 27 82
q0 29 -12 59h89z" />
    <glyph glyph-name="uniFB53" unicode="&#x67b;" horiz-adv-x="982" arabic-form="final" 
d="M403 -151h73v-73h-73v73zM403 -29h73v-73h-73v73zM867 266q0 -101 34 -130q31 -26 61 -26h30v-90h-50q-57 0 -91 36q-39 40 -51 72q-76 -64 -190 -89q-126 -29 -229 -29q-96 0 -156 19q-161 49 -162 178q0 67 31 112h90q-32 -46 -32 -112q0 -61 99 -94q51 -16 125 -16
q127 1 220 27q97 29 157 82q29 25 29 84q0 30 -14 57h89q10 -37 10 -81z" />
    <glyph glyph-name="uniFB54" unicode="&#x67b;" horiz-adv-x="278" arabic-form="initial" 
d="M146 62q-35 -42 -112 -42h-44v90h17q49 0 70 21q24 24 24 76v106h90v-106q0 -91 -45 -145zM109 -151h74v-73h-74v73zM109 -29h74v-73h-74v73z" />
    <glyph glyph-name="uniFB55" unicode="&#x67b;" horiz-adv-x="302" arabic-form="medial" 
d="M109 -151h74v-73h-74v73zM109 -29h74v-73h-74v73zM146 62q-38 -42 -112 -42h-44v90h17q49 0 70 21q24 24 24 76v106h90v-106q0 -52 24 -76q21 -21 70 -21h27v-90h-54q-73 0 -112 42z" />
    <glyph glyph-name="uniFB56" unicode="&#x67e;" horiz-adv-x="941" arabic-form="isolated" 
d="M403 -151h73v-73h-73v73zM464 -29h73v-73h-73v73zM342 -29h73v-73h-73v73zM857 347q8 -44 8 -78q0 -66 -37 -116q-63 -83 -218 -114q-139 -29 -229 -29q-93 0 -156 19q-162 47 -162 178q0 67 31 112h90q-32 -46 -32 -112q0 -61 99 -94q51 -16 125 -16q90 0 220 27
q124 27 157 82q27 45 27 82q0 29 -12 59h89z" />
    <glyph glyph-name="uniFB57" unicode="&#x67e;" horiz-adv-x="982" arabic-form="final" 
d="M403 -151h73v-73h-73v73zM464 -29h73v-73h-73v73zM342 -29h73v-73h-73v73zM867 266q0 -101 34 -130q31 -26 61 -26h30v-90h-50q-57 0 -91 36q-39 40 -51 72q-76 -64 -190 -89q-126 -29 -229 -29q-96 0 -156 19q-161 49 -162 178q0 67 31 112h90q-32 -46 -32 -112
q0 -61 99 -94q51 -16 125 -16q127 1 220 27q97 29 157 82q29 25 29 84q0 30 -14 57h89q10 -37 10 -81z" />
    <glyph glyph-name="uniFB58" unicode="&#x67e;" horiz-adv-x="278" arabic-form="initial" 
d="M146 62q-35 -42 -112 -42h-44v90h17q49 0 70 21q24 24 24 76v106h90v-106q0 -91 -45 -145zM109 -151h74v-73h-74v73zM170 -29h74v-73h-74v73zM48 -29h74v-73h-74v73z" />
    <glyph glyph-name="uniFB59" unicode="&#x67e;" horiz-adv-x="302" arabic-form="medial" 
d="M146 62q-38 -42 -112 -42h-44v90h17q49 0 70 21q24 24 24 76v106h90v-106q0 -52 24 -76q21 -21 70 -21h27v-90h-54q-73 0 -112 42zM109 -151h74v-73h-74v73zM170 -29h74v-73h-74v73zM48 -29h74v-73h-74v73z" />
    <glyph glyph-name="uniFB5A" unicode="&#x680;" horiz-adv-x="941" arabic-form="isolated" 
d="M464 -151h73v-73h-73v73zM464 -29h73v-73h-73v73zM342 -151h73v-73h-73v73zM342 -29h73v-73h-73v73zM857 347q8 -44 8 -78q0 -66 -37 -116q-63 -83 -218 -114q-139 -29 -229 -29q-93 0 -156 19q-162 47 -162 178q0 67 31 112h90q-32 -46 -32 -112q0 -61 99 -94
q51 -16 125 -16q90 0 220 27q124 27 157 82q27 45 27 82q0 29 -12 59h89z" />
    <glyph glyph-name="uniFB5B" unicode="&#x680;" horiz-adv-x="982" arabic-form="final" 
d="M464 -151h73v-73h-73v73zM464 -29h73v-73h-73v73zM342 -151h73v-73h-73v73zM342 -29h73v-73h-73v73zM867 266q0 -101 34 -130q31 -26 61 -26h30v-90h-50q-57 0 -91 36q-39 40 -51 72q-76 -64 -190 -89q-126 -29 -229 -29q-96 0 -156 19q-161 49 -162 178q0 67 31 112h90
q-32 -46 -32 -112q0 -61 99 -94q51 -16 125 -16q127 1 220 27q97 29 157 82q29 25 29 84q0 30 -14 57h89q10 -37 10 -81z" />
    <glyph glyph-name="uniFB5C" unicode="&#x680;" horiz-adv-x="278" arabic-form="initial" 
d="M146 62q-35 -42 -112 -42h-44v90h17q49 0 70 21q24 24 24 76v106h90v-106q0 -91 -45 -145zM170 -151h74v-73h-74v73zM170 -29h74v-73h-74v73zM48 -151h74v-73h-74v73zM48 -29h74v-73h-74v73z" />
    <glyph glyph-name="uniFB5D" unicode="&#x680;" horiz-adv-x="302" arabic-form="medial" 
d="M146 62q-38 -42 -112 -42h-44v90h17q49 0 70 21q24 24 24 76v106h90v-106q0 -52 24 -76q21 -21 70 -21h27v-90h-54q-73 0 -112 42zM170 -151h74v-73h-74v73zM170 -29h74v-73h-74v73zM48 -151h74v-73h-74v73zM48 -29h74v-73h-74v73z" />
    <glyph glyph-name="uniFB5E" unicode="&#x67a;" horiz-adv-x="941" arabic-form="isolated" 
d="M403 411h73v-74h-73v74zM403 533h73v-74h-73v74zM857 347q8 -44 8 -78q0 -66 -37 -116q-63 -83 -218 -114q-139 -29 -229 -29q-93 0 -156 19q-162 47 -162 178q0 67 31 112h90q-32 -46 -32 -112q0 -61 99 -94q51 -16 125 -16q90 0 220 27q124 27 157 82q27 45 27 82
q0 29 -12 59h89z" />
    <glyph glyph-name="uniFB5F" unicode="&#x67a;" horiz-adv-x="982" arabic-form="final" 
d="M403 411h73v-74h-73v74zM403 533h73v-74h-73v74zM867 266q0 -101 34 -130q31 -26 61 -26h30v-90h-50q-57 0 -91 36q-39 40 -51 72q-76 -64 -190 -89q-126 -29 -229 -29q-96 0 -156 19q-161 49 -162 178q0 67 31 112h90q-32 -46 -32 -112q0 -61 99 -94q51 -16 125 -16
q127 1 220 27q97 29 157 82q29 25 29 84q0 30 -14 57h89q10 -37 10 -81z" />
    <glyph glyph-name="uniFB60" unicode="&#x67a;" horiz-adv-x="278" arabic-form="initial" 
d="M146 62q-35 -42 -112 -42h-44v90h17q49 0 70 21q24 24 24 76v106h90v-106q0 -91 -45 -145zM109 508h74v-73h-74v73zM109 630h74v-73h-74v73z" />
    <glyph glyph-name="uniFB61" unicode="&#x67a;" horiz-adv-x="302" arabic-form="medial" 
d="M146 62q-38 -42 -112 -42h-44v90h17q49 0 70 21q24 24 24 76v106h90v-106q0 -52 24 -76q21 -21 70 -21h27v-90h-54q-73 0 -112 42zM109 508h74v-73h-74v73zM109 630h74v-73h-74v73z" />
    <glyph glyph-name="uniFB62" unicode="&#x67f;" horiz-adv-x="941" arabic-form="isolated" 
d="M464 411h73v-74h-73v74zM464 533h73v-74h-73v74zM342 411h73v-74h-73v74zM342 533h73v-74h-73v74zM857 347q8 -44 8 -78q0 -66 -37 -116q-63 -83 -218 -114q-139 -29 -229 -29q-93 0 -156 19q-162 47 -162 178q0 67 31 112h90q-32 -46 -32 -112q0 -61 99 -94
q51 -16 125 -16q90 0 220 27q124 27 157 82q27 45 27 82q0 29 -12 59h89z" />
    <glyph glyph-name="uniFB63" unicode="&#x67f;" horiz-adv-x="982" arabic-form="final" 
d="M867 266q0 -101 34 -130q31 -26 61 -26h30v-90h-50q-57 0 -91 36q-39 40 -51 72q-76 -64 -190 -89q-126 -29 -229 -29q-96 0 -156 19q-161 49 -162 178q0 67 31 112h90q-32 -46 -32 -112q0 -61 99 -94q51 -16 125 -16q127 1 220 27q97 29 157 82q29 25 29 84q0 30 -14 57
h89q10 -37 10 -81zM464 411h73v-74h-73v74zM464 533h73v-74h-73v74zM342 411h73v-74h-73v74zM342 533h73v-74h-73v74z" />
    <glyph glyph-name="uniFB64" unicode="&#x67f;" horiz-adv-x="278" arabic-form="initial" 
d="M146 62q-35 -42 -112 -42h-44v90h17q49 0 70 21q24 24 24 76v106h90v-106q0 -91 -45 -145zM170 508h74v-73h-74v73zM170 630h74v-73h-74v73zM48 508h74v-73h-74v73zM48 630h74v-73h-74v73z" />
    <glyph glyph-name="uniFB65" unicode="&#x67f;" horiz-adv-x="302" arabic-form="medial" 
d="M146 62q-38 -42 -112 -42h-44v90h17q49 0 70 21q24 24 24 76v106h90v-106q0 -52 24 -76q21 -21 70 -21h27v-90h-54q-73 0 -112 42zM170 508h74v-73h-74v73zM170 630h74v-73h-74v73zM48 508h74v-73h-74v73zM48 630h74v-73h-74v73z" />
    <glyph glyph-name="uniFB66" unicode="&#x679;" horiz-adv-x="941" arabic-form="isolated" 
d="M415 400h26q38 0 49 6q26 16 26 27q0 15 -15 23q0 1 -35 -13q-25 -10 -51 -43zM453 351h-86h-55v49h40v195h50v-157q17 36 68 55q31 12 65 -1q32 -12 32 -52q0 -45 -31 -69q-27 -20 -83 -20zM857 347q8 -44 8 -78q0 -66 -37 -116q-63 -83 -218 -114q-139 -29 -229 -29
q-93 0 -156 19q-162 47 -162 178q0 67 31 112h90q-32 -46 -32 -112q0 -61 99 -94q51 -16 125 -16q90 0 220 27q124 27 157 82q27 45 27 82q0 29 -12 59h89z" />
    <glyph glyph-name="uniFB67" unicode="&#x679;" horiz-adv-x="982" arabic-form="final" 
d="M867 266q0 -101 34 -130q31 -26 61 -26h30v-90h-50q-57 0 -91 36q-39 40 -51 72q-76 -64 -190 -89q-126 -29 -229 -29q-96 0 -156 19q-161 49 -162 178q0 67 31 112h90q-32 -46 -32 -112q0 -61 99 -94q51 -16 125 -16q127 1 220 27q97 29 157 82q29 25 29 84q0 30 -14 57
h89q10 -37 10 -81zM415 400h26q38 0 49 6q26 16 26 27q0 15 -15 23q0 1 -35 -13q-25 -10 -51 -43zM453 351h-86h-55v49h40v195h50v-157q17 36 68 55q31 12 65 -1q32 -12 32 -52q0 -45 -31 -69q-27 -20 -83 -20z" />
    <glyph glyph-name="uniFB68" unicode="&#x679;" horiz-adv-x="278" arabic-form="initial" 
d="M146 62q-35 -42 -112 -42h-44v90h17q49 0 70 21q24 24 24 76v106h90v-106q0 -91 -45 -145zM121 498h27q38 0 49 6q26 16 26 26q0 16 -15 24l-35 -13q-26 -11 -52 -43zM159 448h-85h-55v50h40v194h49v-156q18 35 69 55q31 12 65 -1q31 -12 31 -52q0 -45 -31 -69
q-26 -21 -83 -21z" />
    <glyph glyph-name="uniFB69" unicode="&#x679;" horiz-adv-x="302" arabic-form="medial" 
d="M146 62q-38 -42 -112 -42h-44v90h17q49 0 70 21q24 24 24 76v106h90v-106q0 -52 24 -76q21 -21 70 -21h27v-90h-54q-73 0 -112 42zM121 498h27q38 0 49 6q26 16 26 26q0 16 -15 24l-35 -13q-26 -11 -52 -43zM159 448h-85h-55v50h40v194h49v-156q18 35 69 55q31 12 65 -1
q31 -12 31 -52q0 -45 -31 -69q-26 -21 -83 -21z" />
    <glyph glyph-name="uniFB6A" unicode="&#x6a4;" horiz-adv-x="1037" arabic-form="isolated" 
d="M745 777h73v-73h-73v73zM806 655h73v-73h-73v73zM684 655h73v-73h-73v73zM838 282q20 21 20 59q0 29 -32 54q-15 12 -36 11q-26 0 -45 -21q-20 -20 -20 -45q0 -39 26 -57q20 -13 41 -13q35 0 46 12zM914 127q-54 -88 -208 -122q-134 -30 -274 -30q-144 0 -207 20
q-161 49 -162 178q0 68 31 113h90q-32 -46 -32 -113q0 -56 99 -93q44 -17 181 -17q157 0 259 28q105 29 154 81q17 19 27 57q-31 -37 -91 -37q-65 0 -101 33q-48 43 -48 106q0 25 4 46q11 73 84 106q38 18 75 18q44 0 77 -24q46 -36 69 -85q12 -27 11 -94q-1 -110 -38 -171z
" />
    <glyph glyph-name="uniFB6B" unicode="&#x6a4;" horiz-adv-x="1035" arabic-form="final" 
d="M809 38q-51 -21 -105 -33q-137 -29 -269 -29q-149 0 -210 19q-161 50 -162 178q0 68 31 113h90q-32 -46 -32 -113q0 -56 99 -93q40 -16 186 -16q113 0 252 27l14 2q-16 13 -31 34q-40 61 -40 120q0 15 2 33q11 75 103 112q28 11 54 11q40 0 79 -24q67 -41 76 -114
q2 -18 2 -33q0 -70 -39 -122h8h128v-90h-131q-51 0 -105 18zM809 129q50 32 50 91q0 10 -2 23q-7 35 -32 54q-17 12 -36 12q-12 0 -23 -5q-30 -12 -39 -41q-3 -10 -3 -18q0 -28 20 -60q24 -38 65 -56zM745 679h73v-73h-73v73zM806 557h73v-73h-73v73zM684 557h73v-73h-73v73
z" />
    <glyph glyph-name="uniFB6C" unicode="&#x6a4;" horiz-adv-x="478" arabic-form="initial" 
d="M292 282q20 21 20 59q0 29 -32 54q-15 12 -37 11q-25 0 -45 -21q-19 -20 -20 -45q0 -39 27 -57q20 -13 40 -13q35 0 47 12zM-10 110h118q41 0 115 11q38 6 68 51q15 24 22 48q-31 -27 -78 -28q-64 -1 -102 33q-48 43 -48 106q0 25 4 46q12 73 85 106q38 18 75 18
q44 0 76 -24q47 -36 70 -85q11 -25 11 -94q0 -101 -38 -171q-36 -66 -97 -88q-53 -19 -124 -19h-157v90zM208 777h73v-73h-73v73zM269 655h73v-73h-73v73zM146 655h74v-73h-74v73z" />
    <glyph glyph-name="uniFB6D" unicode="&#x6a4;" horiz-adv-x="506" arabic-form="medial" 
d="M300 392q89 -39 101 -112q4 -25 4 -45q0 -36 -10 -60q-15 -32 -32 -57q19 -8 91 -8h62v-90h-106q-67 0 -157 28q-90 -28 -157 -28h-106v90h62q72 0 91 8q-14 20 -32 57q-10 23 -10 60q0 21 4 45q11 70 102 112q14 7 46 7q31 0 47 -7zM253 309q-7 0 -16 -5
q-28 -15 -39 -41q-5 -11 -5 -25q0 -21 12 -47q15 -33 48 -44q31 11 48 44q12 25 12 47q0 12 -5 25q-11 25 -39 41q-9 5 -16 5zM216 704h74v-74h-74v74zM277 582h74v-74h-74v74zM155 582h74v-74h-74v74z" />
    <glyph glyph-name="uniFB6E" unicode="&#x6a6;" horiz-adv-x="1037" arabic-form="isolated" 
d="M806 655h73v-73h-73v73zM806 777h73v-73h-73v73zM684 655h73v-73h-73v73zM684 777h73v-73h-73v73zM838 282q20 21 20 59q0 29 -32 54q-15 12 -36 11q-26 0 -45 -21q-20 -20 -20 -45q0 -39 26 -57q20 -13 41 -13q35 0 46 12zM914 127q-54 -88 -208 -122q-134 -30 -274 -30
q-144 0 -207 20q-161 49 -162 178q0 68 31 113h90q-32 -46 -32 -113q0 -56 99 -93q44 -17 181 -17q157 0 259 28q105 29 154 81q17 19 27 57q-31 -37 -91 -37q-65 0 -101 33q-48 43 -48 106q0 25 4 46q11 73 84 106q38 18 75 18q44 0 77 -24q46 -36 69 -85q12 -27 11 -94
q-1 -110 -38 -171z" />
    <glyph glyph-name="uniFB6F" unicode="&#x6a6;" horiz-adv-x="1035" arabic-form="final" 
d="M809 38q-51 -21 -105 -33q-137 -29 -269 -29q-149 0 -210 19q-161 50 -162 178q0 68 31 113h90q-32 -46 -32 -113q0 -56 99 -93q40 -16 186 -16q113 0 252 27l14 2q-16 13 -31 34q-40 61 -40 120q0 15 2 33q11 75 103 112q28 11 54 11q40 0 79 -24q67 -41 76 -114
q2 -18 2 -33q0 -70 -39 -122h8h128v-90h-131q-51 0 -105 18zM809 129q50 32 50 91q0 10 -2 23q-7 35 -32 54q-17 12 -36 12q-12 0 -23 -5q-30 -12 -39 -41q-3 -10 -3 -18q0 -28 20 -60q24 -38 65 -56zM806 557h73v-73h-73v73zM806 679h73v-73h-73v73zM684 557h73v-73h-73v73
zM684 679h73v-73h-73v73z" />
    <glyph glyph-name="uniFB70" unicode="&#x6a6;" horiz-adv-x="478" arabic-form="initial" 
d="M292 282q20 21 20 59q0 29 -32 54q-15 12 -37 11q-25 0 -45 -21q-19 -20 -20 -45q0 -39 27 -57q20 -13 40 -13q35 0 47 12zM-10 110h118q41 0 115 11q38 6 68 51q15 24 22 48q-31 -27 -78 -28q-64 -1 -102 33q-48 43 -48 106q0 25 4 46q12 73 85 106q38 18 75 18
q44 0 76 -24q47 -36 70 -85q11 -25 11 -94q0 -101 -38 -171q-36 -66 -97 -88q-53 -19 -124 -19h-157v90zM269 655h73v-73h-73v73zM269 777h73v-73h-73v73zM146 655h74v-73h-74v73zM146 777h74v-73h-74v73z" />
    <glyph glyph-name="uniFB71" unicode="&#x6a6;" horiz-adv-x="506" arabic-form="medial" 
d="M300 392q89 -39 101 -112q4 -25 4 -45q0 -36 -10 -60q-15 -32 -32 -57q19 -8 91 -8h62v-90h-106q-67 0 -157 28q-90 -28 -157 -28h-106v90h62q72 0 91 8q-14 20 -32 57q-10 23 -10 60q0 21 4 45q11 70 102 112q14 7 46 7q31 0 47 -7zM253 309q-7 0 -16 -5
q-28 -15 -39 -41q-5 -11 -5 -25q0 -21 12 -47q15 -33 48 -44q31 11 48 44q12 25 12 47q0 12 -5 25q-11 25 -39 41q-9 5 -16 5zM277 582h74v-74h-74v74zM277 704h74v-74h-74v74zM155 582h74v-74h-74v74zM155 704h74v-74h-74v74z" />
    <glyph glyph-name="uniFB72" unicode="&#x684;" horiz-adv-x="646" arabic-form="isolated" 
d="M378 57h74v-74h-74v74zM378 179h74v-74h-74v74zM77 414q134 31 230 31q142 0 238 -27v-75q-144 0 -249 -81q-109 -85 -109 -213q0 -66 36 -112q62 -81 224 -81q94 0 198 58v-90q-74 -48 -196 -48q-204 0 -286 95q-64 73 -64 182q0 126 103 235q47 49 114 75
q-49 0 -127 -10q-62 -7 -112 -29v90z" />
    <glyph glyph-name="uniFB73" unicode="&#x684;" horiz-adv-x="646" arabic-form="final" 
d="M330 32h73v-73h-73v73zM330 154h73v-73h-73v73zM636 110h19v-90h-24q-63 0 -123 73q-40 49 -70 125q-2 8 -38 94q-56 -11 -104 -50q-109 -90 -109 -213q0 -67 36 -112q63 -81 224 -81q94 0 198 58v-90q-74 -48 -196 -48q-204 0 -286 95q-64 73 -64 182q0 126 103 235
q47 49 114 75h-12q-47 0 -115 -10q-66 -9 -112 -29v90q132 31 227 31q143 0 241 -27v-75q-53 0 -68 -6l14 -45q25 -78 60 -124q44 -58 85 -58z" />
    <glyph glyph-name="uniFB74" unicode="&#x684;" horiz-adv-x="618" arabic-form="initial" 
d="M416 284q-41 11 -91 23q-42 9 -130 17q-40 3 -118 0v90q35 3 71 4q80 0 164 -17q125 -26 233 -73v-76q-37 -11 -80 -37q-81 -48 -117 -80q-71 -63 -108 -76q-108 -39 -187 -39h-63v90h49q111 0 174 35q51 28 107 80q46 42 96 59zM256 -126h74v-74h-74v74zM256 -4h74v-74
h-74v74z" />
    <glyph glyph-name="uniFB75" unicode="&#x684;" horiz-adv-x="646" arabic-form="medial" 
d="M312 401q125 -26 233 -73v-76q-32 -9 -67 -29q24 -38 39 -55q50 -58 106 -58h32v-90h-42q-102 0 -163 82q-20 26 -49 74q-33 -23 -53 -41q-71 -63 -108 -76q-108 -39 -187 -39h-63v90h49q111 0 174 35q51 28 107 80q46 42 96 59q-41 11 -91 23q-42 9 -130 17
q-40 3 -118 0v90q35 3 71 4q80 0 164 -17zM256 -126h74v-74h-74v74zM256 -4h74v-74h-74v74z" />
    <glyph glyph-name="uniFB76" unicode="&#x683;" horiz-adv-x="646" arabic-form="isolated" 
d="M439 105h74v-73h-74v73zM317 105h74v-73h-74v73zM77 414q134 31 230 31q142 0 238 -27v-75q-144 0 -249 -81q-109 -85 -109 -213q0 -66 36 -112q62 -81 224 -81q94 0 198 58v-90q-74 -48 -196 -48q-204 0 -286 95q-64 73 -64 182q0 126 103 235q47 49 114 75
q-49 0 -127 -10q-62 -7 -112 -29v90z" />
    <glyph glyph-name="uniFB77" unicode="&#x683;" horiz-adv-x="646" arabic-form="final" 
d="M391 81h73v-73h-73v73zM269 81h73v-73h-73v73zM636 110h19v-90h-24q-63 0 -123 73q-40 49 -70 125q-2 8 -38 94q-56 -11 -104 -50q-109 -90 -109 -213q0 -67 36 -112q63 -81 224 -81q94 0 198 58v-90q-74 -48 -196 -48q-204 0 -286 95q-64 73 -64 182q0 126 103 235
q47 49 114 75h-12q-47 0 -115 -10q-66 -9 -112 -29v90q132 31 227 31q143 0 241 -27v-75q-53 0 -68 -6l14 -45q25 -78 60 -124q44 -58 85 -58z" />
    <glyph glyph-name="uniFB78" unicode="&#x683;" horiz-adv-x="618" arabic-form="initial" 
d="M416 284q-41 11 -91 23q-42 9 -130 17q-40 3 -118 0v90q35 3 71 4q80 0 164 -17q125 -26 233 -73v-76q-37 -11 -80 -37q-81 -48 -117 -80q-71 -63 -108 -76q-108 -39 -187 -39h-63v90h49q111 0 174 35q51 28 107 80q46 42 96 59zM317 -4h74v-74h-74v74zM195 -4h74v-74
h-74v74z" />
    <glyph glyph-name="uniFB79" unicode="&#x683;" horiz-adv-x="646" arabic-form="medial" 
d="M312 401q125 -26 233 -73v-76q-32 -9 -67 -29q24 -38 39 -55q50 -58 106 -58h32v-90h-42q-102 0 -163 82q-20 26 -49 74q-33 -23 -53 -41q-71 -63 -108 -76q-108 -39 -187 -39h-63v90h49q111 0 174 35q51 28 107 80q46 42 96 59q-41 11 -91 23q-42 9 -130 17
q-40 3 -118 0v90q35 3 71 4q80 0 164 -17zM317 -4h74v-74h-74v74zM195 -4h74v-74h-74v74z" />
    <glyph glyph-name="uniFB7A" unicode="&#x686;" horiz-adv-x="646" arabic-form="isolated" 
d="M384 44h74v-73h-74v73zM445 166h74v-73h-74v73zM323 166h73v-73h-73v73zM77 414q134 31 230 31q142 0 238 -27v-75q-144 0 -249 -81q-109 -85 -109 -213q0 -66 36 -112q62 -81 224 -81q94 0 198 58v-90q-74 -48 -196 -48q-204 0 -286 95q-64 73 -64 182q0 126 103 235
q47 49 114 75q-49 0 -127 -10q-62 -7 -112 -29v90z" />
    <glyph glyph-name="uniFB7B" unicode="&#x686;" horiz-adv-x="646" arabic-form="final" 
d="M323 -4h73v-74h-73v74zM384 118h74v-74h-74v74zM262 118h73v-74h-73v74zM636 110h19v-90h-24q-63 0 -123 73q-40 49 -70 125q-2 8 -38 94q-56 -11 -104 -50q-109 -90 -109 -213q0 -67 36 -112q63 -81 224 -81q94 0 198 58v-90q-74 -48 -196 -48q-204 0 -286 95
q-64 73 -64 182q0 126 103 235q47 49 114 75h-12q-47 0 -115 -10q-66 -9 -112 -29v90q132 31 227 31q143 0 241 -27v-75q-53 0 -68 -6l14 -45q25 -78 60 -124q44 -58 85 -58z" />
    <glyph glyph-name="uniFB7C" unicode="&#x686;" horiz-adv-x="618" arabic-form="initial" 
d="M416 284q-41 11 -91 23q-42 9 -130 17q-40 3 -118 0v90q35 3 71 4q80 0 164 -17q125 -26 233 -73v-76q-37 -11 -80 -37q-81 -48 -117 -80q-71 -63 -108 -76q-108 -39 -187 -39h-63v90h49q111 0 174 35q51 28 107 80q46 42 96 59zM256 -126h74v-74h-74v74zM317 -4h74v-74
h-74v74zM195 -4h74v-74h-74v74z" />
    <glyph glyph-name="uniFB7D" unicode="&#x686;" horiz-adv-x="646" arabic-form="medial" 
d="M312 401q125 -26 233 -73v-76q-32 -9 -67 -29q24 -38 39 -55q50 -58 106 -58h32v-90h-42q-102 0 -163 82q-20 26 -49 74q-33 -23 -53 -41q-71 -63 -108 -76q-108 -39 -187 -39h-63v90h49q111 0 174 35q51 28 107 80q46 42 96 59q-41 11 -91 23q-42 9 -130 17
q-40 3 -118 0v90q35 3 71 4q80 0 164 -17zM256 -126h74v-74h-74v74zM317 -4h74v-74h-74v74zM195 -4h74v-74h-74v74z" />
    <glyph glyph-name="uniFB7E" unicode="&#x687;" horiz-adv-x="646" arabic-form="isolated" 
d="M445 57h74v-74h-74v74zM445 179h74v-74h-74v74zM323 57h73v-74h-73v74zM323 179h73v-74h-73v74zM77 414q134 31 230 31q142 0 238 -27v-75q-144 0 -249 -81q-109 -85 -109 -213q0 -66 36 -112q62 -81 224 -81q94 0 198 58v-90q-74 -48 -196 -48q-204 0 -286 95
q-64 73 -64 182q0 126 103 235q47 49 114 75q-49 0 -127 -10q-62 -7 -112 -29v90z" />
    <glyph glyph-name="uniFB7F" unicode="&#x687;" horiz-adv-x="646" arabic-form="final" 
d="M384 -4h74v-74h-74v74zM384 118h74v-74h-74v74zM262 -4h73v-74h-73v74zM262 118h73v-74h-73v74zM636 110h19v-90h-24q-63 0 -123 73q-40 49 -70 125q-2 8 -38 94q-56 -11 -104 -50q-109 -90 -109 -213q0 -67 36 -112q63 -81 224 -81q94 0 198 58v-90q-74 -48 -196 -48
q-204 0 -286 95q-64 73 -64 182q0 126 103 235q47 49 114 75h-12q-47 0 -115 -10q-66 -9 -112 -29v90q132 31 227 31q143 0 241 -27v-75q-53 0 -68 -6l14 -45q25 -78 60 -124q44 -58 85 -58z" />
    <glyph glyph-name="uniFB80" unicode="&#x687;" horiz-adv-x="618" arabic-form="initial" 
d="M416 284q-41 11 -91 23q-42 9 -130 17q-40 3 -118 0v90q35 3 71 4q80 0 164 -17q125 -26 233 -73v-76q-37 -11 -80 -37q-81 -48 -117 -80q-71 -63 -108 -76q-108 -39 -187 -39h-63v90h49q111 0 174 35q51 28 107 80q46 42 96 59zM317 -126h74v-74h-74v74zM317 -4h74v-74
h-74v74zM195 -126h74v-74h-74v74zM195 -4h74v-74h-74v74z" />
    <glyph glyph-name="uniFB81" unicode="&#x687;" horiz-adv-x="646" arabic-form="medial" 
d="M312 401q125 -26 233 -73v-76q-32 -9 -67 -29q24 -38 39 -55q50 -58 106 -58h32v-90h-42q-102 0 -163 82q-20 26 -49 74q-33 -23 -53 -41q-71 -63 -108 -76q-108 -39 -187 -39h-63v90h49q111 0 174 35q51 28 107 80q46 42 96 59q-41 11 -91 23q-42 9 -130 17
q-40 3 -118 0v90q35 3 71 4q80 0 164 -17zM317 -126h74v-74h-74v74zM317 -4h74v-74h-74v74zM195 -126h74v-74h-74v74zM195 -4h74v-74h-74v74z" />
    <glyph glyph-name="uniFB8A" unicode="&#x698;" horiz-adv-x="483" arabic-form="isolated" 
d="M305 606h73v-73h-73v73zM366 484h73v-73h-73v73zM244 484h73v-73h-73v73zM330 97q4 28 4 64q0 61 -25 128h89q25 -58 25 -123q0 -40 -4 -70q-23 -171 -165 -246q-138 -74 -296 -74v90q149 0 248 62q106 68 124 169z" />
    <glyph glyph-name="uniFB8B" unicode="&#x698;" horiz-adv-x="552" arabic-form="final" 
d="M309 289h89q15 -55 17 -70q4 -50 40 -88q21 -21 70 -21h37v-90h-64q-63 0 -88 30q-33 -135 -156 -200q-138 -74 -296 -74v90q149 0 248 62q106 68 124 169q4 28 4 64q0 61 -25 128zM305 606h73v-73h-73v73zM366 484h73v-73h-73v73zM244 484h73v-73h-73v73z" />
    <glyph glyph-name="uniFB8C" unicode="&#x691;" horiz-adv-x="483" arabic-form="isolated" 
d="M330 97q4 28 4 64q0 61 -25 128h89q25 -58 25 -123q0 -40 -4 -70q-23 -171 -165 -246q-138 -74 -296 -74v90q149 0 248 62q106 68 124 169zM317 473h27q38 0 49 6q25 17 25 27q0 15 -14 23q-1 1 -35 -13q-26 -10 -52 -43zM355 424h-85h-55v49h39v195h50v-157q18 36 69 55
q30 12 64 -1q32 -12 32 -52q0 -44 -31 -69q-26 -20 -83 -20z" />
    <glyph glyph-name="uniFB8D" unicode="&#x691;" horiz-adv-x="552" arabic-form="final" 
d="M309 289h89q15 -55 17 -70q4 -50 40 -88q21 -21 70 -21h37v-90h-64q-63 0 -88 30q-33 -135 -156 -200q-138 -74 -296 -74v90q149 0 248 62q106 68 124 169q4 28 4 64q0 61 -25 128zM317 473h27q38 0 49 6q25 17 25 27q0 15 -14 23q-1 1 -35 -13q-26 -10 -52 -43zM355 424
h-85h-55v49h39v195h50v-157q18 36 69 55q30 12 64 -1q32 -12 32 -52q0 -44 -31 -69q-26 -20 -83 -20z" />
    <glyph glyph-name="uniFB8E" unicode="&#x6a9;" horiz-adv-x="895" arabic-form="isolated" 
d="M376 63q90 0 185 39q76 32 94 59q8 12 8 35q0 33 -27 66l-151 185q-25 30 -25 70q0 17 5 33q17 58 66 78l364 152v-91l-291 -122q-34 -15 -44 -34q-3 -6 -3 -18q0 -16 15 -34l134 -161q50 -60 50 -120q0 -55 -30 -104q-26 -42 -156 -84q-111 -35 -189 -35q-94 0 -156 18
q-162 48 -162 178q0 68 31 113h90q-32 -46 -32 -113q0 -61 99 -93q51 -17 125 -17z" />
    <glyph glyph-name="uniFB8F" unicode="&#x6a9;" horiz-adv-x="895" arabic-form="final" 
d="M701 79q-48 -38 -131 -67q-100 -35 -189 -35q-94 0 -156 18q-162 48 -162 178q0 68 31 113h90q-32 -46 -32 -113q0 -61 99 -93q51 -17 125 -17q90 0 185 39q77 32 94 59q8 12 8 35q0 33 -27 66l-151 185q-25 30 -25 70q0 17 5 33q17 58 66 78l364 152v-91l-291 -122
q-34 -15 -44 -34q-3 -6 -3 -18q0 -16 15 -34l284 -344q11 -13 30 -19q21 -8 52 -8h43v-90h-64q-32 0 -61 12q-50 21 -66 41l-47 58q-13 -31 -42 -52z" />
    <glyph glyph-name="uniFB90" unicode="&#x6a9;" horiz-adv-x="476" arabic-form="initial" 
d="M151 20h-161v90h152q72 0 94 51q8 17 8 35q0 33 -27 66l-151 185q-24 30 -24 70q0 17 4 33q16 57 66 78l364 152v-91l-290 -122q-35 -15 -45 -34q-3 -6 -3 -18q0 -16 15 -34l134 -161q50 -60 50 -120q0 -55 -30 -104q-47 -76 -156 -76z" />
    <glyph glyph-name="uniFB91" unicode="&#x6a9;" horiz-adv-x="552" arabic-form="medial" 
d="M151 20h-161v90h152q72 0 94 51q8 17 8 35q0 33 -27 66l-151 185q-24 30 -24 70q0 17 4 33q16 57 66 78l364 152v-91l-290 -122q-35 -15 -45 -34q-3 -6 -3 -18q0 -16 15 -34l284 -344q11 -13 30 -19q21 -8 52 -8h43v-90h-64q-32 0 -61 12q-50 21 -66 41l-47 58
q-11 -22 -19 -35q-46 -76 -154 -76z" />
    <glyph glyph-name="uniFB92" unicode="&#x6af;" horiz-adv-x="895" arabic-form="isolated" 
d="M895 843l-421 -173v73l421 173v-73zM376 63q90 0 185 39q76 32 94 59q8 12 8 35q0 33 -27 66l-151 185q-25 30 -25 70q0 17 5 33q17 58 66 78l364 152v-91l-291 -122q-34 -15 -44 -34q-3 -6 -3 -18q0 -16 15 -34l134 -161q50 -60 50 -120q0 -55 -30 -104
q-26 -42 -156 -84q-111 -35 -189 -35q-94 0 -156 18q-162 48 -162 178q0 68 31 113h90q-32 -46 -32 -113q0 -61 99 -93q51 -17 125 -17z" />
    <glyph glyph-name="uniFB93" unicode="&#x6af;" horiz-adv-x="895" arabic-form="final" 
d="M701 79q-48 -38 -131 -67q-100 -35 -189 -35q-94 0 -156 18q-162 48 -162 178q0 68 31 113h90q-32 -46 -32 -113q0 -61 99 -93q51 -17 125 -17q90 0 185 39q77 32 94 59q8 12 8 35q0 33 -27 66l-151 185q-25 30 -25 70q0 17 5 33q17 58 66 78l364 152v-91l-291 -122
q-34 -15 -44 -34q-3 -6 -3 -18q0 -16 15 -34l284 -344q11 -13 30 -19q21 -8 52 -8h43v-90h-64q-32 0 -61 12q-50 21 -66 41l-47 58q-13 -31 -42 -52zM895 843l-421 -173v73l421 173v-73z" />
    <glyph glyph-name="uniFB94" unicode="&#x6af;" horiz-adv-x="476" arabic-form="initial" 
d="M151 20h-161v90h152q72 0 94 51q8 17 8 35q0 33 -27 66l-151 185q-24 30 -24 70q0 17 4 33q16 57 66 78l364 152v-91l-290 -122q-35 -15 -45 -34q-3 -6 -3 -18q0 -16 15 -34l134 -161q50 -60 50 -120q0 -55 -30 -104q-47 -76 -156 -76zM476 843l-421 -173v73l421 173v-73
z" />
    <glyph glyph-name="uniFB95" unicode="&#x6af;" horiz-adv-x="552" arabic-form="medial" 
d="M151 20h-161v90h152q72 0 94 51q8 17 8 35q0 33 -27 66l-151 185q-24 30 -24 70q0 17 4 33q16 57 66 78l364 152v-91l-290 -122q-35 -15 -45 -34q-3 -6 -3 -18q0 -16 15 -34l284 -344q11 -13 30 -19q21 -8 52 -8h43v-90h-64q-32 0 -61 12q-50 21 -66 41l-47 58
q-11 -22 -19 -35q-46 -76 -154 -76zM476 843l-421 -173v73l421 173v-73z" />
    <glyph glyph-name="uniFB9E" unicode="&#x6ba;" horiz-adv-x="734" arabic-form="isolated" 
d="M660 172q0 -84 -49 -171q-53 -96 -175 -129q-47 -14 -86 -14q-65 0 -118 18q-160 52 -160 226q0 115 23 154h90q-24 -70 -24 -154q0 -116 98 -141q45 -12 91 -12q37 0 71 10q95 26 132 134q16 48 16 95q0 90 -49 198h89q51 -76 51 -214z" />
    <glyph glyph-name="uniFB9F" unicode="&#x6ba;" horiz-adv-x="761" arabic-form="final" 
d="M609 304q22 -48 35 -95q11 -39 35 -68q26 -31 55 -31h37v-90h-63q-35 0 -52 23q-1 -53 -45 -125q-58 -97 -175 -129q-47 -13 -92 -13q-57 0 -112 18q-160 52 -160 226q0 85 23 154h90q-24 -67 -24 -154q0 -116 98 -142q44 -11 81 -11q43 0 81 9q95 24 132 135
q16 49 16 104q0 90 -49 189h89z" />
    <glyph glyph-name="uniFBD9" unicode="&#x6c6;" horiz-adv-x="483" arabic-form="isolated" 
d="M208 416l-95 160h68l63 -96l64 96h67l-95 -160h-72zM241 241q-31 0 -52 -28q-12 -16 -12 -34q0 -25 25 -48q23 -21 117 -21q0 90 -42 118q-18 13 -36 13zM406 110q0 -151 -84 -229q-46 -43 -92 -63q-93 -42 -272 -42v90q176 0 241 37q82 46 113 118q-58 0 -80 5
q-73 16 -93 33q-56 48 -56 115q0 69 43 111q51 50 118 50q43 0 78 -24q64 -44 76 -114q8 -50 8 -87z" />
    <glyph glyph-name="uniFBDA" unicode="&#x6c6;" horiz-adv-x="517" arabic-form="final" 
d="M208 416l-95 160h68l63 -96l64 96h67l-95 -160h-72zM319 110q0 37 -8 65q-12 39 -34 53q-29 21 -59 8q-32 -14 -39 -42q-8 -36 23 -63q23 -19 117 -21zM406 110h120v-90h-94h-35q-12 -76 -75 -139q-40 -40 -92 -63q-93 -42 -272 -42v90q177 0 241 37q82 46 113 118
q-58 2 -80 5q-68 12 -93 33q-52 44 -56 109q-1 16 3 43q14 76 100 113q28 12 60 11q43 -1 76 -24q65 -45 76 -114q6 -41 8 -87z" />
    <glyph glyph-name="uniFBE8" unicode="&#x649;" horiz-adv-x="278" arabic-form="initial" 
d="M146 62q-35 -42 -112 -42h-44v90h17q49 0 70 21q24 24 24 76v106h90v-106q0 -91 -45 -145z" />
    <glyph glyph-name="uniFBE9" unicode="&#x649;" horiz-adv-x="302" arabic-form="medial" 
d="M146 62q-38 -42 -112 -42h-44v90h17q49 0 70 21q24 24 24 76v106h90v-106q0 -52 24 -76q21 -21 70 -21h27v-90h-54q-73 0 -112 42z" />
    <glyph glyph-name="uniFBFC" unicode="&#x6cc;" horiz-adv-x="783" arabic-form="isolated" 
d="M667 26q-50 -83 -217 -119q-87 -18 -145 -18q-63 0 -98 12q-144 51 -144 179q0 57 31 112h90q-32 -64 -32 -112q1 -72 81 -94q48 -13 78 -10q61 5 124 17q86 16 127 55q29 28 29 54q0 36 -61 50q-32 7 -88 30q-33 13 -61 38q-31 28 -32 84q0 73 93 109q46 18 97 18
t98 -20q69 -30 82 -115h-90q-6 30 -39 46q-19 10 -53 11q-38 1 -68 -18t-30 -35q0 -27 61 -48q122 -40 149 -71q38 -42 39 -85q0 -34 -21 -70z" />
    <glyph glyph-name="uniFBFD" unicode="&#x6cc;" horiz-adv-x="833" arabic-form="final" 
d="M537 4q45 25 45 41q-1 21 -24 27q-14 4 -29 24q-21 28 -21 58q0 32 25 61q39 46 80 53q15 3 35 3q58 0 100 -65q63 -96 78 -96h17v-90h-17q-55 0 -110 84q-53 81 -66 81q-17 0 -25 -3q-21 -9 -21 -26q0 -23 31 -36q36 -15 37 -75q2 -48 -53 -90q-63 -47 -169 -62
q-44 -6 -95 -6q-91 0 -148 20q-144 50 -144 178q0 75 31 119h90q-32 -44 -32 -119q0 -55 81 -93q33 -15 120 -15q44 0 82 3q73 8 102 24z" />
    <glyph glyph-name="uniFBFE" unicode="&#x6cc;" horiz-adv-x="278" arabic-form="initial" 
d="M146 62q-35 -42 -112 -42h-44v90h17q49 0 70 21q24 24 24 76v106h90v-106q0 -91 -45 -145zM170 -53h74v-73h-74v73zM48 -53h74v-73h-74v73z" />
    <glyph glyph-name="uniFBFF" unicode="&#x6cc;" horiz-adv-x="302" arabic-form="medial" 
d="M146 62q-38 -42 -112 -42h-44v90h17q49 0 70 21q24 24 24 76v106h90v-106q0 -52 24 -76q21 -21 70 -21h27v-90h-54q-73 0 -112 42zM170 -53h74v-73h-74v73zM48 -53h74v-73h-74v73z" />
    <glyph glyph-name="uniFE70" unicode="&#xfe70;" horiz-adv-x="293" arabic-form="isolated" 
d="M4 728v54l285 63v-54zM4 611v54l285 63v-54z" />
    <glyph glyph-name="uniFE71" unicode="&#xfe71;" horiz-adv-x="293" arabic-form="medial" 
d="M-10 20v90h313v-90h-313zM4 728v54l285 63v-54zM4 611v54l285 63v-54z" />
    <glyph glyph-name="uniFE72" unicode="&#xfe72;" horiz-adv-x="293" arabic-form="isolated" 
d="M152 694q18 17 28 38q-16 3 -27 10q-53 28 -53 73q0 43 34 68q13 11 44 11q36 0 55 -20q27 -26 27 -64q0 -19 -6 -38q10 -1 17 -1h18v-54q-23 0 -33 1l-25 3q-13 -30 -49 -68q-42 -42 -88 -42q-55 0 -83 75q-7 20 -7 75h44q0 -47 6 -60q17 -36 40 -36q28 0 58 29z
M199 781q2 3 3 7q5 10 5 22q0 16 -8.5 23t-18.5 7q-11 0 -16 -5q-9 -6 -9 -20q0 -18 22 -26q10 -4 22 -8z" />
    <glyph glyph-name="uniFE74" unicode="&#xfe74;" horiz-adv-x="293" arabic-form="isolated" 
d="M4 -219v53l285 64v-54zM4 -102v54l285 63v-54z" />
    <glyph glyph-name="uniFE76" unicode="&#xfe76;" horiz-adv-x="293" arabic-form="isolated" 
d="M4 611v54l285 63v-54z" />
    <glyph glyph-name="uniFE77" unicode="&#xfe77;" horiz-adv-x="293" arabic-form="medial" 
d="M4 611v54l285 63v-54zM-10 20v90h313v-90h-313z" />
    <glyph glyph-name="uniFE78" unicode="&#xfe78;" horiz-adv-x="293" arabic-form="isolated" 
d="M167 736q-5 1 -14 6q-53 27 -53 73q0 43 34 68q13 11 44 11q36 0 55 -20q27 -26 27 -64q0 -16 -7 -38q9 -1 17.5 -1h18.5v-54q-17 0 -33 1q-14 1 -28 3q-21 -30 -55 -51q-97 -60 -169 -60v54q74 0 142 53q11 9 21 19zM199 781q2 3 3 7q5 10 5 22q0 16 -8.5 23t-18.5 7
q-11 0 -16 -5q-9 -6 -9 -20q0 -18 22 -26q10 -4 22 -8z" />
    <glyph glyph-name="uniFE79" unicode="&#xfe79;" horiz-adv-x="293" arabic-form="medial" 
d="M167 736q-5 1 -14 6q-53 27 -53 73q0 43 34 68q13 11 44 11q36 0 55 -20q27 -26 27 -64q0 -16 -7 -38q9 -1 17.5 -1h18.5v-54q-17 0 -33 1q-14 1 -28 3q-21 -30 -55 -51q-97 -60 -169 -60v54q74 0 142 53q11 9 21 19zM199 781q2 3 3 7q5 10 5 22q0 16 -8.5 23t-18.5 7
q-11 0 -16 -5q-9 -6 -9 -20q0 -18 22 -26q10 -4 22 -8zM-10 20v90h313v-90h-313z" />
    <glyph glyph-name="uniFE7A" unicode="&#xfe7a;" horiz-adv-x="293" arabic-form="isolated" 
d="M4 -117v54l285 63v-53z" />
    <glyph glyph-name="uniFE7B" unicode="&#xfe7b;" horiz-adv-x="293" arabic-form="medial" 
d="M4 -117v54l285 63v-53zM-10 20v90h313v-90h-313z" />
    <glyph glyph-name="uniFE7C" unicode="&#xfe7c;" horiz-adv-x="293" arabic-form="isolated" 
d="M154 709q-7 -37 -23 -56q-28 -34 -62 -34q-38 0 -58 31q-17 25 -17 78q0 54 8 102h47q-5 -61 -5 -89q0 -41 12 -57q9 -13 34 -3q30 12 32 95q1 40 1 83h46q2 -17 2 -44q0 -95 43 -95q35 0 35 85q0 56 -6 84h50q6 -36 6 -92q0 -65 -13 -91q-22 -44 -63 -49q-35 -4 -50 12
q-13 15 -19 40z" />
    <glyph glyph-name="uniFE7D" unicode="&#xfe7d;" horiz-adv-x="293" arabic-form="medial" 
d="M154 709q-7 -37 -23 -56q-28 -34 -62 -34q-38 0 -58 31q-17 25 -17 78q0 54 8 102h47q-5 -61 -5 -89q0 -41 12 -57q9 -13 34 -3q30 12 32 95q1 40 1 83h46q2 -17 2 -44q0 -95 43 -95q35 0 35 85q0 56 -6 84h50q6 -36 6 -92q0 -65 -13 -91q-22 -44 -63 -49q-35 -4 -50 12
q-13 15 -19 40zM-10 20v90h313v-90h-313z" />
    <glyph glyph-name="uniFE7E" unicode="&#xfe7e;" horiz-adv-x="293" arabic-form="isolated" 
d="M220 764q0 31 -21.5 52.5t-52.5 21.5q-32 0 -53.5 -21.5t-21.5 -52.5q0 -32 21.5 -53t53.5 -21q31 0 52.5 21.5t21.5 52.5zM240 859q39 -39 39 -95t-38.5 -95t-95 -39t-95 39t-38.5 95t38.5 95t95 39t94.5 -39z" />
    <glyph glyph-name="uniFE7F" unicode="&#xfe7f;" horiz-adv-x="293" arabic-form="medial" 
d="M-10 20v90h313v-90h-313zM220 764q0 31 -21.5 52.5t-52.5 21.5q-32 0 -53.5 -21.5t-21.5 -52.5q0 -32 21.5 -53t53.5 -21q31 0 52.5 21.5t21.5 52.5zM240 859q39 -39 39 -95t-38.5 -95t-95 -39t-95 39t-38.5 95t38.5 95t95 39t94.5 -39z" />
    <glyph glyph-name="uniFE80" unicode="&#x621;" horiz-adv-x="470" arabic-form="isolated" 
d="M80 62v85q23 3 63 16q33 9 59 25q-70 12 -95 49q-25 39 -25 80q0 32 10 68q14 58 65 89q48 29 96 29q54 0 98 -10v-91q-49 15 -83 14q-25 0 -49 -13q-47 -23 -47 -78q0 -56 98 -80q28 -7 56 0q35 9 64 26v-90q-44 -29 -144 -68q-113 -44 -166 -51z" />
    <glyph glyph-name="uniFE81" unicode="&#x622;" horiz-adv-x="278" arabic-form="isolated" 
d="M-37 891l79 60q50 -40 83 -51q20 -6 46 -6q29 0 49 8q52 20 95 57v-61q-44 -31 -88 -45q-33 -11 -59 -11q-16 0 -53 8q-38 8 -71 43l-81 -63v61zM94 780h90v-760h-90v760z" />
    <glyph glyph-name="uniFE82" unicode="&#x622;" horiz-adv-x="305" arabic-form="final" 
d="M94 201v579h90v-573q0 -52 24 -76q21 -21 70 -21h36v-90h-63q-75 0 -114 45q-43 49 -43 136zM-37 891l79 60q50 -40 83 -51q20 -6 46 -6q29 0 49 8q52 20 95 57v-61q-44 -31 -88 -45q-33 -11 -59 -11q-16 0 -53 8q-38 8 -71 43l-81 -63v61z" />
    <glyph glyph-name="uniFE83" unicode="&#x623;" horiz-adv-x="278" arabic-form="isolated" 
d="M53 882l38 9q-22 9 -29 27q-8 18 -8 40q0 47 27 68q28 22 73 22q31 0 56 -16v-49q-24 16 -56 16t-40 -9q-14 -15 -14 -28q0 -38 46 -51q16 -5 74 9v-49l-167 -38v49zM94 780h90v-760h-90v760z" />
    <glyph glyph-name="uniFE84" unicode="&#x623;" horiz-adv-x="305" arabic-form="final" 
d="M94 201v579h90v-573q0 -52 24 -76q21 -21 70 -21h36v-90h-63q-75 0 -114 45q-43 49 -43 136zM53 882l38 9q-22 9 -29 27q-8 18 -8 40q0 47 27 68q28 22 73 22q31 0 56 -16v-49q-24 16 -56 16t-40 -9q-14 -15 -14 -28q0 -38 46 -51q16 -5 74 9v-49l-167 -38v49z" />
    <glyph glyph-name="uniFE85" unicode="&#x624;" horiz-adv-x="483" arabic-form="isolated" 
d="M133 442l38 9q-21 10 -29 27q-8 19 -8 41q0 46 28 67q28 22 73 22q30 0 56 -16v-49q-25 17 -56 17q-32 0 -41 -9q-14 -16 -14 -29q0 -37 46 -50q16 -5 75 9v-50l-168 -37v48zM241 241q-31 0 -52 -28q-12 -16 -12 -34q0 -25 25 -48q23 -21 117 -21q0 90 -42 118
q-18 13 -36 13zM406 110q0 -151 -84 -229q-46 -43 -92 -63q-93 -42 -272 -42v90q176 0 241 37q82 46 113 118q-58 0 -80 5q-73 16 -93 33q-56 48 -56 115q0 69 43 111q51 50 118 50q43 0 78 -24q64 -44 76 -114q8 -50 8 -87z" />
    <glyph glyph-name="uniFE86" unicode="&#x624;" horiz-adv-x="517" arabic-form="final" 
d="M319 110q0 37 -8 65q-12 39 -34 53q-29 21 -59 8q-32 -14 -39 -42q-8 -36 23 -63q23 -19 117 -21zM406 110h120v-90h-94h-35q-12 -76 -75 -139q-40 -40 -92 -63q-93 -42 -272 -42v90q177 0 241 37q82 46 113 118q-58 2 -80 5q-68 12 -93 33q-52 44 -56 109q-1 16 3 43
q14 76 100 113q28 12 60 11q43 -1 76 -24q65 -45 76 -114q6 -41 8 -87zM133 442l38 9q-21 10 -29 27q-8 19 -8 41q0 46 28 67q28 22 73 22q30 0 56 -16v-49q-25 17 -56 17q-32 0 -41 -9q-14 -16 -14 -29q0 -37 46 -50q16 -5 75 9v-50l-168 -37v48z" />
    <glyph glyph-name="uniFE87" unicode="&#x625;" horiz-adv-x="278" arabic-form="isolated" 
d="M53 -175l38 8q-22 10 -29 28q-8 18 -8 40q0 47 27 68q28 22 73 22q31 0 56 -16v-49q-24 16 -56 16t-40 -9q-14 -16 -14 -28q0 -38 46 -51q16 -5 74 9v-50l-167 -37v49zM94 780h90v-760h-90v760z" />
    <glyph glyph-name="uniFE88" unicode="&#x625;" horiz-adv-x="305" arabic-form="final" 
d="M94 201v579h90v-573q0 -52 24 -76q21 -21 70 -21h36v-90h-63q-75 0 -114 45q-43 49 -43 136zM53 -175l38 8q-22 10 -29 28q-8 18 -8 40q0 47 27 68q28 22 73 22q31 0 56 -16v-49q-24 16 -56 16t-40 -9q-14 -16 -14 -28q0 -38 46 -51q16 -5 74 9v-50l-167 -37v49z" />
    <glyph glyph-name="uniFE89" unicode="&#x626;" horiz-adv-x="783" arabic-form="isolated" 
d="M158 442l38 9q-22 10 -29 27q-8 19 -8 41q0 46 27 67q28 22 73 22q31 0 56 -16v-49q-24 17 -56 17t-40 -9q-14 -16 -14 -29q0 -37 45 -50q17 -5 75 9v-50l-167 -37v48zM667 26q-50 -83 -217 -119q-87 -18 -145 -18q-63 0 -98 12q-144 51 -144 179q0 57 31 112h90
q-32 -64 -32 -112q1 -72 81 -94q48 -13 78 -10q61 5 124 17q86 16 127 55q29 28 29 54q0 36 -61 50q-32 7 -88 30q-33 13 -61 38q-31 28 -32 84q0 73 93 109q46 18 97 18t98 -20q69 -30 82 -115h-90q-6 30 -39 46q-19 10 -53 11q-38 1 -68 -18t-30 -35q0 -27 61 -48
q122 -40 149 -71q38 -42 39 -85q0 -34 -21 -70z" />
    <glyph glyph-name="uniFE8A" unicode="&#x626;" horiz-adv-x="833" arabic-form="final" 
d="M537 4q45 25 45 41q-1 21 -24 27q-14 4 -29 24q-21 28 -21 58q0 32 25 61q39 46 80 53q15 3 35 3q58 0 100 -65q63 -96 78 -96h17v-90h-17q-55 0 -110 84q-53 81 -66 81q-17 0 -25 -3q-21 -9 -21 -26q0 -23 31 -36q36 -15 37 -75q2 -48 -53 -90q-63 -47 -169 -62
q-44 -6 -95 -6q-91 0 -148 20q-144 50 -144 178q0 75 31 119h90q-32 -44 -32 -119q0 -55 81 -93q33 -15 120 -15q44 0 82 3q73 8 102 24zM207 320l38 9q-22 10 -30 27q-7 18 -7 40q0 47 27 68q28 22 73 22q30 0 56 -16v-49q-25 16 -56 16q-32 0 -40 -8q-15 -16 -15 -29
q0 -37 46 -50q16 -5 75 9v-50l-167 -38v49z" />
    <glyph glyph-name="uniFE8B" unicode="&#x626;" horiz-adv-x="278" arabic-form="initial" 
d="M146 62q-35 -42 -112 -42h-44v90h17q49 0 70 21q24 24 24 76v106h90v-106q0 -91 -45 -145zM60 467l38 9q-22 9 -30 27q-7 18 -7 40q0 47 27 68q28 22 73 22q30 0 56 -16v-49q-25 16 -56 16q-32 0 -40 -9q-15 -15 -15 -28q0 -38 46 -51q16 -5 75 9v-49l-167 -38v49z" />
    <glyph glyph-name="uniFE8C" unicode="&#x626;" horiz-adv-x="302" arabic-form="medial" 
d="M146 62q-38 -42 -112 -42h-44v90h17q49 0 70 21q24 24 24 76v106h90v-106q0 -52 24 -76q21 -21 70 -21h27v-90h-54q-73 0 -112 42zM60 467l38 9q-22 9 -30 27q-7 18 -7 40q0 47 27 68q28 22 73 22q30 0 56 -16v-49q-25 16 -56 16q-32 0 -40 -9q-15 -15 -15 -28
q0 -38 46 -51q16 -5 75 9v-49l-167 -38v49z" />
    <glyph glyph-name="uniFE8D" unicode="&#x627;" horiz-adv-x="278" arabic-form="isolated" 
d="M94 780h90v-760h-90v760z" />
    <glyph glyph-name="uniFE8E" unicode="&#x627;" horiz-adv-x="305" arabic-form="final" 
d="M94 201v579h90v-573q0 -52 24 -76q21 -21 70 -21h36v-90h-63q-75 0 -114 45q-43 49 -43 136z" />
    <glyph glyph-name="uniFE8F" unicode="&#x628;" horiz-adv-x="941" arabic-form="isolated" 
d="M403 -78h73v-73h-73v73zM857 347q8 -44 8 -78q0 -66 -37 -116q-63 -83 -218 -114q-139 -29 -229 -29q-93 0 -156 19q-162 47 -162 178q0 67 31 112h90q-32 -46 -32 -112q0 -61 99 -94q51 -16 125 -16q90 0 220 27q124 27 157 82q27 45 27 82q0 29 -12 59h89z" />
    <glyph glyph-name="uniFE90" unicode="&#x628;" horiz-adv-x="982" arabic-form="final" 
d="M867 266q0 -101 34 -130q31 -26 61 -26h30v-90h-50q-57 0 -91 36q-39 40 -51 72q-76 -64 -190 -89q-126 -29 -229 -29q-96 0 -156 19q-161 49 -162 178q0 67 31 112h90q-32 -46 -32 -112q0 -61 99 -94q51 -16 125 -16q127 1 220 27q97 29 157 82q29 25 29 84q0 30 -14 57
h89q10 -37 10 -81zM403 -78h73v-73h-73v73z" />
    <glyph glyph-name="uniFE91" unicode="&#x628;" horiz-adv-x="278" arabic-form="initial" 
d="M146 62q-35 -42 -112 -42h-44v90h17q49 0 70 21q24 24 24 76v106h90v-106q0 -91 -45 -145zM109 -53h74v-73h-74v73z" />
    <glyph glyph-name="uniFE92" unicode="&#x628;" horiz-adv-x="302" arabic-form="medial" 
d="M146 62q-38 -42 -112 -42h-44v90h17q49 0 70 21q24 24 24 76v106h90v-106q0 -52 24 -76q21 -21 70 -21h27v-90h-54q-73 0 -112 42zM109 -53h74v-73h-74v73z" />
    <glyph glyph-name="uniFE93" unicode="&#x629;" horiz-adv-x="524" arabic-form="isolated" 
d="M244 533h73v-74h-73v74zM122 533h73v-74h-73v74zM216 291q-32 0 -48 -43q-13 -34 -12 -94q0 -40 27 -61q28 -22 56 -22q44 0 90 28q36 23 36 64q0 38 -32 69q-60 59 -117 59zM199 378q96 0 185 -78q69 -60 69 -133q0 -97 -72 -134q-81 -41 -145 -41q-47 0 -87 17
q-81 36 -81 153q0 88 18 126q41 90 113 90z" />
    <glyph glyph-name="uniFE94" unicode="&#x629;" horiz-adv-x="536" arabic-form="final" 
d="M330 158q-7 20 -14 44q-6 25 -12 74q-58 -6 -98 -39q-55 -43 -54 -73q1 -20 45 -32.5t133 26.5zM297 346q-2 19 -3 40h90q0 -82 18 -167q10 -49 37 -88q16 -21 70 -21h37v-90h-64q-44 0 -79 25q-22 15 -41 44q-67 -36 -143 -36q-28 0 -56 8q-92 23 -92 98q0 85 99 147
q54 33 127 40zM293 533h73v-74h-73v74zM171 533h73v-74h-73v74z" />
    <glyph glyph-name="uniFE95" unicode="&#x62a;" horiz-adv-x="941" arabic-form="isolated" 
d="M464 411h73v-74h-73v74zM342 411h73v-74h-73v74zM857 347q8 -44 8 -78q0 -66 -37 -116q-63 -83 -218 -114q-139 -29 -229 -29q-93 0 -156 19q-162 47 -162 178q0 67 31 112h90q-32 -46 -32 -112q0 -61 99 -94q51 -16 125 -16q90 0 220 27q124 27 157 82q27 45 27 82
q0 29 -12 59h89z" />
    <glyph glyph-name="uniFE96" unicode="&#x62a;" horiz-adv-x="982" arabic-form="final" 
d="M867 266q0 -101 34 -130q31 -26 61 -26h30v-90h-50q-57 0 -91 36q-39 40 -51 72q-76 -64 -190 -89q-126 -29 -229 -29q-96 0 -156 19q-161 49 -162 178q0 67 31 112h90q-32 -46 -32 -112q0 -61 99 -94q51 -16 125 -16q127 1 220 27q97 29 157 82q29 25 29 84q0 30 -14 57
h89q10 -37 10 -81zM464 411h73v-74h-73v74zM342 411h73v-74h-73v74z" />
    <glyph glyph-name="uniFE97" unicode="&#x62a;" horiz-adv-x="278" arabic-form="initial" 
d="M146 62q-35 -42 -112 -42h-44v90h17q49 0 70 21q24 24 24 76v106h90v-106q0 -91 -45 -145zM170 508h74v-73h-74v73zM48 508h74v-73h-74v73z" />
    <glyph glyph-name="uniFE98" unicode="&#x62a;" horiz-adv-x="302" arabic-form="medial" 
d="M146 62q-38 -42 -112 -42h-44v90h17q49 0 70 21q24 24 24 76v106h90v-106q0 -52 24 -76q21 -21 70 -21h27v-90h-54q-73 0 -112 42zM170 508h74v-73h-74v73zM48 508h74v-73h-74v73z" />
    <glyph glyph-name="uniFE99" unicode="&#x62b;" horiz-adv-x="941" arabic-form="isolated" 
d="M403 533h73v-74h-73v74zM464 411h73v-74h-73v74zM342 411h73v-74h-73v74zM857 347q8 -44 8 -78q0 -66 -37 -116q-63 -83 -218 -114q-139 -29 -229 -29q-93 0 -156 19q-162 47 -162 178q0 67 31 112h90q-32 -46 -32 -112q0 -61 99 -94q51 -16 125 -16q90 0 220 27
q124 27 157 82q27 45 27 82q0 29 -12 59h89z" />
    <glyph glyph-name="uniFE9A" unicode="&#x62b;" horiz-adv-x="982" arabic-form="final" 
d="M867 266q0 -101 34 -130q31 -26 61 -26h30v-90h-50q-57 0 -91 36q-39 40 -51 72q-76 -64 -190 -89q-126 -29 -229 -29q-96 0 -156 19q-161 49 -162 178q0 67 31 112h90q-32 -46 -32 -112q0 -61 99 -94q51 -16 125 -16q127 1 220 27q97 29 157 82q29 25 29 84q0 30 -14 57
h89q10 -37 10 -81zM403 533h73v-74h-73v74zM464 411h73v-74h-73v74zM342 411h73v-74h-73v74z" />
    <glyph glyph-name="uniFE9B" unicode="&#x62b;" horiz-adv-x="278" arabic-form="initial" 
d="M146 62q-35 -42 -112 -42h-44v90h17q49 0 70 21q24 24 24 76v106h90v-106q0 -91 -45 -145zM109 630h74v-73h-74v73zM170 508h74v-73h-74v73zM48 508h74v-73h-74v73z" />
    <glyph glyph-name="uniFE9C" unicode="&#x62b;" horiz-adv-x="302" arabic-form="medial" 
d="M146 62q-38 -42 -112 -42h-44v90h17q49 0 70 21q24 24 24 76v106h90v-106q0 -52 24 -76q21 -21 70 -21h27v-90h-54q-73 0 -112 42zM109 630h74v-73h-74v73zM170 508h74v-73h-74v73zM48 508h74v-73h-74v73z" />
    <glyph glyph-name="uniFE9D" unicode="&#x62c;" horiz-adv-x="646" arabic-form="isolated" 
d="M378 105h74v-73h-74v73zM77 414q134 31 230 31q142 0 238 -27v-75q-144 0 -249 -81q-109 -85 -109 -213q0 -66 36 -112q62 -81 224 -81q94 0 198 58v-90q-74 -48 -196 -48q-204 0 -286 95q-64 73 -64 182q0 126 103 235q47 49 114 75q-49 0 -127 -10q-62 -7 -112 -29v90z
" />
    <glyph glyph-name="uniFE9E" unicode="&#x62c;" horiz-adv-x="646" arabic-form="final" 
d="M636 110h19v-90h-24q-63 0 -123 73q-40 49 -70 125q-2 8 -38 94q-56 -11 -104 -50q-109 -90 -109 -213q0 -67 36 -112q63 -81 224 -81q94 0 198 58v-90q-74 -48 -196 -48q-204 0 -286 95q-64 73 -64 182q0 126 103 235q47 49 114 75h-12q-47 0 -115 -10q-66 -9 -112 -29
v90q132 31 227 31q143 0 241 -27v-75q-53 0 -68 -6l14 -45q25 -78 60 -124q44 -58 85 -58zM342 69h73v-73h-73v73z" />
    <glyph glyph-name="uniFE9F" unicode="&#x62c;" horiz-adv-x="618" arabic-form="initial" 
d="M416 284q-41 11 -91 23q-42 9 -130 17q-40 3 -118 0v90q35 3 71 4q80 0 164 -17q125 -26 233 -73v-76q-37 -11 -80 -37q-81 -48 -117 -80q-71 -63 -108 -76q-108 -39 -187 -39h-63v90h49q111 0 174 35q51 28 107 80q46 42 96 59zM256 -53h74v-73h-74v73z" />
    <glyph glyph-name="uniFEA0" unicode="&#x62c;" horiz-adv-x="646" arabic-form="medial" 
d="M312 401q125 -26 233 -73v-76q-32 -9 -67 -29q24 -38 39 -55q50 -58 106 -58h32v-90h-42q-102 0 -163 82q-20 26 -49 74q-33 -23 -53 -41q-71 -63 -108 -76q-108 -39 -187 -39h-63v90h49q111 0 174 35q51 28 107 80q46 42 96 59q-41 11 -91 23q-42 9 -130 17
q-40 3 -118 0v90q35 3 71 4q80 0 164 -17zM256 -53h74v-73h-74v73z" />
    <glyph glyph-name="uniFEA1" unicode="&#x62d;" horiz-adv-x="646" arabic-form="isolated" 
d="M77 414q134 31 230 31q142 0 238 -27v-75q-144 0 -249 -81q-109 -85 -109 -213q0 -66 36 -112q62 -81 224 -81q94 0 198 58v-90q-74 -48 -196 -48q-204 0 -286 95q-64 73 -64 182q0 126 103 235q47 49 114 75q-49 0 -127 -10q-62 -7 -112 -29v90z" />
    <glyph glyph-name="uniFEA2" unicode="&#x62d;" horiz-adv-x="646" arabic-form="final" 
d="M636 110h19v-90h-24q-63 0 -123 73q-40 49 -70 125q-2 8 -38 94q-56 -11 -104 -50q-109 -90 -109 -213q0 -67 36 -112q63 -81 224 -81q94 0 198 58v-90q-74 -48 -196 -48q-204 0 -286 95q-64 73 -64 182q0 126 103 235q47 49 114 75h-12q-47 0 -115 -10q-66 -9 -112 -29
v90q132 31 227 31q143 0 241 -27v-75q-53 0 -68 -6l14 -45q25 -78 60 -124q44 -58 85 -58z" />
    <glyph glyph-name="uniFEA3" unicode="&#x62d;" horiz-adv-x="618" arabic-form="initial" 
d="M416 284q-41 11 -91 23q-42 9 -130 17q-40 3 -118 0v90q35 3 71 4q80 0 164 -17q125 -26 233 -73v-76q-37 -11 -80 -37q-81 -48 -117 -80q-71 -63 -108 -76q-108 -39 -187 -39h-63v90h49q111 0 174 35q51 28 107 80q46 42 96 59z" />
    <glyph glyph-name="uniFEA4" unicode="&#x62d;" horiz-adv-x="646" arabic-form="medial" 
d="M312 401q125 -26 233 -73v-76q-32 -9 -67 -29q24 -38 39 -55q50 -58 106 -58h32v-90h-42q-102 0 -163 82q-20 26 -49 74q-33 -23 -53 -41q-71 -63 -108 -76q-108 -39 -187 -39h-63v90h49q111 0 174 35q51 28 107 80q46 42 96 59q-41 11 -91 23q-42 9 -130 17
q-40 3 -118 0v90q35 3 71 4q80 0 164 -17z" />
    <glyph glyph-name="uniFEA5" unicode="&#x62e;" horiz-adv-x="646" arabic-form="isolated" 
d="M281 606h73v-73h-73v73zM77 414q134 31 230 31q142 0 238 -27v-75q-144 0 -249 -81q-109 -85 -109 -213q0 -66 36 -112q62 -81 224 -81q94 0 198 58v-90q-74 -48 -196 -48q-204 0 -286 95q-64 73 -64 182q0 126 103 235q47 49 114 75q-49 0 -127 -10q-62 -7 -112 -29v90z
" />
    <glyph glyph-name="uniFEA6" unicode="&#x62e;" horiz-adv-x="646" arabic-form="final" 
d="M636 110h19v-90h-24q-63 0 -123 73q-40 49 -70 125q-2 8 -38 94q-56 -11 -104 -50q-109 -90 -109 -213q0 -67 36 -112q63 -81 224 -81q94 0 198 58v-90q-74 -48 -196 -48q-204 0 -286 95q-64 73 -64 182q0 126 103 235q47 49 114 75h-12q-47 0 -115 -10q-66 -9 -112 -29
v90q132 31 227 31q143 0 241 -27v-75q-53 0 -68 -6l14 -45q25 -78 60 -124q44 -58 85 -58zM281 606h73v-73h-73v73z" />
    <glyph glyph-name="uniFEA7" unicode="&#x62e;" horiz-adv-x="618" arabic-form="initial" 
d="M416 284q-41 11 -91 23q-42 9 -130 17q-40 3 -118 0v90q35 3 71 4q80 0 164 -17q125 -26 233 -73v-76q-37 -11 -80 -37q-81 -48 -117 -80q-71 -63 -108 -76q-108 -39 -187 -39h-63v90h49q111 0 174 35q51 28 107 80q46 42 96 59zM256 557h74v-73h-74v73z" />
    <glyph glyph-name="uniFEA8" unicode="&#x62e;" horiz-adv-x="646" arabic-form="medial" 
d="M312 401q125 -26 233 -73v-76q-32 -9 -67 -29q24 -38 39 -55q50 -58 106 -58h32v-90h-42q-102 0 -163 82q-20 26 -49 74q-33 -23 -53 -41q-71 -63 -108 -76q-108 -39 -187 -39h-63v90h49q111 0 174 35q51 28 107 80q46 42 96 59q-41 11 -91 23q-42 9 -130 17
q-40 3 -118 0v90q35 3 71 4q80 0 164 -17zM256 557h74v-73h-74v73z" />
    <glyph glyph-name="uniFEA9" unicode="&#x62f;" horiz-adv-x="445" arabic-form="isolated" 
d="M191 94q84 24 101 78q4 14 4 34q0 38 -29 95q-33 63 -117 134h111q55 -44 87 -105q40 -74 40 -125q0 -49 -15 -85q-40 -95 -167 -115q-23 -4 -45 -4q-50 0 -100 19v90q56 -21 97 -21q16 0 33 5z" />
    <glyph glyph-name="uniFEAA" unicode="&#x62f;" horiz-adv-x="525" arabic-form="final" 
d="M267 301q-28 59 -117 134h111q47 -38 87 -105q40 -65 40 -123q0 -35 40 -76q22 -21 70 -21h37v-90h-64q-72 0 -119 63q-45 -62 -146 -78q-23 -4 -45 -4q-50 0 -100 19v90q56 -21 97 -21q16 0 33 5q84 24 101 78q4 14 4 34q0 33 -29 95z" />
    <glyph glyph-name="uniFEAB" unicode="&#x630;" horiz-adv-x="445" arabic-form="isolated" 
d="M159 606h73v-73h-73v73zM191 94q84 24 101 78q4 14 4 34q0 38 -29 95q-33 63 -117 134h111q55 -44 87 -105q40 -74 40 -125q0 -49 -15 -85q-40 -95 -167 -115q-23 -4 -45 -4q-50 0 -100 19v90q56 -21 97 -21q16 0 33 5z" />
    <glyph glyph-name="uniFEAC" unicode="&#x630;" horiz-adv-x="525" arabic-form="final" 
d="M267 301q-28 59 -117 134h111q47 -38 87 -105q40 -65 40 -123q0 -35 40 -76q22 -21 70 -21h37v-90h-64q-72 0 -119 63q-45 -62 -146 -78q-23 -4 -45 -4q-50 0 -100 19v90q56 -21 97 -21q16 0 33 5q84 24 101 78q4 14 4 34q0 33 -29 95zM159 606h73v-73h-73v73z" />
    <glyph glyph-name="uniFEAD" unicode="&#x631;" horiz-adv-x="483" arabic-form="isolated" 
d="M330 97q4 28 4 64q0 61 -25 128h89q25 -58 25 -123q0 -40 -4 -70q-23 -171 -165 -246q-138 -74 -296 -74v90q149 0 248 62q106 68 124 169z" />
    <glyph glyph-name="uniFEAE" unicode="&#x631;" horiz-adv-x="552" arabic-form="final" 
d="M309 289h89q15 -55 17 -70q4 -50 40 -88q21 -21 70 -21h37v-90h-64q-63 0 -88 30q-33 -135 -156 -200q-138 -74 -296 -74v90q149 0 248 62q106 68 124 169q4 28 4 64q0 61 -25 128z" />
    <glyph glyph-name="uniFEAF" unicode="&#x632;" horiz-adv-x="483" arabic-form="isolated" 
d="M305 484h73v-73h-73v73zM330 97q4 28 4 64q0 61 -25 128h89q25 -58 25 -123q0 -40 -4 -70q-23 -171 -165 -246q-138 -74 -296 -74v90q149 0 248 62q106 68 124 169z" />
    <glyph glyph-name="uniFEB0" unicode="&#x632;" horiz-adv-x="552" arabic-form="final" 
d="M309 289h89q15 -55 17 -70q4 -50 40 -88q21 -21 70 -21h37v-90h-64q-63 0 -88 30q-33 -135 -156 -200q-138 -74 -296 -74v90q149 0 248 62q106 68 124 169q4 28 4 64q0 61 -25 128zM305 484h73v-73h-73v73z" />
    <glyph glyph-name="uniFEB1" unicode="&#x633;" horiz-adv-x="1221" arabic-form="isolated" 
d="M623 41q-12 -87 -53 -139q-65 -83 -159 -113q-39 -13 -98 -13q-62 0 -115 14q-135 35 -135 195q0 120 52 208h90q-53 -101 -53 -208q1 -88 73 -106q46 -12 86 -12q47 0 94 18q59 24 105 101q31 53 31 122q-1 61 -9 91l-31 114h90l17 -76q8 -36 22 -66q29 -63 85 -63
q40 0 61 60q18 50 18 145h90q0 -100 10 -125q31 -82 85 -82q69 0 69 137v143h90v-167q0 -97 -45 -152q-37 -45 -87 -57q-18 -4 -33 -4q-36 0 -59 12q-68 34 -76 94q-24 -77 -70 -92q-25 -7 -59 -9q-64 -3 -86 30z" />
    <glyph glyph-name="uniFEB2" unicode="&#x633;" horiz-adv-x="1275" arabic-form="final" 
d="M715 108q38 -1 61 60q18 46 18 145h90q0 -100 10 -125q31 -82 85 -82q69 0 69 137v143h90v-167q0 -47 40 -88q22 -21 70 -21h37v-90h-64q-71 0 -128 47q-33 -45 -87 -57q-18 -4 -33 -4q-36 0 -59 12q-68 34 -76 94q-24 -77 -70 -92q-32 -10 -59 -9q-67 1 -86 30
q-12 -87 -53 -139q-65 -83 -159 -113q-39 -13 -98 -13q-62 0 -115 14q-135 35 -135 195q0 120 52 208h90q-53 -101 -53 -208q1 -88 73 -106q46 -12 86 -12q47 0 94 18q59 24 105 101q31 53 31 122q-1 61 -9 91l-31 114h90l17 -76q8 -36 22 -66q28 -61 85 -63z" />
    <glyph glyph-name="uniFEB3" unicode="&#x633;" arabic-form="initial" 
d="M187 87q-20 -28 -48 -45q-37 -22 -85 -22h-64v90h37q48 0 70 21q39 39 39 88v94h90v-76q0 -31 21 -80t72 -49q53 0 75 60q18 50 18 145h89q0 -100 10 -125q31 -83 85 -82q69 1 69 137v143h90v-167q0 -97 -45 -152q-37 -45 -86 -57q-19 -4 -36 -4q-30 0 -57 12
q-67 30 -76 94q-23 -76 -70 -92q-33 -12 -65 -12q-48 0 -83 24q-29 20 -50 55z" />
    <glyph glyph-name="uniFEB4" unicode="&#x633;" horiz-adv-x="892" arabic-form="medial" 
d="M624 10q-19 -4 -36 -4q-30 0 -57 12q-67 30 -76 94q-23 -76 -70 -92q-33 -12 -65 -12q-48 0 -83 24q-29 20 -50 55q-20 -28 -48 -45q-37 -22 -85 -22h-64v90h37q48 0 70 21q39 39 39 88v94h90v-76q0 -31 21 -80t72 -49q53 0 75 60q18 50 18 145h89q0 -100 10 -125
q31 -83 85 -82q69 1 69 137v143h90v-167q0 -47 40 -88q22 -21 70 -21h37v-90h-64q-70 0 -128 47q-33 -44 -86 -57z" />
    <glyph glyph-name="uniFEB5" unicode="&#x634;" horiz-adv-x="1221" arabic-form="isolated" 
d="M671 606h74v-73h-74v73zM732 484h74v-73h-74v73zM610 484h74v-73h-74v73zM623 41q-12 -87 -53 -139q-65 -83 -159 -113q-39 -13 -98 -13q-62 0 -115 14q-135 35 -135 195q0 120 52 208h90q-53 -101 -53 -208q1 -88 73 -106q46 -12 86 -12q47 0 94 18q59 24 105 101
q31 53 31 122q-1 61 -9 91l-31 114h90l17 -76q8 -36 22 -66q29 -63 85 -63q40 0 61 60q18 50 18 145h90q0 -100 10 -125q31 -82 85 -82q69 0 69 137v143h90v-167q0 -97 -45 -152q-37 -45 -87 -57q-18 -4 -33 -4q-36 0 -59 12q-68 34 -76 94q-24 -77 -70 -92q-25 -7 -59 -9
q-64 -3 -86 30z" />
    <glyph glyph-name="uniFEB6" unicode="&#x634;" horiz-adv-x="1275" arabic-form="final" 
d="M715 108q38 -1 61 60q18 46 18 145h90q0 -100 10 -125q31 -82 85 -82q69 0 69 137v143h90v-167q0 -47 40 -88q22 -21 70 -21h37v-90h-64q-71 0 -128 47q-33 -45 -87 -57q-18 -4 -33 -4q-36 0 -59 12q-68 34 -76 94q-24 -77 -70 -92q-32 -10 -59 -9q-67 1 -86 30
q-12 -87 -53 -139q-65 -83 -159 -113q-39 -13 -98 -13q-62 0 -115 14q-135 35 -135 195q0 120 52 208h90q-53 -101 -53 -208q1 -88 73 -106q46 -12 86 -12q47 0 94 18q59 24 105 101q31 53 31 122q-1 61 -9 91l-31 114h90l17 -76q8 -36 22 -66q28 -61 85 -63zM671 606h74
v-73h-74v73zM732 484h74v-73h-74v73zM610 484h74v-73h-74v73z" />
    <glyph glyph-name="uniFEB7" unicode="&#x634;" arabic-form="initial" 
d="M187 87q-20 -28 -48 -45q-37 -22 -85 -22h-64v90h37q48 0 70 21q39 39 39 88v94h90v-76q0 -31 21 -80t72 -49q53 0 75 60q18 50 18 145h89q0 -100 10 -125q31 -83 85 -82q69 1 69 137v143h90v-167q0 -97 -45 -152q-37 -45 -86 -57q-19 -4 -36 -4q-30 0 -57 12
q-67 30 -76 94q-23 -76 -70 -92q-33 -12 -65 -12q-48 0 -83 24q-29 20 -50 55zM378 606h74v-73h-74v73zM439 484h74v-73h-74v73zM317 484h74v-73h-74v73z" />
    <glyph glyph-name="uniFEB8" unicode="&#x634;" horiz-adv-x="892" arabic-form="medial" 
d="M624 10q-19 -4 -36 -4q-30 0 -57 12q-67 30 -76 94q-23 -76 -70 -92q-33 -12 -65 -12q-48 0 -83 24q-29 20 -50 55q-20 -28 -48 -45q-37 -22 -85 -22h-64v90h37q48 0 70 21q39 39 39 88v94h90v-76q0 -31 21 -80t72 -49q53 0 75 60q18 50 18 145h89q0 -100 10 -125
q31 -83 85 -82q69 1 69 137v143h90v-167q0 -47 40 -88q22 -21 70 -21h37v-90h-64q-70 0 -128 47q-33 -44 -86 -57zM378 606h74v-73h-74v73zM439 484h74v-73h-74v73zM317 484h74v-73h-74v73z" />
    <glyph glyph-name="uniFEB9" unicode="&#x635;" horiz-adv-x="1209" arabic-form="isolated" 
d="M570 -98q-43 -76 -159 -113q-39 -13 -98 -13q-62 0 -115 14q-135 35 -135 195q0 120 52 208h90q-53 -101 -53 -208q1 -88 73 -106q46 -12 86 -12q49 0 94 18q79 33 100 101q16 53 16 115q0 71 -19 139h83q0 -8 7 -34q5 -20 24 -44q56 71 116 124q62 53 125 80
q39 16 78 16q61 -1 108 -19q91 -35 91 -149q0 -82 -90 -135q-98 -59 -237 -59h-135q-18 0 -44 15q-22 12 -22 20q0 -91 -36 -153zM935 297q-37 0 -99 -40q-82 -52 -152 -147h91q116 0 179 31q91 44 90 78q-1 66 -67 75q-19 3 -42 3z" />
    <glyph glyph-name="uniFEBA" unicode="&#x635;" horiz-adv-x="1225" arabic-form="final" 
d="M807 20h-135q-18 0 -44 15q-22 12 -22 20q0 -91 -36 -153q-43 -76 -159 -113q-39 -13 -98 -13q-62 0 -115 14q-135 35 -135 195q0 120 52 208h90q-53 -101 -53 -208q1 -88 73 -106q46 -12 86 -12q49 0 94 18q79 33 100 101q16 53 16 115q0 71 -19 139h83q0 -8 7 -34
q5 -20 24 -44q56 71 116 124q53 46 125 80q35 16 78 16q61 -1 108 -19q91 -35 91 -149q0 -37 -20 -71l14 -12q30 -21 70 -21h37v-90h-64q-64 0 -114 45l-14 13q-99 -58 -236 -58zM935 297q-37 0 -99 -40q-82 -52 -152 -147h91q116 0 179 31q91 44 90 78q-1 66 -67 75
q-19 3 -42 3z" />
    <glyph glyph-name="uniFEBB" unicode="&#x635;" horiz-adv-x="849" arabic-form="initial" 
d="M477 257q-82 -52 -153 -147h91q116 0 179 31q91 44 91 78q0 66 -68 75q-18 3 -42 3q-37 0 -98 -40zM447 20h-135q-36 0 -74 21q-31 17 -51 46q-49 -67 -133 -67h-64v90h37q48 0 70 21q39 39 39 88v56h90v-38q0 -12 4 -31.5t26 -43.5q50 65 96 106q75 67 145 98
q37 16 78 16q56 0 109 -19q90 -33 90 -149q0 -82 -89 -135q-99 -59 -238 -59z" />
    <glyph glyph-name="uniFEBC" unicode="&#x635;" horiz-adv-x="867" arabic-form="medial" 
d="M449 20h-137q-36 0 -74 21q-31 17 -51 46q-49 -67 -133 -67h-64v90h37q48 0 70 21q39 39 39 88v56h90v-38q0 -12 4 -31.5t26 -43.5q50 65 96 106q75 67 145 98q37 16 78 16q55 0 109 -19q92 -33 92 -149q0 -36 -20 -71q7 -6 15 -12q29 -21 69 -21h37v-90h-64
q-63 0 -114 45l-13 13q-100 -58 -237 -58zM477 257q-82 -52 -153 -147h91q116 0 179 31q91 44 91 78q0 66 -68 75q-18 3 -42 3q-37 0 -98 -40z" />
    <glyph glyph-name="uniFEBD" unicode="&#x636;" horiz-adv-x="1209" arabic-form="isolated" 
d="M623 484h73v-73h-73v73zM570 -98q-43 -76 -159 -113q-39 -13 -98 -13q-62 0 -115 14q-135 35 -135 195q0 120 52 208h90q-53 -101 -53 -208q1 -88 73 -106q46 -12 86 -12q49 0 94 18q79 33 100 101q16 53 16 115q0 71 -19 139h83q0 -8 7 -34q5 -20 24 -44q56 71 116 124
q62 53 125 80q39 16 78 16q61 -1 108 -19q91 -35 91 -149q0 -82 -90 -135q-98 -59 -237 -59h-135q-18 0 -44 15q-22 12 -22 20q0 -91 -36 -153zM935 297q-37 0 -99 -40q-82 -52 -152 -147h91q116 0 179 31q91 44 90 78q-1 66 -67 75q-19 3 -42 3z" />
    <glyph glyph-name="uniFEBE" unicode="&#x636;" horiz-adv-x="1225" arabic-form="final" 
d="M807 20h-135q-18 0 -44 15q-22 12 -22 20q0 -91 -36 -153q-43 -76 -159 -113q-39 -13 -98 -13q-62 0 -115 14q-135 35 -135 195q0 120 52 208h90q-53 -101 -53 -208q1 -88 73 -106q46 -12 86 -12q49 0 94 18q79 33 100 101q16 53 16 115q0 71 -19 139h83q0 -8 7 -34
q5 -20 24 -44q56 71 116 124q53 46 125 80q35 16 78 16q61 -1 108 -19q91 -35 91 -149q0 -37 -20 -71l14 -12q30 -21 70 -21h37v-90h-64q-64 0 -114 45l-14 13q-99 -58 -236 -58zM935 297q-37 0 -99 -40q-82 -52 -152 -147h91q116 0 179 31q91 44 90 78q-1 66 -67 75
q-19 3 -42 3zM623 484h73v-73h-73v73z" />
    <glyph glyph-name="uniFEBF" unicode="&#x636;" horiz-adv-x="849" arabic-form="initial" 
d="M477 257q-82 -52 -153 -147h91q116 0 179 31q91 44 91 78q0 66 -68 75q-18 3 -42 3q-37 0 -98 -40zM447 20h-135q-36 0 -74 21q-31 17 -51 46q-49 -67 -133 -67h-64v90h37q48 0 70 21q39 39 39 88v56h90v-38q0 -12 4 -31.5t26 -43.5q50 65 96 106q75 67 145 98
q37 16 78 16q56 0 109 -19q90 -33 90 -149q0 -82 -89 -135q-99 -59 -238 -59zM232 484h73v-73h-73v73z" />
    <glyph glyph-name="uniFEC0" unicode="&#x636;" horiz-adv-x="867" arabic-form="medial" 
d="M449 20h-137q-36 0 -74 21q-31 17 -51 46q-49 -67 -133 -67h-64v90h37q48 0 70 21q39 39 39 88v56h90v-38q0 -12 4 -31.5t26 -43.5q50 65 96 106q75 67 145 98q37 16 78 16q55 0 109 -19q92 -33 92 -149q0 -36 -20 -71q7 -6 15 -12q29 -21 69 -21h37v-90h-64
q-63 0 -114 45l-13 13q-100 -58 -237 -58zM477 257q-82 -52 -153 -147h91q116 0 179 31q91 44 91 78q0 66 -68 75q-18 3 -42 3q-37 0 -98 -40zM232 484h73v-73h-73v73z" />
    <glyph glyph-name="uniFEC1" unicode="&#x637;" horiz-adv-x="925" arabic-form="isolated" 
d="M407 110h91q116 0 179 31q91 45 91 78q-1 66 -68 75q-18 3 -42 3q-39 0 -98 -40q-87 -58 -153 -147zM530 20h-280h-180v90h180v670h89v-618q106 155 241 204q45 16 78 16q59 0 109 -19q90 -34 90 -149q0 -82 -89 -135q-99 -59 -238 -59z" />
    <glyph glyph-name="uniFEC2" unicode="&#x637;" horiz-adv-x="949" arabic-form="final" 
d="M531 20h-281h-180v90h180v670h89v-618q106 155 241 204q45 16 78 16q57 0 109 -19q91 -34 91 -149q0 -37 -20 -71q7 -6 15 -12q29 -21 69 -21h37v-90h-63q-64 0 -115 45l-13 13q-100 -58 -237 -58zM407 110h91q116 0 179 31q91 45 91 78q-1 66 -68 75q-18 3 -42 3
q-39 0 -98 -40q-87 -58 -153 -147z" />
    <glyph glyph-name="uniFEC3" unicode="&#x637;" horiz-adv-x="796" arabic-form="initial" 
d="M278 110h91q116 0 179 31q91 45 91 78q-1 66 -68 75q-18 3 -42 3q-39 0 -98 -40q-87 -58 -153 -147zM401 20h-280h-131v90h131v670h89v-618q106 155 241 204q45 16 78 16q57 0 109 -19q91 -34 91 -149q0 -82 -90 -135q-99 -59 -238 -59z" />
    <glyph glyph-name="uniFEC4" unicode="&#x637;" horiz-adv-x="820" arabic-form="medial" 
d="M402 20h-281h-131v90h131v670h89v-618q106 155 241 204q45 16 78 16q57 0 109 -19q91 -34 91 -149q0 -37 -20 -71q7 -6 15 -12q29 -21 69 -21h37v-90h-63q-64 0 -115 45l-13 13q-100 -58 -237 -58zM278 110h91q116 0 179 31q91 45 91 78q-1 66 -68 75q-18 3 -42 3
q-39 0 -98 -40q-87 -58 -153 -147z" />
    <glyph glyph-name="uniFEC5" unicode="&#x638;" horiz-adv-x="925" arabic-form="isolated" 
d="M476 508h73v-73h-73v73zM407 110h91q116 0 179 31q91 45 91 78q-1 66 -68 75q-18 3 -42 3q-39 0 -98 -40q-87 -58 -153 -147zM530 20h-280h-180v90h180v670h89v-618q106 155 241 204q45 16 78 16q59 0 109 -19q90 -34 90 -149q0 -82 -89 -135q-99 -59 -238 -59z" />
    <glyph glyph-name="uniFEC6" unicode="&#x638;" horiz-adv-x="949" arabic-form="final" 
d="M531 20h-281h-180v90h180v670h89v-618q106 155 241 204q45 16 78 16q57 0 109 -19q91 -34 91 -149q0 -37 -20 -71q7 -6 15 -12q29 -21 69 -21h37v-90h-63q-64 0 -115 45l-13 13q-100 -58 -237 -58zM407 110h91q116 0 179 31q91 45 91 78q-1 66 -68 75q-18 3 -42 3
q-39 0 -98 -40q-87 -58 -153 -147zM476 508h73v-73h-73v73z" />
    <glyph glyph-name="uniFEC7" unicode="&#x638;" horiz-adv-x="796" arabic-form="initial" 
d="M278 110h91q116 0 179 31q91 45 91 78q-1 66 -68 75q-18 3 -42 3q-39 0 -98 -40q-87 -58 -153 -147zM401 20h-280h-131v90h131v670h89v-618q106 155 241 204q45 16 78 16q57 0 109 -19q91 -34 91 -149q0 -82 -90 -135q-99 -59 -238 -59zM347 508h73v-73h-73v73z" />
    <glyph glyph-name="uniFEC8" unicode="&#x638;" horiz-adv-x="820" arabic-form="medial" 
d="M402 20h-281h-131v90h131v670h89v-618q106 155 241 204q45 16 78 16q57 0 109 -19q91 -34 91 -149q0 -37 -20 -71q7 -6 15 -12q29 -21 69 -21h37v-90h-63q-64 0 -115 45l-13 13q-100 -58 -237 -58zM278 110h91q116 0 179 31q91 45 91 78q-1 66 -68 75q-18 3 -42 3
q-39 0 -98 -40q-87 -58 -153 -147zM347 508h73v-73h-73v73z" />
    <glyph glyph-name="uniFEC9" unicode="&#x639;" horiz-adv-x="597" arabic-form="isolated" 
d="M166 -66q58 -78 223 -78q94 0 198 58v-90q-73 -48 -195 -48q-206 0 -287 92q-48 54 -48 152q0 86 43 136q55 64 92 76q-25 2 -47 17q-43 27 -43 90q0 102 99 164q61 38 184 38v-83q-95 0 -152 -32q-46 -25 -46 -76q0 -37 24 -49q22 -11 44 -11q20 0 40 8q77 34 201 48
v-90q-133 -12 -248 -85q-102 -64 -102 -154q0 -58 20 -83z" />
    <glyph glyph-name="uniFECA" unicode="&#x639;" horiz-adv-x="532" arabic-form="final" 
d="M587 -176q-74 -48 -200 -48q-205 0 -282 92q-48 59 -48 157.5t91 166.5q-29 24 -46 52.5t-17 48.5q0 54 61 85q48 24 106 24t104 -24q62 -31 62 -86q0 -44 -44 -77q-28 -21 -74 -36q33 -32 77.5 -50.5t86.5 -18.5h78v-90h-70q-130 0 -251 111q-75 -63 -75 -115
q0 -53 20 -82q52 -78 223 -78q94 0 198 58v-90zM236 237q66 28 66 51.5t-50 23.5t-50 -25q0 -18 34 -50z" />
    <glyph glyph-name="uniFECB" unicode="&#x639;" horiz-adv-x="597" arabic-form="initial" 
d="M29 110q79 0 178 45q-37 12 -62 41q-43 49 -43 117q0 129 99 190q61 38 184 38v-83q-107 0 -152.5 -33.5t-45.5 -95.5t31 -88q40 -34 74 -34q27 0 63 16l141 63v-90l-205 -96q-171 -80 -258 -80h-43v90h39z" />
    <glyph glyph-name="uniFECC" unicode="&#x639;" horiz-adv-x="482" arabic-form="medial" 
d="M241 110q-95 -90 -193 -90h-58v90h47q52 0 85 19q28 18 48 37q-47 41 -81 85q-14 19 -14 41q0 16 6 36q8 26 59 52q43 22 101 22t102 -22q51 -26 58 -52q7 -20 7 -36q0 -22 -15 -41q-38 -47 -81 -85q16 -15 49 -37q30 -19 84 -19h47v-90h-57q-99 0 -194 90zM214 308
q-23 -6 -23 -21t50 -61q51 46 51 61t-23 21q-15 4 -27.5 4t-27.5 -4z" />
    <glyph glyph-name="uniFECD" unicode="&#x63a;" horiz-adv-x="597" arabic-form="isolated" 
d="M183 679h73v-73h-73v73zM166 -66q58 -78 223 -78q94 0 198 58v-90q-73 -48 -195 -48q-206 0 -287 92q-48 54 -48 152q0 86 43 136q55 64 92 76q-25 2 -47 17q-43 27 -43 90q0 102 99 164q61 38 184 38v-83q-95 0 -152 -32q-46 -25 -46 -76q0 -37 24 -49q22 -11 44 -11
q20 0 40 8q77 34 201 48v-90q-133 -12 -248 -85q-102 -64 -102 -154q0 -58 20 -83z" />
    <glyph glyph-name="uniFECE" unicode="&#x63a;" horiz-adv-x="532" arabic-form="final" 
d="M587 -176q-74 -48 -200 -48q-205 0 -282 92q-48 59 -48 157.5t91 166.5q-29 24 -46 52.5t-17 48.5q0 54 61 85q48 24 106 24t104 -24q62 -31 62 -86q0 -44 -44 -77q-28 -21 -74 -36q33 -32 77.5 -50.5t86.5 -18.5h78v-90h-70q-130 0 -251 111q-75 -63 -75 -115
q0 -53 20 -82q52 -78 223 -78q94 0 198 58v-90zM236 237q66 28 66 51.5t-50 23.5t-50 -25q0 -18 34 -50zM208 557h73v-73h-73v73z" />
    <glyph glyph-name="uniFECF" unicode="&#x63a;" horiz-adv-x="523" arabic-form="initial" 
d="M29 110q79 0 178 45q-37 12 -62 41q-43 49 -43 117q0 129 99 190q61 38 184 38v-83q-107 0 -152.5 -33.5t-45.5 -95.5t31 -88q40 -34 74 -34q27 0 63 16l141 63v-90l-205 -96q-171 -80 -258 -80h-43v90h39zM183 679h73v-73h-73v73z" />
    <glyph glyph-name="uniFED0" unicode="&#x63a;" horiz-adv-x="482" arabic-form="medial" 
d="M241 110q-95 -90 -193 -90h-58v90h47q52 0 85 19q28 18 48 37q-47 41 -81 85q-14 19 -14 41q0 16 6 36q8 26 59 52q43 22 101 22t102 -22q51 -26 58 -52q7 -20 7 -36q0 -22 -15 -41q-38 -47 -81 -85q16 -15 49 -37q30 -19 84 -19h47v-90h-57q-99 0 -194 90zM214 308
q-23 -6 -23 -21t50 -61q51 46 51 61t-23 21q-15 4 -27.5 4t-27.5 -4zM205 557h73v-73h-73v73z" />
    <glyph glyph-name="uniFED1" unicode="&#x641;" horiz-adv-x="1037" arabic-form="isolated" 
d="M745 655h73v-73h-73v73zM838 282q20 21 20 59q0 29 -32 54q-15 12 -36 11q-26 0 -45 -21q-20 -20 -20 -45q0 -39 26 -57q20 -13 41 -13q35 0 46 12zM914 127q-54 -88 -208 -122q-134 -30 -274 -30q-144 0 -207 20q-161 49 -162 178q0 68 31 113h90q-32 -46 -32 -113
q0 -56 99 -93q44 -17 181 -17q157 0 259 28q105 29 154 81q17 19 27 57q-31 -37 -91 -37q-65 0 -101 33q-48 43 -48 106q0 25 4 46q11 73 84 106q38 18 75 18q44 0 77 -24q46 -36 69 -85q12 -27 11 -94q-1 -110 -38 -171z" />
    <glyph glyph-name="uniFED2" unicode="&#x641;" horiz-adv-x="1035" arabic-form="final" 
d="M809 38q-51 -21 -105 -33q-137 -29 -269 -29q-149 0 -210 19q-161 50 -162 178q0 68 31 113h90q-32 -46 -32 -113q0 -56 99 -93q40 -16 186 -16q113 0 252 27l14 2q-16 13 -31 34q-40 61 -40 120q0 15 2 33q11 75 103 112q28 11 54 11q40 0 79 -24q67 -41 76 -114
q2 -18 2 -33q0 -70 -39 -122h8h128v-90h-131q-51 0 -105 18zM809 129q50 32 50 91q0 10 -2 23q-7 35 -32 54q-17 12 -36 12q-12 0 -23 -5q-30 -12 -39 -41q-3 -10 -3 -18q0 -28 20 -60q24 -38 65 -56zM745 557h73v-73h-73v73z" />
    <glyph glyph-name="uniFED3" unicode="&#x641;" horiz-adv-x="478" arabic-form="initial" 
d="M292 282q20 21 20 59q0 29 -32 54q-15 12 -37 11q-25 0 -45 -21q-19 -20 -20 -45q0 -39 27 -57q20 -13 40 -13q35 0 47 12zM-10 110h118q41 0 115 11q38 6 68 51q15 24 22 48q-31 -27 -78 -28q-64 -1 -102 33q-48 43 -48 106q0 25 4 46q12 73 85 106q38 18 75 18
q44 0 76 -24q47 -36 70 -85q11 -25 11 -94q0 -101 -38 -171q-36 -66 -97 -88q-53 -19 -124 -19h-157v90zM208 655h73v-73h-73v73z" />
    <glyph glyph-name="uniFED4" unicode="&#x641;" horiz-adv-x="506" arabic-form="medial" 
d="M300 392q89 -39 101 -112q4 -25 4 -45q0 -36 -10 -60q-15 -32 -32 -57q19 -8 91 -8h62v-90h-106q-67 0 -157 28q-90 -28 -157 -28h-106v90h62q72 0 91 8q-14 20 -32 57q-10 23 -10 60q0 21 4 45q11 70 102 112q14 7 46 7q31 0 47 -7zM253 309q-7 0 -16 -5
q-28 -15 -39 -41q-5 -11 -5 -25q0 -21 12 -47q15 -33 48 -44q31 11 48 44q12 25 12 47q0 12 -5 25q-11 25 -39 41q-9 5 -16 5zM216 582h74v-74h-74v74z" />
    <glyph glyph-name="uniFED5" unicode="&#x642;" horiz-adv-x="776" arabic-form="isolated" 
d="M537 655h73v-73h-73v73zM415 655h73v-73h-73v73zM582 282q20 21 20 59q0 29 -32 54q-15 12 -37 11q-25 0 -45 -21q-19 -20 -20 -45q0 -39 27 -57q20 -13 40 -13q35 0 47 12zM258 -102q117 0 196 57q161 114 161 274q-31 -37 -90 -37q-65 0 -102 33q-48 43 -48 106
q0 25 4 46q12 73 85 106q38 18 75 18q48 0 76 -24q51 -44 70 -103q16 -49 16 -127q0 -100 -30 -168q-45 -104 -163 -197q-101 -77 -250 -77q-103 1 -168 94q-38 54 -38 139q0 87 40 193h90q-42 -90 -43 -166q-1 -29 5 -55q26 -112 114 -112z" />
    <glyph glyph-name="uniFED6" unicode="&#x642;" horiz-adv-x="834" arabic-form="final" 
d="M590 25q-32 2 -55 9q-59 17 -87 38q-72 53 -72 143q0 30 3 43q20 80 92 114q20 9 62 9q55 0 82 -24q49 -43 73 -114q10 -28 13 -133h14h129v-90h-131h-24q-22 -60 -51 -94q-63 -71 -140 -109q-85 -42 -186 -41q-180 1 -226 94q-34 67 -34 128q0 81 31 128h89
q-30 -52 -30 -128q0 -37 13 -65q30 -64 157 -64q69 0 142 33q104 48 136 123zM611 119q2 60 -9 102q-9 37 -32 54q-17 12 -36 12q-16 0 -27 -5q-25 -13 -35 -41q-5 -15 -5 -27q0 -29 28 -51q37 -29 86 -39q23 -4 30 -5zM562 520h73v-73h-73v73zM439 520h74v-73h-74v73z" />
    <glyph glyph-name="uniFED7" unicode="&#x642;" horiz-adv-x="478" arabic-form="initial" 
d="M292 282q20 21 20 59q0 29 -32 54q-15 12 -37 11q-25 0 -45 -21q-19 -20 -20 -45q0 -39 27 -57q20 -13 40 -13q35 0 47 12zM-10 110h118q41 0 115 11q38 6 68 51q15 24 22 48q-31 -27 -78 -28q-64 -1 -102 33q-48 43 -48 106q0 25 4 46q12 73 85 106q38 18 75 18
q44 0 76 -24q47 -36 70 -85q11 -25 11 -94q0 -101 -38 -171q-36 -66 -97 -88q-53 -19 -124 -19h-157v90zM269 655h73v-73h-73v73zM146 655h74v-73h-74v73z" />
    <glyph glyph-name="uniFED8" unicode="&#x642;" horiz-adv-x="506" arabic-form="medial" 
d="M300 392q89 -39 101 -112q4 -25 4 -45q0 -36 -10 -60q-15 -32 -32 -57q19 -8 91 -8h62v-90h-106q-67 0 -157 28q-90 -28 -157 -28h-106v90h62q72 0 91 8q-14 20 -32 57q-10 23 -10 60q0 21 4 45q11 70 102 112q14 7 46 7q31 0 47 -7zM253 309q-7 0 -16 -5
q-28 -15 -39 -41q-5 -11 -5 -25q0 -21 12 -47q15 -33 48 -44q31 11 48 44q12 25 12 47q0 12 -5 25q-11 25 -39 41q-9 5 -16 5zM274 582h74v-74h-74v74zM152 582h74v-74h-74v74z" />
    <glyph glyph-name="uniFED9" unicode="&#x643;" horiz-adv-x="824" arabic-form="isolated" 
d="M477 574v-40q-37 -2 -55 -9q-39 -14 -39 -30q0 -14 7 -23q6 -8 39 -13q50 -7 50 -50q0 -54 -43 -74q-40 -19 -79 -19q-32 0 -59 5v43q33 -5 55 -5q29 0 57 13q29 13 29 27q0 19 -38 27q-36 8 -45 22q-15 23 -15 45q1 40 38 58q41 21 98 23zM595 157q37 36 37 161v462h90
v-462q0 -159 -54 -219q-72 -82 -180 -97q-67 -9 -124 -9q-101 1 -151 16q-143 43 -143 138q0 37 8 62h90q-7 -28 -7 -49q1 -45 79 -68q59 -17 121 -17q69 0 112 13q74 23 122 69z" />
    <glyph glyph-name="uniFEDA" unicode="&#x643;" horiz-adv-x="843" arabic-form="final" 
d="M477 574v-40q-37 -2 -55 -9q-39 -14 -39 -30q0 -14 7 -23q6 -8 39 -13q50 -7 50 -50q0 -54 -43 -74q-40 -19 -79 -19q-32 0 -59 5v43q33 -5 55 -5q29 0 57 13q29 13 29 27q0 19 -38 27q-36 8 -45 22q-15 23 -15 45q1 40 38 58q41 21 98 23zM488 2q-53 -10 -124 -9
q-101 1 -151 16q-143 43 -143 138q0 37 8 62h90q-7 -28 -7 -49q1 -45 79 -68q59 -17 121 -17q69 0 112 13q74 23 122 69q37 36 37 161v462h90v-573q0 -52 24 -76q22 -21 70 -21h37v-90h-64q-75 0 -130 60q-77 -61 -171 -78z" />
    <glyph glyph-name="uniFEDB" unicode="&#x643;" horiz-adv-x="476" arabic-form="initial" 
d="M151 20h-161v90h152q72 0 94 51q8 17 8 35q0 33 -27 66l-151 185q-24 30 -24 70q0 17 4 33q16 57 66 78l364 152v-91l-290 -122q-35 -15 -45 -34q-3 -6 -3 -18q0 -16 15 -34l134 -161q50 -60 50 -120q0 -55 -30 -104q-47 -76 -156 -76z" />
    <glyph glyph-name="uniFEDC" unicode="&#x643;" horiz-adv-x="552" arabic-form="medial" 
d="M151 20h-161v90h152q72 0 94 51q8 17 8 35q0 33 -27 66l-151 185q-24 30 -24 70q0 17 4 33q16 57 66 78l364 152v-91l-290 -122q-35 -15 -45 -34q-3 -6 -3 -18q0 -16 15 -34l284 -344q11 -13 30 -19q21 -8 52 -8h43v-90h-64q-32 0 -61 12q-50 21 -66 41l-47 58
q-11 -22 -19 -35q-46 -76 -154 -76z" />
    <glyph glyph-name="uniFEDD" unicode="&#x644;" horiz-adv-x="727" arabic-form="isolated" 
d="M509 56q38 61 38 172v552h90v-552q0 -155 -48 -225q-59 -87 -187 -119q-65 -16 -107 -16q-46 0 -82 10q-142 45 -143 179q0 67 31 112h90q-32 -56 -32 -112q0 -64 81 -94q20 -8 55 -8q39 0 93 17q85 26 121 84z" />
    <glyph glyph-name="uniFEDE" unicode="&#x644;" horiz-adv-x="757" arabic-form="final" 
d="M509 56q38 61 38 172v552h90v-573q0 -52 24 -76q21 -21 69 -21h37v-90h-63q-55 0 -93 25q-9 -23 -22 -42q-59 -87 -187 -119q-65 -16 -107 -16q-48 0 -82 10q-142 45 -143 179q0 67 31 112h90q-32 -56 -32 -112q0 -62 81 -94q20 -8 55 -8q39 0 93 17q85 26 121 84z" />
    <glyph glyph-name="uniFEDF" unicode="&#x644;" horiz-adv-x="305" arabic-form="initial" 
d="M210 201q0 -87 -42 -136q-39 -45 -114 -45h-64v90h37q48 0 70 21q24 24 24 76v573h89v-579z" />
    <glyph glyph-name="uniFEE0" unicode="&#x644;" horiz-adv-x="331" arabic-form="medial" 
d="M166 62q-38 -42 -112 -42h-64v90h37q48 0 70 21q24 24 24 76v573h89v-573q0 -52 24 -76q22 -21 70 -21h37v-90h-64q-73 0 -111 42z" />
    <glyph glyph-name="uniFEE1" unicode="&#x645;" horiz-adv-x="619" arabic-form="isolated" 
d="M298 164q59 -20 97 -20q21 0 31 10q26 28 26 56q0 12 -3 22q-10 43 -39 51q-19 6 -42 6q-29 0 -42 -13q-33 -33 -33 -67q0 -19 5 -45zM239 96q-24 13 -61 -25q-12 -12 -12 -51v-240h-98v240q0 84 59 134q32 27 76 27q-1 21 -1 40q0 72 79 137q37 31 82 31q38 0 76 -18
q89 -40 103 -122q4 -22 4 -49q0 -72 -48 -103q-59 -39 -102 -39q-86 -1 -157 38z" />
    <glyph glyph-name="uniFEE2" unicode="&#x645;" horiz-adv-x="666" arabic-form="final" 
d="M298 102q59 -20 97 -20q21 0 31 10q26 28 26 56q0 12 -3 22q-10 43 -39 51q-19 6 -42 6q-29 0 -42 -13q-33 -33 -33 -67q0 -19 5 -45zM512 45q-8 -6 -14 -10q-65 -39 -102 -39q-88 0 -157 38q-24 13 -61 -25q-12 -12 -12 -51v-178h-98v178q0 84 59 134q32 27 76 27
q-1 21 -1 40q0 72 79 137q37 31 82 31q35 0 76 -18q83 -35 103 -122q7 -33 27 -54q18 -22 70 -22h36v-90h-63q-86 0 -100 24z" />
    <glyph glyph-name="uniFEE3" unicode="&#x645;" horiz-adv-x="536" arabic-form="initial" 
d="M424 45q-48 -49 -119 -49q-101 0 -155 47q-31 -23 -82 -23h-78v90h57q25 0 46.5 17.5t23.5 40.5q10 89 76 128q46 27 85 27q86 0 131 -41q47 -43 47 -133q0 -70 -32 -104zM198 117q31 -34 108 -34q23 0 32 9q26 26 26 60q0 36 -20 55q-20 20 -63 20q-23 0 -45 -14.5
t-29 -62.5q-4 -18 -9 -33z" />
    <glyph glyph-name="uniFEE4" unicode="&#x645;" horiz-adv-x="578" arabic-form="medial" 
d="M424 45q-48 -49 -115 -49q-105 0 -159 47q-31 -23 -82 -23h-78v90h57q25 0 47 17q21 18 23 41q10 89 76 128q46 27 91 27q35 0 68 -14q94 -40 102 -122q3 -24 27 -54q18 -22 70 -22h37v-90h-64q-86 0 -100 24zM198 117q31 -34 108 -34q23 0 32 9q26 26 26 60q0 9 -3 18
q-10 43 -39 51q-19 6 -38 6q-26 0 -46 -13q-24 -16 -31 -64q-4 -18 -9 -33z" />
    <glyph glyph-name="uniFEE5" unicode="&#x646;" horiz-adv-x="734" arabic-form="isolated" 
d="M281 484h73v-73h-73v73zM660 172q0 -84 -49 -171q-53 -96 -175 -129q-47 -14 -86 -14q-65 0 -118 18q-160 52 -160 226q0 115 23 154h90q-24 -70 -24 -154q0 -116 98 -141q45 -12 91 -12q37 0 71 10q95 26 132 134q16 48 16 95q0 90 -49 198h89q51 -76 51 -214z" />
    <glyph glyph-name="uniFEE6" unicode="&#x646;" horiz-adv-x="761" arabic-form="final" 
d="M609 304q22 -48 35 -95q11 -39 35 -68q26 -31 55 -31h37v-90h-63q-35 0 -52 23q-1 -53 -45 -125q-58 -97 -175 -129q-47 -13 -92 -13q-57 0 -112 18q-160 52 -160 226q0 85 23 154h90q-24 -67 -24 -154q0 -116 98 -142q44 -11 81 -11q43 0 81 9q95 24 132 135
q16 49 16 104q0 90 -49 189h89zM281 362h73v-73h-73v73z" />
    <glyph glyph-name="uniFEE7" unicode="&#x646;" horiz-adv-x="278" arabic-form="initial" 
d="M109 508h74v-73h-74v73zM146 62q-35 -42 -112 -42h-44v90h17q49 0 70 21q24 24 24 76v106h90v-106q0 -91 -45 -145z" />
    <glyph glyph-name="uniFEE8" unicode="&#x646;" horiz-adv-x="302" arabic-form="medial" 
d="M109 508h74v-73h-74v73zM146 62q-38 -42 -112 -42h-44v90h17q49 0 70 21q24 24 24 76v106h90v-106q0 -52 24 -76q21 -21 70 -21h27v-90h-54q-73 0 -112 42z" />
    <glyph glyph-name="uniFEE9" unicode="&#x647;" horiz-adv-x="524" arabic-form="isolated" 
d="M216 291q-32 0 -48 -43q-13 -34 -12 -94q0 -40 27 -61q28 -22 56 -22q44 0 90 28q36 23 36 64q0 38 -32 69q-60 59 -117 59zM199 378q96 0 185 -78q69 -60 69 -133q0 -97 -72 -134q-81 -41 -145 -41q-47 0 -87 17q-81 36 -81 153q0 88 18 126q41 90 113 90z" />
    <glyph glyph-name="uniFEEA" unicode="&#x647;" horiz-adv-x="536" arabic-form="final" 
d="M330 158q-7 20 -14 44q-6 25 -12 74q-58 -6 -98 -39q-55 -43 -54 -73q1 -20 45 -32.5t133 26.5zM297 346q-2 19 -3 40h90q0 -82 18 -167q10 -49 37 -88q16 -21 70 -21h37v-90h-64q-44 0 -79 25q-22 15 -41 44q-67 -36 -143 -36q-28 0 -56 8q-92 23 -92 98q0 85 99 147
q54 33 127 40z" />
    <glyph glyph-name="uniFEEB" unicode="&#x647;" horiz-adv-x="527" arabic-form="initial" 
d="M197 151q18 14 34 45q19 35 19 65q0 22 -7 40q-11 26 -39 26q-32 0 -43 -22q-11 -21 -11 -38q0 -15 4 -33q10 -58 43 -83zM42 110q26 0 64 5q-22 51 -29 85q-9 38 -9 70q0 41 22 81q23 44 61 40q-22 19 -61 25v91q109 -33 214 -121q125 -102 156 -210q7 -26 7 -53
q0 -51 -19 -81q-36 -55 -122 -55q-64 0 -139 53q-59 -20 -130 -20h-67v90h52zM324 268q3 -18 3 -37q0 -72 -48 -123q-6 -7 -14 -16q25 -23 49 -23q61 0 69 33q4 15 4 31q0 29 -16 67q-15 34 -47 68z" />
    <glyph glyph-name="uniFEEC" unicode="&#x647;" horiz-adv-x="461" arabic-form="medial" 
d="M166 110h9q20 0 67 37q56 44 56 69q0 55 -41 55q-37 0 -73 -69q-18 -35 -18 -92zM76 110q4 130 67 191q53 52 116 52q67 0 101 -48q22 -33 22 -88q0 -54 -79 -107h168v-90h-168q79 -53 79 -107q0 -56 -22 -88q-34 -49 -101 -49q-63 0 -116 53q-63 62 -67 191h-86v90h86z
M166 20q0 -57 18 -92q36 -69 73 -69q41 0 41 55q0 25 -56 69q-47 37 -67 37h-9z" />
    <glyph glyph-name="uniFEED" unicode="&#x648;" horiz-adv-x="483" arabic-form="isolated" 
d="M241 241q-31 0 -52 -28q-12 -16 -12 -34q0 -25 25 -48q23 -21 117 -21q0 90 -42 118q-18 13 -36 13zM406 110q0 -151 -84 -229q-46 -43 -92 -63q-93 -42 -272 -42v90q176 0 241 37q82 46 113 118q-58 0 -80 5q-73 16 -93 33q-56 48 -56 115q0 69 43 111q51 50 118 50
q43 0 78 -24q64 -44 76 -114q8 -50 8 -87z" />
    <glyph glyph-name="uniFEEE" unicode="&#x648;" horiz-adv-x="517" arabic-form="final" 
d="M319 110q0 37 -8 65q-12 39 -34 53q-29 21 -59 8q-32 -14 -39 -42q-8 -36 23 -63q23 -19 117 -21zM406 110h120v-90h-94h-35q-12 -76 -75 -139q-40 -40 -92 -63q-93 -42 -272 -42v90q177 0 241 37q82 46 113 118q-58 2 -80 5q-68 12 -93 33q-52 44 -56 109q-1 16 3 43
q14 76 100 113q28 12 60 11q43 -1 76 -24q65 -45 76 -114q6 -41 8 -87z" />
    <glyph glyph-name="uniFEEF" unicode="&#x649;" horiz-adv-x="783" arabic-form="isolated" 
d="M667 26q-50 -83 -217 -119q-87 -18 -145 -18q-63 0 -98 12q-144 51 -144 179q0 57 31 112h90q-32 -64 -32 -112q1 -72 81 -94q48 -13 78 -10q61 5 124 17q86 16 127 55q29 28 29 54q0 36 -61 50q-32 7 -88 30q-33 13 -61 38q-31 28 -32 84q0 73 93 109q46 18 97 18
t98 -20q69 -30 82 -115h-90q-6 30 -39 46q-19 10 -53 11q-38 1 -68 -18t-30 -35q0 -27 61 -48q122 -40 149 -71q38 -42 39 -85q0 -34 -21 -70z" />
    <glyph glyph-name="uniFEF0" unicode="&#x649;" horiz-adv-x="833" arabic-form="final" 
d="M537 4q45 25 45 41q-1 21 -24 27q-14 4 -29 24q-21 28 -21 58q0 32 25 61q39 46 80 53q15 3 35 3q58 0 100 -65q63 -96 78 -96h17v-90h-17q-55 0 -110 84q-53 81 -66 81q-17 0 -25 -3q-21 -9 -21 -26q0 -23 31 -36q36 -15 37 -75q2 -48 -53 -90q-63 -47 -169 -62
q-44 -6 -95 -6q-91 0 -148 20q-144 50 -144 178q0 75 31 119h90q-32 -44 -32 -119q0 -55 81 -93q33 -15 120 -15q44 0 82 3q73 8 102 24z" />
    <glyph glyph-name="uniFEF1" unicode="&#x64a;" horiz-adv-x="783" arabic-form="isolated" 
d="M366 -151h73v-73h-73v73zM244 -151h73v-73h-73v73zM667 26q-50 -83 -217 -119q-87 -18 -145 -18q-63 0 -98 12q-144 51 -144 179q0 57 31 112h90q-32 -64 -32 -112q1 -72 81 -94q48 -13 78 -10q61 5 124 17q86 16 127 55q29 28 29 54q0 36 -61 50q-32 7 -88 30
q-33 13 -61 38q-31 28 -32 84q0 73 93 109q46 18 97 18t98 -20q69 -30 82 -115h-90q-6 30 -39 46q-19 10 -53 11q-38 1 -68 -18t-30 -35q0 -27 61 -48q122 -40 149 -71q38 -42 39 -85q0 -34 -21 -70z" />
    <glyph glyph-name="uniFEF2" unicode="&#x64a;" horiz-adv-x="833" arabic-form="final" 
d="M366 -151h73v-73h-73v73zM244 -151h73v-73h-73v73zM537 4q45 25 45 41q-1 21 -24 27q-14 4 -29 24q-21 28 -21 58q0 32 25 61q39 46 80 53q15 3 35 3q58 0 100 -65q63 -96 78 -96h17v-90h-17q-55 0 -110 84q-53 81 -66 81q-17 0 -25 -3q-21 -9 -21 -26q0 -23 31 -36
q36 -15 37 -75q2 -48 -53 -90q-63 -47 -169 -62q-44 -6 -95 -6q-91 0 -148 20q-144 50 -144 178q0 75 31 119h90q-32 -44 -32 -119q0 -55 81 -93q33 -15 120 -15q44 0 82 3q73 8 102 24z" />
    <glyph glyph-name="uniFEF3" unicode="&#x64a;" horiz-adv-x="278" arabic-form="initial" 
d="M146 62q-35 -42 -112 -42h-44v90h17q49 0 70 21q24 24 24 76v106h90v-106q0 -91 -45 -145zM170 -53h74v-73h-74v73zM48 -53h74v-73h-74v73z" />
    <glyph glyph-name="uniFEF4" unicode="&#x64a;" horiz-adv-x="302" arabic-form="medial" 
d="M146 62q-38 -42 -112 -42h-44v90h17q49 0 70 21q24 24 24 76v106h90v-106q0 -52 24 -76q21 -21 70 -21h27v-90h-54q-73 0 -112 42zM170 -53h74v-73h-74v73zM48 -53h74v-73h-74v73z" />
    <glyph glyph-name="uniFEF5" unicode="&#xfef5;" horiz-adv-x="570" arabic-form="isolated" 
d="M468 427q0 -146 -68 -253q-26 -41 -64 -76q-100 -88 -177 -88q-52 0 -89 16v90q47 -16 89 -16q55 0 121 74l-239 534h87l208 -468q15 21 24 48q18 67 18 157v335h90v-353zM-103 818l79 60q50 -41 83 -51q20 -6 46 -6q29 0 49 8q52 20 95 57v-61q-44 -32 -88 -46
q-33 -10 -58 -10q-17 0 -54 8q-38 8 -71 42l-81 -62v61z" />
    <glyph glyph-name="uniFEF6" unicode="&#xfef6;" horiz-adv-x="597" arabic-form="final" 
d="M400 174q-28 -44 -64 -76q-99 -88 -177 -88q-52 0 -89 16v90q47 -16 89 -16q55 0 121 74l-239 534h87l208 -468q15 21 24 48q18 67 18 157v335h90v-467q0 -85 17 -126q31 -77 70 -77h51v-90h-63q-85 0 -135 119q-8 20 -8 35zM-103 818l79 60q50 -41 83 -51q20 -6 46 -6
q29 0 49 8q52 20 95 57v-61q-44 -32 -88 -46q-33 -10 -58 -10q-17 0 -54 8q-38 8 -71 42l-81 -62v61z" />
    <glyph glyph-name="uniFEF7" unicode="&#xfef7;" horiz-adv-x="570" arabic-form="isolated" 
d="M468 427q0 -146 -68 -253q-26 -41 -64 -76q-100 -88 -177 -88q-52 0 -89 16v90q47 -16 89 -16q55 0 121 74l-239 534h87l208 -468q15 21 24 48q18 67 18 157v335h90v-353zM-13 809l38 8q-22 10 -29 28q-8 18 -8 40q0 47 27 68q28 22 73 22q31 0 56 -17v-48q-24 16 -56 16
t-40 -9q-14 -16 -14 -28q0 -38 46 -51q16 -5 74 9v-50l-167 -37v49z" />
    <glyph glyph-name="uniFEF8" unicode="&#xfef8;" horiz-adv-x="597" arabic-form="final" 
d="M400 174q-28 -44 -64 -76q-99 -88 -177 -88q-52 0 -89 16v90q47 -16 89 -16q55 0 121 74l-239 534h87l208 -468q15 21 24 48q18 67 18 157v335h90v-467q0 -85 17 -126q31 -77 70 -77h51v-90h-63q-85 0 -135 119q-8 20 -8 35zM-13 809l38 8q-22 10 -29 28q-8 18 -8 40
q0 47 27 68q28 22 73 22q31 0 56 -17v-48q-24 16 -56 16t-40 -9q-14 -16 -14 -28q0 -38 46 -51q16 -5 74 9v-50l-167 -37v49z" />
    <glyph glyph-name="uniFEF9" unicode="&#xfef9;" horiz-adv-x="570" arabic-form="isolated" 
d="M468 427q0 -146 -68 -253q-26 -41 -64 -76q-100 -88 -177 -88q-52 0 -89 16v90q47 -16 89 -16q55 0 121 74l-239 534h87l208 -468q15 21 24 48q18 67 18 157v335h90v-353zM11 -175l38 8q-21 10 -29 28t-8 40q0 47 28 68q28 22 73 22q30 0 55 -16v-49q-24 16 -55 16
q-32 0 -41 -9q-14 -16 -14 -28q0 -38 46 -51q16 -5 75 9v-50l-168 -37v49z" />
    <glyph glyph-name="uniFEFA" unicode="&#xfefa;" horiz-adv-x="597" arabic-form="final" 
d="M400 174q-28 -44 -64 -76q-99 -88 -177 -88q-52 0 -89 16v90q47 -16 89 -16q55 0 121 74l-239 534h87l208 -468q15 21 24 48q18 67 18 157v335h90v-467q0 -85 17 -126q31 -77 70 -77h51v-90h-63q-85 0 -135 119q-8 20 -8 35zM11 -175l38 8q-21 10 -29 28t-8 40
q0 47 28 68q28 22 73 22q30 0 55 -16v-49q-24 16 -55 16q-32 0 -41 -9q-14 -16 -14 -28q0 -38 46 -51q16 -5 75 9v-50l-168 -37v49z" />
    <glyph glyph-name="uniFEFB" unicode="&#xfefb;" horiz-adv-x="570" arabic-form="isolated" 
d="M468 427q0 -146 -68 -253q-26 -41 -64 -76q-100 -88 -177 -88q-52 0 -89 16v90q47 -16 89 -16q55 0 121 74l-239 534h87l208 -468q15 21 24 48q18 67 18 157v335h90v-353z" />
    <glyph glyph-name="uniFEFC" unicode="&#xfefc;" horiz-adv-x="597" arabic-form="final" 
d="M400 174q-28 -44 -64 -76q-99 -88 -177 -88q-52 0 -89 16v90q47 -16 89 -16q55 0 121 74l-239 534h87l208 -468q15 21 24 48q18 67 18 157v335h90v-467q0 -85 17 -126q31 -77 70 -77h51v-90h-63q-85 0 -135 119q-8 20 -8 35z" />
    <glyph glyph-name=".notdef" horiz-adv-x="480" 
d="M169 52z" />
    <glyph glyph-name="glyph1" horiz-adv-x="480" 
 />
    <glyph glyph-name="glyph2" horiz-adv-x="480" 
 />
    <glyph glyph-name="uni0008" horiz-adv-x="0" 
 />
    <glyph glyph-name="uni000D" unicode="&#xd;" horiz-adv-x="0" 
 />
    <glyph glyph-name="uni000E" horiz-adv-x="0" 
 />
    <glyph glyph-name="uni000F" horiz-adv-x="0" 
 />
    <glyph glyph-name="uni001B" horiz-adv-x="0" 
 />
    <glyph glyph-name="space" unicode=" " horiz-adv-x="324" 
 />
    <glyph glyph-name="space" unicode="&#xa0;" horiz-adv-x="324" 
 />
    <glyph glyph-name="exclam" unicode="!" horiz-adv-x="241" 
d="M180 144q26 -25 26 -59q0 -36 -26 -61q-25 -24 -60 -24q-84 0 -84 84q0 35 25 60q25 26 59 26t60 -26zM197 630v-288q0 -115 -77 -115q-78 0 -78 115v288q0 114 78 114q77 0 77 -114z" />
    <glyph glyph-name="quotedbl" unicode="&#x22;" horiz-adv-x="331" 
d="M39 675q0 47 47 47t47 -47v-179q0 -47 -47 -47t-47 47v179zM292 675v-179q0 -47 -47 -47t-47 47v179q0 47 47 47t47 -47z" />
    <glyph glyph-name="numbersign" unicode="#" horiz-adv-x="758" 
d="M494 517l59 168q19 51 71 51q40 0 40 -29q0 -5 -3 -17t-6 -21l-53 -152h76q69 0 69 -49t-69 -49h-111l-41 -118h92q69 0 69 -49t-69 -49h-127l-54 -152q-19 -51 -71 -51q-40 0 -40 29q0 5 3 18l6 20l48 136h-119l-54 -152q-19 -51 -71 -51q-40 0 -40 29q0 5 3 18l53 156
h-74q-69 0 -69 49t69 49h109l42 118h-82q-69 0 -69 49t69 49h117l59 168q19 51 71 51q40 0 40 -29q0 -5 -3 -17t-6 -21l-52 -152h118zM303 316h123l42 118h-122z" />
    <glyph glyph-name="dollar" unicode="$" horiz-adv-x="551" 
d="M230 1q-205 20 -205 114q0 73 80 73q14 0 35 -6l41 -12q27 -9 46 -13q28 -6 52 -6q80 0 80 73q0 39 -34 62q-24 17 -91 37q-107 32 -152 75q-49 46 -49 127q0 83 52 145q54 63 145 81v45q0 54 40 54t40 -54v-45q175 -14 175 -106q0 -69 -73 -69q-13 0 -30 4q-10 2 -32 9
q-21 6 -32 8q-19 4 -33 4q-80 0 -80 -61q0 -34 35 -51q13 -7 41 -16q5 -1 12 -4q2 0 6 -2q5 -1 7 -2l29 -9q196 -65 196 -216q0 -93 -61 -160q-61 -68 -160 -79v-63q0 -55 -40 -55t-40 55v63z" />
    <glyph glyph-name="percent" unicode="%" horiz-adv-x="699" 
d="M271 694q45 -47 45 -113t-45 -113q-45 -46 -108 -46q-64 0 -108 46q-45 46 -45 113t45 113t108 46t108 -46zM112 581q0 -57 51 -57t51 57t-51 57t-51 -57zM644 283q45 -47 45 -113t-45 -113q-45 -46 -108 -46q-64 0 -108 46q-45 46 -45 113t45 113t108 46t108 -46z
M485 170q0 -57 51 -57t51 57t-51 57t-51 -57zM239 60q-33 -57 -70 -57q-57 0 -57 58q0 24 16 52l330 576q33 56 70 56q56 0 56 -56q0 -24 -16 -53z" />
    <glyph glyph-name="ampersand" unicode="&#x26;" horiz-adv-x="721" 
d="M482 700q56 -49 56 -123q0 -109 -121 -182l97 -115q23 27 34 41q17 19 29 30q28 25 53 25q61 0 61 -67q0 -46 -90 -130q34 -40 45 -57q17 -26 17 -49q0 -74 -65 -74q-44 0 -105 80q-88 -80 -225 -80q-104 0 -171 63t-67 157q0 138 164 219q-68 73 -68 146q0 71 56 118
q58 49 150 49t150 -51zM279 333q-87 -40 -87 -110q0 -94 95 -94q62 0 123 54zM409 577q0 61 -70 61q-65 0 -65 -58q0 -38 56 -89q79 33 79 86z" />
    <glyph glyph-name="quotesingle" unicode="'" horiz-adv-x="172" 
d="M133 675v-179q0 -47 -47 -47t-47 47v179q0 47 47 47t47 -47z" />
    <glyph glyph-name="parenleft" unicode="(" horiz-adv-x="301" 
d="M250 745q0 -15 -11 -51l-12 -36q-8 -25 -13 -44q-17 -56 -26 -109q-11 -70 -11 -142q0 -71 11 -141q9 -53 26 -109q5 -19 13 -44l12 -36q11 -37 11 -52q0 -62 -62 -62q-36 0 -66 53q-26 44 -45 124q-17 67 -27 147q-8 70 -8 120q0 59 9 131q10 80 27 146q20 76 46 118
q29 49 64 49q62 0 62 -62z" />
    <glyph glyph-name="parenright" unicode=")" horiz-adv-x="297" 
d="M161 753q26 -42 46 -118q17 -66 27 -146q9 -72 9 -131q0 -50 -8 -120q-10 -80 -27 -147q-19 -80 -45 -124q-30 -53 -66 -53q-62 0 -62 62q0 15 11 52l26 80q16 56 25 109q11 70 11 141q0 72 -11 142q-9 53 -25 109l-26 80q-11 36 -11 51q0 62 62 62q35 0 64 -49z" />
    <glyph glyph-name="asterisk" unicode="*" horiz-adv-x="470" 
d="M185 327q-7 -5 -14 -12l-40 -31q-26 -19 -50 -19q-55 0 -55 59q0 46 114 83q-114 38 -114 82q0 59 55 59q24 0 50 -18l40 -31q7 -7 14 -11l-7 45q-5 25 -5 37q0 64 58 64q60 0 60 -63q0 -14 -5 -39q-1 -2 -1 -5l-4 -17q-2 -12 -3 -22l29 23q16 13 25 19q25 18 49 18
q55 0 55 -59q0 -45 -113 -82q63 -22 83 -34q30 -19 30 -49q0 -59 -55 -59q-22 0 -49 18l-39 31q-8 8 -15 13l7 -39q0 -4 1 -6q5 -25 5 -38q0 -65 -60 -65q-58 0 -58 65q0 11 5 38z" />
    <glyph glyph-name="plus" unicode="+" horiz-adv-x="729" 
d="M607 400q70 0 70 -51t-71 -51h-198v-199q0 -70 -51 -70t-51 71v198h-198q-71 0 -71 51t71 51h198v198q0 71 51 71t51 -71v-198h199z" />
    <glyph glyph-name="comma" unicode="," horiz-adv-x="252" 
d="M197 141q20 -16 20 -50q0 -11 -4 -25q-5 -26 -24 -48l-67 -122q-30 -55 -70 -55q-66 0 -66 63q0 22 16 50l35 64q-25 28 -25 66q0 42 29.5 71t71.5 29t72 -29z" />
    <glyph glyph-name="hyphen" unicode="-" horiz-adv-x="428" 
d="M316 366q78 0 78 -69q0 -66 -79 -66h-203q-78 0 -78 67q0 68 79 68h203z" />
    <glyph glyph-name="hyphen" unicode="&#xad;" horiz-adv-x="428" 
d="M316 366q78 0 78 -69q0 -66 -79 -66h-203q-78 0 -78 67q0 68 79 68h203z" />
    <glyph glyph-name="period" unicode="." horiz-adv-x="252" 
d="M201 168q27 -27 27 -64q0 -39 -27 -65t-64 -26t-63 25q-28 25 -28 66q0 37 27 64t64 27t64 -27z" />
    <glyph glyph-name="slash" unicode="/" horiz-adv-x="370" 
d="M416 691q0 -19 -15 -49l-310 -587q-31 -58 -70 -58q-66 0 -66 63q0 21 14 48l311 587q31 58 70 58q66 0 66 -62z" />
    <glyph glyph-name="zero" unicode="0" horiz-adv-x="651" 
d="M540 652q82 -102 82 -277t-82 -276q-81 -100 -215 -100t-214 100q-82 101 -82 276t82 277q80 99 214 99t215 -99zM197 375q0 -226 129 -226q128 0 128 227q0 225 -128 225q-129 0 -129 -226z" />
    <glyph glyph-name="one" unicode="1" horiz-adv-x="333" 
d="M191 717q91 0 91 -115v-488q0 -115 -81 -115t-81 115v453h-16q-109 0 -109 75t115 75h81z" />
    <glyph glyph-name="two" unicode="2" horiz-adv-x="525" 
d="M425 669q62 -59 62 -150q0 -79 -65 -170q-29 -41 -77 -93l-49 -52l-55 -55h149q115 0 115 -75t-115 -75h-287q-97 0 -97 75q0 26 35 70q13 17 40 46l54 59q48 53 76 86q35 41 57 71q47 66 47 105q0 69 -61 69q-28 0 -47 -24q-8 -10 -16 -25q-5 -9 -14 -29
q-18 -39 -30 -54q-21 -24 -49 -24q-80 0 -80 83q0 85 67 152q72 71 174 71t166 -61z" />
    <glyph glyph-name="three" unicode="3" horiz-adv-x="546" 
d="M410 663q60 -54 60 -131q0 -83 -81 -140q120 -59 120 -173q0 -93 -72 -156q-73 -64 -184 -64q-95 0 -173 62q-74 59 -74 126q0 74 71 74q27 0 49 -19q9 -7 18 -19l17 -22q22 -28 38 -41q24 -18 56 -18q86 0 86 87q0 64 -103 80q-68 11 -68 69q0 53 68 68q75 17 75 70
q0 58 -59 58q-24 0 -45 -14q-8 -4 -17 -13q-4 -3 -8 -8l-17 -15q-4 -5 -8 -8q-9 -8 -18 -13q-22 -13 -47 -13q-67 0 -67 65q0 59 68 109q71 53 162 53q92 0 153 -54z" />
    <glyph glyph-name="four" unicode="4" horiz-adv-x="630" 
d="M509 571v-262h25q90 0 90 -74q0 -76 -99 -76h-16v-71q0 -88 -80 -88q-70 0 -70 94v65h-256q-100 0 -100 64q0 33 39 95l216 342q50 78 122 78q129 0 129 -167zM359 322v273l-170 -273h170z" />
    <glyph glyph-name="five" unicode="5" horiz-adv-x="530" 
d="M387 733q104 0 104 -75t-98 -75h-167l-11 -86q38 9 69 9q91 0 152 -66q62 -67 62 -170q0 -116 -74 -192q-76 -77 -195 -77q-93 0 -161 44q-66 42 -66 97q0 72 67 72q16 0 35 -10l35 -21q24 -15 40 -22q24 -10 48 -10q41 0 70 33q29 32 29 78q0 99 -88 99q-14 0 -31 -4
q-10 -2 -30 -8q-20 -7 -29 -9q-16 -4 -29 -4q-63 0 -63 70q0 11 5 56l23 185q6 53 31 71q21 15 75 15h197z" />
    <glyph glyph-name="six" unicode="6" horiz-adv-x="570" 
d="M341 480q84 0 143 -65q61 -66 61 -164q0 -104 -76 -177q-77 -75 -191 -75q-109 0 -181 72t-72 185q0 151 169 361q108 134 160 134q31 0 54 -21q24 -22 24 -52q0 -29 -46 -81l-48 -53q-30 -36 -54 -70q30 6 57 6zM220 178q27 -29 65 -29t65 29t27 70t-27 69t-65 28
t-65 -28t-27 -69t27 -70z" />
    <glyph glyph-name="seven" unicode="7" horiz-adv-x="480" 
d="M363 731q118 0 118 -89q0 -25 -16 -60l-235 -507q-36 -76 -85 -76q-84 0 -84 79q0 25 22 71l210 432h-184q-109 0 -109 73q0 77 97 77h266z" />
    <glyph glyph-name="eight" unicode="8" horiz-adv-x="570" 
d="M57 551q0 85 65 142q65 58 163 58t164 -58q65 -57 65 -142q0 -84 -66 -142q95 -62 95 -178q0 -98 -71 -164q-74 -68 -187 -68t-187 68q-71 66 -71 164q0 118 95 178q-65 57 -65 142zM218 174q28 -30 67 -30t68 29q28 30 28 73t-28 73t-68 30q-39 0 -67 -30
q-29 -30 -29 -73q0 -42 29 -72zM234 484q22 -23 51 -23q74 0 74 75q0 76 -74 76q-73 0 -73 -76q0 -30 22 -52z" />
    <glyph glyph-name="nine" unicode="9" horiz-adv-x="570" 
d="M229 270q-84 0 -143 65q-61 66 -61 164q0 104 76 177q77 75 191 75q109 0 181 -72t72 -185q0 -151 -169 -361q-108 -134 -160 -134q-31 0 -54 22q-24 21 -24 51q0 29 46 81l48 53q30 36 54 70q-30 -6 -57 -6zM350 572q-27 29 -65 29t-65 -29t-27 -70t27 -69t65 -28t65 28
t27 69t-27 70z" />
    <glyph glyph-name="colon" unicode=":" horiz-adv-x="252" 
d="M187 197q27 -27 27 -64q0 -39 -27 -65t-64 -26t-63 25q-28 25 -28 66q0 37 27 64t64 27t64 -27zM187 500q27 -27 27 -64q0 -39 -27 -65t-64 -26t-63 25q-28 25 -28 66q0 37 27 64t64 27t64 -27z" />
    <glyph glyph-name="semicolon" unicode=";" horiz-adv-x="252" 
d="M201 471q27 -27 27 -64q0 -39 -27 -65t-64 -26t-63 25q-28 25 -28 66q0 37 27 64t64 27t64 -27zM217 120q0 -21 -16 -51l-79 -144q-30 -55 -70 -55q-66 0 -66 63q0 22 16 50l79 144q30 55 70 55q66 0 66 -62z" />
    <glyph glyph-name="less" unicode="&#x3c;" horiz-adv-x="731" 
d="M47 371l541 222q27 10 36 10q39 0 39 -47q0 -40 -41 -56l-437 -178l437 -178q41 -16 41 -58q0 -22 -14 -34q-11 -10 -25 -10q-6 0 -13 2q-9 2 -20 6l-544 224q-31 13 -31 47q0 37 31 50z" />
    <glyph glyph-name="equal" unicode="=" horiz-adv-x="699" 
d="M575 475q70 0 70 -51t-71 -51h-468q-71 0 -71 51t71 51h469zM575 261q70 0 70 -51t-71 -51h-468q-71 0 -71 51t71 51h469z" />
    <glyph glyph-name="greater" unicode="&#x3e;" horiz-adv-x="731" 
d="M648 272l-544 -224q-20 -8 -33 -8q-6 0 -12 2q-8 2 -13 7q-14 11 -14 32q0 44 41 61l437 178l-437 178q-41 17 -41 56q0 47 39 47q5 0 13 -2q10 -3 23 -8l541 -222q31 -13 31 -50q0 -34 -31 -47z" />
    <glyph glyph-name="question" unicode="?" horiz-adv-x="509" 
d="M288 145q26 -25 26 -59q0 -36 -26 -61q-25 -24 -60 -24q-84 0 -84 84q0 35 25 60q25 26 59 26t60 -26zM412 676q66 -64 66 -157q0 -178 -175 -210q0 -98 -78 -98q-76 0 -76 88v63q0 39 16 53q13 12 61 23q82 19 82 88q0 66 -70 66q-32 0 -57 -16q-17 -11 -38 -35l-17 -19
q-10 -10 -18 -16q-20 -16 -43 -16q-65 0 -65 73q0 66 67 120q71 59 171 59q105 0 174 -66z" />
    <glyph glyph-name="at" unicode="@" horiz-adv-x="956" 
d="M571 400q-12 81 -85 81q-55 0 -96 -60q-42 -61 -42 -146q0 -92 77 -92q93 0 120 111zM402 111q-158 0 -158 166q0 118 69 197q68 78 167 78q84 0 122 -66l8 24q14 42 53 42q37 0 37 -29q0 -20 -9 -56l-56 -227q-2 -12 -2 -16q0 -34 46 -34q70 0 120 84q45 76 45 159
q0 116 -89 191q-91 77 -236 77q-179 0 -294 -111q-114 -110 -114 -277q0 -150 101 -239q101 -90 270 -90q165 0 295 93q21 16 44 16t23 -29q0 -24 -27 -44q-151 -113 -333 -113q-202 0 -330 107q-133 112 -133 298q0 205 146 338q143 131 355 131q178 0 293 -93
q119 -97 119 -257q0 -125 -78 -220q-82 -100 -204 -100q-105 0 -105 80q-52 -80 -145 -80z" />
    <glyph glyph-name="A" unicode="A" horiz-adv-x="637" 
d="M399 304l-81 263l-88 -263h169zM439 638l180 -511q11 -31 11 -51q0 -76 -80 -76q-60 0 -85 79l-20 64h-263l-24 -70q-24 -73 -78 -73q-77 0 -77 78q0 27 8 47l185 502q38 105 124 105q85 0 119 -94z" />
    <glyph glyph-name="B" unicode="B" horiz-adv-x="596" 
d="M290 711q222 0 222 -177q0 -102 -88 -140q144 -36 144 -180q0 -214 -253 -214h-160q-64 0 -87 22t-23 80v495q0 62 22 87q25 27 90 27h133zM207 138h80q111 0 111 81q0 80 -113 80h-78v-161zM207 434h68q80 0 80 69q0 70 -82 70h-66v-139z" />
    <glyph glyph-name="C" unicode="C" horiz-adv-x="630" 
d="M534 686q59 -30 59 -72q0 -28 -21 -50t-49 -22q-12 0 -29 4q-7 1 -17 4l-17 6q-22 6 -37 8q-22 5 -42 5q-78 0 -126 -59q-49 -59 -49 -156q0 -95 49 -151t131 -56q23 0 47 6q17 3 40 13l13 5q3 1 4 2q10 3 17 5q18 6 30 6q25 0 45 -20q20 -21 20 -48q0 -46 -62 -81
q-65 -36 -162 -36q-156 0 -251 97q-97 98 -97 262q0 160 102 261q99 98 249 98q92 0 153 -31z" />
    <glyph glyph-name="D" unicode="D" horiz-adv-x="677" 
d="M296 711q152 0 249 -94q98 -97 98 -254q0 -167 -92 -264q-93 -99 -255 -99h-148q-64 0 -87 22t-23 80v495q0 62 22 87q25 27 90 27h146zM200 150h74q193 0 193 214q0 197 -196 197h-71v-411z" />
    <glyph glyph-name="E" unicode="E" horiz-adv-x="486" 
d="M203 433h114q115 0 115 -75t-115 -75h-114v-133h137q115 0 115 -75t-115 -75h-189q-64 0 -87 22t-23 80v495q0 62 22 87q25 27 90 27h182q115 0 115 -76q0 -74 -115 -74h-132v-128z" />
    <glyph glyph-name="F" unicode="F" horiz-adv-x="483" 
d="M205 441h114q115 0 115 -75t-115 -75h-114v-177q0 -115 -81 -115t-81 115v491q0 62 22 87q25 27 90 27h182q115 0 115 -76q0 -74 -115 -74h-132v-128z" />
    <glyph glyph-name="G" unicode="G" horiz-adv-x="729" 
d="M579 674q72 -42 72 -96q0 -72 -69 -72q-15 0 -37 10q-5 2 -10 5q-5 2 -11 6l-22 12q-29 14 -52 22q-33 11 -66 11q-178 0 -178 -209q0 -100 49 -158q48 -58 128 -58q64 0 104 38t40 99h-57q-114 0 -114 72t114 72h119q114 0 114 -102q0 -143 -90 -234q-93 -93 -243 -93
q-149 0 -244 100q-96 100 -96 261q0 166 98 263q97 97 261 97q113 0 190 -46z" />
    <glyph glyph-name="H" unicode="H" horiz-adv-x="711" 
d="M501 446v171q0 115 81 115t81 -115v-502q0 -115 -81 -115t-81 115v181h-298v-181q0 -115 -81 -115t-81 115v502q0 115 81 115t81 -115v-171h298z" />
    <glyph glyph-name="I" unicode="I" horiz-adv-x="247" 
d="M200 617v-502q0 -115 -81 -115t-81 115v502q0 115 81 115t81 -115z" />
    <glyph glyph-name="J" unicode="J" horiz-adv-x="438" 
d="M395 601v-374q0 -228 -208 -228q-81 0 -134 34q-51 34 -51 80q0 70 75 70q21 0 54 -17q33 -19 49 -19q53 0 53 130v324q0 110 81 110t81 -110z" />
    <glyph glyph-name="K" unicode="K" horiz-adv-x="607" 
d="M198 614v-179l210 238q50 56 84 56q29 0 51 -22t22 -52q0 -37 -41 -80l-179 -187l217 -236q41 -46 41 -80q0 -31 -24 -53q-22 -22 -51 -22q-24 0 -45 16q-14 10 -42 41l-243 268v-210q0 -115 -81 -115t-81 115v502q0 115 81 115t81 -115z" />
    <glyph glyph-name="L" unicode="L" horiz-adv-x="454" 
d="M201 608v-458h137q115 0 115 -75t-115 -75h-189q-64 0 -87 22t-23 80v506q0 115 81 115t81 -115z" />
    <glyph glyph-name="M" unicode="M" horiz-adv-x="836" 
d="M319 632l108 -425l101 426q24 98 111 98q94 0 114 -120l79 -489q4 -23 4 -39q0 -84 -82 -84q-70 0 -80 94l-50 425h-1l-110 -438q-10 -39 -26 -57q-22 -24 -64 -24q-75 0 -95 81l-104 438h-1l-56 -415q-15 -104 -85 -104q-79 0 -79 84q0 18 6 49l87 485q20 114 110 114
q89 0 113 -99z" />
    <glyph glyph-name="N" unicode="N" horiz-adv-x="699" 
d="M197 678l299 -395v336q0 115 81 115t81 -115v-520q0 -97 -74 -97q-52 0 -112 80l-274 362v-327q0 -115 -81 -115t-81 115v505q0 112 75 112q43 0 86 -56z" />
    <glyph glyph-name="O" unicode="O" horiz-adv-x="744" 
d="M624 615q97 -98 97 -259q0 -160 -96 -258q-96 -99 -253 -99t-253 99q-96 97 -96 258q0 160 97 258q96 99 252 99t252 -98zM247 510q-48 -58 -48 -156q0 -95 48 -152q48 -56 125 -56t125 56q48 57 48 152q0 98 -48 156q-47 56 -125 56t-125 -56z" />
    <glyph glyph-name="P" unicode="P" horiz-adv-x="591" 
d="M225 395h70q111 0 111 94q0 93 -111 93h-70v-187zM296 720q121 0 192 -66q69 -65 69 -176q0 -112 -65 -176q-66 -65 -183 -65h-109v-122q0 -115 -81 -115t-81 115v491q0 62 22 87q25 27 90 27h146z" />
    <glyph glyph-name="Q" unicode="Q" horiz-adv-x="740" 
d="M546 39q-71 -42 -176 -42q-157 0 -253 99t-96 260t97 260q96 99 252 99q155 0 252 -98q97 -99 97 -260q0 -125 -64 -220l50 -44q35 -30 35 -66q0 -67 -69 -67q-35 0 -71 31zM379 225q0 63 62 63q32 0 81 -45q21 54 21 111q0 99 -48 157q-47 56 -125 56t-125 -56
q-48 -58 -48 -157q0 -97 48 -153t127 -56q26 0 52 9q-45 38 -45 71z" />
    <glyph glyph-name="R" unicode="R" horiz-adv-x="582" 
d="M198 397h75q103 0 103 88q0 84 -101 84h-77v-172zM274 719q129 0 201 -62q70 -59 70 -160q0 -163 -170 -192l128 -142q48 -54 48 -93q0 -71 -77 -71q-44 0 -87 53l-189 237v-175q0 -115 -81 -115t-81 115v491q0 62 22 87q25 27 90 27h126z" />
    <glyph glyph-name="S" unicode="S" horiz-adv-x="544" 
d="M422 686q53 -29 53 -71q0 -66 -73 -66q-13 0 -30 4q-10 1 -32 8l-32 9q-19 4 -33 4q-79 0 -79 -60q0 -32 34 -48q14 -7 41 -16q5 -1 12 -4q2 0 7 -2q5 0 6 -1l29 -9q196 -62 196 -207q0 -100 -74 -164q-77 -66 -202 -66q-97 0 -165 34q-65 34 -65 77q0 70 80 70
q14 0 35 -6l41 -12q27 -10 46 -14q27 -6 51 -6q80 0 80 73q0 37 -33 59q-24 16 -91 35q-107 30 -152 72q-49 43 -49 121q0 94 70 155q72 62 188 62q86 0 141 -31z" />
    <glyph glyph-name="T" unicode="T" horiz-adv-x="504" 
d="M394 720q115 0 115 -76q0 -74 -115 -74h-60v-455q0 -115 -81 -115t-81 115v455h-60q-115 0 -115 74q0 76 115 76h282z" />
    <glyph glyph-name="U" unicode="U" horiz-adv-x="675" 
d="M192 610v-277q0 -183 143 -183t143 183v277q0 112 81 112t81 -112v-294q0 -153 -83 -235q-80 -82 -222 -82t-222 82q-83 82 -83 235v294q0 112 81 112t81 -112z" />
    <glyph glyph-name="V" unicode="V" horiz-adv-x="605" 
d="M159 662l150 -404l139 398q26 76 80 76q79 0 79 -75q0 -28 -11 -56l-210 -534q-27 -67 -82 -67q-53 0 -77 61l-217 544q-9 23 -9 46q0 81 84 81q48 0 74 -70z" />
    <glyph glyph-name="W" unicode="W" horiz-adv-x="899" 
d="M160 661l85 -452l118 454q19 71 90 71q69 0 88 -73l116 -452l85 441q17 84 82 84q80 0 80 -78q0 -24 -10 -64l-120 -483q-15 -59 -35 -81q-24 -26 -77 -26q-85 0 -108 91l-106 406l-100 -397q-25 -100 -117 -100q-87 0 -111 107l-114 497q-6 30 -6 53q0 75 82 75
q64 0 78 -73z" />
    <glyph glyph-name="X" unicode="X" horiz-adv-x="607" 
d="M205 667l100 -140l102 142q45 63 86 63q27 0 49 -23q22 -22 22 -49q0 -31 -36 -82l-131 -182l173 -244q37 -53 37 -82q0 -27 -22 -48q-22 -22 -52 -22q-45 0 -88 61l-144 202l-143 -201q-43 -62 -85 -62q-29 0 -51 22t-22 49q0 31 36 82l173 241l-130 182q-36 50 -36 80
q0 76 79 76q36 0 83 -65z" />
    <glyph glyph-name="Y" unicode="Y" horiz-adv-x="563" 
d="M161 664l121 -173l123 175q44 63 87 63q27 0 49 -23q22 -22 22 -49q0 -30 -37 -82l-164 -234v-229q0 -115 -81 -115t-81 115v229l-164 232q-36 50 -36 82q0 28 21 51q23 23 56 23q38 0 84 -65z" />
    <glyph glyph-name="Z" unicode="Z" horiz-adv-x="546" 
d="M399 711q139 0 139 -79q0 -36 -47 -99l-283 -383h221q115 0 115 -75t-115 -75h-317q-114 0 -114 81q0 26 13 51q8 16 32 47l288 382h-207q-115 0 -115 76q0 74 115 74h275z" />
    <glyph glyph-name="bracketleft" unicode="[" horiz-adv-x="288" 
d="M162 -8h48q77 0 77 -54q0 -53 -78 -53h-72q-64 0 -88 22q-23 22 -23 80v684q0 62 22 87q25 27 90 27h72q77 0 77 -53q0 -54 -78 -54h-47v-686z" />
    <glyph glyph-name="backslash" unicode="\" horiz-adv-x="370" 
d="M91 695l310 -587q15 -28 15 -48q0 -63 -67 -63q-39 0 -70 58l-310 587q-14 27 -14 49q0 62 66 62q39 0 70 -58z" />
    <glyph glyph-name="bracketright" unicode="]" horiz-adv-x="295" 
d="M126 681h-47q-78 0 -78 54q0 53 77 53h72q65 0 90 -27q22 -25 22 -87v-684q0 -58 -23 -80t-87 -22h-73q-78 0 -78 53q0 54 77 54h48v686z" />
    <glyph glyph-name="asciicircum" unicode="^" horiz-adv-x="652" 
d="M406 710l190 -316q8 -15 13 -30q7 -19 7 -37q0 -55 -55 -55t-95 70l-146 260l-146 -260q-40 -70 -95 -70t-55 55q0 18 7 37q5 15 13 30l189 315q28 46 87 46t86 -45z" />
    <glyph glyph-name="underscore" unicode="_" horiz-adv-x="500" 
d="M504 -2q70 0 70 -51t-71 -51h-499q-71 0 -71 51t71 51h500z" />
    <glyph glyph-name="grave" unicode="`" horiz-adv-x="500" 
d="M238 796l73 -100q17 -23 17 -44q0 -55 -54 -55q-27 0 -54 31l-76 84q-26 29 -26 54q0 62 63 62q34 0 57 -32z" />
    <glyph glyph-name="a" unicode="a" horiz-adv-x="576" 
d="M208 378q-30 -38 -30 -96q0 -60 29 -98q29 -39 73 -39t73 39q30 40 30 98q0 57 -30 96q-30 38 -73 38t-72 -38zM255 1q-99 0 -168 78q-71 80 -71 201q0 119 72 200q71 80 173 80q78 0 126 -57q28 50 75 50q78 0 78 -114v-317q0 -115 -78 -115q-50 0 -75 55
q-50 -61 -132 -61z" />
    <glyph glyph-name="b" unicode="b" horiz-adv-x="591" 
d="M191 512q49 43 125 43q101 0 171 -78q71 -80 71 -202q0 -115 -73 -198q-71 -81 -169 -81q-78 0 -128 57q-29 -51 -75 -51q-79 0 -79 115v540q0 115 79 115q78 0 78 -115v-145zM191 274q0 -134 102 -134q44 0 74 39q29 38 29 98q0 134 -103 134q-102 0 -102 -137z" />
    <glyph glyph-name="c" unicode="c" horiz-adv-x="488" 
d="M424 531q48 -28 48 -73q0 -67 -65 -67q-9 0 -23 4q-5 1 -13 4q-2 0 -7 2q-5 1 -6 2q-37 12 -62 12q-48 0 -78 -38q-31 -38 -31 -99q0 -134 115 -134q26 0 62 12l6 2q5 2 7 2q7 3 12 4q13 4 21 4q61 0 61 -68q0 -42 -51 -71q-53 -29 -134 -29q-116 0 -188 77
q-73 77 -73 202q0 124 74 201q75 79 197 79q79 0 128 -28z" />
    <glyph glyph-name="d" unicode="d" horiz-adv-x="571" 
d="M255 -5q-98 0 -170 82q-73 83 -73 202q0 118 72 198q70 77 171 77q75 0 124 -42v144q0 115 79 115q78 0 78 -115v-540q0 -115 -78 -115q-47 0 -75 51q-52 -57 -128 -57zM174 276q0 -60 30 -98q29 -39 74 -39q101 0 101 137q0 134 -101 134q-104 0 -104 -134z" />
    <glyph glyph-name="e" unicode="e" horiz-adv-x="537" 
d="M169 236q12 -98 119 -98q27 0 54 8q20 6 45 18l37 17q18 8 30 8q63 0 63 -61q0 -49 -67 -87q-71 -41 -170 -41q-117 0 -195 79q-78 80 -78 200t76 200t189 80q111 0 185 -77q72 -74 72 -182q0 -64 -78 -64h-282zM376 338q-7 93 -103 93q-87 0 -105 -93h208z" />
    <glyph glyph-name="f" unicode="f" horiz-adv-x="380" 
d="M364 692q0 -54 -72 -65q-38 -6 -38 -59v-38h26q100 0 100 -67q0 -68 -100 -68h-26v-279q0 -115 -78 -115q-79 0 -79 115v279h-6q-89 0 -89 68q0 67 95 67v30q0 211 163 211q104 0 104 -79z" />
    <glyph glyph-name="g" unicode="g" horiz-adv-x="553" 
d="M197 368q-30 -39 -30 -98q0 -129 103 -129q105 0 105 129q0 59 -31 98q-30 38 -74 38t-73 -38zM446 543q79 0 79 -114v-317q0 -168 -59 -248q-66 -90 -218 -90q-104 0 -169 35q-62 34 -62 82q0 69 68 69q13 0 31 -7l22 -8q4 -1 5 -2l10 -4q25 -10 45 -14q28 -7 56 -7
q121 0 121 133v19q-51 -73 -142 -73q-95 0 -160 77q-68 78 -68 196q0 119 72 200q71 80 172 80q79 0 127 -57q27 50 70 50z" />
    <glyph glyph-name="h" unicode="h" horiz-adv-x="544" 
d="M185 500q43 46 134 46q192 0 192 -204v-226q0 -116 -78 -116q-79 0 -79 115v178q0 118 -84 118q-86 0 -86 -115v-180q0 -116 -78 -116q-79 0 -79 115v540q0 115 79 115q78 0 78 -115v-155h1z" />
    <glyph glyph-name="i" unicode="i" horiz-adv-x="245" 
d="M198 434v-317q0 -115 -78 -115q-79 0 -79 115v317q0 114 79 114q78 0 78 -114zM184 747q26 -26 26 -64t-26 -65q-26 -26 -64 -26t-65 26q-26 27 -26 65q0 37 27 64q26 26 64 26t64 -26z" />
    <glyph glyph-name="j" unicode="j" horiz-adv-x="245" 
d="M60 758q26 26 64 26t64 -26t26 -64t-26 -65q-26 -26 -64 -26t-65 26q-26 27 -26 65q0 37 27 64zM45 -99v544q0 114 79 114q78 0 78 -114v-530q0 -115 -78 -115h-126q-21 0 -36.5 15t-15.5 36t15.5 35.5t36.5 14.5h47z" />
    <glyph glyph-name="k" unicode="k" horiz-adv-x="504" 
d="M193 654v-290l135 139q41 42 81 42q66 0 66 -60q0 -39 -40 -76l-106 -98l147 -173q31 -37 31 -76q0 -63 -74 -63q-46 0 -82 47l-158 210v-142q0 -115 -78 -115q-79 0 -79 115v540q0 115 79 115q78 0 78 -115z" />
    <glyph glyph-name="l" unicode="l" horiz-adv-x="227" 
d="M191 656v-541q0 -115 -78 -115q-79 0 -79 115v541q0 114 79 114q78 0 78 -114z" />
    <glyph glyph-name="m" unicode="m" horiz-adv-x="825" 
d="M179 496q46 50 126 50q103 0 157 -72q65 72 159 72q178 0 178 -205v-226q0 -115 -79 -115q-78 0 -78 115v178q0 118 -72 118q-80 0 -80 -116v-180q0 -115 -79 -115q-78 0 -78 115v178q0 118 -72 118q-80 0 -80 -116v-180q0 -115 -79 -115q-78 0 -78 115v317q0 114 80 114
q47 0 75 -50z" />
    <glyph glyph-name="n" unicode="n" horiz-adv-x="546" 
d="M187 496q46 50 138 50q192 0 192 -204v-226q0 -116 -78 -116q-79 0 -79 115v178q0 118 -84 118q-86 0 -86 -115v-180q0 -116 -78 -116q-79 0 -79 115v317q0 114 79 114q47 0 75 -50z" />
    <glyph glyph-name="o" unicode="o" horiz-adv-x="537" 
d="M462 483q74 -79 74 -202t-74 -201q-75 -78 -192 -78t-192 78t-75 201t75 202q76 78 192 78q117 0 192 -78zM196 380q-31 -38 -31 -98q0 -136 105 -136q104 0 104 137q0 59 -30 97q-30 37 -74 37q-45 0 -74 -37z" />
    <glyph glyph-name="p" unicode="p" horiz-adv-x="571" 
d="M318 560q101 0 170 -77q70 -79 70 -199q0 -118 -71 -201q-71 -82 -171 -82q-70 0 -125 47v-135q0 -115 -78 -115q-79 0 -79 115v530q0 110 79 110q49 0 75 -46q48 53 130 53zM211 287q0 -136 102 -136q103 0 103 137q0 59 -30 97q-29 37 -73 37q-102 0 -102 -135z" />
    <glyph glyph-name="q" unicode="q" horiz-adv-x="569" 
d="M459 554q78 0 78 -110v-530q0 -115 -78 -115q-79 0 -79 115v134q-53 -46 -125 -46q-100 0 -170 82q-72 83 -72 201q0 120 71 199q68 77 169 77q83 0 131 -53q26 46 75 46zM205 380q-30 -38 -30 -97q0 -137 103 -137q102 0 102 137q0 134 -101 134q-45 0 -74 -37z" />
    <glyph glyph-name="r" unicode="r" horiz-adv-x="389" 
d="M285 551q32 0 57 -25q23 -25 23 -57q0 -40 -43 -61q-9 -5 -20 -9l-23 -9q-32 -12 -48 -19q-50 -24 -50 -94v-164q0 -115 -78 -115q-79 0 -79 115v317q0 114 79 114q47 0 75 -50q54 57 107 57z" />
    <glyph glyph-name="s" unicode="s" horiz-adv-x="438" 
d="M346 527q52 -31 52 -74q0 -66 -65 -66q-13 0 -30 6q-7 2 -16 6l-12 5q0 1 -2 1q-1 1 -2 1q-21 9 -32 13q-19 6 -33 6q-36 0 -36 -27q0 -19 29 -33q10 -5 34 -15l45 -18q129 -58 129 -153q0 -76 -58 -126q-60 -52 -153 -52q-87 0 -141 32q-54 31 -54 80q0 69 60 69
q19 0 39 -7q8 -3 18 -8q4 -1 8 -4l17 -8q5 -3 9 -4q9 -5 17 -8q20 -7 39 -7q44 0 44 37q0 26 -87 58q-150 55 -150 161q0 72 55 119q55 49 142 49q80 0 134 -33z" />
    <glyph glyph-name="t" unicode="t" horiz-adv-x="373" 
d="M250 604v-73h21q100 0 100 -67q0 -68 -100 -68h-21v-279q0 -115 -78 -115q-79 0 -79 115v279h-6q-89 0 -89 68q0 67 95 67v73q0 114 79 114q78 0 78 -114z" />
    <glyph glyph-name="u" unicode="u" horiz-adv-x="553" 
d="M193 434v-178q0 -116 81 -116t81 116v178q0 114 79 114q78 0 78 -114v-210q0 -228 -238 -228t-238 228v210q0 114 79 114q78 0 78 -114z" />
    <glyph glyph-name="v" unicode="v" horiz-adv-x="476" 
d="M155 475l86 -274l85 284q20 67 74 67q74 0 74 -79q0 -20 -12 -52l-133 -344q-29 -77 -90 -77q-64 0 -95 82l-132 337q-14 37 -14 55q0 78 76 78q56 0 81 -77z" />
    <glyph glyph-name="w" unicode="w" horiz-adv-x="763" 
d="M157 475l83 -288l67 289q18 76 73 76q61 0 80 -78l72 -283l83 294q19 67 74 67q74 0 74 -79q0 -18 -12 -52l-121 -344q-28 -77 -90 -77q-73 0 -95 82l-65 251l-61 -256q-18 -77 -90 -77q-65 0 -95 82l-125 349q-9 26 -9 43q0 78 76 78q59 0 81 -77z" />
    <glyph glyph-name="x" unicode="x" horiz-adv-x="513" 
d="M161 512l96 -111l88 108q30 36 64 36q33 0 57 -23t24 -54q0 -30 -35 -68l-104 -111l123 -139q19 -21 26 -34q11 -20 11 -44q0 -73 -72 -73q-37 0 -72 41l-113 134l-112 -134q-35 -41 -68 -41q-76 0 -76 78q0 33 33 69l131 144l-110 112q-30 32 -30 64q0 31 22 55t52 24
q36 0 65 -33z" />
    <glyph glyph-name="y" unicode="y" horiz-adv-x="495" 
d="M160 472l89 -238l97 251q25 63 69 63q78 0 78 -75q0 -25 -13 -55l-240 -570q-27 -64 -69 -64q-78 0 -78 76q0 25 13 54l65 141l-159 371q-9 19 -9 44q0 78 77 78q52 0 80 -76z" />
    <glyph glyph-name="z" unicode="z" horiz-adv-x="470" 
d="M370 144q99 0 99 -72t-100 -72h-287q-83 0 -83 49q0 29 24 60l216 279h-136q-99 0 -99 73q0 71 100 71h253q99 0 99 -48q0 -26 -32 -69l-210 -271h156z" />
    <glyph glyph-name="braceleft" unicode="{" horiz-adv-x="456" 
d="M253 255q19 -30 19 -99v-118q0 -57 15 -75q17 -21 69 -21q71 0 71 -51t-70 -51q-118 0 -159 32q-44 34 -44 134v123q0 84 -48 111q-9 5 -26 11l-13 5q-8 2 -13 5q-29 13 -29 41t29 41q5 3 13 5l13 5q17 6 26 11q48 27 48 111v123q0 100 44 134q41 32 159 32q70 0 70 -51
t-71 -51q-52 0 -69 -21q-15 -18 -15 -75v-118q0 -69 -19 -99q-22 -33 -82 -47q60 -14 82 -47z" />
    <glyph glyph-name="bar" unicode="|" horiz-adv-x="200" 
d="M144 762v-906q0 -47 -47 -47t-47 47v906q0 47 47 47t47 -47z" />
    <glyph glyph-name="braceright" unicode="}" horiz-adv-x="454" 
d="M198 347q-19 30 -19 99v118q0 57 -15 75q-17 21 -69 21q-71 0 -71 51t70 51q118 0 159 -32q44 -34 44 -134v-123q0 -84 48 -111q9 -5 26 -11l13 -5q8 -2 13 -5q29 -13 29 -41t-29 -41q-5 -3 -13 -5l-13 -5q-17 -6 -26 -11q-48 -27 -48 -111v-123q0 -100 -44 -134
q-41 -32 -159 -32q-70 0 -70 51t71 51q52 0 69 21q15 18 15 75v118q0 69 19 99q22 33 82 47q-60 14 -82 47z" />
    <glyph glyph-name="asciitilde" unicode="~" horiz-adv-x="833" 
d="M69 289q0 36 71 75q72 39 137 39q43 0 85 -10l35 -11q14 -4 34 -12l31 -12q18 -7 32 -11q36 -10 69 -10q28 0 58 11q23 8 49 24l37 24q18 11 25 11q37 0 37 -57q0 -36 -71 -75q-71 -40 -136 -40q-33 0 -72 10q-15 4 -34 11q-8 2 -17 6l-52 18q-20 7 -36 11q-40 10 -76 10
q-28 0 -58 -11q-23 -8 -49 -23l-37 -24q-18 -11 -25 -11q-37 0 -37 57z" />
    <glyph glyph-name="uni0095" horiz-adv-x="945" 
 />
    <glyph glyph-name="exclamdown" unicode="&#xa1;" horiz-adv-x="290" 
d="M110 480q-26 25 -26 59q0 36 26 61q25 24 60 24q84 0 84 -84q0 -35 -25 -60q-25 -26 -59 -26t-60 26zM93 -6v288q0 115 77 115q78 0 78 -115v-288q0 -114 -78 -114q-77 0 -77 114z" />
    <glyph glyph-name="cent" unicode="&#xa2;" horiz-adv-x="483" 
d="M324 5q34 -15 34 -65q0 -72 -73 -72q-72 0 -72 72q0 46 29 63q-96 9 -158 76q-73 77 -73 202q0 124 74 201q59 62 148 75q-20 18 -20 56q0 73 72 73q73 0 73 -73q0 -38 -20 -56q42 -7 72 -24q48 -28 48 -73q0 -67 -65 -67q-9 0 -23 4q-5 1 -13 4q-2 0 -7 2q-5 1 -6 2
q-37 12 -62 12q-48 0 -78 -38q-31 -38 -31 -99q0 -134 115 -134q26 0 62 12l6 2q5 2 7 2q7 3 12 4q13 4 21 4q61 0 61 -68q0 -42 -51 -71q-35 -19 -82 -26z" />
    <glyph glyph-name="sterling" unicode="&#xa3;" horiz-adv-x="609" 
d="M537 674q72 -55 72 -123q0 -77 -70 -77q-24 0 -44 18l-26 28l-8 11q-23 27 -43 39q-30 18 -69 18q-91 0 -91 -74q0 -26 19 -80h103q115 0 115 -75t-115 -75h-82q0 -77 -43 -132h241q115 0 115 -75t-115 -75h-281q-81 0 -111 13q-40 17 -40 67q0 23 12 48l28 43
q18 28 27 49q12 29 12 62h-29q-115 0 -115 75t104 75h9q-16 48 -16 92q0 89 69 147q70 60 178 60q115 0 194 -59z" />
    <glyph glyph-name="currency" unicode="&#xa4;" horiz-adv-x="560" 
d="M165 462q-48 -48 -48 -120q0 -69 43 -117q47 -52 120 -52q66 0 113 49q46 50 46 120q0 72 -46 119t-113 47q-69 0 -115 -46zM88 577l39 -41q56 53 153 53q42 0 80 -13q42 -14 68 -40l45 45q7 8 19 8q34 0 34 -37q0 -12 -10 -22l-39 -39q49 -55 49 -151q0 -90 -49 -148
l39 -39q10 -9 10 -25q0 -36 -36 -36q-9 0 -29 20l-33 35q-57 -55 -150 -55q-91 0 -149 55l-45 -43q-12 -12 -21 -12q-11 0 -22 12q-11 13 -11 26q0 6 4 13q3 6 7 10l37 39q-48 61 -48 147q0 94 48 152l-37 39q-11 13 -11 23q0 36 35 36q12 0 23 -12z" />
    <glyph glyph-name="yen" unicode="&#xa5;" horiz-adv-x="563" 
d="M154 407l-118 167q-36 50 -36 82q0 28 21 51q23 23 56 23q38 0 84 -65l121 -173l123 175q44 63 87 63q27 0 49 -23q22 -22 22 -49q0 -30 -37 -82l-118 -169h63q56 0 56 -51t-57 -51h-108v-112h109q56 0 56 -51t-57 -51h-109q-7 -93 -80 -93t-80 93h-108q-57 0 -57 51
t57 51h107v112h-107q-57 0 -57 51t57 51h61z" />
    <glyph glyph-name="brokenbar" unicode="&#xa6;" horiz-adv-x="277" 
d="M144 838.654v-389.573q0 -20.21 -47 -20.21t-47 20.21v389.573q0 20.21 47 20.21t47 -20.21zM144 268.654v-389.573q0 -20.21 -47 -20.21t-47 20.21v389.573q0 20.21 47 20.21t47 -20.21z" />
    <glyph glyph-name="section" unicode="&#xa7;" horiz-adv-x="541" 
d="M57 573q0 78 55 128q57 51 149 51q98 0 160 -47q57 -44 57 -105q0 -68 -64 -68q-34 0 -62 50q-30 53 -87 53q-67 0 -67 -50q0 -26 35 -48q15 -9 43 -23l60 -29q50 -24 80 -42q37 -22 60 -44q50 -49 50 -118q0 -99 -90 -152q48 -48 48 -115q0 -77 -57 -125
q-58 -50 -154 -50t-160 46q-61 44 -61 105q0 68 67 68q34 0 63 -50q30 -52 91 -52q70 0 70 50q0 26 -35 48q-14 9 -43 22l-20 10q-1 1 -4 2l-35 17q-50 24 -80 42q-37 23 -60 45q-51 48 -51 118q0 102 91 151q-49 48 -49 112zM389 263q0 28 -43 57q-41 28 -151 76
q-43 -27 -43 -68q0 -46 194 -133q43 23 43 68z" />
    <glyph glyph-name="afii10023" unicode="&#xa8;" horiz-adv-x="483" 
d="M199 432h114q115 0 115 -75t-115 -75h-114v-133h137q115 0 115 -75t-115 -75h-189q-64 0 -87 22t-23 80v495q0 62 22 87q25 27 90 27h182q115 0 115 -76q0 -74 -115 -74h-132v-128zM219 821q0 -72 -73 -72q-72 0 -72 72q0 73 72 73q73 0 73 -73zM422 821q0 -72 -73 -72
q-72 0 -72 72q0 73 72 73q73 0 73 -73z" />
    <glyph glyph-name="afii10023" unicode="&#x401;" horiz-adv-x="483" 
d="M199 432h114q115 0 115 -75t-115 -75h-114v-133h137q115 0 115 -75t-115 -75h-189q-64 0 -87 22t-23 80v495q0 62 22 87q25 27 90 27h182q115 0 115 -76q0 -74 -115 -74h-132v-128zM219 821q0 -72 -73 -72q-72 0 -72 72q0 73 72 73q73 0 73 -73zM422 821q0 -72 -73 -72
q-72 0 -72 72q0 73 72 73q73 0 73 -73z" />
    <glyph glyph-name="copyright" unicode="&#xa9;" horiz-adv-x="751" 
d="M630 606q103 -105 103 -255q0 -153 -107 -257q-109 -106 -257 -106q-150 0 -258 110q-104 106 -104 253q0 99 53 189q103 175 309 175q154 0 261 -109zM159 569q-92 -92 -92 -217t87 -212q90 -92 215 -92q121 0 215 89q89 86 89 209q0 130 -86 218q-89 91 -217 91
q-125 0 -211 -86zM465 535q32 -21 32 -54q0 -49 -43 -49q-6 0 -15 2q-3 1 -8 3q-2 1 -5 2t-4 1q-24 9 -40 9q-32 0 -52 -28t-20 -73q0 -99 76 -99q16 0 40 9l4 1q3 1 4 2q5 2 8 3q9 2 14 2q40 0 40 -50q0 -31 -33 -52q-35 -22 -88 -22q-76 0 -123 57q-48 57 -48 150
q0 91 48 149q49 58 130 58q51 0 83 -21z" />
    <glyph glyph-name="ordfeminine" unicode="&#xaa;" horiz-adv-x="425" 
d="M146.274 621.791q-19.7988 -22.7988 -19.7988 -57.5977q0 -35.999 19.1387 -58.7979q19.1396 -23.3994 48.1787 -23.3994q29.0381 0 48.1777 23.3994q19.7988 23.999 19.7988 58.7979q0 34.1982 -19.7988 57.5977q-19.7998 22.7988 -48.1777 22.7988
q-28.3789 0 -47.5186 -22.7988zM177.293 395.6q-65.3369 0 -110.875 46.7988q-46.8584 47.998 -46.8584 120.595q0 71.3975 47.5186 119.995q46.8574 47.998 114.175 47.998q51.4775 0 83.1562 -34.1982q18.4795 29.998 49.498 29.998q51.4785 0 51.4785 -68.3965v-190.192
q0 -68.9971 -51.4785 -68.9971q-32.998 0 -49.498 32.998q-32.998 -36.5986 -87.1162 -36.5986zM325 420q35 0 35 -51t-35.5 -51h-249.5q-35.5 0 -35.5 51t35.5 51h250z" />
    <glyph glyph-name="guillemotleft" unicode="&#xab;" horiz-adv-x="509" 
d="M256 439q0 -24 -33 -63l-83 -99l83 -99q33 -39 33 -63q0 -36 -44 -36q-34 0 -71 46l-126 152l126 152q37 46 71 46q44 0 44 -36zM489 439q0 -24 -33 -63l-83 -99l83 -99q33 -39 33 -63q0 -36 -44 -36q-34 0 -71 46l-126 152l126 152q37 46 71 46q44 0 44 -36z" />
    <glyph glyph-name="logicalnot" unicode="&#xac;" horiz-adv-x="468" 
d="M378 349q70 0 70 -51v-151q0 -70 -51 -70t-51 71v99h-251q-71 0 -71 51t71 51h283z" />
    <glyph glyph-name="registered" unicode="&#xae;" horiz-adv-x="833" 
d="M677 633q103 -105 103 -255q0 -153 -107 -257q-109 -106 -257 -106q-150 0 -258 110q-104 106 -104 253q0 99 53 189q103 175 309 175q154 0 261 -109zM206 596q-92 -92 -92 -217t87 -212q90 -92 215 -92q121 0 215 89q89 86 89 209q0 130 -86 218q-89 91 -217 91
q-125 0 -211 -86zM424 587q172 0 172 -116q0 -85 -88 -107l90 -180h-109l-77 165h-48v-165h-98v403h158zM364 408h48q83 0 83 57q0 60 -88 60h-43v-117z" />
    <glyph glyph-name="macron" unicode="&#xaf;" horiz-adv-x="428" 
d="M316 722q78 0 78 -69q0 -66 -79 -66h-203q-78 0 -78 67q0 68 79 68h203z" />
    <glyph glyph-name="degree" unicode="&#xb0;" horiz-adv-x="366" 
d="M98 587q0 -36 25 -61t60 -25t60 25q25 26 25 61q0 34 -24 59q-25 26 -61 26q-85 0 -85 -85zM289 690q42 -44 42 -104q0 -61 -43 -104q-44 -44 -106 -44t-104 43q-43 43 -43 105q0 60 42 104q43 45 106 45t106 -45z" />
    <glyph glyph-name="plusminus" unicode="&#xb1;" horiz-adv-x="830" 
d="M665 122q70 0 70 -51t-71 -51h-498q-71 0 -71 51q0 53 71 51h499zM665 502q70 0 70 -51t-71 -51h-198v-151q0 -70 -51 -70t-51 71v150h-198q-71 0 -71 51t71 51h198v150q0 71 51 71t51 -71v-150h199z" />
    <glyph glyph-name="uni00B2" unicode="&#xb2;" horiz-adv-x="525" 
d="M388 710q48 -35 48 -89q0 -47 -50 -101q-23 -24 -60 -55l-37 -30l-43 -33h115q89 0 89 -45q0 -44 -89 -44h-221q-75 0 -75 44q0 16 27 42q10 10 31 27l42 35q36 31 58 51q27 25 44 42q36 39 36 62q0 41 -47 41q-21 0 -36 -14q-6 -6 -13 -15q-3 -5 -10 -17
q-14 -23 -24 -32q-15 -14 -37 -14q-62 0 -62 49q0 50 52 90q55 42 134 42t128 -36z" />
    <glyph glyph-name="uni00B3" unicode="&#xb3;" horiz-adv-x="546" 
d="M410 713q50 -32 50 -79q0 -50 -68 -84q101 -36 101 -105q0 -55 -61 -93q-62 -39 -155 -39q-80 0 -145 37q-63 36 -63 76q0 45 60 45q23 0 41 -11q7 -5 16 -12l14 -13q18 -17 31 -24q21 -12 48 -12q72 0 72 53q0 39 -86 48q-58 7 -58 42q0 32 58 40q63 11 63 43
q0 35 -50 35q-20 0 -38 -8q-7 -3 -14 -8q-3 -2 -7 -5l-14 -9q-4 -3 -7 -5q-8 -5 -15 -8q-18 -8 -40 -8q-56 0 -56 39q0 36 57 66q60 32 137 32t129 -33z" />
    <glyph glyph-name="acute" unicode="&#xb4;" horiz-adv-x="500" 
d="M358 662q0 -27 -26 -56l-76 -84q-28 -31 -54 -31q-54 0 -54 55q0 20 17 44l73 100q22 32 57 32q63 0 63 -60z" />
    <glyph glyph-name="mu" unicode="&#xb5;" horiz-adv-x="809" 
d="M242 502l167 -287l165 298q25 46 74 46q42 0 62 -21q24 -26 29 -94l25 -337q0 -94 -70 -94q-77 0 -86 115l-13 163l-116 -216q-33 -62 -75 -62q-39 0 -75 67l-114 211l-31 -358q-10 -115 -86 -115q-70 0 -70 93l43 533q5 64 29 91q20 24 61 24q48 0 81 -57z" />
    <glyph glyph-name="paragraph" unicode="&#xb6;" horiz-adv-x="520" 
d="M301 667v-808q0 -70 -51 -70t-51 71v543q-78 0 -128 46q-51 47 -51 123q0 79 55 126q53 44 136 44h192q76 0 76 -83v-800q0 -70 -51 -70t-51 71v807h-76z" />
    <glyph glyph-name="periodcentered" unicode="&#xb7;" horiz-adv-x="324" 
d="M177.845 432.796q22.9502 -22.9492 22.9502 -54.3984q0 -33.1494 -22.9502 -55.248q-22.9492 -22.0996 -54.3984 -22.0996q-31.4482 0 -53.5479 21.249q-23.7998 21.25 -23.7998 56.0986q0 31.4492 22.9492 54.3984q22.9502 22.9492 54.3984 22.9492
q31.4492 0 54.3984 -22.9492z" />
    <glyph glyph-name="afii10071" unicode="&#xb8;" horiz-adv-x="544" 
d="M171 238q12 -98 119 -98q27 0 54 8q20 6 45 18l37 17q18 8 30 8q63 0 63 -61q0 -49 -67 -87q-71 -41 -170 -41q-117 0 -195 79q-78 80 -78 200t76 200t189 80q111 0 185 -77q72 -74 72 -182q0 -64 -78 -64h-282zM378 340q-7 93 -103 93q-87 0 -105 -93h208zM233 715
q0 -72 -73 -72q-72 0 -72 72q0 73 72 73q73 0 73 -73zM449 715q0 -72 -73 -72q-72 0 -72 72q0 73 72 73q73 0 73 -73z" />
    <glyph glyph-name="afii10071" unicode="&#x451;" horiz-adv-x="544" 
d="M171 238q12 -98 119 -98q27 0 54 8q20 6 45 18l37 17q18 8 30 8q63 0 63 -61q0 -49 -67 -87q-71 -41 -170 -41q-117 0 -195 79q-78 80 -78 200t76 200t189 80q111 0 185 -77q72 -74 72 -182q0 -64 -78 -64h-282zM378 340q-7 93 -103 93q-87 0 -105 -93h208zM233 715
q0 -72 -73 -72q-72 0 -72 72q0 73 72 73q73 0 73 -73zM449 715q0 -72 -73 -72q-72 0 -72 72q0 73 72 73q73 0 73 -73z" />
    <glyph glyph-name="uni00B9" unicode="&#xb9;" horiz-adv-x="360" 
d="M219 727q78 0 78 -66v-277q0 -66 -69 -66q-70 0 -70 66v258h-14q-93 0 -93 42q0 43 99 43h69z" />
    <glyph glyph-name="ordmasculine" unicode="&#xba;" horiz-adv-x="402" 
d="M313.907 684.788q48.8389 -47.3975 48.8389 -121.195q0 -73.7969 -48.8389 -120.595q-49.498 -46.7979 -126.715 -46.7979t-126.715 46.7979t-49.498 120.595q0 73.7979 49.498 121.195q50.1582 46.7979 126.715 46.7979q77.2168 0 126.715 -46.7979zM138.354 622.99
q-20.459 -22.7988 -20.459 -58.7969q0 -81.5967 69.2969 -81.5967q68.6377 0 68.6377 82.1963q0 35.3984 -19.7988 58.1973q-19.7998 22.1992 -48.8389 22.1992q-29.6982 0 -48.8379 -22.1992zM328 420q35 0 35 -51t-35.5 -51h-249.5q-35.5 0 -35.5 51t35.5 51h250z" />
    <glyph glyph-name="guillemotright" unicode="&#xbb;" horiz-adv-x="509" 
d="M368 429l126 -152l-126 -152q-37 -46 -71 -46q-44 0 -44 36q0 24 33 63l83 99l-83 99q-33 39 -33 63q0 36 44 36q34 0 71 -46zM135 429l126 -152l-126 -152q-37 -46 -71 -46q-44 0 -44 36q0 24 33 63l83 99l-83 99q-33 39 -33 63q0 36 44 36q34 0 71 -46z" />
    <glyph glyph-name="onequarter" unicode="&#xbc;" horiz-adv-x="1034" 
d="M219 727q78 0 78 -66v-277q0 -66 -69 -66q-70 0 -70 66v258h-14q-93 0 -93 42q0 43 99 43h69zM661 700q0 -19 -15 -49l-310 -587q-31 -58 -70 -58q-66 0 -66 63q0 21 14 48l311 587q31 58 70 58q66 0 66 -62zM888 355v-154h21q75 0 75 -43q0 -45 -83 -45h-13v-41
q0 -52 -67 -52q-59 0 -59 55v38h-214q-84 0 -84 38q0 19 33 56l181 200q42 46 102 46q108 0 108 -98zM762 201v160l-142 -160h142z" />
    <glyph glyph-name="onehalf" unicode="&#xbd;" horiz-adv-x="1029" 
d="M219 727q78 0 78 -66v-277q0 -66 -69 -66q-70 0 -70 66v258h-14q-93 0 -93 42q0 43 99 43h69zM691 691q0 -19 -15 -49l-310 -587q-31 -58 -70 -58q-66 0 -66 63q0 21 14 48l311 587q31 58 70 58q66 0 66 -62zM910 413q48 -35 48 -89q0 -47 -50 -101q-23 -24 -60 -55
l-37 -30l-43 -33h115q89 0 89 -45q0 -44 -89 -44h-221q-75 0 -75 44q0 16 27 42q10 10 31 27l42 35q36 31 58 51q27 25 44 42q36 39 36 62q0 41 -47 41q-21 0 -36 -14q-6 -6 -13 -15q-3 -5 -10 -17q-14 -23 -24 -32q-15 -14 -37 -14q-62 0 -62 49q0 50 52 90q55 42 134 42
t128 -36z" />
    <glyph glyph-name="threequarters" unicode="&#xbe;" horiz-adv-x="1217" 
d="M410 713q50 -32 50 -79q0 -50 -68 -84q101 -36 101 -105q0 -55 -61 -93q-62 -39 -155 -39q-80 0 -145 37q-63 36 -63 76q0 45 60 45q23 0 41 -11q7 -5 16 -12l14 -13q18 -17 31 -24q21 -12 48 -12q72 0 72 53q0 39 -86 48q-58 7 -58 42q0 32 58 40q63 11 63 43
q0 35 -50 35q-20 0 -38 -8q-7 -3 -14 -8q-3 -2 -7 -5l-14 -9q-4 -3 -7 -5q-8 -5 -15 -8q-18 -8 -40 -8q-56 0 -56 39q0 36 57 66q60 32 137 32t129 -33zM841 695q0 -19 -15 -49l-310 -587q-31 -58 -70 -58q-66 0 -66 63q0 21 14 48l311 587q31 58 70 58q66 0 66 -62z
M1066 350v-154h21q75 0 75 -43q0 -45 -83 -45h-13v-41q0 -52 -67 -52q-59 0 -59 55v38h-214q-84 0 -84 38q0 19 33 56l181 200q42 46 102 46q108 0 108 -98zM940 196v160l-142 -160h142z" />
    <glyph glyph-name="questiondown" unicode="&#xbf;" horiz-adv-x="509" 
d="M200 381q-26 25 -26 59q0 36 26 61q25 24 60 24q84 0 84 -84q0 -35 -25 -60q-25 -26 -59 -26t-60 26zM76 -150q-66 64 -66 157q0 178 175 210q0 98 78 98q76 0 76 -88v-63q0 -39 -16 -53q-13 -12 -61 -23q-82 -19 -82 -88q0 -66 70 -66q32 0 57 16q17 11 38 35l17 19
q10 10 18 16q20 16 43 16q65 0 65 -73q0 -66 -67 -120q-71 -59 -171 -59q-105 0 -174 66z" />
    <glyph glyph-name="Agrave" unicode="&#xc0;" horiz-adv-x="627" 
d="M394 293l-81 263l-88 -263h169zM436 638l180 -511q11 -31 11 -51q0 -76 -80 -76q-60 0 -85 79l-20 64h-263l-24 -70q-24 -73 -78 -73q-77 0 -77 78q0 27 8 47l185 502q38 105 124 105q85 0 119 -94z" />
    <glyph glyph-name="Aacute" unicode="&#xc1;" horiz-adv-x="596" 
d="M203 432h88q57 0 103 -10q51 -11 87 -35q83 -55 83 -175q0 -91 -66 -151q-71 -63 -187 -63h-160q-63 0 -86 20q-24 22 -24 82v495q0 64 25 89q24 25 87 25h221q115 0 115 -68q0 -70 -114 -70h-172v-139zM203 136h81q110 0 110 81q0 80 -113 80h-78v-161z" />
    <glyph glyph-name="Acircumflex" unicode="&#xc2;" horiz-adv-x="587" 
d="M279 711q222 0 222 -177q0 -102 -88 -140q144 -36 144 -180q0 -214 -253 -214h-160q-64 0 -87 22t-23 80v495q0 62 22 87q25 27 90 27h133zM196 138h80q111 0 111 81q0 80 -113 80h-78v-161zM196 434h68q80 0 80 69q0 70 -82 70h-66v-139z" />
    <glyph glyph-name="Atilde" unicode="&#xc3;" horiz-adv-x="479" 
d="M334 719q115 0 115 -76q0 -74 -115 -74h-132v-455q0 -115 -81 -115t-81 115v491q0 62 22 87q25 27 90 27h182z" />
    <glyph glyph-name="Adieresis" unicode="&#xc4;" horiz-adv-x="830" 
d="M173 2v-89q0 -115 -79 -115q-78 0 -78 115v117q0 122 97 122q42 41 59 114q14 58 14 149v184q0 64 25 89q24 25 87 25h300q63 0 88 -25q24 -25 24 -89v-447q43 0 68 -25q32 -31 32 -97v-117q0 -115 -78 -115q-79 0 -79 115v89h-480zM548 563h-205v-42q0 -63 -3 -113
q-3 -59 -10 -105q-18 -108 -59 -151h277v411z" />
    <glyph glyph-name="Aring" unicode="&#xc5;" horiz-adv-x="479" 
d="M200 435h114q115 0 115 -75t-115 -75h-114v-133h137q115 0 115 -75t-115 -75h-189q-64 0 -87 22t-23 80v495q0 62 22 87q25 27 90 27h182q115 0 115 -76q0 -74 -115 -74h-132v-128z" />
    <glyph glyph-name="AE" unicode="&#xc6;" horiz-adv-x="982" 
d="M576 614v-179l210 238q50 56 84 56q29 0 51 -22t22 -52q0 -37 -41 -80l-179 -187l217 -236q41 -46 41 -80q0 -31 -24 -53q-22 -22 -51 -22q-24 0 -45 16q-14 10 -42 41l-243 268v-210q0 -115 -81 -115t-81 115v210l-243 -268q-28 -31 -42 -41q-21 -16 -45 -16
q-29 0 -51 22q-24 22 -24 53q0 34 41 80l217 236l-179 187q-41 43 -41 80q0 30 22 52t51 22q34 0 84 -56l210 -238v179q0 115 81 115t81 -115z" />
    <glyph glyph-name="Ccedilla" unicode="&#xc7;" horiz-adv-x="587" 
d="M475 699q67 -53 67 -142q0 -99 -95 -146q122 -47 122 -182q0 -89 -78 -158q-81 -72 -195 -72q-67 0 -124 18q-51 16 -88 45q-72 55 -72 123q0 22 20 42q24 24 56 24q28 0 50 -18q9 -7 19 -18l17 -21q23 -27 42 -39q29 -18 69 -18q57 0 89 38q25 30 25 66q0 35 -18 57
q-23 27 -70 27h-59q-68 0 -68 70q0 65 68 65h36q92 0 92 86q0 68 -86 68q-56 0 -90 -20q-22 -13 -45 -44q-29 -38 -64 -38q-29 0 -45 23q-14 19 -14 46q0 66 72 117q76 54 182 54q117 0 185 -53z" />
    <glyph glyph-name="Egrave" unicode="&#xc8;" horiz-adv-x="697" 
d="M200 617v-336l299 395q43 56 87 56q74 0 74 -112v-505q0 -115 -81 -115t-81 115v327l-293 -387q-41 -55 -93 -55q-74 0 -74 97v520q0 115 81 115t81 -115z" />
    <glyph glyph-name="Eacute" unicode="&#xc9;" horiz-adv-x="701" 
d="M207 617v-336l299 395q43 56 87 56q74 0 74 -112v-505q0 -115 -81 -115t-81 115v327l-293 -387q-41 -55 -93 -55q-74 0 -74 97v520q0 115 81 115t81 -115zM251 768q-53 37 -53 85q0 55 52 55q18 0 33 -10q9 -6 25 -22q16 -17 26 -23q15 -10 34 -10q16 0 28 10q5 4 10 11
l7 8q2 2 3 4q12 15 22 22q16 10 37 10q53 0 53 -55q0 -48 -52 -86q-51 -36 -113 -36q-61 0 -112 37z" />
    <glyph glyph-name="Ecircumflex" unicode="&#xca;" horiz-adv-x="600" 
d="M196 619v-179l210 238q50 56 84 56q29 0 51 -22t22 -52q0 -37 -41 -80l-179 -187l217 -236q41 -46 41 -80q0 -31 -24 -53q-22 -22 -51 -22q-24 0 -45 16q-14 10 -42 41l-243 268v-210q0 -115 -81 -115t-81 115v502q0 115 81 115t81 -115z" />
    <glyph glyph-name="Edieresis" unicode="&#xcb;" horiz-adv-x="675" 
d="M273 570v-101q0 -43 -3 -81q-3 -45 -11 -87q-17 -99 -59 -186q-55 -115 -121 -115q-77 0 -77 69q0 35 32 79q82 111 82 242v216q0 64 25 89q24 25 87 25h300q63 0 88 -25q24 -25 24 -89v-491q0 -115 -81 -115t-81 115v455h-205z" />
    <glyph glyph-name="Igrave" unicode="&#xcc;" horiz-adv-x="839" 
d="M318 631l108 -425l101 426q24 98 111 98q94 0 114 -120l79 -489q4 -23 4 -39q0 -84 -82 -84q-70 0 -80 94l-50 425h-1l-110 -438q-10 -39 -26 -57q-22 -24 -64 -24q-75 0 -95 81l-104 438h-1l-56 -415q-15 -104 -85 -104q-79 0 -79 84q0 18 6 49l87 485q20 114 110 114
q89 0 113 -99z" />
    <glyph glyph-name="Iacute" unicode="&#xcd;" horiz-adv-x="699" 
d="M498 446v171q0 115 81 115t81 -115v-502q0 -115 -81 -115t-81 115v181h-298v-181q0 -115 -81 -115t-81 115v502q0 115 81 115t81 -115v-171h298z" />
    <glyph glyph-name="Icircumflex" unicode="&#xce;" horiz-adv-x="737" 
d="M617 649q97 -104 97 -274q0 -168 -96 -272t-253 -104t-253 104q-96 103 -96 272t97 273q96 104 252 104t252 -103zM240 538q-48 -61 -48 -165q0 -100 48 -160q48 -59 125 -59t125 59q48 60 48 160q0 104 -48 165q-47 59 -125 59t-125 -59z" />
    <glyph glyph-name="Idieresis" unicode="&#xcf;" horiz-adv-x="699" 
d="M198 572v-455q0 -115 -81 -115t-81 115v491q0 64 25 89q24 25 87 25h398q63 0 88 -25q24 -25 24 -89v-491q0 -115 -81 -115t-81 115v455h-298z" />
    <glyph glyph-name="Eth" unicode="&#xd0;" horiz-adv-x="578" 
d="M203 384h70q111 0 111 94q0 93 -111 93h-70v-187zM299 720q121 0 192 -66q69 -65 69 -176q0 -112 -65 -176q-66 -65 -183 -65h-109v-122q0 -115 -81 -115t-81 115v491q0 62 22 87q25 27 90 27h146z" />
    <glyph glyph-name="Ntilde" unicode="&#xd1;" horiz-adv-x="600" 
d="M518 719q59 -31 59 -75q0 -29 -21 -52q-21 -24 -49 -24q-12 0 -29 5q-7 1 -17 4l-17 6q-22 6 -37 9q-22 5 -42 5q-78 0 -126 -62q-49 -62 -49 -164q0 -99 49 -158t131 -59q23 0 47 6q17 4 40 14l13 5q3 1 4 2q10 4 17 6q18 6 30 6q25 0 45 -21q20 -22 20 -50
q0 -49 -62 -85q-65 -38 -162 -38q-156 0 -251 102q-97 103 -97 274q0 168 102 274q99 103 249 103q92 0 153 -33z" />
    <glyph glyph-name="Ograve" unicode="&#xd2;" horiz-adv-x="512" 
d="M395 720q115 0 115 -76q0 -74 -115 -74h-60v-455q0 -115 -81 -115t-81 115v455h-60q-115 0 -115 74q0 76 115 76h282z" />
    <glyph glyph-name="Oacute" unicode="&#xd3;" horiz-adv-x="560" 
d="M134 707q16 -15 34 -48l130 -234l111 227q19 39 35 55q22 21 54 21q61 0 61 -71q0 -25 -28 -76l-263 -490q-50 -95 -103 -95q-69 0 -69 64q0 31 22 65l99 159l-182 285q-33 53 -33 88q0 33 28 54q24 17 55 17q28 0 49 -21z" />
    <glyph glyph-name="Ocircumflex" unicode="&#xd4;" horiz-adv-x="877" 
d="M518 634v-20h86q119 0 189 -64q71 -65 71 -178q0 -110 -71 -177q-69 -64 -176 -64h-99v-31q0 -100 -81 -100t-81 100v31h-99q-247 0 -247 241q0 113 70 178q70 64 190 64h86v20q0 98 81 98t81 -98zM518 268h60q110 0 110 104t-110 104h-60v-208zM356 476h-60
q-110 0 -110 -104t110 -104h60v208z" />
    <glyph glyph-name="Otilde" unicode="&#xd5;" horiz-adv-x="607" 
d="M205 667l100 -140l102 142q45 63 86 63q27 0 49 -23q22 -22 22 -49q0 -31 -36 -82l-131 -182l173 -244q37 -53 37 -82q0 -27 -22 -48q-22 -22 -52 -22q-45 0 -88 61l-144 202l-143 -201q-43 -62 -85 -62q-29 0 -51 22t-22 49q0 31 36 82l173 241l-130 182q-36 50 -36 80
q0 76 79 76q36 0 83 -65z" />
    <glyph glyph-name="Odieresis" unicode="&#xd6;" horiz-adv-x="794" 
d="M492 149v458q0 115 81 115t81 -115v-458q62 0 85 -25q25 -27 25 -98v-116q0 -115 -78 -115q-79 0 -79 115v89h-494q-81 0 -81 115v493q0 115 81 115t81 -115v-458h298z" />
    <glyph glyph-name="multiply" unicode="&#xd7;" horiz-adv-x="652" 
d="M194 616v-112q0 -69 29 -97q24 -24 76 -24q83 0 154 62v171q0 115 81 115t81 -115v-502q0 -115 -81 -115t-81 115v181q-30 -18 -72 -31q-51 -16 -91 -16q-54 0 -96 10q-48 11 -82 36q-38 28 -58 74q-22 51 -22 124v124q0 115 81 115t81 -115z" />
    <glyph glyph-name="Oslash" unicode="&#xd8;" horiz-adv-x="987" 
d="M408 149v458q0 115 81 115t81 -115v-458h215v458q0 115 81 115t81 -115v-493q0 -115 -81 -115h-754q-81 0 -81 115v493q0 115 81 115t81 -115v-458h215z" />
    <glyph glyph-name="Ugrave" unicode="&#xd9;" horiz-adv-x="1059" 
d="M411 150v458q0 115 81 115t81 -115v-458h215v458q0 115 81 115t81 -115v-458q62 0 85 -25q25 -27 25 -98v-116q0 -115 -78 -115q-79 0 -79 115v89h-788q-81 0 -81 115v493q0 115 81 115t81 -115v-458h215z" />
    <glyph glyph-name="Uacute" unicode="&#xda;" horiz-adv-x="717" 
d="M255 713q81 0 81 -115v-140h87q119 0 190 -52q84 -60 84 -181q0 -93 -67 -156q-71 -67 -186 -67h-160q-63 0 -86 21q-24 21 -24 81v459h-59q-66 0 -92 18q-24 16 -24 56q0 39 24 57q26 19 92 19h140zM342 158h81q110 0 110 91q0 89 -113 89h-78v-180z" />
    <glyph glyph-name="Ucircumflex" unicode="&#xdb;" horiz-adv-x="803" 
d="M758 611v-502q0 -115 -81 -115t-81 115v502q0 115 81 115t81 -115zM203 606v-152h87q119 0 190 -52q84 -60 84 -181q0 -93 -67 -156q-71 -67 -186 -67h-160q-63 0 -86 21q-24 21 -24 81v506q0 115 81 115t81 -115zM203 136h81q110 0 110 91q0 89 -113 89h-78v-180z" />
    <glyph glyph-name="Udieresis" unicode="&#xdc;" horiz-adv-x="571" 
d="M198 608v-152h87q119 0 190 -52q84 -60 84 -181q0 -93 -67 -156q-71 -67 -186 -67h-160q-63 0 -86 21q-24 21 -24 81v506q0 115 81 115t81 -115zM225 158h81q110 0 110 91q0 89 -113 89h-78v-180z" />
    <glyph glyph-name="Yacute" unicode="&#xdd;" horiz-adv-x="582" 
d="M473 648q98 -106 98 -271q0 -169 -96 -273q-96 -103 -252 -103q-98 0 -160 33q-64 34 -64 90q0 71 73 71q18 0 38 -6q13 -4 35 -13l2 -1q1 -1 2 -1l30 -12q19 -6 36 -6q143 0 173 152h-175q-114 0 -114 74q0 76 114 76h172q-8 62 -56 102q-47 39 -109 39q-31 0 -53 -4
q-15 -3 -31 -9l-24 -10q-15 -4 -34 -4q-70 0 -70 67q0 53 73 86q63 29 140 29q153 0 252 -106z" />
    <glyph glyph-name="Thorn" unicode="&#xde;" horiz-adv-x="1048" 
d="M325 459q23 135 114 215q93 80 228 80q156 0 252 -103q97 -104 97 -274q0 -168 -96 -272t-253 -104q-140 0 -233 84q-92 83 -111 224h-132v-181q0 -115 -81 -115t-81 115v502q0 115 81 115t81 -115v-171h134zM542 540q-48 -61 -48 -165q0 -100 48 -160q48 -59 125 -59
t125 59q48 60 48 160q0 104 -48 165q-47 59 -125 59t-125 -59z" />
    <glyph glyph-name="germandbls" unicode="&#xdf;" horiz-adv-x="558" 
d="M417 717q63 0 88 -25q24 -25 24 -89v-491q0 -115 -81 -115t-81 115v165l-199 -227q-46 -53 -98 -53q-69 0 -69 71q0 42 52 93l136 130q-170 51 -170 214q0 95 62 151q68 61 196 61h140zM374 582h-77q-101 0 -101 -85q0 -98 103 -98h75v183z" />
    <glyph glyph-name="agrave" unicode="&#xe0;" horiz-adv-x="567" 
d="M204 375q-30 -38 -30 -96q0 -60 29 -98q29 -39 73 -39t73 39q30 40 30 98q0 57 -30 96q-30 38 -73 38t-72 -38zM251 -2q-99 0 -168 78q-71 80 -71 201q0 119 72 200q71 80 173 80q78 0 126 -57q28 50 75 50q78 0 78 -114v-317q0 -115 -78 -115q-50 0 -75 55
q-50 -61 -132 -61z" />
    <glyph glyph-name="aacute" unicode="&#xe1;" horiz-adv-x="587" 
d="M486 78q-75 -78 -192 -78q-118 0 -191 72q-76 75 -76 207v97q0 62 5 108q6 57 19 102q33 105 117 164q35 25 77 43q31 13 74 26l26 7q2 1 9 2q22 6 33 10q36 11 59 22q25 13 49 13q65 0 65 -68q0 -44 -44 -74q-36 -23 -99 -42l-123 -34q-40 -11 -64 -21q-32 -14 -53 -34
q-50 -46 -50 -140q35 46 75 69q50 30 112 30q106 0 173 -68q73 -75 73 -212q0 -123 -74 -201zM189 281q0 -60 29 -98q29 -39 76 -39q104 0 104 137q0 57 -25 94q-28 40 -79 40q-105 0 -105 -134z" />
    <glyph glyph-name="acircumflex" unicode="&#xe2;" horiz-adv-x="542" 
d="M474 256q48 -37 48 -95q0 -76 -59 -119q-54 -40 -136 -40h-212q-81 0 -81 113v311q0 115 95 115h205q161 0 161 -125q0 -44 -34 -79q-30 -31 -71 -44q48 -8 84 -37zM191 329h91q63 0 63 49q0 18 -11 29q-14 15 -47 15h-96v-93zM191 128h98q78 0 78 58q0 49 -78 49h-98
v-107z" />
    <glyph glyph-name="atilde" unicode="&#xe3;" horiz-adv-x="400" 
d="M285 539q99 0 99 -70q0 -65 -99 -65h-97v-289q0 -115 -78 -115q-79 0 -79 115v286q0 138 98 138h156z" />
    <glyph glyph-name="adieresis" unicode="&#xe4;" horiz-adv-x="635" 
d="M465 536q42 0 62 -23q22 -27 22 -92v-282q76 0 76 -100v-102q0 -115 -75 -115t-75 115v67h-318v-67q0 -115 -76 -115q-74 0 -74 115v102q0 54 13 74q16 26 63 26q31 47 31 104v178q0 68 22 94q18 21 61 21h268zM259 401v-182q0 -18 -9 -46q-4 -12 -8 -21q-5 -10 -9 -13
h159v262h-133z" />
    <glyph glyph-name="aring" unicode="&#xe5;" horiz-adv-x="562" 
d="M181 237q12 -98 119 -98q27 0 54 8q20 6 45 18l37 17q18 8 30 8q63 0 63 -61q0 -49 -67 -87q-71 -41 -170 -41q-117 0 -195 79q-78 80 -78 200t76 200t189 80q111 0 185 -77q72 -74 72 -182q0 -64 -78 -64h-282zM388 339q-7 93 -103 93q-87 0 -105 -93h208z" />
    <glyph glyph-name="ae" unicode="&#xe6;" horiz-adv-x="780" 
d="M469 429v-67l134 139q41 42 82 42q65 0 65 -60q0 -39 -40 -76l-106 -98l147 -173q31 -37 31 -76q0 -63 -74 -63q-46 0 -82 47l-157 210v-142q0 -115 -80 -115q-77 0 -77 114v142l-157 -210q-35 -46 -82 -46q-74 0 -74 62q0 39 31 76l147 173l-106 98q-40 37 -40 76
q0 61 66 61q39 0 81 -43l134 -139v67q0 115 77 115q80 0 80 -114z" />
    <glyph glyph-name="ccedilla" unicode="&#xe7;" horiz-adv-x="501" 
d="M414 525q57 -37 57 -104q0 -41 -28 -74q-23 -28 -64 -47q109 -24 109 -121q0 -80 -70 -130q-70 -49 -181 -49q-92 0 -160 41q-67 40 -67 92q0 62 59 62q26 0 43 -11q7 -5 14 -12q3 -2 7 -6l4 -4q1 -2 3 -3q18 -17 36 -25q27 -11 68 -11q87 0 87 70q0 49 -71 49h-35
q-57 0 -57 51q0 47 57 47h27q62 0 62 50q0 46 -70 46q-27 0 -52 -8q-18 -6 -38 -17l-16 -9q-9 -6 -15 -8q-15 -8 -26 -8q-25 0 -45 20q-20 19 -20 42q0 48 72 80q68 31 159 31q96 0 151 -34z" />
    <glyph glyph-name="egrave" unicode="&#xe8;" horiz-adv-x="535" 
d="M188 430v-172l161 241q31 46 78 46q79 0 79 -115v-316q0 -115 -79 -115q-78 0 -78 115v166l-182 -253q-20 -28 -58 -28q-78 0 -78 115v316q0 115 78 115q79 0 79 -115z" />
    <glyph glyph-name="eacute" unicode="&#xe9;" horiz-adv-x="546" 
d="M193 429v-172l161 241q31 46 78 46q79 0 79 -115v-316q0 -115 -79 -115q-78 0 -78 115v166l-182 -253q-20 -28 -58 -28q-78 0 -78 115v316q0 115 78 115q79 0 79 -115zM185 570q-45 32 -45 73q0 46 45 46q23 0 48 -27q25 -28 45 -28q19 0 45 28q26 27 53 27q44 0 44 -46
q0 -42 -44 -73q-43 -31 -96 -31q-52 0 -95 31z" />
    <glyph glyph-name="ecircumflex" unicode="&#xea;" horiz-adv-x="508" 
d="M193 429v-66l135 139q41 42 81 42q66 0 66 -60q0 -39 -40 -76l-106 -98l147 -173q31 -37 31 -76q0 -63 -74 -63q-46 0 -82 47l-158 210v-142q0 -115 -78 -115q-79 0 -79 115v316q0 115 79 115q78 0 78 -115z" />
    <glyph glyph-name="edieresis" unicode="&#xeb;" horiz-adv-x="526" 
d="M212 408v-182q0 -88 -35 -154q-38 -74 -98 -74q-64 0 -64 66q0 16 8 34q3 7 8 16l10 17q12 22 18 37q8 23 8 46v214q0 115 83 115h268q84 0 84 -115v-309q0 -115 -79 -115q-78 0 -78 115v289h-133z" />
    <glyph glyph-name="igrave" unicode="&#xec;" horiz-adv-x="771" 
d="M224 484l167 -287l165 298q25 46 74 46q42 0 62 -21q24 -26 29 -94l25 -337q0 -94 -70 -94q-77 0 -86 115l-13 163l-116 -216q-33 -62 -75 -62q-39 0 -75 67l-114 211l-14 -163q-10 -115 -86 -115q-70 0 -70 93l26 338q5 64 29 91q20 24 61 24q48 0 81 -57z" />
    <glyph glyph-name="iacute" unicode="&#xed;" horiz-adv-x="546" 
d="M356 349v82q0 115 80 115q77 0 77 -115v-316q0 -115 -79 -115q-78 0 -78 115v108h-163v-107q0 -116 -79 -116q-78 0 -78 115v316q0 115 83 115q74 0 74 -114v-83h163z" />
    <glyph glyph-name="icircumflex" unicode="&#xee;" horiz-adv-x="569" 
d="M477 479q74 -79 74 -202t-74 -201q-75 -78 -192 -78t-192 78t-75 201t75 202q76 78 192 78q117 0 192 -78zM211 376q-31 -38 -31 -98q0 -136 105 -136q104 0 104 137q0 59 -30 97q-30 37 -74 37q-45 0 -74 -37z" />
    <glyph glyph-name="idieresis" unicode="&#xef;" horiz-adv-x="544" 
d="M511 113q0 -115 -78 -115q-79 0 -79 115v289h-163v-289q0 -115 -77 -115q-80 0 -80 115v309q0 64 21 91q18 24 59 24h319q40 0 57 -21q21 -27 21 -94v-309z" />
    <glyph glyph-name="eth" unicode="&#xf0;" horiz-adv-x="580" 
d="M318 559q101 0 170 -77q70 -79 70 -199q0 -118 -71 -201q-71 -82 -171 -82q-70 0 -125 47v-135q0 -115 -78 -115q-79 0 -79 115v530q0 110 79 110q49 0 75 -46q48 53 130 53zM191 280q0 -136 102 -136q103 0 103 137q0 59 -30 97q-29 37 -73 37q-102 0 -102 -135z" />
    <glyph glyph-name="ntilde" unicode="&#xf1;" horiz-adv-x="479" 
d="M413 532q48 -28 48 -73q0 -67 -65 -67q-9 0 -23 4q-5 1 -13 4q-2 0 -7 2q-5 1 -6 2q-37 12 -62 12q-48 0 -78 -38q-31 -38 -31 -99q0 -134 115 -134q26 0 62 12l6 2q5 2 7 2q7 3 12 4q13 4 21 4q61 0 61 -68q0 -42 -51 -71q-53 -29 -134 -29q-116 0 -188 77
q-73 77 -73 202q0 124 74 201q75 79 197 79q79 0 128 -28z" />
    <glyph glyph-name="ograve" unicode="&#xf2;" horiz-adv-x="481" 
d="M386 539q95 0 95 -67q0 -68 -96 -68h-66v-289q0 -115 -77 -115q-80 0 -80 115v289h-70q-91 0 -91 68q0 67 89 67h296z" />
    <glyph glyph-name="oacute" unicode="&#xf3;" horiz-adv-x="492" 
d="M158 463l89 -238l97 251q25 63 69 63q78 0 78 -75q0 -25 -13 -55l-240 -570q-27 -64 -69 -64q-78 0 -78 76q0 25 13 54l65 141l-159 371q-9 19 -9 44q0 78 77 78q52 0 80 -76z" />
    <glyph glyph-name="ocircumflex" unicode="&#xf4;" horiz-adv-x="906" 
d="M528 662v-157q49 54 126 54q101 0 170 -80q70 -81 70 -200q0 -117 -70 -198t-172 -81q-74 0 -124 42v-134q0 -115 -79 -115q-78 0 -78 115v134q-51 -42 -125 -42q-101 0 -171 82t-70 199q0 119 70 199q69 79 171 79q76 0 125 -54v157q0 115 78 115q79 0 79 -115zM556 375
q-28 -39 -28 -98q0 -133 101 -133q103 0 103 133q0 58 -29 98t-74 40q-44 0 -73 -40zM196 375q-29 -39 -29 -97q0 -134 102 -134t102 133q0 59 -28 98q-28 40 -73 40t-74 -40z" />
    <glyph glyph-name="otilde" unicode="&#xf5;" horiz-adv-x="513" 
d="M165 513l96 -111l88 108q30 36 64 36q33 0 57 -23t24 -54q0 -30 -35 -68l-104 -111l123 -139q19 -21 26 -34q11 -20 11 -44q0 -73 -72 -73q-37 0 -72 41l-113 134l-112 -134q-35 -41 -68 -41q-76 0 -76 78q0 33 33 69l131 144l-110 112q-30 32 -30 64q0 31 22 55t52 24
q36 0 65 -33z" />
    <glyph glyph-name="odieresis" unicode="&#xf6;" horiz-adv-x="598" 
d="M339 132v289q0 115 79 115q78 0 78 -119v-285q37 0 55 -20q22 -24 22 -80v-102q0 -119 -72 -119q-78 0 -78 115v71h-324q-79 0 -79 115v309q0 115 79 115q78 0 78 -115v-289h162z" />
    <glyph glyph-name="divide" unicode="&#xf7;" horiz-adv-x="522" 
d="M173 430v-53q0 -83 75 -83q88 0 88 66v70q0 115 78 115q79 0 79 -115v-316q0 -115 -79 -115q-78 0 -78 115v91q0 -3 -31 -13q-18 -6 -38 -9q-25 -4 -51 -4q-86 0 -139 43q-61 48 -61 141v67q0 115 80 115q77 0 77 -115z" />
    <glyph glyph-name="oslash" unicode="&#xf8;" horiz-adv-x="845" 
d="M342 135v289q0 115 78 115q79 0 79 -115v-289h160v289q0 115 78 115q79 0 79 -115v-309q0 -115 -76 -115h-638q-77 0 -77 115v308q0 116 77 116q80 0 80 -115v-289h160z" />
    <glyph glyph-name="ugrave" unicode="&#xf9;" horiz-adv-x="904" 
d="M344 137v289q0 115 78 115q79 0 79 -115v-289h160v289q0 115 78 115q79 0 79 -115v-289q37 0 55 -20q22 -24 22 -80v-102q0 -119 -72 -119q-78 0 -78 115v71h-641q-77 0 -77 115v308q0 116 77 116q80 0 80 -115v-289h160z" />
    <glyph glyph-name="uacute" unicode="&#xfa;" horiz-adv-x="645" 
d="M235 532q78 0 78 -115v-56h84q127 0 186 -49q51 -42 51 -121q0 -84 -64 -137q-65 -54 -172 -54h-163q-79 0 -79 113v284h-67q-88 0 -88 65q0 70 95 70h139zM317 146h87q77 0 77 64q0 59 -77 59h-87v-123z" />
    <glyph glyph-name="ucircumflex" unicode="&#xfb;" horiz-adv-x="733" 
d="M701 429v-317q0 -115 -78 -115q-79 0 -79 115v317q0 114 79 114q78 0 78 -114zM188 421v-63h84q127 0 186 -49q51 -42 51 -121q0 -84 -64 -137q-65 -54 -172 -54h-163q-79 0 -79 113v311q0 115 79 115q78 0 78 -115zM188 123h87q77 0 77 64q0 59 -77 59h-87v-123z" />
    <glyph glyph-name="udieresis" unicode="&#xfc;" horiz-adv-x="531" 
d="M186 424v-63h84q127 0 186 -49q51 -42 51 -121q0 -84 -64 -137q-65 -54 -172 -54h-163q-79 0 -79 113v311q0 115 79 115q78 0 78 -115zM186 126h87q77 0 77 64q0 59 -77 59h-87v-123z" />
    <glyph glyph-name="yacute" unicode="&#xfd;" horiz-adv-x="481" 
d="M389 482q75 -77 75 -202q0 -116 -73 -196q-75 -83 -189 -83q-79 0 -132 31t-53 74q0 59 59 59q16 0 30 -5q8 -2 23 -9q15 -8 24 -10q15 -5 32 -5q87 0 117 94h-103q-89 0 -89 58q0 68 101 68h91q-28 69 -107 69q-22 0 -40 -4q-12 -3 -26 -9l-21 -10q-12 -4 -25 -4
q-67 0 -67 63q0 47 58 75q50 24 119 24q121 0 196 -78z" />
    <glyph glyph-name="thorn" unicode="&#xfe;" horiz-adv-x="800" 
d="M253 338q16 96 89 155q72 59 171 59q117 0 191 -78q75 -78 75 -202q0 -123 -74 -201q-75 -78 -192 -78q-101 0 -170 54q-74 58 -90 165h-73v-98q0 -115 -79 -115q-78 0 -78 115v316q0 115 83 115q74 0 74 -115v-92h73zM409 274q0 -137 103 -137q105 0 105 137
q0 134 -104 134t-104 -134z" />
    <glyph glyph-name="ydieresis" unicode="&#xff;" horiz-adv-x="524" 
d="M496 97q0 -100 -80 -100q-38 0 -59 31q-18 28 -18 69v114h-54l-140 -173q-34 -41 -75 -41q-62 0 -62 67q0 39 50 91l87 88q-120 32 -120 153q0 66 50 107q50 40 127 40h200q94 0 94 -115v-331zM339 428h-85q-41 0 -58 -18q-14 -15 -14 -40t14 -40q18 -21 58 -21h85v119z
" />
    <glyph glyph-name="Amacron" unicode="&#x100;" horiz-adv-x="637" 
d="M399 304l-81 263l-88 -263h169zM439 638l180 -511q11 -31 11 -51q0 -76 -80 -76q-60 0 -85 79l-20 64h-263l-24 -70q-24 -73 -78 -73q-77 0 -77 78q0 27 8 47l185 502q38 105 124 105q85 0 119 -94zM421 906q78 0 78 -69q0 -66 -79 -66h-203q-78 0 -78 67q0 68 79 68h203
z" />
    <glyph glyph-name="amacron" unicode="&#x101;" horiz-adv-x="603" 
d="M208 378q-30 -38 -30 -96q0 -60 29 -98q29 -39 73 -39t73 39q30 40 30 98q0 57 -30 96q-30 38 -73 38t-72 -38zM255 1q-99 0 -168 78q-71 80 -71 201q0 119 72 200q71 80 173 80q78 0 126 -57q28 50 75 50q78 0 78 -114v-317q0 -115 -78 -115q-50 0 -75 55
q-50 -61 -132 -61zM389 722q78 0 78 -69q0 -66 -79 -66h-203q-78 0 -78 67q0 68 79 68h203z" />
    <glyph glyph-name="Abreve" unicode="&#x102;" horiz-adv-x="637" 
d="M399 304l-81 263l-88 -263h169zM439 638l180 -511q11 -31 11 -51q0 -76 -80 -76q-60 0 -85 79l-20 64h-263l-24 -70q-24 -73 -78 -73q-77 0 -77 78q0 27 8 47l185 502q38 105 124 105q85 0 119 -94zM224 779q-45 32 -45 73q0 46 45 46q23 0 48 -27q25 -28 45 -28
q19 0 45 28q26 27 53 27q44 0 44 -46q0 -42 -44 -73q-43 -31 -96 -31q-52 0 -95 31z" />
    <glyph glyph-name="abreve" unicode="&#x103;" horiz-adv-x="603" 
d="M208 378q-30 -38 -30 -96q0 -60 29 -98q29 -39 73 -39t73 39q30 40 30 98q0 57 -30 96q-30 38 -73 38t-72 -38zM255 1q-99 0 -168 78q-71 80 -71 201q0 119 72 200q71 80 173 80q78 0 126 -57q28 50 75 50q78 0 78 -114v-317q0 -115 -78 -115q-50 0 -75 55
q-50 -61 -132 -61zM192 595q-45 32 -45 73q0 46 45 46q23 0 48 -27q25 -28 45 -28q19 0 45 28q26 27 53 27q44 0 44 -46q0 -42 -44 -73q-43 -31 -96 -31q-52 0 -95 31z" />
    <glyph glyph-name="Aogonek" unicode="&#x104;" horiz-adv-x="637" 
d="M399 304l-81 263l-88 -263h169zM439 638l180 -511q11 -31 11 -51q0 -76 -80 -76q-60 0 -85 79l-20 64h-263l-24 -70q-24 -73 -78 -73q-77 0 -77 78q0 27 8 47l185 502q38 105 124 105q85 0 119 -94zM632 -31.25q0 -15.75 -16 -38.25l-79 -108q-30 -41.25 -70 -41.25
q-66 0 -66 47.25q0 16.5 16 37.5l79 108q30 41.25 70 41.25q66 0 66 -46.5z" />
    <glyph glyph-name="aogonek" unicode="&#x105;" horiz-adv-x="603" 
d="M208 378q-30 -38 -30 -96q0 -60 29 -98q29 -39 73 -39t73 39q30 40 30 98q0 57 -30 96q-30 38 -73 38t-72 -38zM255 1q-99 0 -168 78q-71 80 -71 201q0 119 72 200q71 80 173 80q78 0 126 -57q28 50 75 50q78 0 78 -114v-317q0 -115 -78 -115q-50 0 -75 55
q-50 -61 -132 -61zM549 -31.25q0 -15.75 -16 -38.25l-79 -108q-30 -41.25 -70 -41.25q-66 0 -66 47.25q0 16.5 16 37.5l79 108q30 41.25 70 41.25q66 0 66 -46.5z" />
    <glyph glyph-name="Cacute" unicode="&#x106;" horiz-adv-x="630" 
d="M534 686q59 -30 59 -72q0 -28 -21 -50t-49 -22q-12 0 -29 4q-7 1 -17 4l-17 6q-22 6 -37 8q-22 5 -42 5q-78 0 -126 -59q-49 -59 -49 -156q0 -95 49 -151t131 -56q23 0 47 6q17 3 40 13l13 5q3 1 4 2q10 3 17 5q18 6 30 6q25 0 45 -20q20 -21 20 -48q0 -46 -62 -81
q-65 -36 -162 -36q-156 0 -251 97q-97 98 -97 262q0 160 102 261q99 98 249 98q92 0 153 -31zM456 846q0 -27 -26 -56l-76 -84q-28 -31 -54 -31q-54 0 -54 55q0 20 17 44l73 100q22 32 57 32q63 0 63 -60z" />
    <glyph glyph-name="cacute" unicode="&#x107;" horiz-adv-x="497" 
d="M424 531q48 -28 48 -73q0 -67 -65 -67q-9 0 -23 4q-5 1 -13 4q-2 0 -7 2q-5 1 -6 2q-37 12 -62 12q-48 0 -78 -38q-31 -38 -31 -99q0 -134 115 -134q26 0 62 12l6 2q5 2 7 2q7 3 12 4q13 4 21 4q61 0 61 -68q0 -42 -51 -71q-53 -29 -134 -29q-116 0 -188 77
q-73 77 -73 202q0 124 74 201q75 79 197 79q79 0 128 -28zM389 662q0 -27 -26 -56l-76 -84q-28 -31 -54 -31q-54 0 -54 55q0 20 17 44l73 100q22 32 57 32q63 0 63 -60z" />
    <glyph glyph-name="Ccircumflex" unicode="&#x108;" horiz-adv-x="630" 
d="M534 686q59 -30 59 -72q0 -28 -21 -50t-49 -22q-12 0 -29 4q-7 1 -17 4l-17 6q-22 6 -37 8q-22 5 -42 5q-78 0 -126 -59q-49 -59 -49 -156q0 -95 49 -151t131 -56q23 0 47 6q17 3 40 13l13 5q3 1 4 2q10 3 17 5q18 6 30 6q25 0 45 -20q20 -21 20 -48q0 -46 -62 -81
q-65 -36 -162 -36q-156 0 -251 97q-97 98 -97 262q0 160 102 261q99 98 249 98q92 0 153 -31zM229 711q-25 -15 -46 -15q-47 0 -47 51q0 30 30 54l109 85q21 16 41 16t41 -16l109 -85q30 -24 30 -54q0 -51 -47 -51q-20 0 -46 15l-87 53z" />
    <glyph glyph-name="ccircumflex" unicode="&#x109;" horiz-adv-x="497" 
d="M424 531q48 -28 48 -73q0 -67 -65 -67q-9 0 -23 4q-5 1 -13 4q-2 0 -7 2q-5 1 -6 2q-37 12 -62 12q-48 0 -78 -38q-31 -38 -31 -99q0 -134 115 -134q26 0 62 12l6 2q5 2 7 2q7 3 12 4q13 4 21 4q61 0 61 -68q0 -42 -51 -71q-53 -29 -134 -29q-116 0 -188 77
q-73 77 -73 202q0 124 74 201q75 79 197 79q79 0 128 -28zM162 527q-25 -15 -46 -15q-47 0 -47 51q0 30 30 54l109 85q21 16 41 16t41 -16l109 -85q30 -24 30 -54q0 -51 -47 -51q-20 0 -46 15l-87 53z" />
    <glyph glyph-name="Cdotaccent" unicode="&#x10a;" horiz-adv-x="630" 
d="M534 686q59 -30 59 -72q0 -28 -21 -50t-49 -22q-12 0 -29 4q-7 1 -17 4l-17 6q-22 6 -37 8q-22 5 -42 5q-78 0 -126 -59q-49 -59 -49 -156q0 -95 49 -151t131 -56q23 0 47 6q17 3 40 13l13 5q3 1 4 2q10 3 17 5q18 6 30 6q25 0 45 -20q20 -21 20 -48q0 -46 -62 -81
q-65 -36 -162 -36q-156 0 -251 97q-97 98 -97 262q0 160 102 261q99 98 249 98q92 0 153 -31zM370.845 902.796q22.9502 -22.9492 22.9502 -54.3984q0 -33.1494 -22.9502 -55.248q-22.9492 -22.0996 -54.3984 -22.0996q-31.4482 0 -53.5479 21.249
q-23.7998 21.25 -23.7998 56.0986q0 31.4492 22.9492 54.3984q22.9502 22.9492 54.3984 22.9492q31.4492 0 54.3984 -22.9492z" />
    <glyph glyph-name="cdotaccent" unicode="&#x10b;" horiz-adv-x="497" 
d="M424 531q48 -28 48 -73q0 -67 -65 -67q-9 0 -23 4q-5 1 -13 4q-2 0 -7 2q-5 1 -6 2q-37 12 -62 12q-48 0 -78 -38q-31 -38 -31 -99q0 -134 115 -134q26 0 62 12l6 2q5 2 7 2q7 3 12 4q13 4 21 4q61 0 61 -68q0 -42 -51 -71q-53 -29 -134 -29q-116 0 -188 77
q-73 77 -73 202q0 124 74 201q75 79 197 79q79 0 128 -28zM302.845 718.796q22.9502 -22.9492 22.9502 -54.3984q0 -33.1494 -22.9502 -55.248q-22.9492 -22.0996 -54.3984 -22.0996q-31.4482 0 -53.5479 21.249q-23.7998 21.25 -23.7998 56.0986q0 31.4492 22.9492 54.3984
q22.9502 22.9492 54.3984 22.9492q31.4492 0 54.3984 -22.9492z" />
    <glyph glyph-name="Ccaron" unicode="&#x10c;" horiz-adv-x="630" 
d="M534 686q59 -30 59 -72q0 -28 -21 -50t-49 -22q-12 0 -29 4q-7 1 -17 4l-17 6q-22 6 -37 8q-22 5 -42 5q-78 0 -126 -59q-49 -59 -49 -156q0 -95 49 -151t131 -56q23 0 47 6q17 3 40 13l13 5q3 1 4 2q10 3 17 5q18 6 30 6q25 0 45 -20q20 -21 20 -48q0 -46 -62 -81
q-65 -36 -162 -36q-156 0 -251 97q-97 98 -97 262q0 160 102 261q99 98 249 98q92 0 153 -31zM316 837l87 53q26 15 46 15q47 0 47 -51q0 -30 -30 -54l-109 -85q-21 -16 -41 -16t-41 16l-109 85q-30 24 -30 54q0 51 47 51q21 0 46 -15z" />
    <glyph glyph-name="ccaron" unicode="&#x10d;" horiz-adv-x="497" 
d="M424 531q48 -28 48 -73q0 -67 -65 -67q-9 0 -23 4q-5 1 -13 4q-2 0 -7 2q-5 1 -6 2q-37 12 -62 12q-48 0 -78 -38q-31 -38 -31 -99q0 -134 115 -134q26 0 62 12l6 2q5 2 7 2q7 3 12 4q13 4 21 4q61 0 61 -68q0 -42 -51 -71q-53 -29 -134 -29q-116 0 -188 77
q-73 77 -73 202q0 124 74 201q75 79 197 79q79 0 128 -28zM249 653l87 53q26 15 46 15q47 0 47 -51q0 -30 -30 -54l-109 -85q-21 -16 -41 -16t-41 16l-109 85q-30 24 -30 54q0 51 47 51q21 0 46 -15z" />
    <glyph glyph-name="Dcaron" unicode="&#x10e;" horiz-adv-x="698" 
d="M296 711q152 0 249 -94q98 -97 98 -254q0 -167 -92 -264q-93 -99 -255 -99h-148q-64 0 -87 22t-23 80v495q0 62 22 87q25 27 90 27h146zM200 150h74q193 0 193 214q0 197 -196 197h-71v-411zM366 837l87 53q26 15 46 15q47 0 47 -51q0 -30 -30 -54l-109 -85
q-21 -16 -41 -16t-41 16l-109 85q-30 24 -30 54q0 51 47 51q21 0 46 -15z" />
    <glyph glyph-name="dcaron" unicode="&#x10f;" horiz-adv-x="603" 
d="M268 7q-98 0 -170 82q-73 83 -73 202q0 118 72 198q70 77 171 77q75 0 124 -42v144q0 115 79 115q78 0 78 -115v-540q0 -115 -78 -115q-47 0 -75 51q-52 -57 -128 -57zM187 288q0 -60 30 -98q29 -39 74 -39q101 0 101 137q0 134 -101 134q-104 0 -104 -134zM791 720
q0 -27 -26 -56l-76 -84q-28 -31 -54 -31q-54 0 -54 55q0 20 17 44l73 100q22 32 57 32q63 0 63 -60z" />
    <glyph glyph-name="Dcroat" unicode="&#x110;" horiz-adv-x="698" 
d="M321 731q152 0 249 -94q98 -97 98 -254q0 -167 -92 -264q-93 -99 -255 -99h-148q-64 0 -87 22t-23 80v495q0 62 22 87q25 27 90 27h146zM225 170h74q193 0 193 214q0 197 -196 197h-71v-411zM377 331q-21 -16 -60 -14l-113 8q-42 3 -58 23q-33 43 10 77q16 12 45 13
l124 5q39 2 60 -25q39 -50 -8 -87z" />
    <glyph glyph-name="dcroat" unicode="&#x111;" horiz-adv-x="603" 
d="M255 -5q-98 0 -170 82q-73 83 -73 202q0 118 72 198q70 77 171 77q75 0 124 -42v144q0 115 79 115q78 0 78 -115v-540q0 -115 -78 -115q-47 0 -75 51q-52 -57 -128 -57zM174 276q0 -60 30 -98q29 -39 74 -39q101 0 101 137q0 134 -101 134q-104 0 -104 -134zM721 802
q70 0 70 -51t-71 -51h-499q-71 0 -71 51t71 51h500z" />
    <glyph glyph-name="Emacron" unicode="&#x112;" horiz-adv-x="505" 
d="M203 433h114q115 0 115 -75t-115 -75h-114v-133h137q115 0 115 -75t-115 -75h-189q-64 0 -87 22t-23 80v495q0 62 22 87q25 27 90 27h182q115 0 115 -76q0 -74 -115 -74h-132v-128zM372 906q78 0 78 -69q0 -66 -79 -66h-203q-78 0 -78 67q0 68 79 68h203z" />
    <glyph glyph-name="emacron" unicode="&#x113;" horiz-adv-x="572" 
d="M169 236q12 -98 119 -98q27 0 54 8q20 6 45 18l37 17q18 8 30 8q63 0 63 -61q0 -49 -67 -87q-71 -41 -170 -41q-117 0 -195 79q-78 80 -78 200t76 200t189 80q111 0 185 -77q72 -74 72 -182q0 -64 -78 -64h-282zM376 338q-7 93 -103 93q-87 0 -105 -93h208zM388 722
q78 0 78 -69q0 -66 -79 -66h-203q-78 0 -78 67q0 68 79 68h203z" />
    <glyph glyph-name="Ebreve" unicode="&#x114;" horiz-adv-x="505" 
d="M203 433h114q115 0 115 -75t-115 -75h-114v-133h137q115 0 115 -75t-115 -75h-189q-64 0 -87 22t-23 80v495q0 62 22 87q25 27 90 27h182q115 0 115 -76q0 -74 -115 -74h-132v-128zM175 779q-45 32 -45 73q0 46 45 46q23 0 48 -27q25 -28 45 -28q19 0 45 28q26 27 53 27
q44 0 44 -46q0 -42 -44 -73q-43 -31 -96 -31q-52 0 -95 31z" />
    <glyph glyph-name="ebreve" unicode="&#x115;" horiz-adv-x="572" 
d="M169 236q12 -98 119 -98q27 0 54 8q20 6 45 18l37 17q18 8 30 8q63 0 63 -61q0 -49 -67 -87q-71 -41 -170 -41q-117 0 -195 79q-78 80 -78 200t76 200t189 80q111 0 185 -77q72 -74 72 -182q0 -64 -78 -64h-282zM376 338q-7 93 -103 93q-87 0 -105 -93h208zM191 595
q-45 32 -45 73q0 46 45 46q23 0 48 -27q25 -28 45 -28q19 0 45 28q26 27 53 27q44 0 44 -46q0 -42 -44 -73q-43 -31 -96 -31q-52 0 -95 31z" />
    <glyph glyph-name="Edotaccent" unicode="&#x116;" horiz-adv-x="505" 
d="M203 433h114q115 0 115 -75t-115 -75h-114v-133h137q115 0 115 -75t-115 -75h-189q-64 0 -87 22t-23 80v495q0 62 22 87q25 27 90 27h182q115 0 115 -76q0 -74 -115 -74h-132v-128zM324.845 902.796q22.9502 -22.9492 22.9502 -54.3984q0 -33.1494 -22.9502 -55.248
q-22.9492 -22.0996 -54.3984 -22.0996q-31.4482 0 -53.5479 21.249q-23.7998 21.25 -23.7998 56.0986q0 31.4492 22.9492 54.3984q22.9502 22.9492 54.3984 22.9492q31.4492 0 54.3984 -22.9492z" />
    <glyph glyph-name="edotaccent" unicode="&#x117;" horiz-adv-x="572" 
d="M169 236q12 -98 119 -98q27 0 54 8q20 6 45 18l37 17q18 8 30 8q63 0 63 -61q0 -49 -67 -87q-71 -41 -170 -41q-117 0 -195 79q-78 80 -78 200t76 200t189 80q111 0 185 -77q72 -74 72 -182q0 -64 -78 -64h-282zM376 338q-7 93 -103 93q-87 0 -105 -93h208z
M340.845 718.796q22.9502 -22.9492 22.9502 -54.3984q0 -33.1494 -22.9502 -55.248q-22.9492 -22.0996 -54.3984 -22.0996q-31.4482 0 -53.5479 21.249q-23.7998 21.25 -23.7998 56.0986q0 31.4492 22.9492 54.3984q22.9502 22.9492 54.3984 22.9492
q31.4492 0 54.3984 -22.9492z" />
    <glyph glyph-name="Eogonek" unicode="&#x118;" horiz-adv-x="505" 
d="M203 433h114q115 0 115 -75t-115 -75h-114v-133h137q115 0 115 -75t-115 -75h-189q-64 0 -87 22t-23 80v495q0 62 22 87q25 27 90 27h182q115 0 115 -76q0 -74 -115 -74h-132v-128zM477 -31.25q0 -15.75 -16 -38.25l-79 -108q-30 -41.25 -70 -41.25q-66 0 -66 47.25
q0 16.5 16 37.5l79 108q30 41.25 70 41.25q66 0 66 -46.5z" />
    <glyph glyph-name="eogonek" unicode="&#x119;" horiz-adv-x="572" 
d="M169 236q12 -98 119 -98q27 0 54 8q20 6 45 18l37 17q18 8 30 8q63 0 63 -61q0 -49 -67 -87q-71 -41 -170 -41q-117 0 -195 79q-78 80 -78 200t76 200t189 80q111 0 185 -77q72 -74 72 -182q0 -64 -78 -64h-282zM376 338q-7 93 -103 93q-87 0 -105 -93h208zM547 49.75
q0 -15.75 -16 -38.25l-79 -108q-30 -41.25 -70 -41.25q-66 0 -66 47.25q0 16.5 16 37.5l79 108q30 41.25 70 41.25q66 0 66 -46.5z" />
    <glyph glyph-name="Ecaron" unicode="&#x11a;" horiz-adv-x="505" 
d="M203 433h114q115 0 115 -75t-115 -75h-114v-133h137q115 0 115 -75t-115 -75h-189q-64 0 -87 22t-23 80v495q0 62 22 87q25 27 90 27h182q115 0 115 -76q0 -74 -115 -74h-132v-128zM270 837l87 53q26 15 46 15q47 0 47 -51q0 -30 -30 -54l-109 -85q-21 -16 -41 -16
t-41 16l-109 85q-30 24 -30 54q0 51 47 51q21 0 46 -15z" />
    <glyph glyph-name="ecaron" unicode="&#x11b;" horiz-adv-x="572" 
d="M169 236q12 -98 119 -98q27 0 54 8q20 6 45 18l37 17q18 8 30 8q63 0 63 -61q0 -49 -67 -87q-71 -41 -170 -41q-117 0 -195 79q-78 80 -78 200t76 200t189 80q111 0 185 -77q72 -74 72 -182q0 -64 -78 -64h-282zM376 338q-7 93 -103 93q-87 0 -105 -93h208zM286 653
l87 53q26 15 46 15q47 0 47 -51q0 -30 -30 -54l-109 -85q-21 -16 -41 -16t-41 16l-109 85q-30 24 -30 54q0 51 47 51q21 0 46 -15z" />
    <glyph glyph-name="Gcircumflex" unicode="&#x11c;" horiz-adv-x="729" 
d="M579 674q72 -42 72 -96q0 -72 -69 -72q-15 0 -37 10q-5 2 -10 5q-5 2 -11 6l-22 12q-29 14 -52 22q-33 11 -66 11q-178 0 -178 -209q0 -100 49 -158q48 -58 128 -58q64 0 104 38t40 99h-57q-114 0 -114 72t114 72h119q114 0 114 -102q0 -143 -90 -234q-93 -93 -243 -93
q-149 0 -244 100q-96 100 -96 261q0 166 98 263q97 97 261 97q113 0 190 -46zM280 711q-25 -15 -46 -15q-47 0 -47 51q0 30 30 54l109 85q21 16 41 16t41 -16l109 -85q30 -24 30 -54q0 -51 -47 -51q-20 0 -46 15l-87 53z" />
    <glyph glyph-name="gcircumflex" unicode="&#x11d;" horiz-adv-x="599" 
d="M197 368q-30 -39 -30 -98q0 -129 103 -129q105 0 105 129q0 59 -31 98q-30 38 -74 38t-73 -38zM446 543q79 0 79 -114v-317q0 -168 -59 -248q-66 -90 -218 -90q-104 0 -169 35q-62 34 -62 82q0 69 68 69q13 0 31 -7l22 -8q4 -1 5 -2l10 -4q25 -10 45 -14q28 -7 56 -7
q121 0 121 133v19q-51 -73 -142 -73q-95 0 -160 77q-68 78 -68 196q0 119 72 200q71 80 172 80q79 0 127 -57q27 50 70 50zM198 527q-25 -15 -46 -15q-47 0 -47 51q0 30 30 54l109 85q21 16 41 16t41 -16l109 -85q30 -24 30 -54q0 -51 -47 -51q-20 0 -46 15l-87 53z" />
    <glyph glyph-name="Gbreve" unicode="&#x11e;" horiz-adv-x="729" 
d="M579 674q72 -42 72 -96q0 -72 -69 -72q-15 0 -37 10q-5 2 -10 5q-5 2 -11 6l-22 12q-29 14 -52 22q-33 11 -66 11q-178 0 -178 -209q0 -100 49 -158q48 -58 128 -58q64 0 104 38t40 99h-57q-114 0 -114 72t114 72h119q114 0 114 -102q0 -143 -90 -234q-93 -93 -243 -93
q-149 0 -244 100q-96 100 -96 261q0 166 98 263q97 97 261 97q113 0 190 -46zM272 779q-45 32 -45 73q0 46 45 46q23 0 48 -27q25 -28 45 -28q19 0 45 28q26 27 53 27q44 0 44 -46q0 -42 -44 -73q-43 -31 -96 -31q-52 0 -95 31z" />
    <glyph glyph-name="gbreve" unicode="&#x11f;" horiz-adv-x="599" 
d="M197 368q-30 -39 -30 -98q0 -129 103 -129q105 0 105 129q0 59 -31 98q-30 38 -74 38t-73 -38zM446 543q79 0 79 -114v-317q0 -168 -59 -248q-66 -90 -218 -90q-104 0 -169 35q-62 34 -62 82q0 69 68 69q13 0 31 -7l22 -8q4 -1 5 -2l10 -4q25 -10 45 -14q28 -7 56 -7
q121 0 121 133v19q-51 -73 -142 -73q-95 0 -160 77q-68 78 -68 196q0 119 72 200q71 80 172 80q79 0 127 -57q27 50 70 50zM190 595q-45 32 -45 73q0 46 45 46q23 0 48 -27q25 -28 45 -28q19 0 45 28q26 27 53 27q44 0 44 -46q0 -42 -44 -73q-43 -31 -96 -31q-52 0 -95 31z
" />
    <glyph glyph-name="Gdotaccent" unicode="&#x120;" horiz-adv-x="729" 
d="M579 674q72 -42 72 -96q0 -72 -69 -72q-15 0 -37 10q-5 2 -10 5q-5 2 -11 6l-22 12q-29 14 -52 22q-33 11 -66 11q-178 0 -178 -209q0 -100 49 -158q48 -58 128 -58q64 0 104 38t40 99h-57q-114 0 -114 72t114 72h119q114 0 114 -102q0 -143 -90 -234q-93 -93 -243 -93
q-149 0 -244 100q-96 100 -96 261q0 166 98 263q97 97 261 97q113 0 190 -46zM420.845 902.796q22.9502 -22.9492 22.9502 -54.3984q0 -33.1494 -22.9502 -55.248q-22.9492 -22.0996 -54.3984 -22.0996q-31.4482 0 -53.5479 21.249q-23.7998 21.25 -23.7998 56.0986
q0 31.4492 22.9492 54.3984q22.9502 22.9492 54.3984 22.9492q31.4492 0 54.3984 -22.9492z" />
    <glyph glyph-name="gdotaccent" unicode="&#x121;" horiz-adv-x="599" 
d="M197 368q-30 -39 -30 -98q0 -129 103 -129q105 0 105 129q0 59 -31 98q-30 38 -74 38t-73 -38zM446 543q79 0 79 -114v-317q0 -168 -59 -248q-66 -90 -218 -90q-104 0 -169 35q-62 34 -62 82q0 69 68 69q13 0 31 -7l22 -8q4 -1 5 -2l10 -4q25 -10 45 -14q28 -7 56 -7
q121 0 121 133v19q-51 -73 -142 -73q-95 0 -160 77q-68 78 -68 196q0 119 72 200q71 80 172 80q79 0 127 -57q27 50 70 50zM339.845 718.796q22.9502 -22.9492 22.9502 -54.3984q0 -33.1494 -22.9502 -55.248q-22.9492 -22.0996 -54.3984 -22.0996
q-31.4482 0 -53.5479 21.249q-23.7998 21.25 -23.7998 56.0986q0 31.4492 22.9492 54.3984q22.9502 22.9492 54.3984 22.9492q31.4492 0 54.3984 -22.9492z" />
    <glyph glyph-name="Gcommaaccent" unicode="&#x122;" horiz-adv-x="729" 
d="M579 704q72 -44 72 -100q0 -76 -69 -76q-15 0 -37 11q-5 2 -10 5q-5 2 -11 6l-22 13q-29 15 -52 23q-33 11 -66 11q-178 0 -178 -218q0 -104 49 -165q48 -60 128 -60q64 0 104 39q40 40 40 104h-57q-114 0 -114 75t114 75h119q114 0 114 -106q0 -150 -90 -245
q-93 -97 -243 -97q-149 0 -244 104q-96 105 -96 273q0 173 98 275q97 101 261 101q113 0 190 -48z" />
    <glyph glyph-name="gcommaaccent" unicode="&#x123;" horiz-adv-x="599" 
d="M217 384q-30 -39 -30 -98q0 -129 103 -129q105 0 105 129q0 59 -31 98q-30 38 -74 38t-73 -38zM466 559q79 0 79 -114v-317q0 -168 -59 -248q-66 -90 -218 -90q-104 0 -169 35q-62 34 -62 82q0 69 68 69q13 0 31 -7l22 -8q4 -1 5 -2l10 -4q25 -10 45 -14q28 -7 56 -7
q121 0 121 133v19q-51 -73 -142 -73q-95 0 -160 77q-68 78 -68 196q0 119 72 200q71 80 172 80q79 0 127 -57q27 50 70 50z" />
    <glyph glyph-name="Hcircumflex" unicode="&#x124;" horiz-adv-x="748" 
d="M501 446v171q0 115 81 115t81 -115v-502q0 -115 -81 -115t-81 115v181h-298v-181q0 -115 -81 -115t-81 115v502q0 115 81 115t81 -115v-171h298zM287 711q-25 -15 -46 -15q-47 0 -47 51q0 30 30 54l109 85q21 16 41 16t41 -16l109 -85q30 -24 30 -54q0 -51 -47 -51
q-20 0 -46 15l-87 53z" />
    <glyph glyph-name="hcircumflex" unicode="&#x125;" horiz-adv-x="592" 
d="M185 500q43 46 134 46q192 0 192 -204v-226q0 -116 -78 -116q-79 0 -79 115v178q0 118 -84 118q-86 0 -86 -115v-180q0 -116 -78 -116q-79 0 -79 115v540q0 115 79 115q78 0 78 -115v-155h1zM265 810q-25 -15 -46 -15q-47 0 -47 51q0 30 30 54l109 85q21 16 41 16t41 -16
l109 -85q30 -24 30 -54q0 -51 -47 -51q-20 0 -46 15l-87 53z" />
    <glyph glyph-name="Hbar" unicode="&#x126;" horiz-adv-x="748" 
d="M501 446v171q0 115 81 115t81 -115v-502q0 -115 -81 -115t-81 115v181h-298v-181q0 -115 -81 -115t-81 115v502q0 115 81 115t81 -115v-171h298zM638 759q70 0 70 -51t-71 -51h-499q-71 0 -71 51t71 51h500z" />
    <glyph glyph-name="hbar" unicode="&#x127;" horiz-adv-x="592" 
d="M185 500q43 46 134 46q192 0 192 -204v-226q0 -116 -78 -116q-79 0 -79 115v178q0 118 -84 118q-86 0 -86 -115v-180q0 -116 -78 -116q-79 0 -79 115v540q0 115 79 115q78 0 78 -115v-155h1zM412 810q70 0 70 -51t-71 -51h-499q-71 0 -71 51t71 51h500z" />
    <glyph glyph-name="Itilde" unicode="&#x128;" horiz-adv-x="296" 
d="M200 617v-502q0 -115 -81 -115t-81 115v502q0 115 81 115t81 -115zM78 814l-17 -5q-5 -2 -11 -3q-22 0 -32 14q-12 14 -12 39q0 37 24 62q25 25 60 25q18 0 47 -10q30 -7 45 -9q14 0 35 9q20 9 29 9q19 0 32 -15q12 -15 12 -39q0 -36 -24 -62q-24 -25 -60 -25
q-17 0 -47 9q-29 10 -46 10q-15 0 -35 -9z" />
    <glyph glyph-name="itilde" unicode="&#x129;" horiz-adv-x="275" 
d="M217 445v-317q0 -115 -78 -115q-79 0 -79 115v317q0 114 79 114q78 0 78 -114zM68 630l-17 -5q-5 -2 -11 -3q-22 0 -32 14q-12 14 -12 39q0 37 24 62q25 25 60 25q18 0 47 -10q30 -7 45 -9q14 0 35 9q20 9 29 9q19 0 32 -15q12 -15 12 -39q0 -36 -24 -62q-24 -25 -60 -25
q-17 0 -47 9q-29 10 -46 10q-15 0 -35 -9z" />
    <glyph glyph-name="Imacron" unicode="&#x12a;" horiz-adv-x="296" 
d="M200 617v-502q0 -115 -81 -115t-81 115v502q0 115 81 115t81 -115zM250 906q78 0 78 -69q0 -66 -79 -66h-203q-78 0 -78 67q0 68 79 68h203z" />
    <glyph glyph-name="imacron" unicode="&#x12b;" horiz-adv-x="275" 
d="M217 445v-317q0 -115 -78 -115q-79 0 -79 115v317q0 114 79 114q78 0 78 -114zM240 722q78 0 78 -69q0 -66 -79 -66h-203q-78 0 -78 67q0 68 79 68h203z" />
    <glyph glyph-name="Ibreve" unicode="&#x12c;" horiz-adv-x="296" 
d="M200 617v-502q0 -115 -81 -115t-81 115v502q0 115 81 115t81 -115zM53 779q-45 32 -45 73q0 46 45 46q23 0 48 -27q25 -28 45 -28q19 0 45 28q26 27 53 27q44 0 44 -46q0 -42 -44 -73q-43 -31 -96 -31q-52 0 -95 31z" />
    <glyph glyph-name="ibreve" unicode="&#x12d;" horiz-adv-x="275" 
d="M217 445v-317q0 -115 -78 -115q-79 0 -79 115v317q0 114 79 114q78 0 78 -114zM43 595q-45 32 -45 73q0 46 45 46q23 0 48 -27q25 -28 45 -28q19 0 45 28q26 27 53 27q44 0 44 -46q0 -42 -44 -73q-43 -31 -96 -31q-52 0 -95 31z" />
    <glyph glyph-name="Iogonek" unicode="&#x12e;" horiz-adv-x="296" 
d="M200 617v-502q0 -115 -81 -115t-81 115v502q0 115 81 115t81 -115zM229 -31.25q0 -15.75 -16 -38.25l-79 -108q-30 -41.25 -70 -41.25q-66 0 -66 47.25q0 16.5 16 37.5l79 108q30 41.25 70 41.25q66 0 66 -46.5z" />
    <glyph glyph-name="iogonek" unicode="&#x12f;" horiz-adv-x="275" 
d="M198 434v-317q0 -115 -78 -115q-79 0 -79 115v317q0 114 79 114q78 0 78 -114zM184 747q26 -26 26 -64t-26 -65q-26 -26 -64 -26t-65 26q-26 27 -26 65q0 37 27 64q26 26 64 26t64 -26zM228 -31.25q0 -15.75 -16 -38.25l-79 -108q-30 -41.25 -70 -41.25q-66 0 -66 47.25
q0 16.5 16 37.5l79 108q30 41.25 70 41.25q66 0 66 -46.5z" />
    <glyph glyph-name="Idotaccent" unicode="&#x130;" horiz-adv-x="296" 
d="M200 617v-502q0 -115 -81 -115t-81 115v502q0 115 81 115t81 -115zM202.845 902.796q22.9502 -22.9492 22.9502 -54.3984q0 -33.1494 -22.9502 -55.248q-22.9492 -22.0996 -54.3984 -22.0996q-31.4482 0 -53.5479 21.249q-23.7998 21.25 -23.7998 56.0986
q0 31.4492 22.9492 54.3984q22.9502 22.9492 54.3984 22.9492q31.4492 0 54.3984 -22.9492z" />
    <glyph glyph-name="dotlessi" unicode="&#x131;" horiz-adv-x="275" 
d="M216 445v-317q0 -115 -78 -115q-79 0 -79 115v317q0 114 79 114q78 0 78 -114z" />
    <glyph glyph-name="IJ" unicode="&#x132;" horiz-adv-x="754" 
d="M200 617v-502q0 -115 -81 -115t-81 115v502q0 115 81 115t81 -115zM691 601v-374q0 -228 -208 -228q-81 0 -134 34q-51 34 -51 80q0 70 75 70q21 0 54 -17q33 -19 49 -19q53 0 53 130v324q0 110 81 110t81 -110z" />
    <glyph glyph-name="ij" unicode="&#x133;" horiz-adv-x="550" 
d="M198 434v-317q0 -115 -78 -115q-79 0 -79 115v317q0 114 79 114q78 0 78 -114zM184 747q26 -26 26 -64t-26 -65q-26 -26 -64 -26t-65 26q-26 27 -26 65q0 37 27 64q26 26 64 26t64 -26zM335 758q26 26 64 26t64 -26t26 -64t-26 -65q-26 -26 -64 -26t-65 26q-26 27 -26 65
q0 37 27 64zM320 -99v544q0 114 79 114q78 0 78 -114v-530q0 -115 -78 -115h-126q-21 0 -36.5 15t-15.5 36t15.5 35.5t36.5 14.5h47z" />
    <glyph glyph-name="Jcircumflex" unicode="&#x134;" horiz-adv-x="458" 
d="M395 601v-374q0 -228 -208 -228q-81 0 -134 34q-51 34 -51 80q0 70 75 70q21 0 54 -17q33 -19 49 -19q53 0 53 130v324q0 110 81 110t81 -110zM219 737q-25 -15 -46 -15q-47 0 -47 51q0 30 30 54l109 85q21 16 41 16t41 -16l109 -85q30 -24 30 -54q0 -51 -47 -51
q-20 0 -46 15l-87 53z" />
    <glyph glyph-name="jcircumflex" unicode="&#x135;" horiz-adv-x="275" 
d="M216 445v-530q0 -115 -78 -115q-79 0 -79 115v530q0 114 79 114q78 0 78 -114z" />
    <glyph glyph-name="Kcommaaccent" unicode="&#x136;" horiz-adv-x="635" 
d="M225 628v-179l210 238q50 56 84 56q29 0 51 -22t22 -52q0 -37 -41 -80l-179 -187l217 -236q41 -46 41 -80q0 -31 -24 -53q-22 -22 -51 -22q-24 0 -45 16q-14 10 -42 41l-243 268v-210q0 -115 -81 -115t-81 115v502q0 115 81 115t81 -115zM408 5q0 -27 -26 -56l-76 -84
q-28 -31 -54 -31q-54 0 -54 55q0 20 17 44l73 100q22 32 57 32q63 0 63 -60z" />
    <glyph glyph-name="kcommaaccent" unicode="&#x137;" horiz-adv-x="525" 
d="M211 668v-290l135 139q41 42 81 42q66 0 66 -60q0 -39 -40 -76l-106 -98l147 -173q31 -37 31 -76q0 -63 -74 -63q-46 0 -82 47l-158 210v-142q0 -115 -78 -115q-79 0 -79 115v540q0 115 79 115q78 0 78 -115zM353 -33q0 -27 -26 -56l-76 -84q-28 -31 -54 -31
q-54 0 -54 55q0 20 17 44l73 100q22 32 57 32q63 0 63 -60z" />
    <glyph glyph-name="kgreenlandic" unicode="&#x138;" horiz-adv-x="525" 
d="M193 654v-290l135 139q41 42 81 42q66 0 66 -60q0 -39 -40 -76l-106 -98l147 -173q31 -37 31 -76q0 -63 -74 -63q-46 0 -82 47l-158 210v-142q0 -115 -78 -115q-79 0 -79 115v540q0 115 79 115q78 0 78 -115z" />
    <glyph glyph-name="Lacute" unicode="&#x139;" horiz-adv-x="477" 
d="M201 608v-458h137q115 0 115 -75t-115 -75h-189q-64 0 -87 22t-23 80v506q0 115 81 115t81 -115zM410 846q0 -27 -26 -56l-76 -84q-28 -31 -54 -31q-54 0 -54 55q0 20 17 44l73 100q22 32 57 32q63 0 63 -60z" />
    <glyph glyph-name="lacute" unicode="&#x13a;" horiz-adv-x="275" 
d="M192 656v-541q0 -115 -78 -115q-79 0 -79 115v541q0 114 79 114q78 0 78 -114zM243 975q0 -27 -26 -56l-76 -84q-28 -31 -54 -31q-54 0 -54 55q0 20 17 44l73 100q22 32 57 32q63 0 63 -60z" />
    <glyph glyph-name="Lcommaaccent" unicode="&#x13b;" horiz-adv-x="477" 
d="M225 628v-458h137q115 0 115 -75t-115 -75h-189q-64 0 -87 22t-23 80v506q0 115 81 115t81 -115zM342 -56q0 -27 -26 -56l-76 -84q-28 -31 -54 -31q-54 0 -54 55q0 20 17 44l73 100q22 32 57 32q63 0 63 -60z" />
    <glyph glyph-name="lcommaaccent" unicode="&#x13c;" horiz-adv-x="275" 
d="M217 669v-541q0 -115 -78 -115q-79 0 -79 115v541q0 114 79 114q78 0 78 -114zM238 -63q0 -27 -26 -56l-76 -84q-28 -31 -54 -31q-54 0 -54 55q0 20 17 44l73 100q22 32 57 32q63 0 63 -60z" />
    <glyph glyph-name="Lcaron" unicode="&#x13d;" horiz-adv-x="477" 
d="M225 628v-458h137q115 0 115 -75t-115 -75h-189q-64 0 -87 22t-23 80v506q0 115 81 115t81 -115zM474 693q0 -27 -26 -56l-76 -84q-28 -31 -54 -31q-54 0 -54 55q0 20 17 44l73 100q22 32 57 32q63 0 63 -60z" />
    <glyph glyph-name="lcaron" unicode="&#x13e;" horiz-adv-x="275" 
d="M216 669v-541q0 -115 -78 -115q-79 0 -79 115v541q0 114 79 114q78 0 78 -114zM455 724q0 -27 -26 -56l-76 -84q-28 -31 -54 -31q-54 0 -54 55q0 20 17 44l73 100q22 32 57 32q63 0 63 -60z" />
    <glyph glyph-name="Ldot" unicode="&#x13f;" horiz-adv-x="477" 
d="M201 608v-458h137q115 0 115 -75t-115 -75h-189q-64 0 -87 22t-23 80v506q0 115 81 115t81 -115zM407.845 432.796q22.9502 -22.9492 22.9502 -54.3984q0 -33.1494 -22.9502 -55.248q-22.9492 -22.0996 -54.3984 -22.0996q-31.4482 0 -53.5479 21.249
q-23.7998 21.25 -23.7998 56.0986q0 31.4492 22.9492 54.3984q22.9502 22.9492 54.3984 22.9492q31.4492 0 54.3984 -22.9492z" />
    <glyph glyph-name="ldot" unicode="&#x140;" horiz-adv-x="430" 
d="M191 656v-541q0 -115 -78 -115q-79 0 -79 115v541q0 114 79 114q78 0 78 -114zM347.845 449.796q22.9502 -22.9492 22.9502 -54.3984q0 -33.1494 -22.9502 -55.248q-22.9492 -22.0996 -54.3984 -22.0996q-31.4482 0 -53.5479 21.249q-23.7998 21.25 -23.7998 56.0986
q0 31.4492 22.9492 54.3984q22.9502 22.9492 54.3984 22.9492q31.4492 0 54.3984 -22.9492z" />
    <glyph glyph-name="Lslash" unicode="&#x141;" horiz-adv-x="477" 
d="M201 608v-458h137q115 0 115 -75t-115 -75h-189q-64 0 -87 22t-23 80v506q0 115 81 115t81 -115zM210.789 682.96q49.4961 49.4971 85.5576 13.4355q36.0615 -36.0625 -14.1416 -86.2656l-352.839 -352.839q-50.2041 -50.2041 -86.2656 -14.1426
q-36.0615 36.0625 14.1416 86.2656z" />
    <glyph glyph-name="lslash" unicode="&#x142;" horiz-adv-x="275" 
d="M191 656v-541q0 -115 -78 -115q-79 0 -79 115v541q0 114 79 114q78 0 78 -114zM206.789 710.96q49.4961 49.4971 85.5576 13.4355q36.0615 -36.0625 -14.1416 -86.2656l-352.839 -352.839q-50.2041 -50.2041 -86.2656 -14.1426q-36.0615 36.0625 14.1416 86.2656z" />
    <glyph glyph-name="Nacute" unicode="&#x143;" horiz-adv-x="748" 
d="M197 678l299 -395v336q0 115 81 115t81 -115v-520q0 -97 -74 -97q-52 0 -112 80l-274 362v-327q0 -115 -81 -115t-81 115v505q0 112 75 112q43 0 86 -56zM514 846q0 -27 -26 -56l-76 -84q-28 -31 -54 -31q-54 0 -54 55q0 20 17 44l73 100q22 32 57 32q63 0 63 -60z" />
    <glyph glyph-name="nacute" unicode="&#x144;" horiz-adv-x="592" 
d="M187 496q46 50 138 50q192 0 192 -204v-226q0 -116 -78 -116q-79 0 -79 115v178q0 118 -84 118q-86 0 -86 -115v-180q0 -116 -78 -116q-79 0 -79 115v317q0 114 79 114q47 0 75 -50zM436 662q0 -27 -26 -56l-76 -84q-28 -31 -54 -31q-54 0 -54 55q0 20 17 44l73 100
q22 32 57 32q63 0 63 -60z" />
    <glyph glyph-name="Ncommaaccent" unicode="&#x145;" horiz-adv-x="748" 
d="M224 687l299 -395v336q0 115 81 115t81 -115v-520q0 -97 -74 -97q-52 0 -112 80l-274 362v-327q0 -115 -81 -115t-81 115v505q0 112 75 112q43 0 86 -56zM430 60q0 -21 -16 -51l-79 -144q-30 -55 -70 -55q-66 0 -66 63q0 22 16 50l79 144q30 55 70 55q66 0 66 -62z" />
    <glyph glyph-name="ncommaaccent" unicode="&#x146;" horiz-adv-x="592" 
d="M208 509q46 50 138 50q192 0 192 -204v-226q0 -116 -78 -116q-79 0 -79 115v178q0 118 -84 118q-86 0 -86 -115v-180q0 -116 -78 -116q-79 0 -79 115v317q0 114 79 114q47 0 75 -50zM367 6q0 -21 -16 -51l-79 -144q-30 -55 -70 -55q-66 0 -66 63q0 22 16 50l79 144
q30 55 70 55q66 0 66 -62z" />
    <glyph glyph-name="Ncaron" unicode="&#x147;" horiz-adv-x="748" 
d="M197 678l299 -395v336q0 115 81 115t81 -115v-520q0 -97 -74 -97q-52 0 -112 80l-274 362v-327q0 -115 -81 -115t-81 115v505q0 112 75 112q43 0 86 -56zM374 837l87 53q26 15 46 15q47 0 47 -51q0 -30 -30 -54l-109 -85q-21 -16 -41 -16t-41 16l-109 85q-30 24 -30 54
q0 51 47 51q21 0 46 -15z" />
    <glyph glyph-name="ncaron" unicode="&#x148;" horiz-adv-x="592" 
d="M187 496q46 50 138 50q192 0 192 -204v-226q0 -116 -78 -116q-79 0 -79 115v178q0 118 -84 118q-86 0 -86 -115v-180q0 -116 -78 -116q-79 0 -79 115v317q0 114 79 114q47 0 75 -50zM296 653l87 53q26 15 46 15q47 0 47 -51q0 -30 -30 -54l-109 -85q-21 -16 -41 -16
t-41 16l-109 85q-30 24 -30 54q0 51 47 51q21 0 46 -15z" />
    <glyph glyph-name="napostrophe" unicode="&#x149;" horiz-adv-x="592" 
d="M208 509q46 50 138 50q192 0 192 -204v-226q0 -116 -78 -116q-79 0 -79 115v178q0 118 -84 118q-86 0 -86 -115v-180q0 -116 -78 -116q-79 0 -79 115v317q0 114 79 114q47 0 75 -50zM82 648q0 -21 -16 -51l-79 -144q-30 -55 -70 -55q-66 0 -66 63q0 22 16 50l79 144
q30 55 70 55q66 0 66 -62z" />
    <glyph glyph-name="Eng" unicode="&#x14a;" horiz-adv-x="748" 
d="M197 678l299 -395v336q0 115 81 115t81 -115v-520q0 -97 -74 -97q-52 0 -112 80l-274 362v-327q0 -115 -81 -115t-81 115v505q0 112 75 112q43 0 86 -56zM665 141q20 -16 20 -50q0 -11 -4 -25q-5 -26 -24 -48l-67 -122q-30 -55 -70 -55q-66 0 -66 63q0 22 16 50l35 64
q-25 28 -25 66q0 42 29.5 71t71.5 29t72 -29z" />
    <glyph glyph-name="eng" unicode="&#x14b;" horiz-adv-x="592" 
d="M187 496q46 50 138 50q192 0 192 -204v-226q0 -116 -78 -116q-79 0 -79 115v178q0 118 -84 118q-86 0 -86 -115v-180q0 -116 -78 -116q-79 0 -79 115v317q0 114 79 114q47 0 75 -50zM518 141q20 -16 20 -50q0 -11 -4 -25q-5 -26 -24 -48l-67 -122q-30 -55 -70 -55
q-66 0 -66 63q0 22 16 50l35 64q-25 28 -25 66q0 42 29.5 71t71.5 29t72 -29z" />
    <glyph glyph-name="Omacron" unicode="&#x14c;" horiz-adv-x="758" 
d="M624 615q97 -98 97 -259q0 -160 -96 -258q-96 -99 -253 -99t-253 99q-96 97 -96 258q0 160 97 258q96 99 252 99t252 -98zM247 510q-48 -58 -48 -156q0 -95 48 -152q48 -56 125 -56t125 56q48 57 48 152q0 98 -48 156q-47 56 -125 56t-125 -56zM481 906q78 0 78 -69
q0 -66 -79 -66h-203q-78 0 -78 67q0 68 79 68h203z" />
    <glyph glyph-name="omacron" unicode="&#x14d;" horiz-adv-x="583" 
d="M462 483q74 -79 74 -202t-74 -201q-75 -78 -192 -78t-192 78t-75 201t75 202q76 78 192 78q117 0 192 -78zM196 380q-31 -38 -31 -98q0 -136 105 -136q104 0 104 137q0 59 -30 97q-30 37 -74 37q-45 0 -74 -37zM394 722q78 0 78 -69q0 -66 -79 -66h-203q-78 0 -78 67
q0 68 79 68h203z" />
    <glyph glyph-name="Obreve" unicode="&#x14e;" horiz-adv-x="758" 
d="M624 615q97 -98 97 -259q0 -160 -96 -258q-96 -99 -253 -99t-253 99q-96 97 -96 258q0 160 97 258q96 99 252 99t252 -98zM247 510q-48 -58 -48 -156q0 -95 48 -152q48 -56 125 -56t125 56q48 57 48 152q0 98 -48 156q-47 56 -125 56t-125 -56zM284 779q-45 32 -45 73
q0 46 45 46q23 0 48 -27q25 -28 45 -28q19 0 45 28q26 27 53 27q44 0 44 -46q0 -42 -44 -73q-43 -31 -96 -31q-52 0 -95 31z" />
    <glyph glyph-name="obreve" unicode="&#x14f;" horiz-adv-x="583" 
d="M462 483q74 -79 74 -202t-74 -201q-75 -78 -192 -78t-192 78t-75 201t75 202q76 78 192 78q117 0 192 -78zM196 380q-31 -38 -31 -98q0 -136 105 -136q104 0 104 137q0 59 -30 97q-30 37 -74 37q-45 0 -74 -37zM197 595q-45 32 -45 73q0 46 45 46q23 0 48 -27
q25 -28 45 -28q19 0 45 28q26 27 53 27q44 0 44 -46q0 -42 -44 -73q-43 -31 -96 -31q-52 0 -95 31z" />
    <glyph glyph-name="Ohungarumlaut" unicode="&#x150;" horiz-adv-x="758" 
d="M624 615q97 -98 97 -259q0 -160 -96 -258q-96 -99 -253 -99t-253 99q-96 97 -96 258q0 160 97 258q96 99 252 99t252 -98zM247 510q-48 -58 -48 -156q0 -95 48 -152q48 -56 125 -56t125 56q48 57 48 152q0 98 -48 156q-47 56 -125 56t-125 -56zM379 846q0 -27 -26 -56
l-76 -84q-28 -31 -54 -31q-54 0 -54 55q0 20 17 44l73 100q22 32 57 32q63 0 63 -60zM589 846q0 -27 -26 -56l-76 -84q-28 -31 -54 -31q-54 0 -54 55q0 20 17 44l73 100q22 32 57 32q63 0 63 -60z" />
    <glyph glyph-name="ohungarumlaut" unicode="&#x151;" horiz-adv-x="583" 
d="M462 483q74 -79 74 -202t-74 -201q-75 -78 -192 -78t-192 78t-75 201t75 202q76 78 192 78q117 0 192 -78zM196 380q-31 -38 -31 -98q0 -136 105 -136q104 0 104 137q0 59 -30 97q-30 37 -74 37q-45 0 -74 -37zM292 662q0 -27 -26 -56l-76 -84q-28 -31 -54 -31
q-54 0 -54 55q0 20 17 44l73 100q22 32 57 32q63 0 63 -60zM502 662q0 -27 -26 -56l-76 -84q-28 -31 -54 -31q-54 0 -54 55q0 20 17 44l73 100q22 32 57 32q63 0 63 -60z" />
    <glyph glyph-name="OE" unicode="&#x152;" horiz-adv-x="963" 
d="M624 615q97 -98 97 -259q0 -160 -96 -258q-96 -99 -253 -99t-253 99q-96 97 -96 258q0 160 97 258q96 99 252 99t252 -98zM247 510q-48 -58 -48 -156q0 -95 48 -152q48 -56 125 -56t125 56q48 57 48 152q0 98 -48 156q-47 56 -125 56t-125 -56zM661 433h114
q115 0 115 -75t-115 -75h-114v-133h137q115 0 115 -75t-115 -75h-189q-64 0 -87 22t-23 80v495q0 62 22 87q25 27 90 27h182q115 0 115 -76q0 -74 -115 -74h-132v-128z" />
    <glyph glyph-name="oe" unicode="&#x153;" horiz-adv-x="1001" 
d="M462 483q74 -79 74 -202t-74 -201q-75 -78 -192 -78t-192 78t-75 201t75 202q76 78 192 78q117 0 192 -78zM196 380q-31 -38 -31 -98q0 -136 105 -136q104 0 104 137q0 59 -30 97q-30 37 -74 37q-45 0 -74 -37zM598 236q12 -98 119 -98q27 0 54 8q20 6 45 18l37 17
q18 8 30 8q63 0 63 -61q0 -49 -67 -87q-71 -41 -170 -41q-117 0 -195 79q-78 80 -78 200t76 200t189 80q111 0 185 -77q72 -74 72 -182q0 -64 -78 -64h-282zM805 338q-7 93 -103 93q-87 0 -105 -93h208z" />
    <glyph glyph-name="Racute" unicode="&#x154;" horiz-adv-x="608" 
d="M198 397h75q103 0 103 88q0 84 -101 84h-77v-172zM274 719q129 0 201 -62q70 -59 70 -160q0 -163 -170 -192l128 -142q48 -54 48 -93q0 -71 -77 -71q-44 0 -87 53l-189 237v-175q0 -115 -81 -115t-81 115v491q0 62 22 87q25 27 90 27h126zM461 846q0 -27 -26 -56l-76 -84
q-28 -31 -54 -31q-54 0 -54 55q0 20 17 44l73 100q22 32 57 32q63 0 63 -60z" />
    <glyph glyph-name="racute" unicode="&#x155;" horiz-adv-x="395" 
d="M285 551q32 0 57 -25q23 -25 23 -57q0 -40 -43 -61q-9 -5 -20 -9l-23 -9q-32 -12 -48 -19q-50 -24 -50 -94v-164q0 -115 -78 -115q-79 0 -79 115v317q0 114 79 114q47 0 75 -50q54 57 107 57zM365 662q0 -27 -26 -56l-76 -84q-28 -31 -54 -31q-54 0 -54 55q0 20 17 44
l73 100q22 32 57 32q63 0 63 -60z" />
    <glyph glyph-name="Rcommaaccent" unicode="&#x156;" horiz-adv-x="608" 
d="M225 409h75q103 0 103 88q0 84 -101 84h-77v-172zM301 731q129 0 201 -62q70 -59 70 -160q0 -163 -170 -192l128 -142q48 -54 48 -93q0 -71 -77 -71q-44 0 -87 53l-189 237v-175q0 -115 -81 -115t-81 115v491q0 62 22 87q25 27 90 27h126zM376 12q0 -27 -26 -56l-76 -84
q-28 -31 -54 -31q-54 0 -54 55q0 20 17 44l73 100q22 32 57 32q63 0 63 -60z" />
    <glyph glyph-name="rcommaaccent" unicode="&#x157;" horiz-adv-x="395" 
d="M315 566q32 0 57 -25q23 -25 23 -57q0 -40 -43 -61q-9 -5 -20 -9l-23 -9q-32 -12 -48 -19q-50 -24 -50 -94v-164q0 -115 -78 -115q-79 0 -79 115v317q0 114 79 114q47 0 75 -50q54 57 107 57zM318 -27q0 -27 -26 -56l-76 -84q-28 -31 -54 -31q-54 0 -54 55q0 20 17 44
l73 100q22 32 57 32q63 0 63 -60z" />
    <glyph glyph-name="Rcaron" unicode="&#x158;" horiz-adv-x="608" 
d="M198 397h75q103 0 103 88q0 84 -101 84h-77v-172zM274 719q129 0 201 -62q70 -59 70 -160q0 -163 -170 -192l128 -142q48 -54 48 -93q0 -71 -77 -71q-44 0 -87 53l-189 237v-175q0 -115 -81 -115t-81 115v491q0 62 22 87q25 27 90 27h126zM321 837l87 53q26 15 46 15
q47 0 47 -51q0 -30 -30 -54l-109 -85q-21 -16 -41 -16t-41 16l-109 85q-30 24 -30 54q0 51 47 51q21 0 46 -15z" />
    <glyph glyph-name="rcaron" unicode="&#x159;" horiz-adv-x="395" 
d="M286 551q32 0 57 -25q23 -25 23 -57q0 -40 -43 -61q-9 -5 -20 -9l-23 -9q-32 -12 -48 -19q-50 -24 -50 -94v-164q0 -115 -78 -115q-79 0 -79 115v317q0 114 79 114q47 0 75 -50q54 57 107 57zM225 653l87 53q26 15 46 15q47 0 47 -51q0 -30 -30 -54l-109 -85
q-21 -16 -41 -16t-41 16l-109 85q-30 24 -30 54q0 51 47 51q21 0 46 -15z" />
    <glyph glyph-name="Sacute" unicode="&#x15a;" horiz-adv-x="566" 
d="M422 686q53 -29 53 -71q0 -66 -73 -66q-13 0 -30 4q-10 1 -32 8l-32 9q-19 4 -33 4q-79 0 -79 -60q0 -32 34 -48q14 -7 41 -16q5 -1 12 -4q2 0 7 -2q5 0 6 -1l29 -9q196 -62 196 -207q0 -100 -74 -164q-77 -66 -202 -66q-97 0 -165 34q-65 34 -65 77q0 70 80 70
q14 0 35 -6l41 -12q27 -10 46 -14q27 -6 51 -6q80 0 80 73q0 37 -33 59q-24 16 -91 35q-107 30 -152 72q-49 43 -49 121q0 94 70 155q72 62 188 62q86 0 141 -31zM423 846q0 -27 -26 -56l-76 -84q-28 -31 -54 -31q-54 0 -54 55q0 20 17 44l73 100q22 32 57 32q63 0 63 -60z
" />
    <glyph glyph-name="sacute" unicode="&#x15b;" horiz-adv-x="456" 
d="M346 527q52 -31 52 -74q0 -66 -65 -66q-13 0 -30 6q-7 2 -16 6l-12 5q0 1 -2 1q-1 1 -2 1q-21 9 -32 13q-19 6 -33 6q-36 0 -36 -27q0 -19 29 -33q10 -5 34 -15l45 -18q129 -58 129 -153q0 -76 -58 -126q-60 -52 -153 -52q-87 0 -141 32q-54 31 -54 80q0 69 60 69
q19 0 39 -7q8 -3 18 -8q4 -1 8 -4l17 -8q5 -3 9 -4q9 -5 17 -8q20 -7 39 -7q44 0 44 37q0 26 -87 58q-150 55 -150 161q0 72 55 119q55 49 142 49q80 0 134 -33zM368 662q0 -27 -26 -56l-76 -84q-28 -31 -54 -31q-54 0 -54 55q0 20 17 44l73 100q22 32 57 32q63 0 63 -60z
" />
    <glyph glyph-name="Scircumflex" unicode="&#x15c;" horiz-adv-x="566" 
d="M422 686q53 -29 53 -71q0 -66 -73 -66q-13 0 -30 4q-10 1 -32 8l-32 9q-19 4 -33 4q-79 0 -79 -60q0 -32 34 -48q14 -7 41 -16q5 -1 12 -4q2 0 7 -2q5 0 6 -1l29 -9q196 -62 196 -207q0 -100 -74 -164q-77 -66 -202 -66q-97 0 -165 34q-65 34 -65 77q0 70 80 70
q14 0 35 -6l41 -12q27 -10 46 -14q27 -6 51 -6q80 0 80 73q0 37 -33 59q-24 16 -91 35q-107 30 -152 72q-49 43 -49 121q0 94 70 155q72 62 188 62q86 0 141 -31zM196 711q-25 -15 -46 -15q-47 0 -47 51q0 30 30 54l109 85q21 16 41 16t41 -16l109 -85q30 -24 30 -54
q0 -51 -47 -51q-20 0 -46 15l-87 53z" />
    <glyph glyph-name="scircumflex" unicode="&#x15d;" horiz-adv-x="456" 
d="M346 527q52 -31 52 -74q0 -66 -65 -66q-13 0 -30 6q-7 2 -16 6l-12 5q0 1 -2 1q-1 1 -2 1q-21 9 -32 13q-19 6 -33 6q-36 0 -36 -27q0 -19 29 -33q10 -5 34 -15l45 -18q129 -58 129 -153q0 -76 -58 -126q-60 -52 -153 -52q-87 0 -141 32q-54 31 -54 80q0 69 60 69
q19 0 39 -7q8 -3 18 -8q4 -1 8 -4l17 -8q5 -3 9 -4q9 -5 17 -8q20 -7 39 -7q44 0 44 37q0 26 -87 58q-150 55 -150 161q0 72 55 119q55 49 142 49q80 0 134 -33zM141 527q-25 -15 -46 -15q-47 0 -47 51q0 30 30 54l109 85q21 16 41 16t41 -16l109 -85q30 -24 30 -54
q0 -51 -47 -51q-20 0 -46 15l-87 53z" />
    <glyph glyph-name="Scedilla" unicode="&#x15e;" horiz-adv-x="566" 
d="M437 720q53 -31 53 -75q0 -69 -73 -69q-13 0 -30 4q-10 2 -32 9l-32 9q-19 4 -33 4q-79 0 -79 -62q0 -34 34 -51q14 -7 41 -16q5 -1 12 -4q2 0 7 -2q5 -1 6 -2l29 -9q196 -65 196 -216q0 -105 -74 -172q-77 -69 -202 -69q-97 0 -165 36q-65 35 -65 80q0 73 80 73
q14 0 35 -6l41 -13q27 -10 46 -14q27 -6 51 -6q80 0 80 76q0 39 -33 62q-24 16 -91 36q-107 32 -152 75q-49 46 -49 127q0 98 70 162q72 65 188 65q86 0 141 -32zM271 -134q-54 -12 -84 15q-35 30 -5 64q15 17 52 18t50 16q13 14 10 52q-4 38 14 58q29 33 63 2
q32 -27 26 -81q-5 -53 -40 -93q-34 -39 -86 -51z" />
    <glyph glyph-name="scedilla" unicode="&#x15f;" horiz-adv-x="456" 
d="M370 533q52 -31 52 -74q0 -66 -65 -66q-13 0 -30 6q-7 2 -16 6l-12 5q0 1 -2 1q-1 1 -2 1q-21 9 -32 13q-19 6 -33 6q-36 0 -36 -27q0 -19 29 -33q10 -5 34 -15l45 -18q129 -58 129 -153q0 -76 -58 -126q-60 -52 -153 -52q-87 0 -141 32q-54 31 -54 80q0 69 60 69
q19 0 39 -7q8 -3 18 -8q4 -1 8 -4l17 -8q5 -3 9 -4q9 -5 17 -8q20 -7 39 -7q44 0 44 37q0 26 -87 58q-150 55 -150 161q0 72 55 119q55 49 142 49q80 0 134 -33zM216 -134q-54 -12 -84 15q-35 30 -5 64q15 17 52 18t50 16q13 14 10 52q-4 38 14 58q29 33 63 2q32 -27 26 -81
q-5 -53 -40 -93q-34 -39 -86 -51z" />
    <glyph glyph-name="Scaron" unicode="&#x160;" horiz-adv-x="566" 
d="M422 686q53 -29 53 -71q0 -66 -73 -66q-13 0 -30 4q-10 1 -32 8l-32 9q-19 4 -33 4q-79 0 -79 -60q0 -32 34 -48q14 -7 41 -16q5 -1 12 -4q2 0 7 -2q5 0 6 -1l29 -9q196 -62 196 -207q0 -100 -74 -164q-77 -66 -202 -66q-97 0 -165 34q-65 34 -65 77q0 70 80 70
q14 0 35 -6l41 -12q27 -10 46 -14q27 -6 51 -6q80 0 80 73q0 37 -33 59q-24 16 -91 35q-107 30 -152 72q-49 43 -49 121q0 94 70 155q72 62 188 62q86 0 141 -31zM283 837l87 53q26 15 46 15q47 0 47 -51q0 -30 -30 -54l-109 -85q-21 -16 -41 -16t-41 16l-109 85
q-30 24 -30 54q0 51 47 51q21 0 46 -15z" />
    <glyph glyph-name="scaron" unicode="&#x161;" horiz-adv-x="456" 
d="M346 527q52 -31 52 -74q0 -66 -65 -66q-13 0 -30 6q-7 2 -16 6l-12 5q0 1 -2 1q-1 1 -2 1q-21 9 -32 13q-19 6 -33 6q-36 0 -36 -27q0 -19 29 -33q10 -5 34 -15l45 -18q129 -58 129 -153q0 -76 -58 -126q-60 -52 -153 -52q-87 0 -141 32q-54 31 -54 80q0 69 60 69
q19 0 39 -7q8 -3 18 -8q4 -1 8 -4l17 -8q5 -3 9 -4q9 -5 17 -8q20 -7 39 -7q44 0 44 37q0 26 -87 58q-150 55 -150 161q0 72 55 119q55 49 142 49q80 0 134 -33zM228 653l87 53q26 15 46 15q47 0 47 -51q0 -30 -30 -54l-109 -85q-21 -16 -41 -16t-41 16l-109 85
q-30 24 -30 54q0 51 47 51q21 0 46 -15z" />
    <glyph glyph-name="Tcommaaccent" unicode="&#x162;" horiz-adv-x="512" 
d="M397 731q115 0 115 -76q0 -74 -115 -74h-60v-455q0 -115 -81 -115t-81 115v455h-60q-115 0 -115 74q0 76 115 76h282zM244 -134q-54 -12 -84 15q-35 30 -5 64q15 17 52 18t50 16q13 14 10 52q-4 38 14 58q29 33 63 2q32 -27 26 -81q-5 -53 -40 -93q-34 -39 -86 -51z" />
    <glyph glyph-name="tcommaaccent" unicode="&#x163;" horiz-adv-x="383" 
d="M257 615v-73h21q100 0 100 -67q0 -68 -100 -68h-21v-279q0 -115 -78 -115q-79 0 -79 115v279h-6q-89 0 -89 68q0 67 95 67v73q0 114 79 114q78 0 78 -114zM179 -134q-54 -12 -84 15q-35 30 -5 64q15 17 52 18t50 16q13 14 10 52q-4 38 14 58q29 33 63 2q32 -27 26 -81
q-5 -53 -40 -93q-34 -39 -86 -51z" />
    <glyph glyph-name="Tcaron" unicode="&#x164;" horiz-adv-x="512" 
d="M394 720q115 0 115 -76q0 -74 -115 -74h-60v-455q0 -115 -81 -115t-81 115v455h-60q-115 0 -115 74q0 76 115 76h282zM256 837l87 53q26 15 46 15q47 0 47 -51q0 -30 -30 -54l-109 -85q-21 -16 -41 -16t-41 16l-109 85q-30 24 -30 54q0 51 47 51q21 0 46 -15z" />
    <glyph glyph-name="tcaron" unicode="&#x165;" horiz-adv-x="383" 
d="M257 615v-73h21q100 0 100 -67q0 -68 -100 -68h-21v-279q0 -115 -78 -115q-79 0 -79 115v279h-6q-89 0 -89 68q0 67 95 67v73q0 114 79 114q78 0 78 -114zM481 496q-53 -12 -84 15q-35 30 -5 64q15 17 52 18q38 1 51 16q13 14 9 52q-3 38 14 58q29 33 64 2q31 -27 26 -81
q-5 -53 -40 -93q-35 -39 -87 -51z" />
    <glyph glyph-name="Tbar" unicode="&#x166;" horiz-adv-x="512" 
d="M395 720q115 0 115 -76q0 -74 -115 -74h-60v-455q0 -115 -81 -115t-81 115v455h-60q-115 0 -115 74q0 76 115 76h282zM511 536q70 0 70 -51t-71 -51h-499q-71 0 -71 51t71 51h500z" />
    <glyph glyph-name="tbar" unicode="&#x167;" horiz-adv-x="383" 
d="M250 604v-73h21q100 0 100 -67q0 -68 -100 -68h-21v-279q0 -115 -78 -115q-79 0 -79 115v279h-6q-89 0 -89 68q0 67 95 67v73q0 114 79 114q78 0 78 -114zM446 464q70 0 70 -51t-71 -51h-499q-71 0 -71 51t71 51h500z" />
    <glyph glyph-name="Utilde" unicode="&#x168;" horiz-adv-x="736" 
d="M192 610v-277q0 -183 143 -183t143 183v277q0 112 81 112t81 -112v-294q0 -153 -83 -235q-80 -82 -222 -82t-222 82q-83 82 -83 235v294q0 112 81 112t81 -112zM298 814l-17 -5q-5 -2 -11 -3q-22 0 -32 14q-12 14 -12 39q0 37 24 62q25 25 60 25q18 0 47 -10q30 -7 45 -9
q14 0 35 9q20 9 29 9q19 0 32 -15q12 -15 12 -39q0 -36 -24 -62q-24 -25 -60 -25q-17 0 -47 9q-29 10 -46 10q-15 0 -35 -9z" />
    <glyph glyph-name="utilde" unicode="&#x169;" horiz-adv-x="584" 
d="M193 434v-178q0 -116 81 -116t81 116v178q0 114 79 114q78 0 78 -114v-210q0 -228 -238 -228t-238 228v210q0 114 79 114q78 0 78 -114zM222 630l-17 -5q-5 -2 -11 -3q-22 0 -32 14q-12 14 -12 39q0 37 24 62q25 25 60 25q18 0 47 -10q30 -7 45 -9q14 0 35 9q20 9 29 9
q19 0 32 -15q12 -15 12 -39q0 -36 -24 -62q-24 -25 -60 -25q-17 0 -47 9q-29 10 -46 10q-15 0 -35 -9z" />
    <glyph glyph-name="Umacron" unicode="&#x16a;" horiz-adv-x="736" 
d="M192 610v-277q0 -183 143 -183t143 183v277q0 112 81 112t81 -112v-294q0 -153 -83 -235q-80 -82 -222 -82t-222 82q-83 82 -83 235v294q0 112 81 112t81 -112zM470 906q78 0 78 -69q0 -66 -79 -66h-203q-78 0 -78 67q0 68 79 68h203z" />
    <glyph glyph-name="umacron" unicode="&#x16b;" horiz-adv-x="584" 
d="M193 434v-178q0 -116 81 -116t81 116v178q0 114 79 114q78 0 78 -114v-210q0 -228 -238 -228t-238 228v210q0 114 79 114q78 0 78 -114zM394 722q78 0 78 -69q0 -66 -79 -66h-203q-78 0 -78 67q0 68 79 68h203z" />
    <glyph glyph-name="Ubreve" unicode="&#x16c;" horiz-adv-x="736" 
d="M192 610v-277q0 -183 143 -183t143 183v277q0 112 81 112t81 -112v-294q0 -153 -83 -235q-80 -82 -222 -82t-222 82q-83 82 -83 235v294q0 112 81 112t81 -112zM273 779q-45 32 -45 73q0 46 45 46q23 0 48 -27q25 -28 45 -28q19 0 45 28q26 27 53 27q44 0 44 -46
q0 -42 -44 -73q-43 -31 -96 -31q-52 0 -95 31z" />
    <glyph glyph-name="ubreve" unicode="&#x16d;" horiz-adv-x="584" 
d="M193 434v-178q0 -116 81 -116t81 116v178q0 114 79 114q78 0 78 -114v-210q0 -228 -238 -228t-238 228v210q0 114 79 114q78 0 78 -114zM197 595q-45 32 -45 73q0 46 45 46q23 0 48 -27q25 -28 45 -28q19 0 45 28q26 27 53 27q44 0 44 -46q0 -42 -44 -73q-43 -31 -96 -31
q-52 0 -95 31z" />
    <glyph glyph-name="Uring" unicode="&#x16e;" horiz-adv-x="736" 
d="M192 610v-277q0 -183 143 -183t143 183v277q0 112 81 112t81 -112v-294q0 -153 -83 -235q-80 -82 -222 -82t-222 82q-83 82 -83 235v294q0 112 81 112t81 -112zM366 860q-31 0 -54 -22q-23 -23 -23 -55q0 -34 23 -56q22 -21 54 -21t55 22t23 55q0 31 -23 54t-55 23z
M477 884q45 -43 45 -102q0 -62 -46 -104q-45 -41 -108 -41q-64 0 -108 39q-47 42 -47 106q0 60 46 103q46 42 109 42t109 -43z" />
    <glyph glyph-name="uring" unicode="&#x16f;" horiz-adv-x="584" 
d="M193 434v-178q0 -116 81 -116t81 116v178q0 114 79 114q78 0 78 -114v-210q0 -228 -238 -228t-238 228v210q0 114 79 114q78 0 78 -114zM290 676q-31 0 -54 -22q-23 -23 -23 -55q0 -34 23 -56q22 -21 54 -21t55 22t23 55q0 31 -23 54t-55 23zM401 700q45 -43 45 -102
q0 -62 -46 -104q-45 -41 -108 -41q-64 0 -108 39q-47 42 -47 106q0 60 46 103q46 42 109 42t109 -43z" />
    <glyph glyph-name="Uhungarumlaut" unicode="&#x170;" horiz-adv-x="736" 
d="M192 610v-277q0 -183 143 -183t143 183v277q0 112 81 112t81 -112v-294q0 -153 -83 -235q-80 -82 -222 -82t-222 82q-83 82 -83 235v294q0 112 81 112t81 -112zM368 846q0 -27 -26 -56l-76 -84q-28 -31 -54 -31q-54 0 -54 55q0 20 17 44l73 100q22 32 57 32q63 0 63 -60z
M578 846q0 -27 -26 -56l-76 -84q-28 -31 -54 -31q-54 0 -54 55q0 20 17 44l73 100q22 32 57 32q63 0 63 -60z" />
    <glyph glyph-name="uhungarumlaut" unicode="&#x171;" horiz-adv-x="584" 
d="M193 434v-178q0 -116 81 -116t81 116v178q0 114 79 114q78 0 78 -114v-210q0 -228 -238 -228t-238 228v210q0 114 79 114q78 0 78 -114zM292 662q0 -27 -26 -56l-76 -84q-28 -31 -54 -31q-54 0 -54 55q0 20 17 44l73 100q22 32 57 32q63 0 63 -60zM502 662q0 -27 -26 -56
l-76 -84q-28 -31 -54 -31q-54 0 -54 55q0 20 17 44l73 100q22 32 57 32q63 0 63 -60z" />
    <glyph glyph-name="Uogonek" unicode="&#x172;" horiz-adv-x="736" 
d="M192 610v-277q0 -183 143 -183t143 183v277q0 112 81 112t81 -112v-294q0 -153 -83 -235q-80 -82 -222 -82t-222 82q-83 82 -83 235v294q0 112 81 112t81 -112zM534 41.75q0 -15.75 -16 -38.25l-79 -108q-30 -41.25 -70 -41.25q-66 0 -66 47.25q0 16.5 16 37.5l79 108
q30 41.25 70 41.25q66 0 66 -46.5z" />
    <glyph glyph-name="uogonek" unicode="&#x173;" horiz-adv-x="584" 
d="M193 434v-178q0 -116 81 -116t81 116v178q0 114 79 114q78 0 78 -114v-210q0 -228 -238 -228t-238 228v210q0 114 79 114q78 0 78 -114zM530 -31.25q0 -15.75 -16 -38.25l-79 -108q-30 -41.25 -70 -41.25q-66 0 -66 47.25q0 16.5 16 37.5l79 108q30 41.25 70 41.25
q66 0 66 -46.5z" />
    <glyph glyph-name="Wcircumflex" unicode="&#x174;" horiz-adv-x="914" 
d="M160 661l85 -452l118 454q19 71 90 71q69 0 88 -73l116 -452l85 441q17 84 82 84q80 0 80 -78q0 -24 -10 -64l-120 -483q-15 -59 -35 -81q-24 -26 -77 -26q-85 0 -108 91l-106 406l-100 -397q-25 -100 -117 -100q-87 0 -111 107l-114 497q-6 30 -6 53q0 75 82 75
q64 0 78 -73zM370 711q-25 -15 -46 -15q-47 0 -47 51q0 30 30 54l109 85q21 16 41 16t41 -16l109 -85q30 -24 30 -54q0 -51 -47 -51q-20 0 -46 15l-87 53z" />
    <glyph glyph-name="wcircumflex" unicode="&#x175;" horiz-adv-x="763" 
d="M157 475l83 -288l67 289q18 76 73 76q61 0 80 -78l72 -283l83 294q19 67 74 67q74 0 74 -79q0 -18 -12 -52l-121 -344q-28 -77 -90 -77q-73 0 -95 82l-65 251l-61 -256q-18 -77 -90 -77q-65 0 -95 82l-125 349q-9 26 -9 43q0 78 76 78q59 0 81 -77zM295 527
q-25 -15 -46 -15q-47 0 -47 51q0 30 30 54l109 85q21 16 41 16t41 -16l109 -85q30 -24 30 -54q0 -51 -47 -51q-20 0 -46 15l-87 53z" />
    <glyph glyph-name="Ycircumflex" unicode="&#x176;" horiz-adv-x="563" 
d="M161 664l121 -173l123 175q44 63 87 63q27 0 49 -23q22 -22 22 -49q0 -30 -37 -82l-164 -234v-229q0 -115 -81 -115t-81 115v229l-164 232q-36 50 -36 82q0 28 21 51q23 23 56 23q38 0 84 -65zM195 711q-25 -15 -46 -15q-47 0 -47 51q0 30 30 54l109 85q21 16 41 16
t41 -16l109 -85q30 -24 30 -54q0 -51 -47 -51q-20 0 -46 15l-87 53z" />
    <glyph glyph-name="ycircumflex" unicode="&#x177;" horiz-adv-x="500" 
d="M160 472l89 -238l97 251q25 63 69 63q78 0 78 -75q0 -25 -13 -55l-240 -570q-27 -64 -69 -64q-78 0 -78 76q0 25 13 54l65 141l-159 371q-9 19 -9 44q0 78 77 78q52 0 80 -76zM163 527q-25 -15 -46 -15q-47 0 -47 51q0 30 30 54l109 85q21 16 41 16t41 -16l109 -85
q30 -24 30 -54q0 -51 -47 -51q-20 0 -46 15l-87 53z" />
    <glyph glyph-name="Ydieresis" unicode="&#x178;" horiz-adv-x="563" 
d="M161 678l121 -173l123 175q44 63 87 63q27 0 49 -23q22 -22 22 -49q0 -30 -37 -82l-164 -234v-229q0 -115 -81 -115t-81 115v229l-164 232q-36 50 -36 82q0 28 21 51q23 23 56 23q38 0 84 -65zM246 827q0 -72 -73 -72q-72 0 -72 72q0 73 72 73q73 0 73 -73zM463 827
q0 -72 -73 -72q-72 0 -72 72q0 73 72 73q73 0 73 -73z" />
    <glyph glyph-name="Zacute" unicode="&#x179;" horiz-adv-x="546" 
d="M399 711q139 0 139 -79q0 -36 -47 -99l-283 -383h221q115 0 115 -75t-115 -75h-317q-114 0 -114 81q0 26 13 51q8 16 32 47l288 382h-207q-115 0 -115 76q0 74 115 74h275zM413 846q0 -27 -26 -56l-76 -84q-28 -31 -54 -31q-54 0 -54 55q0 20 17 44l73 100q22 32 57 32
q63 0 63 -60z" />
    <glyph glyph-name="zacute" unicode="&#x17a;" horiz-adv-x="480" 
d="M370 144q99 0 99 -72t-100 -72h-287q-83 0 -83 49q0 29 24 60l216 279h-136q-99 0 -99 73q0 71 100 71h253q99 0 99 -48q0 -26 -32 -69l-210 -271h156zM380 662q0 -27 -26 -56l-76 -84q-28 -31 -54 -31q-54 0 -54 55q0 20 17 44l73 100q22 32 57 32q63 0 63 -60z" />
    <glyph glyph-name="Zdotaccent" unicode="&#x17b;" horiz-adv-x="546" 
d="M399 711q139 0 139 -79q0 -36 -47 -99l-283 -383h221q115 0 115 -75t-115 -75h-317q-114 0 -114 81q0 26 13 51q8 16 32 47l288 382h-207q-115 0 -115 76q0 74 115 74h275zM327.845 902.796q22.9502 -22.9492 22.9502 -54.3984q0 -33.1494 -22.9502 -55.248
q-22.9492 -22.0996 -54.3984 -22.0996q-31.4482 0 -53.5479 21.249q-23.7998 21.25 -23.7998 56.0986q0 31.4492 22.9492 54.3984q22.9502 22.9492 54.3984 22.9492q31.4492 0 54.3984 -22.9492z" />
    <glyph glyph-name="zdotaccent" unicode="&#x17c;" horiz-adv-x="480" 
d="M370 144q99 0 99 -72t-100 -72h-287q-83 0 -83 49q0 29 24 60l216 279h-136q-99 0 -99 73q0 71 100 71h253q99 0 99 -48q0 -26 -32 -69l-210 -271h156zM294.845 718.796q22.9502 -22.9492 22.9502 -54.3984q0 -33.1494 -22.9502 -55.248
q-22.9492 -22.0996 -54.3984 -22.0996q-31.4482 0 -53.5479 21.249q-23.7998 21.25 -23.7998 56.0986q0 31.4492 22.9492 54.3984q22.9502 22.9492 54.3984 22.9492q31.4492 0 54.3984 -22.9492z" />
    <glyph glyph-name="Zcaron" unicode="&#x17d;" horiz-adv-x="546" 
d="M399 711q139 0 139 -79q0 -36 -47 -99l-283 -383h221q115 0 115 -75t-115 -75h-317q-114 0 -114 81q0 26 13 51q8 16 32 47l288 382h-207q-115 0 -115 76q0 74 115 74h275zM273 837l87 53q26 15 46 15q47 0 47 -51q0 -30 -30 -54l-109 -85q-21 -16 -41 -16t-41 16
l-109 85q-30 24 -30 54q0 51 47 51q21 0 46 -15z" />
    <glyph glyph-name="zcaron" unicode="&#x17e;" horiz-adv-x="480" 
d="M370 144q99 0 99 -72t-100 -72h-287q-83 0 -83 49q0 29 24 60l216 279h-136q-99 0 -99 73q0 71 100 71h253q99 0 99 -48q0 -26 -32 -69l-210 -271h156zM240 653l87 53q26 15 46 15q47 0 47 -51q0 -30 -30 -54l-109 -85q-21 -16 -41 -16t-41 16l-109 85q-30 24 -30 54
q0 51 47 51q21 0 46 -15z" />
    <glyph glyph-name="longs" unicode="&#x17f;" horiz-adv-x="370" 
d="M364 692q0 -54 -72 -65q-38 -6 -38 -59v-38h26q100 0 100 -67q0 -68 -100 -68h-26v-279q0 -115 -78 -115q-79 0 -79 115v279h-6q-89 0 -89 68q0 67 95 67v30q0 211 163 211q104 0 104 -79z" />
    <glyph glyph-name="florin" unicode="&#x192;" horiz-adv-x="522" 
d="M203 591q12 70 22.5 100t31.5 55.5t56 40t86 14.5q56 0 114 -9l-12 -81q-39 10 -75 10q-31 0 -48 -14.5t-23.5 -34t-18.5 -81.5h113l-14 -79h-114l-90 -483q-18 -98 -69 -136.5t-155 -38.5v78q40 0 59.5 16.5t29.5 72.5l92 491h-104l13 79h106z" />
    <glyph glyph-name="Ohorn" unicode="&#x1a0;" horiz-adv-x="758" 
d="M631 649q97 -104 97 -274q0 -168 -96 -272t-253 -104t-253 104q-96 103 -96 272t97 273q96 104 252 104t252 -103zM254 538q-48 -61 -48 -165q0 -100 48 -160q48 -59 125 -59t125 59q48 60 48 160q0 104 -48 165q-47 59 -125 59t-125 -59zM808 535q-53 -12 -84 16
q-34 30 -4 64q15 17 52 18q37 0 51 15q13 14 9 52q-3 38 15 58q29 32 63 2q32 -28 26 -82q-6 -52 -41 -92q-35 -39 -87 -51z" />
    <glyph glyph-name="ohorn" unicode="&#x1a1;" horiz-adv-x="583" 
d="M484 488q74 -79 74 -202t-74 -201q-75 -78 -192 -78t-192 78t-75 201t75 202q76 78 192 78q117 0 192 -78zM218 385q-31 -38 -31 -98q0 -136 105 -136q104 0 104 137q0 59 -30 97q-30 37 -74 37q-45 0 -74 -37zM625 437q-53 -12 -84 16q-34 30 -4 64q15 17 52 18
q37 0 51 15q13 14 9 52q-3 38 15 58q29 32 63 2q32 -28 26 -82q-6 -52 -41 -92q-35 -39 -87 -51z" />
    <glyph glyph-name="Uhorn" unicode="&#x1af;" horiz-adv-x="736" 
d="M225 628v-285q0 -189 143 -189t143 189v285q0 115 81 115t81 -115v-303q0 -157 -83 -242q-80 -84 -222 -84t-222 84q-83 85 -83 242v303q0 115 81 115t81 -115zM808 535q-53 -12 -84 16q-34 30 -4 64q15 17 52 18q37 0 51 15q13 14 9 52q-3 38 15 58q29 32 63 2
q32 -28 26 -82q-6 -52 -41 -92q-35 -39 -87 -51z" />
    <glyph glyph-name="uhorn" unicode="&#x1b0;" horiz-adv-x="584" 
d="M211 445v-178q0 -116 81 -116t81 116v178q0 114 79 114q78 0 78 -114v-210q0 -228 -238 -228t-238 228v210q0 114 79 114q78 0 78 -114zM672 450q-53 -12 -84 16q-34 30 -4 64q15 17 52 18q37 0 51 15q13 14 9 52q-3 38 15 58q29 32 63 2q32 -28 26 -82q-6 -52 -41 -92
q-35 -39 -87 -51z" />
    <glyph glyph-name="uni01C1" unicode="&#x1c1;" horiz-adv-x="492" 
d="M295 749h99v-937h-99v937zM98 749h99v-937h-99v937z" />
    <glyph glyph-name="uni01C2" unicode="&#x1c2;" horiz-adv-x="459" 
d="M181 749h99v-301h171v-82h-171v-117h171v-83h-171v-354h-99v354h-171v83h171v117h-171v82h171v301z" />
    <glyph glyph-name="uni01C3" unicode="&#x1c3;" horiz-adv-x="295" 
d="M98 144h99v-124h-99v124zM98 749h99v-320l-10 -174h-79l-10 174v320z" />
    <glyph glyph-name="Aringacute" unicode="&#x1fa;" horiz-adv-x="637" 
d="M399 304l-81 263l-88 -263h169zM441 649l180 -511q11 -31 11 -51q0 -76 -80 -76q-60 0 -85 79l-20 64h-263l-24 -70q-24 -73 -78 -73q-77 0 -77 78q0 27 8 47l185 502q38 105 124 105q85 0 119 -94z" />
    <glyph glyph-name="aringacute" unicode="&#x1fb;" horiz-adv-x="603" 
d="M208 378q-30 -38 -30 -96q0 -60 29 -98q29 -39 73 -39t73 39q30 40 30 98q0 57 -30 96q-30 38 -73 38t-72 -38zM255 1q-99 0 -168 78q-71 80 -71 201q0 119 72 200q71 80 173 80q78 0 126 -57q28 50 75 50q78 0 78 -114v-317q0 -115 -78 -115q-50 0 -75 55
q-50 -61 -132 -61zM285 676q-31 0 -54 -22q-23 -23 -23 -55q0 -34 23 -56q22 -21 54 -21t55 22t23 55q0 31 -23 54t-55 23zM396 700q45 -43 45 -102q0 -62 -46 -104q-45 -41 -108 -41q-64 0 -108 39q-47 42 -47 106q0 60 46 103q46 42 109 42t109 -43zM427 906
q0 -27 -26 -56l-76 -84q-28 -31 -54 -31q-54 0 -54 55q0 20 17 44l73 100q22 32 57 32q63 0 63 -60z" />
    <glyph glyph-name="AEacute" unicode="&#x1fc;" horiz-adv-x="0" 
 />
    <glyph glyph-name="aeacute" unicode="&#x1fd;" horiz-adv-x="0" 
 />
    <glyph glyph-name="Oslashacute" unicode="&#x1fe;" horiz-adv-x="0" 
 />
    <glyph glyph-name="oslashacute" unicode="&#x1ff;" horiz-adv-x="0" 
 />
    <glyph glyph-name="uni02A1" unicode="&#x2a1;" horiz-adv-x="510" 
d="M166 410h31q94 0 136 55q28 37 28 85q-1 65 -28 97q-49 56 -136 56q-39 0 -78 -11q-38 -10 -76 -31v84q37 17 77 25q39 9 81 9q134 0 201 -77q54 -61 54 -152q0 -83 -53 -139q-55 -58 -138 -73v-103h113v-80h-113v-135h-98v135h-112v80h111v175z" />
    <glyph glyph-name="uni02A2" unicode="&#x2a2;" horiz-adv-x="510" 
d="M121 155v80h112v103q-83 15 -137 73q-53 56 -53 139q0 91 54 152q67 77 201 77q41 0 81 -9q39 -8 77 -25v-84q-39 21 -77 31q-38 11 -77 11q-88 0 -136 -56q-28 -32 -28 -97q0 -48 28 -85q42 -55 136 -55h30v-175h112v-80h-112v-135h-99v135h-112z" />
    <glyph glyph-name="uni02A3" unicode="&#x2a3;" horiz-adv-x="965" 
d="M945 142h-541v66h-2q-48 -78 -143 -78t-159 75.5t-64 195.5q0 125 60 198t159 73q93 0 141 -71h2v257h88v-198h443v-57l-281 -328l-54 -61q50 4 111 4h240v-76zM268 202q58 0 98 47.5t40 143.5q0 95 -36.5 151t-105.5 56q-68 0 -103 -55t-35 -144q0 -65 19 -109.5
t52.5 -67t70.5 -22.5zM816 591q-58 -3 -99 -3h-231v-375z" />
    <glyph glyph-name="uni02A4" unicode="&#x2a4;" horiz-adv-x="965" 
d="M693 363q102 0 169.5 -59t67.5 -149q0 -101 -62 -162t-164 -61q-145 0 -232 112l69 54q55 -94 163 -94q65 0 100.5 39.5t35.5 111.5t-51.5 109.5t-149.5 37.5h-102l249 289q-58 -3 -99 -3h-201v-446h-82v66h-2q-48 -78 -143 -78t-159 75.5t-64 195.5q0 125 60 198t159 73
q93 0 141 -71h2v257h88v-198h413v-57zM268 202q58 0 98 47.5t40 143.5q0 95 -36.5 151t-105.5 56q-68 0 -103 -55t-35 -144q0 -65 19 -109.5t52.5 -67t70.5 -22.5z" />
    <glyph glyph-name="uni02A5" unicode="&#x2a5;" horiz-adv-x="1029" 
d="M731 216q35 86 76.5 126t99.5 40q48 0 74.5 -24t26.5 -63q0 -64 -45 -108.5t-138 -44.5h-52l-25 -79l-63 19q6 21 19 60h-300v66h-2q-48 -78 -143 -78t-159 75.5t-64 195.5q0 125 60 198t159 73q93 0 141 -71h2v257h88v-198h443v-57l-281 -328l-54 -61q50 2 111 2h26z
M268 202q58 0 98 47.5t40 143.5q0 95 -36.5 151t-105.5 56q-68 0 -103 -55t-35 -144q0 -65 19 -109.5t52.5 -67t70.5 -22.5zM816 591q-58 -3 -99 -3h-231v-375zM802 216h16q52 0 79.5 19.5t27.5 49.5q0 29 -31 29q-48 0 -92 -98z" />
    <glyph glyph-name="uni02A6" unicode="&#x2a6;" horiz-adv-x="688" 
d="M545 515q-12 85 -114 85q-50 0 -81 -17t-31 -50q0 -31 24.5 -44t97.5 -32q82 -21 122.5 -37t63.5 -45t23 -81q0 -69 -56.5 -116.5t-151.5 -47.5q-197 0 -222 167l87 13q14 -108 134 -108q58 0 88.5 24t30.5 59q0 24 -14 38t-35 21t-96 25q-110 26 -145.5 64t-35.5 90
q0 38 18 69h-83v-450h-88v450h-64v68h64v129l88 53v-182h174q34 12 82 12q185 0 206 -145z" />
    <glyph glyph-name="uni02A7" unicode="&#x2a7;" horiz-adv-x="483" 
d="M540 861l-13 -77q-27 5 -52 5q-32 0 -52 -13.5t-20 -66.5v-623q0 -39 -7.5 -71t-39 -57.5t-96.5 -25.5q-39 0 -82 9l13 77q26 -5 52 -5q32 0 52 13.5t20 66.5v63q-51 -21 -112 -21q-57 0 -83.5 20.5t-32.5 51.5t-6 87v298h-64v68h64v129l88 53v-182h146v56q0 39 7.5 71
t39 57.5t96.5 25.5q39 0 82 -9zM315 238v354h-146v-303q0 -39 8 -55.5t41 -16.5q55 0 97 21z" />
    <glyph glyph-name="uni02A8" unicode="&#x2a8;" horiz-adv-x="717" 
d="M700 508l-85 -13q-26 105 -118 105q-74 0 -112 -52t-38 -146q0 -133 70 -180q77 150 178 150q48 0 74.5 -23.5t26.5 -63.5q0 -53 -59 -104t-144 -51q-24 0 -45 3q-19 -47 -32 -82l-63 22q25 65 32 79q-25 12 -46 30q-63 -47 -136 -47q-57 0 -83.5 20.5t-32.5 51.5t-6 87
v298h-64v68h64v129l88 53v-182h88v-68h-88v-303q0 -39 8 -55.5t41 -16.5q40 0 75 23q-36 67 -36 160q0 133 65 202.5t171 69.5q80 0 137 -41.5t70 -122.5zM481 202h11q56 0 88.5 24t32.5 52q0 26 -31 26q-48 0 -101 -102z" />
    </font>
</defs>
</svg>
