<svg xmlns="http://www.w3.org/2000/svg">
<defs>
<font id="Veles-Regular" horiz-adv-x="645" >
  <font-face 
    font-family="Veles"
    font-weight="400"
    font-stretch="normal"
    units-per-em="1000"
    panose-1="2 0 5 3 0 0 0 0 0 0"
    ascent="800"
    descent="-200"
    x-height="426"
    cap-height="869"
    bbox="-255 -908 1448 1310"
    underline-thickness="50"
    underline-position="-100"
    unicode-range="U+0020-2122"
  />
<missing-glyph horiz-adv-x="1134" 
d="M980 522q38 -47 38 -119q0 -29 -6.5 -62t-20.5 -58t-31 -39t-31.5 -21.5t-29.5 -10.5q-20 -5 -41 -5q-34 0 -64 10.5t-43 26.5t-23 42.5t-10 53.5q0 47 30 77q35 34 83 34q19 0 34 -5q25 -9 25 -36q0 -6 -2 -12q-9 -25 -35 -25q-7 0 -13 2q-4 1 -9 1q-17 0 -29 -13
q-8 -7 -8 -23q0 -27 14 -46q18 -12 50 -12q16 0 30 5q38 14 50 69q5 26 5 48q0 44 -22 70q-30 37 -93 37h-2q-68 -1 -212 -101q108 -157 108 -250v-2q0 -123 -63 -175q-40 -32 -100 -32q-26 0 -56 6q-34 8 -60 22.5t-40.5 32.5t-22.5 33.5t-12 31.5q-4 20 -4 41q0 31 9.5 58
t24.5 39q15 13 41.5 22.5t53.5 9.5q47 0 77 -30q34 -35 34 -83q0 -19 -5 -35q-9 -25 -36 -25q-6 0 -13 3q-25 9 -25 35q0 7 3 13q1 4 1 10q0 16 -12 29q-8 8 -24 8q-26 0 -46 -14q-8 -14 -8 -40q0 -18 6 -34q16 -40 74 -53q22 -4 40 -4q33 0 52 15q36 29 36 116v2
q-1 68 -94 206q-15 -11 -40 -30q-35 -27 -45 -34q-109 -72 -196 -72q-21 0 -40 5q-66 15 -104 78q-29 49 -29 98q0 53 36 92q43 47 107 47q31 0 58 -13q48 -23 55 -67q1 -7 1 -14q0 -48 -42 -91q-11 -11 -27 -11q-15 0 -26 11t-11 26q0 16 10 27q21 21 21 38v1q-1 6 -14 12
q-11 6 -25 6q-31 0 -52 -23q-16 -17 -16 -42q0 -27 19 -58q21 -36 56 -44q10 -2 22 -2q65 0 155 59q8 5 42 31q21 16 41 31q-7 10 -21 28q-24 33 -31 43q-67 104 -67 190q0 21 4 41q16 66 80 104q50 30 98 30q53 0 90 -35q45 -42 45 -104q0 -32 -14 -60q-24 -47 -67 -55
q-7 -1 -14 -1q-48 0 -91 43q-11 11 -11 26.5t11 26.5t26 11q16 0 27 -11q21 -20 38 -20h1q6 1 12 14q6 12 6 26q0 29 -20 49q-16 15 -40 15q-26 0 -58 -19q-37 -22 -46 -57q-2 -12 -2 -24q0 -64 55 -149q5 -8 29 -39q9 -13 21 -29q164 114 255 115h2q100 0 153 -64z

<glyph glyph-name=".notdef" horiz-adv-x="1134" 
d="M980 522q38 -47 38 -119q0 -29 -6.5 -62t-20.5 -58t-31 -39t-31.5 -21.5t-29.5 -10.5q-20 -5 -41 -5q-34 0 -64 10.5t-43 26.5t-23 42.5t-10 53.5q0 47 30 77q35 34 83 34q19 0 34 -5q25 -9 25 -36q0 -6 -2 -12q-9 -25 -35 -25q-7 0 -13 2q-4 1 -9 1q-17 0 -29 -13
q-8 -7 -8 -23q0 -27 14 -46q18 -12 50 -12q16 0 30 5q38 14 50 69q5 26 5 48q0 44 -22 70q-30 37 -93 37h-2q-68 -1 -212 -101q108 -157 108 -250v-2q0 -123 -63 -175q-40 -32 -100 -32q-26 0 -56 6q-34 8 -60 22.5t-40.5 32.5t-22.5 33.5t-12 31.5q-4 20 -4 41q0 31 9.5 58
t24.5 39q15 13 41.5 22.5t53.5 9.5q47 0 77 -30q34 -35 34 -83q0 -19 -5 -35q-9 -25 -36 -25q-6 0 -13 3q-25 9 -25 35q0 7 3 13q1 4 1 10q0 16 -12 29q-8 8 -24 8q-26 0 -46 -14q-8 -14 -8 -40q0 -18 6 -34q16 -40 74 -53q22 -4 40 -4q33 0 52 15q36 29 36 116v2
q-1 68 -94 206q-15 -11 -40 -30q-35 -27 -45 -34q-109 -72 -196 -72q-21 0 -40 5q-66 15 -104 78q-29 49 -29 98q0 53 36 92q43 47 107 47q31 0 58 -13q48 -23 55 -67q1 -7 1 -14q0 -48 -42 -91q-11 -11 -27 -11q-15 0 -26 11t-11 26q0 16 10 27q21 21 21 38v1q-1 6 -14 12
q-11 6 -25 6q-31 0 -52 -23q-16 -17 -16 -42q0 -27 19 -58q21 -36 56 -44q10 -2 22 -2q65 0 155 59q8 5 42 31q21 16 41 31q-7 10 -21 28q-24 33 -31 43q-67 104 -67 190q0 21 4 41q16 66 80 104q50 30 98 30q53 0 90 -35q45 -42 45 -104q0 -32 -14 -60q-24 -47 -67 -55
q-7 -1 -14 -1q-48 0 -91 43q-11 11 -11 26.5t11 26.5t26 11q16 0 27 -11q21 -20 38 -20h1q6 1 12 14q6 12 6 26q0 29 -20 49q-16 15 -40 15q-26 0 -58 -19q-37 -22 -46 -57q-2 -12 -2 -24q0 -64 55 -149q5 -8 29 -39q9 -13 21 -29q164 114 255 115h2q100 0 153 -64z
M216 718.5q0 46.5 46.5 46.5t46.5 -46.5t-46.5 -46.5t-46.5 46.5zM821 723.5q0 46.5 46.5 46.5t46.5 -46.5t-46.5 -46.5t-46.5 46.5zM789 54.5q0 46.5 46.5 46.5t46.5 -46.5t-46.5 -46.5t-46.5 46.5zM166 117.5q0 46.5 46 46.5t46 -46.5t-46 -46.5t-46 46.5z" />
    <glyph glyph-name=".null" horiz-adv-x="0" 
 />
    <glyph glyph-name="nonmarkingreturn" horiz-adv-x="333" 
 />
    <glyph glyph-name="space" unicode=" " horiz-adv-x="528" 
 />
    <glyph glyph-name="exclam" unicode="!" horiz-adv-x="364" 
d="M259 1012q9 13 25 13q5 0 11 -1q18 -7 18 -25q0 -5 -2 -11q-9 -24 -38 -60.5t-38 -57.5q-20 -47 -44 -143q-42 -171 -42 -320q0 -40 3 -76q1 -5 0 -9q-1 -18 -14.5 -28t-29.5 -10h-4q-14 1 -23 10t-9 25q0 17 2 53.5t2 54.5v6v6q0 71 4 109q10 103 29 177q2 7 7.5 29
t8 31.5t8 28.5t9.5 31t10.5 27.5t13.5 28.5q14 25 47.5 59.5t45.5 51.5zM72 67q10 18 27 25q11 5 23 5q22 0 38.5 -16t16.5 -41q0 -15 -6 -29q-9 -18 -25 -30.5t-34 -12.5h-5q-44 5 -59 63v5q0 19 18 28q3 1 6 3z" />
    <glyph glyph-name="quotedbl" unicode="&#x22;" horiz-adv-x="383" 
d="M227 835q-1 -1 -3 -1q-9 0 -14 6t-5 14q0 17 17 20q18 2 33 2q82 0 82 -72q0 -29 -14.5 -83t-16.5 -64q-1 -12 -9.5 -18.5t-19.5 -6.5t-19 6t-8 17q0 5 3 11q6 15 11.5 45t5.5 58q0 66 -36 66h-7zM45 829h-4q-9 0 -14 6t-5 14q0 17 17 19q18 2 34 2q82 0 82 -72
q0 -29 -15 -82.5t-16 -63.5q-2 -13 -10.5 -19.5t-19 -6.5t-19 6.5t-8.5 16.5q0 5 3 11q6 15 12 45t6 58q0 67 -37 67q-3 0 -6 -1z" />
    <glyph glyph-name="numbersign" unicode="#" horiz-adv-x="787" 
d="M87 411q-11 0 -16.5 7t-5.5 16t5.5 15.5t16.5 7.5q22 1 47.5 2.5t56.5 4t48 3.5q19 65 48 118q6 12 20 12q11 0 19 -6.5t8 -15.5v-2q-5 -34 -16 -102q34 1 98 1q55 -2 81 -4q5 29 8.5 46t13 40t24.5 36q7 6 16 6t16.5 -7t7.5 -16q0 -6 -3 -11q-18 -34 -27 -98
q39 -2 69 -2q58 0 104 9q4 1 8 1q14 0 22.5 -9t8.5 -21t-8 -20.5t-22 -10.5q-41 -6 -91 -6q-33 0 -98 4q-6 -51 -11 -74q-18 -74 -29 -124q88 0 198 5h2q14 0 22 -9.5t8 -22.5q0 -12 -7.5 -21.5t-21.5 -9.5h-3q-115 5 -209 5q-11 -46 -26 -129q-4 -23 -27 -23q-14 0 -25.5 9
t-11.5 24q0 3 1 7q16 75 24 112h-173q-5 -23 -15.5 -68t-15.5 -68t-28 -23q-14 0 -25.5 9.5t-11.5 24.5q0 3 1 7q2 14 20 118l-140 4q-11 0 -17 7t-6 16t6 15.5t17 7.5q97 2 146 2q21 135 36 198q-69 0 -137 3zM443 210q7 34 22 101t22 101q-33 2 -50 2q-11 0 -21 -1
q-38 -1 -108 -3q-18 -100 -40 -199q29 0 87 -0.5t88 -0.5z" />
    <glyph glyph-name="dollar" unicode="$" horiz-adv-x="452" 
d="M191 403q19 -19 62 -49.5t63 -50.5q73 -78 73 -144q0 -30 -16 -55q-45 -70 -127 -89q-7 -26 -7 -67q-1 -6 -1.5 -17t-0.5 -17q-1 -11 -8.5 -18t-18.5 -7h-2q-11 0 -18.5 8t-7.5 20v2q1 10 1 31q3 48 5 57q-1 3 -1 6q-90 11 -130 99q-4 9 -4 18q0 15 11 24.5t26 9.5
q13 0 22.5 -8.5t12.5 -24.5q3 -27 29 -40.5t60 -13.5q39 0 62 15q47 33 47 73q0 16 -9.5 34.5t-18.5 30.5t-31 31t-28.5 24.5t-29.5 22.5q-45 34 -74 67.5t-34 74.5q-1 10 -1 20q0 51 35 82.5t89 41.5q0 38 4 89v8q0 11 8 19t18 8h2q11 -1 19 -9.5t8 -19.5l-1 -8
q-2 -62 -2 -83q61 -2 105 -29q13 -8 13 -21q0 -10 -7.5 -18t-18.5 -8q-6 0 -12 3q-27 13 -66 13q-51 0 -91 -21t-40 -55q0 -28 31 -59z" />
    <glyph glyph-name="percent" unicode="%" horiz-adv-x="739" 
d="M549 276q15 11 22 11q17 0 26 -19q11 0 19 -4q28 -11 45 -27q32 -35 35 -81q0 -57 -36.5 -99.5t-96.5 -42.5q-47 0 -79 24.5t-32 68.5q0 9 1 13q7 64 57 122q1 15 8.5 25.5t20.5 10.5q2 0 10 -2zM462 774q3 19 25 19q11 0 19.5 -6.5t8.5 -17.5v-3q-23 -187 -86.5 -386.5
t-160.5 -443.5q-8 -25 -32 -25q-15 0 -26 9.5t-11 23.5q0 8 5 18q32 57 57 127.5t49.5 156.5t41.5 134q91 254 110 394zM554 71q33 0 56.5 22t23.5 52v5q-2 23 -20 40q-23 20 -45 20q-3 0 -6 -1t-6 -2.5l-5 -2.5q-23 -29 -34 -62q-5 -17 -5 -29q0 -42 41 -42zM189 665
q51 0 87 -42t36 -95q0 -47 -33 -77q-48 -43 -112 -43t-94 47q-19 28 -19 58q0 37 26 70q-1 5 -1 9q0 14 12 23q56 50 95 50h3zM171 465q31 0 55.5 17t24.5 47q0 27 -20.5 50t-43.5 23q-7 0 -10 -1q-1 -6 -4.5 -10.5t-7.5 -7t-10.5 -6.5t-9.5 -7q-5 -9 -15 -13
q-20 -22 -20 -45q0 -21 18.5 -34t42.5 -13z" />
    <glyph glyph-name="ampersand" unicode="&#x26;" horiz-adv-x="763" 
d="M837 136q5 2 10 2q14 0 23 -11.5t9 -25.5q0 -25 -24 -30q-37 -7 -76 -7q-114 0 -234 56q-112 -107 -243 -126q-16 -2 -35 -2q-31 0 -63 6.5t-61 20t-47 38t-18 56.5v1q0 42 14.5 80t41.5 69t55.5 55t67.5 50q-5 6 -13 20q-26 45 -26 106q0 77 41.5 136.5t110.5 59.5
q28 0 59 -11q43 -15 75.5 -46t32.5 -72q0 -13 -4 -26q-18 -60 -57 -95t-110 -73q-4 -3 -12 -7t-12 -7q36 -42 83 -74q74 -52 119 -80q65 69 137 182q7 11 19 11q10 0 17.5 -6.5t7.5 -15.5q0 -6 -3 -12q-65 -114 -129 -187q90 -46 168 -46q39 0 76 11zM277 500q6 -54 32 -100
q80 50 82 51q31 13 52.5 43.5t21.5 61.5q0 49 -53 64q-20 5 -39 5q-47 0 -72 -32t-25 -79q0 -7 1 -14zM316 57q93 24 174 92q-122 70 -200 171q-59 -39 -93 -82q-41 -50 -41 -96q0 -41 30.5 -66t80.5 -25q23 0 49 6z" />
    <glyph glyph-name="quotesingle" unicode="'" horiz-adv-x="71" 
d="M91 795q-15 18 -15 38q0 22 18 38.5t41 16.5q25 0 44 -18q31 -30 31 -69q0 -30 -16 -63t-43.5 -74t-34.5 -54q-11 -20 -31 -20q-12 0 -20.5 7t-8.5 17q0 11 9 20q17 19 32.5 50.5t15.5 59.5q0 32 -22 51z" />
    <glyph glyph-name="parenleft" unicode="(" horiz-adv-x="394" 
d="M512 927q3 -5 3 -11q0 -13 -12 -23t-26 -10q-16 0 -23 15q-5 10 -15 10q-25 0 -73 -48.5t-61 -71.5q-35 -56 -60 -118q-71 -175 -85 -288q-6 -50 -6 -109q0 -49 4.5 -94.5t17 -94.5t32 -84.5t52.5 -58.5t77 -23q7 0 16 1h4q12 0 18 -6.5t6 -15.5q0 -13 -9.5 -24
t-25.5 -13q-22 -3 -42 -3q-52 0 -93 22.5t-66 58.5t-41 87t-22 102.5t-6 109.5q0 129 25 238q58 258 188 402q28 32 76.5 60t87.5 28q42 0 59 -38z" />
    <glyph glyph-name="parenright" unicode=")" horiz-adv-x="430" 
d="M283 851q96 -138 100 -385v-11q0 -38 -4 -83.5t-14.5 -102.5t-26 -110.5t-41 -105.5t-57.5 -90.5t-77 -62.5t-98 -24q-20 0 -40 4q-13 2 -19.5 10t-6.5 19t7.5 19t20.5 8h4q7 -1 15 -1q53 0 97.5 35.5t72 86.5t48.5 115.5t30.5 114.5t12.5 91q3 27 3 57q0 87 -26 218
q-11 59 -33 112q-9 22 -45 68t-59 46q-10 0 -16 -9q-10 -14 -26 -14q-11 0 -20.5 7.5t-9.5 18.5q0 8 6 16q24 36 64 36q37 0 77.5 -26.5t60.5 -56.5z" />
    <glyph glyph-name="asterisk" unicode="*" horiz-adv-x="316" 
d="M348 822q7 -3 16.5 -14.5t9.5 -22.5q0 -9 -7 -16q-6 -6 -13 -6q-15 0 -40 25q-4 4 -14 6q-2 1 -5.5 2.5t-6.5 2.5t-6 1q-7 0 -19 -2q7 -21 12 -42q3 -17 2 -31q0 -2 -2.5 -12.5t-1.5 -12.5q1 -3 1 -6q0 -13 -9.5 -22.5t-21.5 -9.5q-7 0 -14 4q-14 9 -14 24q0 14 10 23
q2 10 2 20q0 18 -6 40q-8 -14 -23 -27q-13 -11 -27 -17q-4 -1 -12 -4.5t-11 -5.5q-12 -4 -22 -4q-23 0 -28 20q-1 4 -1 8q0 12 8.5 21t20.5 9q4 0 9 -2q3 -1 7 -1q11 0 24 11.5t21 24.5q-6 -1 -12 -1q-7 0 -14 1t-15.5 4.5t-12.5 5t-15 7t-14 6.5q-25 13 -25 34q0 10 8 18
t19 8q19 0 32 -20q11 -15 40 -15q-3 9 -3 10q-3 15 -3 28q0 7 1 15t9 36q3 13 11.5 21.5t19.5 8.5q7 0 14 -4q13 -8 13 -21q0 -12 -11 -29l-2 -2q-5 -15 -5 -29q0 -11 4 -20q31 44 84 52q0 1 7 4q7 4 15 4q12 0 21 -8.5t9 -21.5q0 -14 -8 -21.5t-20 -7.5q-8 0 -15 3h-2
q-32 -7 -48 -26q13 1 26 0q21 -4 35 -11q12 -6 18 -13z" />
    <glyph glyph-name="plus" unicode="+" horiz-adv-x="703" 
d="M546 447q8 2 15 2q19 0 31 -14t12 -33t-12 -33t-34 -16q-74 -7 -153 -7h-30q2 -105 10 -169v-5q0 -18 -13.5 -28t-31.5 -10t-31.5 10t-13.5 28v5q8 65 10 171q-94 4 -198 20q-25 4 -25 29q0 14 9.5 25.5t24.5 12.5q23 1 50 1q23 0 140 -5q0 106 2 158q0 15 9.5 23t22.5 8
t22.5 -8t9.5 -23q2 -53 2 -161q106 0 172 19z" />
    <glyph glyph-name="comma" unicode="," horiz-adv-x="274" 
d="M115 -14q-16 20 -16 41q0 25 19.5 43t45.5 18t47 -20q34 -33 34 -76q0 -32 -17 -68.5t-47.5 -81.5t-38.5 -60q-12 -22 -34 -22q-12 0 -22 8t-10 20q0 11 10 21q19 21 36 55.5t17 65.5q0 35 -24 56z" />
    <glyph glyph-name="hyphen" unicode="-" horiz-adv-x="528" 
d="M169 343q102 0 199 -9t97 -33q0 -23 -46.5 -29.5t-179.5 -6.5h-66q-70 0 -92.5 8t-22.5 28q0 18 29 30t82 12z" />
    <glyph glyph-name="period" unicode="." horiz-adv-x="330" 
d="M86 28q0 32 23 55t54 23q30 0 44.5 -24t14.5 -59q0 -30 -23 -48.5t-55 -18.5q-58 0 -58 72z" />
    <glyph glyph-name="slash" unicode="/" horiz-adv-x="345" 
d="M366 692q9 16 24 16q12 0 21.5 -9.5t9.5 -22.5q0 -7 -3 -14q-27 -63 -89.5 -185.5t-90.5 -185.5q-8 -17 -33.5 -77t-37.5 -87t-35 -71.5t-46 -78.5q-12 -18 -32 -18q-16 0 -28 11t-12 26q0 10 5 20q51 94 163.5 324.5t183.5 351.5z" />
    <glyph glyph-name="zero" unicode="0" horiz-adv-x="636" 
d="M289 -46q-23 -5 -43 -5q-47 0 -83.5 25t-57.5 66t-32 88.5t-11 98.5q0 37 5.5 78t19 85t33.5 78.5t52 57t72 22.5q6 0 12 -1q3 0 5 -1q13 8 24 14q60 32 118 32q78 0 123 -60q61 -81 61 -181q0 -81 -40 -159q-43 -84 -112 -152t-146 -86zM127 244q0 -34 5 -69.5t17 -73
t36 -61.5t57 -24q9 0 17 2q62 10 122.5 60.5t99.5 124t39 143.5q0 78 -50 134q-34 38 -81 38q-35 0 -74.5 -22t-71.5 -54.5t-56.5 -69.5t-34.5 -69q-7 -19 -24 -24q-1 -19 -1 -35z" />
    <glyph glyph-name="one" unicode="1" horiz-adv-x="457" 
d="M299 689q3 15 15 22.5t27 7.5q17 0 30 -9.5t13 -26.5q0 -3 -1 -7q-30 -168 -44 -327q-7 -70 -15 -184q-1 -9 -5.5 -55.5t-4.5 -71.5t3 -45q1 -4 1 -9q0 -20 -15 -32t-34 -12q-18 0 -30 10.5t-12 29.5q0 7 2 16q8 31 8 82q0 10 -0.5 29.5t-0.5 28.5q0 18 1 31
q6 101 14 184q5 52 13 114q-104 -114 -213 -114q-22 0 -43 5q-23 6 -23 27q0 15 11.5 28t27.5 13h1.5h1.5q46 0 92 25.5t81.5 65t61 85.5t37.5 89zM1278 724z" />
    <glyph glyph-name="two" unicode="2" horiz-adv-x="556" 
d="M517 99q6 1 11 1q15 0 23.5 -10t8.5 -24q0 -16 -11 -29t-30 -14q-40 -3 -128 -22t-137 -19h-22q-50 4 -91 28t-41 64q0 22 14 46q17 28 58.5 69t55.5 61q10 13 48 62t59 83.5t33 71t12 68.5q0 67 -54 67q-13 0 -31 -5q-40 -11 -66 -20.5t-60 -30t-50 -46.5
q-9 -14 -26 -14q-13 0 -22.5 8t-9.5 20q0 5 3 12q17 41 55.5 67t94.5 48l13 5t15.5 6t14 5t16.5 5.5l15 4.5t16.5 4t15.5 2t16 1q24 0 43 -9q74 -32 74 -123q0 -73 -43 -151q-71 -128 -153 -211q-2 -1 -19 -17t-28 -27.5t-21.5 -27.5t-10.5 -27q0 -16 24 -21q30 -7 64 -7
q30 0 65.5 5t61 11t65.5 16t59 14z" />
    <glyph glyph-name="three" unicode="3" horiz-adv-x="552" 
d="M349 437q59 -11 105 -41t64 -79q13 -36 13 -74q0 -91 -70 -165q-43 -45 -100 -75.5t-113 -30.5q-39 0 -73 16q-71 36 -71 100q0 48 41 92q12 14 28 14q17 0 30 -15t13 -33q0 -25 -26 -36q-4 -8 -4 -14q0 -17 22 -24q22 -14 47 -14q10 0 22 3q41 11 72 30q94 59 103 126
q1 10 1 19q0 43 -28.5 74t-67.5 44t-85 13q-15 1 -24.5 11.5t-9.5 25.5q0 12 7 22q1 1 28.5 32t48.5 60t21 44q0 5 -4 8q-24 23 -62 23q-69 0 -178 -75q-10 -7 -21 -7q-13 0 -21.5 8.5t-8.5 19.5q0 13 11 25q42 40 106 71t122 31q61 0 101 -37q28 -26 28 -60q0 -49 -67 -132
z" />
    <glyph glyph-name="four" unicode="4" horiz-adv-x="489" 
d="M396 576q5 8 14.5 14t18.5 6q17 0 22 -16q4 -11 4 -19q0 -9 -6 -25q-2 -8 -10 -14q-41 -115 -63 -200q4 -8 4 -17q0 -18 -15 -29q-22 -105 -22 -194q0 -16 3.5 -50t3.5 -51t-12.5 -27t-27.5 -10q-14 0 -24 8.5t-10 24.5q0 154 22 285q-89 -17 -130 -17q-99 0 -107 69
q-1 7 -1 14q0 15 3 31t10 34.5t11.5 29t15.5 32t13 26.5q1 3 14.5 37t26.5 55t29 30q6 3 13 3q18 0 25 -15q5 -10 4 -25q-1 -17 -18 -24q-5 -11 -8 -18q-5 -9 -14.5 -30t-14.5 -32q-3 -6 -14 -29.5t-16 -35t-10.5 -30.5t-5.5 -34q0 -21 63 -21q62 0 125 16q34 146 84 248z
" />
    <glyph glyph-name="five" unicode="5" horiz-adv-x="498" 
d="M338 343q47 -16 72 -51.5t25 -81.5q0 -22 -5 -45q-16 -61 -67.5 -110t-116.5 -76q-42 -18 -81 -18q-20 0 -36 5q-17 6 -29 14t-29.5 25t-23.5 22q-11 10 -11 23q0 16 16.5 30.5t34.5 14.5q26 0 33 -31q5 -26 37 -26q35 0 83.5 25.5t86 65.5t37.5 75v16q-5 32 -29 47.5
t-58 15.5q-23 0 -46 -7q-12 -4 -42.5 -24.5t-49.5 -20.5q-3 0 -6 1q-14 1 -21.5 9.5t-7.5 20.5q0 6 2 12q5 19 8.5 39t7 50.5t4.5 40.5q-11 1 -18 10q-36 45 -36 85q0 24 12.5 46t38 39.5t53 32.5t67 27.5t71.5 21.5t75 17.5t67 13t59.5 10t41.5 6.5q5 1 10 1q17 0 26.5 -11
t9.5 -27q0 -18 -11.5 -31.5t-32.5 -13.5l-1 1q-30 0 -93.5 -10t-136.5 -27t-127 -46.5t-54 -62.5q0 -12 7 -25q7 3 14 3q11 0 18.5 -6t7.5 -17q0 -3 -1 -7q-6 -29 -15 -110q25 13 43 17q37 10 68 10q27 0 49 -8z" />
    <glyph glyph-name="six" unicode="6" horiz-adv-x="553" 
d="M382 299q49 -10 84.5 -38.5t35.5 -70.5q0 -18 -7 -37q-27 -72 -92 -120t-137 -48q-78 0 -135 61q-76 81 -76 205q0 81 32 161.5t84 140.5q89 103 184 135q30 10 56 10q53 0 53 -41q0 -6 -1 -13q-2 -12 -12.5 -19.5t-21.5 -7.5q-5 0 -10 5.5t-8 10.5t-4 5q-4 0 -52 -23.5
t-55 -28.5q-67 -52 -105 -114q-70 -113 -70 -219q0 -32 7 -60q122 109 219 109q16 0 31 -3zM378 100q47 49 47 77q0 4 -1 8q-5 20 -25.5 29.5t-45.5 9.5h-7q-47 -3 -91 -25.5t-76 -59.5q-7 -8 -15 -12q23 -32 55 -50.5t67 -18.5q51 0 92 42z" />
    <glyph glyph-name="seven" unicode="7" horiz-adv-x="497" 
d="M78 243q-1 0 -5 0.5t-5.5 1t-5 1t-5.5 1t-4.5 1.5t-4 2t-3 2.5t-2 3.5t-0.5 4q0 10 9.5 24.5t19.5 16.5q40 10 58 12.5t46.5 2.5t57.5 2q14 64 34 118q35 99 75 154q-27 0 -54.5 3.5t-70.5 10.5t-54 9q0 -12 -8 -22t-19 -10q-7 0 -14 5q-29 23 -44 51q-3 4 -3 12
q0 12 10.5 22t23.5 10h1q34 -1 114.5 -16t122.5 -15q34 0 69 8q14 9 40 16q4 1 8 1q14 0 23 -10t9 -23q0 -23 -21 -30q-3 -2 -23 -9q-77 -34 -130 -214q-1 -4 -8 -28t-10 -37q62 6 90 14q4 1 11 1q14 0 22 -9.5t8 -23.5q0 -15 -10.5 -27.5t-29.5 -13.5q-70 -4 -105 -8
q0 -5 -2 -14.5t-3 -15.5q-11 -94 -11 -119q0 -55 19 -92q4 -7 4 -15q0 -15 -13.5 -25.5t-28.5 -10.5q-14 0 -22.5 8.5t-8.5 25.5q0 22 -7 66.5t-7 67.5q0 70 10 119q-60 -8 -68 -8t-18 1q-20 -4 -33 -4q-10 0 -24 2z" />
    <glyph glyph-name="eight" unicode="8" horiz-adv-x="489" 
d="M342 648q6 1 16 1q40 0 59 -31t19 -76q0 -14 -1 -22q-2 -20 -11 -40.5t-16.5 -34.5t-28.5 -36.5t-28 -29.5t-34.5 -32t-30.5 -28q17 -34 35 -75q31 -81 31 -129q0 -32 -12 -56q-18 -35 -52 -57t-73 -22q-14 0 -22 1q-56 10 -100.5 54.5t-44.5 99.5v13q4 28 23 55
t40.5 44.5t51 41.5t43.5 38q-54 101 -56 129q-3 26 -3 39q0 100 50 144q17 15 47 15q24 0 41 -10q5 -3 11 -10q26 11 46 14zM233 47q56 15 56 71q0 52 -52 153q-7 -6 -36 -29t-45 -39t-27 -35q-9 -11 -9 -28q0 -34 31.5 -64.5t65.5 -30.5q11 0 16 2zM257 373q35 30 56.5 52
t42 54.5t20.5 59.5q0 20 -8 36q-6 12 -22 12q-11 0 -30 -8q0 -4 0.5 -12t0.5 -12q0 -10 -9 -17t-20 -7q-7 0 -20 13.5t-16 20.5h-3q-23 0 -32.5 -11t-10.5 -35q-1 -2 3 -15t3 -15q0 -25 11 -48q14 -31 34 -68z" />
    <glyph glyph-name="nine" unicode="9" horiz-adv-x="518" 
d="M409 553q5 1 10 1q15 0 27 -10t12 -27q0 -66 -3 -112t-12 -104t-30 -108t-55 -93q-66 -87 -138 -121q-29 -14 -58 -14q-38 0 -106 30q-27 12 -27 36q0 18 14.5 33t32.5 15q16 0 29 -14q23 -23 51 -23q36 0 77.5 34t69 73.5t40.5 69.5q24 59 31 140q-60 -65 -139 -82
q-17 -3 -35 -3q-55 0 -95 31.5t-40 84.5v8q4 67 42 129t97 90q33 15 70 15q42 0 78.5 -21t56.5 -58zM292 380q53 46 79 112q-6 4 -10 12q-30 55 -80 55t-95 -49t-45 -105q0 -28 17.5 -41.5t45.5 -13.5q23 0 47.5 8.5t40.5 21.5z" />
    <glyph glyph-name="colon" unicode=":" horiz-adv-x="271" 
d="M60 443q3 27 23.5 45.5t45.5 18.5h6q23 -3 38.5 -21.5t15.5 -43.5q0 -2 -0.5 -6t-0.5 -6q-3 -28 -22 -46t-44 -18h-7q-23 3 -39 22.5t-16 44.5v10zM45 140q3 27 21.5 45.5t43.5 18.5q2 0 4 -1t4 -1q23 -2 38.5 -20.5t15.5 -43.5q0 -2 -1 -6.5t-1 -6.5q-3 -28 -21.5 -45.5
t-43.5 -17.5h-7q-23 2 -39 22t-16 46q0 2 1 5t1 5z" />
    <glyph glyph-name="semicolon" unicode=";" horiz-adv-x="318" 
d="M114 88q-15 18 -15 38q0 23 18 39.5t41 16.5q25 0 44 -19q30 -30 30 -69q0 -29 -15.5 -62.5t-43 -74t-34.5 -54.5q-11 -20 -31 -20q-12 0 -20.5 7t-8.5 18q0 10 9 19q17 19 32.5 50.5t15.5 59.5q0 32 -22 51zM102 431q3 27 23.5 45.5t45.5 18.5h6q23 -3 38.5 -21.5
t15.5 -43.5q0 -2 -0.5 -6t-0.5 -6q-3 -28 -22 -46t-44 -18h-7q-23 3 -39 22.5t-16 44.5v10z" />
    <glyph glyph-name="less" unicode="&#x3c;" horiz-adv-x="387" 
d="M283 529q6 5 13 5t13 -5.5t6 -12.5t-6 -13q-11 -12 -46 -57t-59 -65q-38 -31 -86 -88q7 -4 12 -8.5t9 -7.5q7 -5 20.5 -16t20.5 -17q27 -22 44 -35t43 -29t50 -25q19 -7 19 -28q0 -12 -6.5 -20.5t-17.5 -8.5q-5 0 -10 2q-55 22 -139 88.5t-103 78.5q-14 8 -12 21
q1 7 3.5 14.5t5.5 13t9 12t9 10.5t11.5 10.5t11.5 9t12.5 9.5t11.5 8q36 26 88 81t73 73z" />
    <glyph glyph-name="equal" unicode="=" horiz-adv-x="489" 
d="M59 180q-14 2 -14 18q0 17 14 20q58 13 137 13q38 0 105.5 -3.5t89.5 -4.5q13 -1 20.5 -9.5t7.5 -20t-7.5 -20t-20.5 -8.5q-38 -1 -74 -1q-142 0 -258 16zM80 338q-14 3 -14 19q0 8 5 14t13 6h1q52 -3 109 -3q90 0 202 7h2q12 0 19 -8.5t7 -20.5t-7 -20.5t-19 -8.5h-2
q-21 1 -46 1q-18 0 -54 -0.5t-54 -0.5q-97 0 -162 15z" />
    <glyph glyph-name="greater" unicode="&#x3e;" horiz-adv-x="461" 
d="M130 437q-6 5 -6 13q0 7 6 13.5t14 6.5q5 0 10 -3q41 -25 112 -81.5t103 -78.5q12 -8 12 -22t-12 -22q-33 -20 -123 -85t-144 -93q-6 -3 -12 -3q-11 0 -19 8.5t-8 19.5q0 13 13 20q38 19 77 45t85.5 60.5t72.5 51.5q-92 67 -181 150z" />
    <glyph glyph-name="question" unicode="?" horiz-adv-x="535" 
d="M127 656q7 -6 7 -17q0 -10 -8 -20t-18 -12t-18 -2q-21 0 -32 12q-12 12 -12 38q0 37 22.5 87t42.5 70q55 52 130.5 90t144.5 38q25 0 47 -6q31 -7 53 -23q51 -35 51 -105q0 -76 -54 -152q-18 -26 -40 -53t-52 -61.5t-43 -50.5q-4 -4 -26.5 -30.5t-31.5 -38t-27.5 -37.5
t-27.5 -43t-16.5 -39.5t-7.5 -41.5v-7q1 -10 -2 -19q-9 -24 -37 -24q-8 0 -14 3q-21 7 -21 28q0 7 3 14q7 19 18.5 57.5t23 66.5t28.5 54q32 49 106 136q8 9 41 44.5t51.5 58t37 57t18.5 60.5q0 8 -2 14q-3 17 -10 29q-18 30 -63 30q-37 0 -81.5 -16.5t-77.5 -37.5
q-21 -12 -30 -18t-24 -19t-23 -25q-33 -53 -33 -73q0 -10 7 -16zM160 41q12 8 24 8q5 0 10 -2q9 -2 16 -9q1 -1 2 -1q8 -2 14 -9t7 -16q1 -5 1 -11q0 -38 -28 -53q-10 -6 -22 -6q-18 0 -31 10q-4 3 -7 6h-1q-8 3 -13.5 10t-5.5 15v4q1 1 1.5 3.5t0.5 3.5v6q1 19 17 32
q7 6 15 9z" />
    <glyph glyph-name="at" unicode="@" horiz-adv-x="778" 
d="M453 623q16 2 32 2q104 0 178 -73.5t74 -173.5q0 -47 -18 -92q-25 -63 -69.5 -102.5t-106.5 -39.5q-51 0 -79 43q-47 -50 -102 -50q-14 0 -28 4q-44 11 -67 42.5t-23 74.5q0 27 10 55q20 57 59 90.5t94 33.5q8 0 15 -1q43 -3 68.5 -30.5t25.5 -65.5q0 -10 -2 -19
q4 -8 3 -18q0 -4 -2.5 -13.5t-2.5 -15.5q0 -24 13.5 -42t34.5 -18q14 0 29 9q39 24 57 69q17 42 17 85q0 48 -21 85q-50 90 -155 90q-89 0 -177 -59q-69 -45 -121 -114.5t-52 -138.5q0 -60 43 -109q46 -53 121.5 -82.5t153.5 -29.5q28 0 54 4q4 1 7 1q16 0 24.5 -10t8.5 -23
q0 -16 -10 -27.5t-28 -11.5h-1q-46 1 -88 5t-92.5 13.5t-92 27.5t-78 43.5t-60 65.5t-29.5 90q-2 17 -2 34q0 71 34 140t88.5 121t123.5 87t139 44zM343 213q9 -2 19 -2q29 0 51 22t29 54q1 8 3 18v0q2 7 3 9q2 7 6 13q-2 18 -15 28.5t-34 10.5h-3q-56 -2 -76 -59
q-10 -28 -10 -51q0 -36 27 -43z" />
    <glyph glyph-name="A" unicode="A" horiz-adv-x="627" 
d="M140 224v-28q0 -77 13 -145q14 -11 14 -28l-1 -3v-4v-7q-1 -8 -9.5 -16t-16.5 -9l-7 -1h-9q-30 0 -35 26q-22 91 -23 182q-22 -13 -29 -20q2 -8 2 -12q0 -15 -9.5 -26.5t-26.5 -11.5h-24q-15 0 -26.5 12t-11.5 27q0 7 8 19q40 58 120 92q11 146 55 268q102 291 239 291h3
q31 0 54.5 -15t37.5 -35.5t24 -52t14 -55.5t7 -56q6 -59 10.5 -169.5t5.5 -132.5q17 -11 17 -33q0 -20 -13 -30q10 -135 46 -240q1 -4 1 -12q0 -14 -11 -23t-26 -9q-26 0 -34 24q-38 108 -48 255q-14 0 -44.5 0.5t-47.5 0.5q-142 0 -219 -23zM167 427q-9 -41 -21 -130
q97 23 253 23q9 0 25.5 -0.5t24.5 -0.5q0 23 -3.5 70t-4.5 72q0 5 -1 64.5t-3.5 83.5t-12 64.5t-27.5 65.5q-14 20 -33 20q-28 0 -63 -46t-63 -108.5t-47 -110.5t-24 -67z" />
    <glyph glyph-name="B" unicode="B" horiz-adv-x="740" 
d="M182 735q4 -1 6 -1q10 0 18 -6t8 -16q0 -8 -2 -12q-9 -20 -15.5 -44t-10 -42t-6.5 -47t-3.5 -42.5t-2 -48t-1.5 -44.5v-15q0 -19 2.5 -57t2.5 -58v-15q0 -12 -2 -42.5t-2 -46.5q0 -42 10 -66q3 -8 3 -16q0 -13 -9 -22h20q166 0 283 47q85 35 110 72q21 33 21 78
q0 53 -29 90q-36 44 -93.5 67.5t-121.5 23.5q-74 0 -134 -30q-8 -4 -17 -4q-13 0 -21.5 10t-8.5 23q0 20 19 32q86 52 147 104q1 1 14.5 13t20 18t19 19t19 22.5t12 21.5t5.5 22q0 11 -5 18q-26 46 -96 46q-76 0 -144 -42q-2 -1 -8 -5t-8 -5zM638 429q46 -62 46 -134
q0 -64 -35 -119.5t-97 -85.5q-147 -74 -373 -74q-14 0 -39.5 -2t-37.5 -2q-13 0 -19 1q-5 1 -28 3t-31 3t-30 4.5t-31.5 6.5t-28 8.5t-28 12t-22.5 16t-20 20.5t-13 26t-8 32q-1 2 -1 29q0 18 13 28.5t30 10.5q14 0 24.5 -7.5t10.5 -22.5q0 -5 -1 -8q0 -1 -0.5 -3t-0.5 -4
q0 -52 173 -66q0 2 0.5 8t0.5 9q0 13 -1.5 38.5t-1.5 31.5q0 16 1 60.5t1 59.5v16v19q0 11 -0.5 27t-0.5 25q0 18 1 31q4 187 37 276q-53 -42 -73 -54q-9 -6 -18 -6q-11 0 -21.5 17.5t-10.5 30.5t12 21q67 54 105.5 74.5t119.5 46.5q45 15 96 15q125 0 160 -77
q10 -23 10 -47q0 -86 -126 -183q79 -1 147.5 -29t108.5 -83z" />
    <glyph glyph-name="C" unicode="C" horiz-adv-x="709" 
d="M455 491q-4 -1 -8 -1q-12 0 -19 7.5t-7 17.5t6.5 18t18.5 10q48 11 87.5 51.5t39.5 83.5q0 21 -10 39q-30 55 -94.5 55t-133.5 -49q-86 -62 -139.5 -157t-65.5 -198q-3 -20 -3 -41q0 -46 12 -89.5t35.5 -82t65 -63t95.5 -27.5h14q64 0 136 26.5t114 67.5q13 13 29 13
q13 0 21.5 -8t8.5 -19q0 -13 -11 -25q-53 -58 -138.5 -88.5t-170.5 -30.5q-68 0 -113 19q-51 20 -87.5 54t-56 75t-28.5 83.5t-9 88.5q0 65 16 131q33 145 156 265q43 42 122 79.5t145 37.5q22 0 41 -5q61 -16 91 -52t30 -82q0 -67 -54.5 -127.5t-135.5 -76.5z" />
    <glyph glyph-name="D" unicode="D" horiz-adv-x="702" 
d="M105 831q63 16 128 16q112 0 206.5 -46t153.5 -135.5t59 -206.5q0 -26 -1 -39q-6 -70 -49.5 -149.5t-107.5 -144.5t-148 -108t-163 -43q-86 0 -155 52q-17 11 -17 31q0 15 10.5 26t26.5 11q5 0 17 -4q52 -23 110 -23q97 0 191 58.5t153 151.5t59 187q0 10 -2 32
q-15 133 -115 205.5t-235 72.5q-14 0 -36 -2v-2v-1q-5 -90 -9 -303t-12 -327q-1 -15 -12.5 -24t-24.5 -9q-14 0 -24 8.5t-10 24.5q11 463 22 624q-1 0 -2.5 -0.5t-2.5 -0.5q-15 0 -24.5 11.5t-9.5 25.5q0 25 24 31z" />
    <glyph glyph-name="E" unicode="E" horiz-adv-x="516" 
d="M491 813q5 1 9 1q18 0 27.5 -11t9.5 -26t-9.5 -26t-26.5 -11q-5 0 -10 1q-51 10 -108 10q-121 0 -223 -41q-3 -80 -24 -277q38 8 91 8q18 0 103 -4q14 -1 22 -10t8 -21t-8 -21t-22 -10q-12 -1 -26 -1q-12 0 -37 1t-38 1q-62 0 -100 -12q-8 -73 -11 -134q0 -7 -2 -25
t-3.5 -38.5t-1.5 -37.5q0 -111 61 -111q12 0 28 5q56 18 186 82q7 4 15 4q13 0 22.5 -10t9.5 -23q0 -16 -16 -25q-2 -1 -18.5 -10.5t-25 -14t-27 -14.5t-31 -16t-31.5 -15t-34.5 -14t-32.5 -10t-33.5 -7.5t-30.5 -2.5q-81 0 -96 83q-13 71 -13 152q0 97 24.5 277.5
t28.5 219.5q-16 -8 -23 -13q-8 -5 -16 -5q-10 0 -18 9t-8 21q0 16 13 25q25 19 57 37q1 24 1 47.5t-1 47.5v2q0 12 8 19t19 7q12 0 20.5 -7.5t9.5 -20.5q2 -23 2 -69q42 16 82 23q34 6 82 6q14 0 42.5 -0.5t42.5 -0.5q48 0 81 6z" />
    <glyph glyph-name="F" unicode="F" horiz-adv-x="491" 
d="M534 794q19 -5 19 -26q0 -11 -6 -18.5t-17 -7.5h-3q-96 12 -168 12q-112 0 -205 -28q-12 -42 -15.5 -100t-3 -127t-1.5 -100q39 17 108 17q18 0 54 -1.5t52 -1.5q28 0 47 3h5q13 0 22 -9.5t9 -21.5q0 -20 -21 -25q-17 -4 -38.5 -6.5t-35.5 -3t-40.5 -0.5h-36.5h-10h-12
h-13q-75 0 -96 -19q-20 -214 -22 -323q0 -15 -10.5 -24t-24.5 -9t-23 7.5t-9 21.5v4q7 75 20.5 240t22.5 252q1 15 3.5 102t13.5 130q-2 5 -2 10q0 15 13 23q1 2 5 11t7 14q7 13 23 13q19 0 24 -17q95 28 196 28q86 0 169 -20z" />
    <glyph glyph-name="G" unicode="G" horiz-adv-x="691" 
d="M604 344q14 0 24 -10.5t10 -24.5q0 -5 -1 -9q-16 -59 -48.5 -114t-76.5 -98.5t-102 -69.5t-119 -26q-14 0 -27 1q-56 5 -100 41.5t-69.5 91.5t-38.5 114t-13 117q0 31 4 57q9 66 39 133t74.5 125.5t109 96.5t134.5 41h12q80 0 126.5 -44t46.5 -109q0 -73 -59 -136
q-7 -8 -16 -8q-10 0 -17.5 8t-7.5 18q0 9 7 16q41 44 41 89t-37 75.5t-89 30.5q-39 0 -75 -19q-76 -41 -117 -84q-55 -58 -85.5 -132.5t-30.5 -152.5q0 -52 14 -101q11 -41 27.5 -76t39 -65t53.5 -47.5t65 -17.5q44 0 92 28q116 68 163 191q-129 -3 -165 -3l-72 1
q-15 0 -23.5 10t-8.5 23t8.5 22.5t23.5 10.5q42 2 89.5 3t105.5 1.5t89 1.5z" />
    <glyph glyph-name="H" unicode="H" horiz-adv-x="618" 
d="M500 807q18 0 26.5 -4.5t10.5 -21.5v-7l-1 -6q-3 -20 -12.5 -84.5t-14.5 -105.5t-8 -80q0 -5 5 -10.5t10 -6.5q20 -6 20 -23q0 -19 -31 -29q-5 -2 -5 -8q0 -180 62 -351q2 -6 2 -7q0 -2 -2 -8q-7 -19 -12.5 -26.5t-18.5 -7.5h-8q-29 0 -32 14q-65 173 -65 380v5
q0 6 -5 11.5t-12 5.5q-34 2 -48 2q-85 0 -184 -13q-8 -2 -6 -11v-61.5t0.5 -67t1.5 -62.5t3.5 -67.5t7 -62.5t10.5 -66.5t15.5 -60.5t21.5 -62q2 -4 2 -6q0 -35 -44 -35q-30 0 -43 30q-24 58 -36.5 135.5t-14 129t-1.5 144.5v99q0 6 -5.5 12t-13.5 5q-47 -9 -73.5 -12.5
t-39 -4.5t-19.5 -2q-5 -1 -14 -1q-12 0 -18 0.5t-11.5 4.5t-5.5 12q0 7 1 10q7 20 32 26q23 10 38.5 13t46 7t70.5 14q5 2 5 7v25q0 101 2 157t17.5 141.5t45.5 155.5q7 17 34 17h7h6q23 0 23 -51q0 -5 -2 -11q-33 -111 -43 -174t-10 -155v-82q0 -6 6 -12t13 -5
q84 10 181 10q9 0 27 -0.5t28 -0.5q8 0 8 7q6 92 35 256q4 21 11 28.5t24 7.5z" />
    <glyph glyph-name="I" unicode="I" horiz-adv-x="250" 
d="M147 391q0 -4 -7 -75.5t-7 -109.5q0 -111 41 -177q6 -9 6 -18q0 -15 -14 -24.5t-32 -9.5q-25 0 -41 22q-22 34 -28 71t-6 92v15v15q0 26 11 172q10 111 10 306v100q0 46 33 46q19 0 34.5 -11.5t15.5 -30.5v-25q0 -4 -2 -10v-26q0 -160 -14 -322z" />
    <glyph glyph-name="J" unicode="J" horiz-adv-x="526" 
d="M395 792l18 33q8 3 16 3q17 0 28 -11t11 -27v-6q-8 -60 -12 -149t-6 -154t-14.5 -143.5t-37.5 -139.5q-79 -198 -220 -205h-10q-57 0 -102.5 31.5t-67.5 75.5t-22 90q0 47 26.5 78t76.5 31q18 0 38 -4q20 -5 20 -27q0 -11 -6.5 -19.5t-17.5 -8.5h-3h-10q-30 0 -45 -14.5
t-15 -38.5q0 -43 36.5 -85t83.5 -42q30 0 57 19q66 46 98 108q49 99 61 250q5 60 9 169t10 186z" />
    <glyph glyph-name="K" unicode="K" horiz-adv-x="756" 
d="M174 467q101 172 270 329q23 21 38.5 34.5t44.5 35t57 33t53 11.5q29 0 49 -16q43 -32 43 -85q0 -40 -23 -95q-9 -23 -35 -23q-14 0 -24 8t-10 21q0 1 3 13q19 52 19 76q0 30 -23 30q-16 0 -50 -19q-58 -36 -93 -71q-48 -48 -154 -180l-52 -69q30 -4 59 -15.5t59.5 -32.5
t56 -57.5t40.5 -83.5q4 -12 12.5 -43.5t16 -54.5t19.5 -55.5t26.5 -55t34 -44.5t45.5 -33t56 -11q3 0 11 -0.5t13 -0.5q30 0 47 11q9 6 17 6q14 0 23.5 -11t9.5 -26q0 -9 -5 -21.5t-12 -17.5q-25 -17 -36.5 -19.5t-69.5 -7.5h-14q-62 4 -111 32t-74 76q-16 23 -32 68.5
t-30.5 91t-34.5 91.5t-53.5 81t-77.5 49q-10 3 -26 3q-19 0 -28 -6q-103 -162 -115 -314v-78q0 -16 -9.5 -25t-23.5 -9q-13 0 -23.5 9.5t-11.5 24.5q0 6 -1 16.5t-1 15.5q0 18 2 46q0 104 4 338t4 357q0 16 11 24.5t25 8.5t25 -9t11 -25q0 -71 -3 -214.5t-4 -215.5z" />
    <glyph glyph-name="L" unicode="L" horiz-adv-x="583" 
d="M127 773q5 21 25 21q12 0 22 -8.5t10 -21.5q0 -3 -1 -6q-12 -56 -18.5 -119t-11.5 -138.5t-10 -119.5q-2 -15 -3.5 -97t-2.5 -154.5t-4 -74.5q34 22 68.5 38t75 26.5t68 16.5t78 10t72.5 5t81 3h2q17 0 26.5 -11t9.5 -26q0 -16 -10.5 -28.5t-27.5 -12.5q-5 0 -10 1
q-38 7 -77 7q-81 0 -159 -25.5t-178 -73.5q-11 -5 -23 -5q-17 0 -31 9.5t-19 26.5q-19 59 -19 136q0 35 3 73t9 85.5t8 70.5q2 24 8 94.5t9.5 106t11.5 91t18 100.5z" />
    <glyph glyph-name="M" unicode="M" horiz-adv-x="882" 
d="M813 29q26 -6 26 -30q0 -15 -10.5 -27.5t-25.5 -12.5q-1 0 -4 0.5t-5 0.5q-164 35 -164 277q0 32 1 49q-94 -212 -194 -212q-33 0 -63 20q-89 58 -98 277q-53 -204 -157 -331q-80 -100 -136 -100q-40 0 -77 41q-37 40 -37 108q0 61 31 127q8 18 27 18q14 0 25 -10t11 -25
v-22q0 -19 -14 -28q-8 -34 -8 -53v-9q39 -56 69 -56q21 0 39 32q52 62 72 96q52 96 82 207q19 70 48 212.5t49 212.5q6 26 31 26q15 0 26.5 -10.5t11.5 -26.5v-7q-36 -203 -36 -323q0 -162 53 -256q23 -38 47 -38q66 0 153 213q97 224 115 422q1 15 12 25t24 10
q14 0 24 -9.5t10 -25.5v-7q0 -41 -35.5 -236t-35.5 -297q0 -197 113 -222z" />
    <glyph glyph-name="N" unicode="N" horiz-adv-x="729" 
d="M141 50q-1 -14 -10.5 -22t-22 -8t-21.5 8t-9 22q-1 51 -6 183t-5 204q0 76 4 139q0 5 1 14q1 26 2 40t5.5 37t10.5 38t18 31t29 26q7 5 16 5q13 0 24 -10q37 -35 68 -92t65.5 -145t43.5 -109q54 -114 131 -265q8 49 16 129t15.5 136.5t22 124t41.5 126.5t68 109
q10 12 24 12q15 0 27.5 -12.5t12.5 -28.5q0 -14 -10 -25q-45 -46 -73 -112.5t-39.5 -141.5t-17.5 -146.5t-15 -152t-23 -135.5q-3 -12 -13.5 -19t-22.5 -7q-20 0 -29 17q-47 92 -143 302.5t-153 318.5q-17 31 -26 31q-10 0 -10 -53v-17v-17v-9v-15q0 -27 2.5 -76t2.5 -69
q2 -107 2 -183q0 -99 -3 -183z" />
    <glyph glyph-name="O" unicode="O" horiz-adv-x="762" 
d="M501 161q122 159 122 318q0 14 -2 42q-19 174 -138 210q-73 20 -109 20q-75 0 -148 -60q-20 -16 -36 -47q-59 -119 -59 -238q0 -87 35 -187q22 -66 71 -105.5t109 -39.5q88 0 155 87zM481 823q139 -43 198 -182q28 -68 28 -150q0 -105 -41.5 -215t-104.5 -185
q-43 -52 -102.5 -79.5t-121.5 -27.5q-66 0 -123 32.5t-94 97.5q-64 113 -64 277q0 97 26.5 187t76.5 153q14 20 34 38q79 70 186 70q53 0 102 -16z" />
    <glyph glyph-name="P" unicode="P" horiz-adv-x="622" 
d="M673 768q6 -18 6 -39q0 -40 -21 -80t-53 -72q-20 -21 -41.5 -40t-47.5 -39t-44.5 -34t-50 -34.5t-47 -30.5t-52 -31.5t-48 -28t-53 -30.5t-49.5 -28q0 -12 0.5 -36.5t1.5 -36.5q1 -7 1 -22q0 -34 -6 -97t-7 -74q-1 -19 -13 -29t-28 -10q-19 0 -38.5 10t-19.5 26
q0 12 9 24q16 25 16 78q0 16 1.5 40.5t1.5 34.5v9v24q-10 -6 -25.5 -10t-25.5 -10q-10 -7 -20 -7q-15 0 -25 12.5t-10 28.5q0 24 23 36q15 7 41.5 30t41.5 30v44v20q0 13 -0.5 39t-0.5 39q0 68 20 153q48 199 101 199q15 0 30 -16q7 -8 7 -19q0 -12 -8 -21.5t-19 -11.5
q-3 -4 -4 -10q-8 -17 -12 -34q-11 -36 -17 -68q-10 -48 -14 -161q-2 -84 -2 -126q128 75 275 182q2 2 28.5 21t35.5 26t30.5 26t31 31.5t19 31t11.5 35.5v9q0 65 -97 104q-111 44 -237 44q-96 0 -196 -28q-243 -68 -243 -161q0 -11 6 -23q4 -5 4 -12q0 -13 -11.5 -23.5
t-24.5 -10.5t-21 11q-20 29 -20 53v14q8 112 203 188q166 64 324 64q134 0 242 -47q115 -49 141 -126zM214 759q-7 0 -14 5q6 -5 12 -5h2z" />
    <glyph glyph-name="Q" unicode="Q" horiz-adv-x="757" 
d="M911 18q7 3 14 3q14 0 22.5 -10.5t8.5 -23.5q0 -16 -13 -23q-92 -61 -174 -61q-57 0 -118 26q-10 4 -20 10t-21 15.5t-18.5 16.5t-19.5 20t-17.5 20t-19 23t-17.5 21q-117 -119 -232 -119q-30 0 -60 9q-103 33 -152.5 119.5t-49.5 198.5q0 85 26.5 169.5t71.5 145.5
q60 80 164 148t199 68q104 0 161 -90q5 -6 5 -16q0 -13 -9 -22t-21 -9q-15 0 -22 12q-42 60 -115 60q-78 0 -170 -62t-136 -130q-87 -136 -87 -255q0 -15 1 -23q7 -79 42 -150t96 -90q21 -8 48 -8q92 0 190 98q-50 47 -95 47q-37 0 -77 -32q-8 -6 -18 -6q-13 0 -22 9t-9 22
q0 9 8 19q42 48 107 48q50 0 121 -33q13 -7 31 -20q37 49 58 94q39 83 39 174q0 23 -3 46q-7 59 -45 113t-92 54q-19 0 -46 -11q-51 -24 -106 -63q-9 -6 -18 -6q-13 0 -22 9.5t-9 21.5q0 13 12 24q105 87 185 87q69 0 140 -58q77 -63 77 -205q0 -70 -18 -144
q-24 -93 -100 -189l22 -27q82 -105 185 -105q65 0 138 40z" />
    <glyph glyph-name="R" unicode="R" horiz-adv-x="601" 
d="M128 15q0 -16 -10 -25t-25 -9q-14 0 -25 9t-12 25q-12 197 -12 254q0 208 68 424q32 103 83.5 141.5t136.5 38.5q20 0 41 -12q77 -48 77 -187q0 -30 -9 -95q-22 -129 -156 -231q12 -5 34 -23q33 -28 93 -87t95.5 -90t96 -58t125.5 -27q30 0 57 4q2 0 5 0.5t4 0.5
q19 0 30 -12t11 -29q0 -36 -39 -39q-50 -4 -75 -4q-136 0 -219 60q-16 11 -77 75t-123 113t-105 49q-11 0 -20 -4q-18 -10 -28 -17q-9 -5 -21 -5v-54v-97q0 -59 -1 -89zM168 358q41 25 66 43.5t55.5 46t48.5 59.5t24 69q9 42 9 88q0 14 -2 40q-4 30 -13 40.5t-30 17.5
q-8 4 -19 4h-11.5h-12.5q-55 0 -75 -40q-30 -73 -61.5 -191t-31.5 -191v-3q5 4 15.5 7t22 6t15.5 4z" />
    <glyph glyph-name="S" unicode="S" horiz-adv-x="519" 
d="M443 718v-5q0 -11 -12 -20.5t-23 -9.5q-16 0 -20 17q-3 12 -22 22t-34 10q-48 0 -95 -38.5t-47 -99.5q0 -37 23 -69q66 -90 125 -135q87 -65 124 -144q23 -48 23 -91q0 -56 -40.5 -96.5t-114.5 -59.5q-73 -19 -143 -19q-127 0 -157 71q-12 28 -12 57q0 56 31 102.5
t83 63.5q4 1 7 1q11 0 24 -11.5t13 -21.5q0 -13 -12 -19q-29 -13 -47 -43.5t-18 -63.5q0 -28 13 -44t44 -20q27 -4 54 -4q53 0 100 16q96 34 96 104q0 86 -124 181q-30 23 -52.5 43t-50 49.5t-43 62t-15.5 63.5q0 7 1 13q15 171 152 208q21 6 55 6q37 0 72.5 -21t41.5 -55z
" />
    <glyph glyph-name="T" unicode="T" horiz-adv-x="404" 
d="M550 929q3 1 8 1q13 0 20.5 -9t7.5 -21q0 -11 -6 -22.5t-17 -13.5q-44 -8 -70.5 -11t-64 -4.5t-76.5 -5.5h-11q-8 0 -23.5 0.5t-23.5 0.5q-3 -4 -6.5 -15.5t-4.5 -13.5q-12 -41 -18.5 -82.5t-8.5 -69.5t-4.5 -84.5t-5.5 -92.5q-5 -81 -5 -200v-113q0 -100 -8 -179
q-1 -17 -12.5 -27t-25.5 -10q-15 0 -26 9.5t-12 27.5q-5 70 -5 128q0 60 5 174t5 166v31q0 54 5 129t7 154l1 32l1 32q-137 8 -228 11q-23 3 -23 38v5q0 12 7.5 22.5t19.5 10.5h44q49 0 138.5 -3t137.5 -3q27 0 68 -0.5t59 -0.5q73 0 151 9z" />
    <glyph glyph-name="U" unicode="U" horiz-adv-x="718" 
d="M-55 546q-1 -13 -9 -20t-19 -7t-19 7t-9 20v7q0 50 15.5 95t46 82t80 58.5t112.5 21.5q1 0 20 -2.5l19 -2.5q29 -1 46 -24t17 -72q0 -28 -6 -64q-8 -46 -30.5 -111.5t-30.5 -104.5q-9 -40 -15.5 -100.5t-6.5 -103.5q0 -13 2 -37q11 -89 68 -89q37 0 81.5 31t66.5 58
q14 17 26 33.5t23.5 39t18 34t18 40.5t14 35.5t15 42.5t13.5 39q3 223 92 348q11 16 30 16q9 0 16 -4q2 -1 5 -4q16 -9 16 -28q0 -6 -1 -9q-33 -210 -85 -356q6 -127 44 -249t95 -202q5 -8 5 -15q0 -12 -10.5 -21t-22.5 -9q-11 0 -20 9q-60 62 -100 157t-49 212
q-4 -7 -19.5 -41.5t-24.5 -46.5q-20 -29 -45 -57.5t-59 -60t-72.5 -51.5t-73.5 -20q-25 0 -46 10q-50 23 -77 72t-27 108q0 41 7.5 103.5t15.5 96.5q9 41 32 108t32 114q3 16 3 34v12v12q0 28 -4 41.5t-17 14.5q-7 1 -21 1q-35 0 -62 -12.5t-59 -44.5q-51 -50 -55 -144z" />
    <glyph glyph-name="V" unicode="V" horiz-adv-x="594" 
d="M269 107q7 29 16 82t13 71q4 19 14 61.5t16 67t15.5 60t19.5 64.5q22 65 37.5 105t45 94.5t63.5 92.5q31 33 84 66t92 33q5 0 10 -1q44 -5 44 -67q0 -12 -2 -27t-11.5 -23t-22.5 -8q-3 0 -7 1q-10 2 -17.5 10.5t-7.5 20.5q0 4 1 8q4 19 -1 24q-2 2 -6 2q-10 0 -30.5 -13
t-34.5 -24.5t-17 -14.5q-55 -50 -94 -134q-58 -120 -94 -263q-10 -38 -23 -121.5t-30 -149t-45 -114.5q-4 -6 -12 -11q-7 -4 -15 -4q-17 0 -25 15q-24 48 -38.5 103t-27.5 138.5t-18 108.5q-7 35 -41.5 182t-44.5 229q0 6 2 12q8 15 26 15q7 0 13 -3l6 -3q13 -7 13 -25v-6
q-1 -1 -1 -3t-1 -3v-3q11 -69 42 -195.5t42 -182.5q5 -26 13.5 -82t17.5 -102t21 -83z" />
    <glyph glyph-name="W" unicode="W" horiz-adv-x="741" 
d="M777 900q9 11 22 11t23.5 -11.5t10.5 -26.5q0 -12 -8 -22q-90 -110 -145.5 -241t-100.5 -303q-3 -10 -9.5 -48t-14.5 -72.5t-20 -72.5t-29 -63t-38 -30q-7 -2 -14 -2q-18 0 -33 10.5t-26.5 25.5t-22.5 40t-18 48t-14.5 56t-12 56t-11 56.5t-9.5 50.5q-14 -40 -31 -119.5
t-38 -138.5t-57 -100q-9 -9 -23 -9q-9 0 -15 4q-9 6 -16.5 15t-13 16t-10.5 19.5t-8 19.5t-6 22.5t-4.5 21t-3 23.5t-2 21.5t-2 23t-1.5 20.5q-14 199 -14 435v82q0 12 8.5 18.5t20.5 6.5t21.5 -7t10.5 -19q8 -168 17 -321.5t14 -223.5l5 -70q5 22 14.5 59t42.5 134t71 173
q8 16 28 16q19 0 27 -16q16 -30 28 -66.5t18 -63.5t14.5 -70.5t14.5 -67.5q14 -59 30 -59q8 0 16 14t15.5 38.5t13 46t12 50t8.5 36.5q47 179 107.5 317t157.5 257z" />
    <glyph glyph-name="X" unicode="X" horiz-adv-x="779" 
d="M828 873q10 -9 10 -24q0 -7 -2 -14q-8 -24 -27 -24q-7 0 -13 5q-21 15 -45 15q-59 0 -152 -107q-86 -100 -180 -228l3 -8q3 -9 28.5 -75.5t43 -109t48 -99.5t58.5 -88q39 -43 74 -43q44 0 86 64q4 5 8 9q7 6 16 6q16 0 27 -17q8 -13 8 -28q0 -22 -17 -35q-3 -2 -8 -6
q-28 -23 -44 -34.5t-42.5 -23t-48.5 -11.5q-37 0 -72 28q-32 26 -61.5 69.5t-46.5 79t-39 90.5q-13 31 -35.5 89.5t-30.5 79.5q-15 -23 -52.5 -79.5t-65 -96t-55.5 -75.5q-44 -55 -108 -123q-8 -9 -35 -35.5t-43.5 -46t-29.5 -39.5q-3 -6 -7 -9q-7 -7 -16 -7q-16 0 -27 18
q-8 12 -8 27q0 21 17 35q22 18 44.5 42t54 60.5t42.5 49.5q75 83 128 164q67 103 129 190q-13 29 -26 52q-64 118 -136 163q-34 22 -62 22q-19 0 -36 -10q-20 -11 -37 -26.5t-17 -29.5l0.5 -4t0.5 -6q0 -15 -7.5 -25t-18.5 -12h-3q-20 0 -27 25q-3 13 -3 26q0 37 22.5 66
t51.5 47q40 25 82 25q44 0 84 -29q101 -72 176 -224q36 48 69 88q9 12 35 46t43.5 56t47 53.5t53.5 51t54 33.5t57 14q45 0 83 -37z" />
    <glyph glyph-name="Y" unicode="Y" horiz-adv-x="568" 
d="M116 803l-2 -16q-4 -19 -4 -45q0 -61 16.5 -129.5t51 -121t76.5 -52.5q32 0 68 32q120 105 186 317q8 21 28 21q12 0 21.5 -8.5t9.5 -22.5q0 -1 -0.5 -3.5t-0.5 -3.5q-9 -51 -32.5 -112t-58 -123t-85 -107.5t-104.5 -54.5q5 -65 6 -184.5t4 -168.5v-2q0 -13 -9.5 -21
t-21.5 -8q-25 0 -31 23q-21 71 -21 171q0 38 10 191q-43 11 -79 45.5t-57.5 81.5t-33 99.5t-11.5 103.5q0 62 17 108q8 20 31 20q26 0 26 -24v-6z" />
    <glyph glyph-name="Z" unicode="Z" horiz-adv-x="610" 
d="M606 157q3 1 9 1q14 0 22 -9.5t8 -22.5q0 -22 -21 -30q-223 -81 -397 -110q-57 -10 -83 -10q-36 0 -57 12q-54 27 -54 81q0 28 13 60.5t34.5 71.5t27.5 52q6 12 54 109q-16 -1 -48 -1q-20 0 -58 2q-29 3 -29 31q0 11 8 19t21 9q75 3 144 9q46 78 82 127q11 16 75 99.5
t84 106.5q-49 7 -124 7q-170 0 -201 -34q-9 -9 -20 -9q-12 0 -21.5 8.5t-9.5 20.5q0 6 5 14q19 26 104 43.5t176 17.5q170 0 170 -62q0 -6 -1 -9q-8 -35 -34.5 -70.5t-65.5 -74t-53 -56.5q-38 -47 -83 -123l150 11h3q15 0 23 -10.5t8 -24.5t-8.5 -25t-23.5 -11h-2
q-11 1 -32 1q-30 0 -155 -10q-61 -114 -80 -147q-1 -1 -9.5 -17t-16 -30t-16.5 -33t-14 -36.5t-5 -29.5q0 -26 26 -26h2q65 3 125 16q69 15 196 50.5t152 41.5z" />
    <glyph glyph-name="bracketleft" unicode="[" horiz-adv-x="333" 
d="M426 981q17 -2 17 -43v-2.5v-2.5q0 -16 -6 -21.5t-23 -5.5h-12q-28 0 -55.5 2t-54.5 2h-16.5h-17.5q-64 0 -92 4q-6 -77 -12 -271t-6 -287q0 -14 0.5 -42.5t0.5 -43.5q0 -24 -1 -44v-23q0 -37 2 -100t2 -103q0 -6 2 -37t2 -44v-9h84q82 0 138 -2q21 -1 30 -11t9 -29
t-10 -27.5t-31 -9.5q-18 0 -51.5 -1.5t-60.5 -1.5q-22 0 -46 0.5t-52.5 1.5t-45.5 1q-20 0 -32 13.5t-12 35.5q0 1 -1 7.5t-1 8.5v5q0 6 -1 23t-1 20v58q0 49 -3 143t-3 145v7q0 113 9 322.5t19 323.5q4 49 40 49h9q51 -8 117 -8q14 0 42.5 0.5t42.5 0.5q45 0 81 -4z" />
    <glyph glyph-name="backslash" unicode="\" horiz-adv-x="417" 
d="M-7 641q-2 5 -2 10q0 10 7 17.5t16 7.5q8 0 15 -7q326 -358 385 -639q1 -4 1 -8q0 -15 -10 -24t-23 -9q-24 0 -32 24q-29 80 -76.5 167t-91 152.5t-98.5 152.5t-91 156z" />
    <glyph glyph-name="bracketright" unicode="]" horiz-adv-x="399" 
d="M83 863h-1q-14 0 -22.5 9.5t-8.5 23.5q0 11 54 25q49 12 81 12q9 0 37 -1.5t53 -1.5q34 0 66.5 1t53.5 1h27q19 0 31 -13t12 -31q0 -6 -1 -10q-46 -202 -46 -547q0 -42 0.5 -124.5t0.5 -122.5q0 -115 -4 -204q-1 -18 -13.5 -32.5t-29.5 -14.5h-5q-35 2 -106.5 2t-119.5 7
t-101 30q-25 12 -25 35q0 34 54 34q11 0 20 -4q55 -22 128 -22q13 0 42.5 1t45.5 1t30 -1q2 58 2 130q0 58 -2 175t-2 176q0 273 34 449q-38 0 -77.5 4.5t-80.5 4.5z" />
    <glyph glyph-name="asciicircum" unicode="^" horiz-adv-x="377" 
d="M43 656q-5 -3 -11 -3q-9 0 -14.5 6.5t-5.5 15.5t5 15q17 21 49.5 57t44.5 49q34 40 70 40h5q38 -3 79 -53q1 -2 25 -35t38 -42q15 -9 15 -23q0 -13 -10.5 -22.5t-22.5 -9.5q-14 0 -22 15q-16 27 -53 67t-60 40q-9 0 -15 -7q-71 -82 -117 -110z" />
    <glyph glyph-name="underscore" unicode="_" horiz-adv-x="955" 
d="M90 -28q-13 1 -20.5 9.5t-7.5 19.5t7.5 19.5t20.5 9.5q128 9 294 9q76 0 228.5 -2.5t228.5 -2.5q18 0 28.5 -12t10.5 -29t-10.5 -29t-28.5 -12q-546 4 -751 20z" />
    <glyph glyph-name="grave" unicode="`" horiz-adv-x="318" 
d="M178 813q-23 -19 -23 -51q0 -28 15.5 -59t33.5 -51q9 -9 9 -19q0 -11 -8.5 -18t-20.5 -7q-20 0 -31 20q-8 14 -35 54.5t-43 73.5t-16 63q0 38 31 69q18 18 43 18q23 0 41 -16.5t18 -38.5q0 -20 -14 -38z" />
    <glyph glyph-name="a" unicode="a" horiz-adv-x="536" 
d="M323 158q-29 61 -90 61q-41 0 -74 -24t-33 -58q0 -14 5 -22q26 -39 69 -39q36 0 74 24t52 44q3 4 -1 11zM376 56l-9 8q-6 4 -15 4q-16 0 -46 -19.5t-33 -20.5q-54 -22 -102 -23h-3q-47 0 -82 45t-35 97q0 23 9 46q22 44 69.5 68.5t101.5 24.5q48 0 98 -27q4 -2 7 1l1 6
q-2 59 -14 98q-9 30 -38 47.5t-64 17.5q-37 0 -61 -19q-1 -2 -2 -2q-9 -9 -23 -9q-15 0 -27.5 12t-12.5 25q0 12 13 22q47 40 121 40q50 0 92 -23t64 -68q28 -67 28 -167q0 -54 -6 -108v-4q3 -10 17.5 -25t14.5 -16q31 -41 60.5 -56.5t80.5 -21.5q24 -4 24 -28
q0 -16 -11.5 -28t-28.5 -12h-6q-31 0 -65 10t-54 28q-13 11 -30 38t-33 39z" />
    <glyph glyph-name="b" unicode="b" horiz-adv-x="571" 
d="M481 217q0 -132 -57 -179q-44 -38 -93 -38q-61 0 -119.5 50.5t-94.5 121t-40 134.5q-1 11 -1 34q0 58 11 119t34.5 120.5t56 106.5t81 76t104.5 29q3 0 9 -0.5t9 -0.5q47 -4 73 -47t26 -98q0 -23 -3 -40q-17 -75 -71 -148q34 -29 54.5 -97.5t20.5 -142.5zM333 83
q37 0 58.5 33.5t21.5 83.5q0 48 -16.5 120.5t-30.5 72.5q-1 0 -3 -2q-12 -9 -23 -10q-47 -47 -117 -100q-9 -8 -20 -8q-15 0 -25.5 13.5t-10.5 30.5q0 21 17 34q164 126 212 231q13 30 13 61t-16 55.5t-40 24.5q-26 0 -61 -26q-64 -43 -100.5 -133.5t-39.5 -183.5v-17
q0 -59 14.5 -113.5t50 -100t87.5 -61.5q16 -5 29 -5z" />
    <glyph glyph-name="c" unicode="c" horiz-adv-x="540" 
d="M275 395v5q0 12 9 20.5t21 8.5q21 0 27 -21q1 -10 13 -10q14 0 28.5 14.5t14.5 32.5q0 17 -12 30q-30 32 -68 32q-9 0 -15 -1q-29 -8 -50.5 -31.5t-43.5 -58.5q-52 -85 -52 -166q0 -24 4 -41q23 -111 141 -111q89 0 166 26t129 69q12 10 23 10t19 -9t8 -21q0 -18 -17 -30
q-6 -4 -33.5 -22t-33.5 -22t-29.5 -18.5t-33 -18.5t-30.5 -14t-35 -13t-34.5 -8.5t-40 -7t-42.5 -1.5q-90 0 -141 26q-53 27 -79.5 75t-26.5 107q0 37 11.5 91t26.5 86q54 120 127 154q47 22 82 22q39 0 80 -18.5t62 -53.5q12 -20 12 -62q0 -44 -42 -77.5t-83 -33.5
q-23 0 -40 15.5t-22 45.5z" />
    <glyph glyph-name="d" unicode="d" horiz-adv-x="613" 
d="M514 202q0 -86 26 -138q3 -7 3 -14q0 -13 -8.5 -22t-20.5 -9t-21 9q-49 47 -49 163q0 21 4 86q-23 -57 -48 -99.5t-60 -79t-82.5 -57t-105.5 -24.5h-1q-11 -3 -23 -3q-38 0 -64.5 28.5t-32.5 70.5q-2 21 -2 33q0 42 13 90t34 85q50 84 127 129q12 8 52 8q120 0 161 -61
q12 50 21.5 89t19 83.5t15 74.5t18.5 98.5t23 118.5q0 2 1 3l2.5 2.5t1.5 2.5q7 10 28 10h7q2 1 4 1q11 0 18.5 -6t7.5 -17v-5q-2 -10 -22 -110.5t-36 -218.5t-16 -223q0 -52 5 -98zM146 76q93 14 149 75.5t95 168.5q-1 5 -2.5 8t-6 7.5l-5.5 5.5q-45 52 -119 52
q-8 0 -26 -4.5t-26 -8.5q-29 -14 -45.5 -33.5t-34.5 -53.5q-28 -51 -28 -148q0 -6 1 -8q1 -27 11.5 -39.5t36.5 -21.5z" />
    <glyph glyph-name="e" unicode="e" horiz-adv-x="529" 
d="M281 434q-32 -2 -63 -25.5t-53 -54.5q-21 -31 -34 -65q19 -6 35 -9q11 -3 35 -3q48 0 84 26.5t46 70.5q1 3 1 10q0 20 -15 36t-35 16zM425 150q13 9 24 9q14 0 23 -11.5t9 -27.5q0 -28 -23 -43q-110 -73 -215 -73q-123 0 -174 112q-21 50 -21 105q0 81 41.5 154.5
t111.5 105.5q45 20 91 20q53 0 88 -26t35 -76q0 -24 -10 -53q-22 -64 -78 -103t-121 -39q-41 0 -87 22v-10q0 -75 52 -103q37 -22 85 -22q81 0 169 59z" />
    <glyph glyph-name="f" unicode="f" horiz-adv-x="457" 
d="M-15 225q-13 0 -20 9t-7 20.5t7 20t20 9.5q53 2 157 8q13 113 41 190q25 72 73 125.5t96 53.5q31 0 57.5 -27t44.5 -83q1 -5 1 -11q0 -12 -8.5 -19.5t-20.5 -7.5q-23 0 -31 21q-19 54 -46 54q-24 0 -51 -41.5t-42.5 -80.5t-17.5 -51l-16 -117q61 5 181 14l0.5 0.5
t1.5 0.5q12 0 19.5 -10t7.5 -23q0 -10 -5 -17.5t-15 -9.5q-99 -16 -198 -23q-7 -73 -15 -251q-2 -37 -2 -111v-133v-37q0 -14 -13 -27t-26 -13q-9 0 -21.5 14.5t-13.5 25.5q-6 42 -6 91q0 14 0.5 44t0.5 47q0 42 5 127q7 152 13 218h-75h-76z" />
    <glyph glyph-name="g" unicode="g" horiz-adv-x="524" 
d="M253 -484q56 112 87 338q0 4 -3 4q-1 0 -2 -1q-126 -93 -159 -125q-24 -23 -38 -37.5t-35.5 -40t-32 -52t-10.5 -52.5q0 -22 9 -44q36 -60 87 -60q31 0 57.5 20t39.5 50zM144 198q6 -74 59 -82h4q2 0 7 -0.5t8 -0.5q38 0 67.5 12.5t47.5 35.5t26.5 39.5t16.5 38.5
q4 10 4 28q0 49 -22 72.5t-57 23.5q-55 0 -108 -48.5t-53 -107.5v-8v-3zM76 208q0 94 75.5 160.5t159.5 66.5q61 0 101.5 -41t40.5 -126q0 -7 0.5 -12t0.5 -8q0 -56 -3 -124.5t-12 -178t-29 -206.5t-49 -186.5t-78 -143t-111 -53.5q-2 0 -8 0.5t-9 0.5q-81 9 -124.5 63
t-43.5 132q0 31 8 66q11 45 38.5 86t69.5 76.5t79.5 62t90 60.5t79.5 54l1 2q2 24 6.5 70.5t6.5 70.5q0 4 -2 4q-2 -1 -3 -1q-61 -52 -148 -52q-65 0 -101 46t-36 111z" />
    <glyph glyph-name="h" unicode="h" horiz-adv-x="550" 
d="M134 779q1 15 11 23t23 8t22 -7.5t9 -21.5v-2q-12 -266 -36 -439q73 105 154 105q11 0 23 -3q45 -9 69.5 -42.5t30.5 -82.5q3 -28 3 -61q0 -30 -3 -77q0 -7 -3.5 -29.5t-3.5 -31.5q0 -17 8 -17q4 0 10 4q8 4 16 4q14 0 24.5 -10.5t10.5 -24.5q0 -12 -11 -21
q-37 -31 -64 -31q-30 0 -45.5 33.5t-15.5 82.5v19q2 32 2 62q0 154 -49 154q-26 0 -65 -45q-74 -88 -111 -181q-8 -63 -24 -106q-10 -24 -37 -24q-13 0 -22.5 8t-9.5 22q0 2 1 4q3 48 28 121q4 29 9.5 86t8.5 82q26 182 37 439z" />
    <glyph glyph-name="i" unicode="i" horiz-adv-x="325" 
d="M266 93q4 1 11 1q16 0 26.5 -12.5t10.5 -28.5q0 -27 -27 -36q-37 -10 -68 -10q-58 0 -95.5 34t-52.5 84t-15 115q0 112 38 219q10 27 39 27q15 0 26.5 -10t11.5 -25q0 -6 -1 -12q-39 -108 -39 -212q0 -140 93 -140q18 0 42 6zM210 574q-14 0 -25 10t-11 25q0 6 -5 15.5
t-5 17.5q0 3 1 8.5t1 6.5v8q0 3 1.5 6t1.5 8q0 17 18 33.5t34 16.5q1 0 13 -3q35 -15 37 -52v-7q0 -52 -32 -81q-15 -12 -29 -12z" />
    <glyph glyph-name="j" unicode="j" horiz-adv-x="317" 
d="M262 600q-4 -66 -44 -66q-20 0 -40 13q-9 10 -18 30v20l-1 5q0 23 16 36t38 13q19 0 34 -14t15 -34v-3zM188 425q-1 2 -1 6q0 15 12 24t27 9q12 0 22 -7t12 -20q11 -69 11 -150q0 -194 -75 -380q-78 -189 -189 -197q-5 -1 -12 -1q-59 0 -88.5 39.5t-29.5 95.5
q0 60 29.5 109.5t74.5 49.5q34 0 63 -29l1 -1l1 -1q12 -10 12 -25q0 -16 -11 -28t-27 -12q-9 0 -19 6q-8 6 -14 6q-8 0 -14.5 -14t-6.5 -37q0 -31 11.5 -53.5t28.5 -22.5q23 0 55 37q50 61 85 169q49 156 49 310q0 48 -7 117z" />
    <glyph glyph-name="k" unicode="k" horiz-adv-x="707" 
d="M901 -19q8 2 11 2q13 0 21.5 -10.5t8.5 -23.5q0 -23 -23 -32q-94 -32 -180 -32q-149 0 -248 99q-11 11 -84.5 94t-124.5 120q-32 22 -64 22q-7 0 -10 -2q-21 -3 -34.5 -15t-17.5 -21.5t-10.5 -37t-8.5 -35.5q-7 -70 -18 -145q0 -6 -1 -9q-3 -23 -26 -23q-14 0 -25 9
t-12 23q-1 11 -1 33q0 71 23 142q5 47 26 293.5t42 376.5q4 21 28 21q12 0 21.5 -7t9.5 -19v-3q-17 -125 -48 -493q2 0 4.5 -0.5t3.5 -0.5q3 0 5 1t3.5 2.5t5 5.5t6.5 7q58 61 101 94.5t114 66.5q24 12 66 12h8.5h8.5q55 0 87 -22t32 -64q0 -47 -41 -106q-11 -16 -26 -16
q-12 0 -21.5 9t-9.5 21q0 4 4 16q17 34 17 58q0 40 -51 40q-19 0 -38 -6.5t-29 -12t-30.5 -20.5t-26.5 -19q-53 -36 -94 -77q99 -35 145 -89q18 -20 55.5 -72t69.5 -86t71 -55q72 -39 156 -39q64 0 149 25z" />
    <glyph glyph-name="l" unicode="l" horiz-adv-x="406" 
d="M144 492q48 68 78 119q3 5 14.5 24.5t16 26.5t15 25t15.5 27.5t13 26t13 28.5t10.5 26.5t8.5 28.5q5 18 5 39q0 38 -24 38q-14 0 -30.5 -15.5t-29.5 -43.5q-77 -172 -105 -350zM64 263q-10 -14 -25 -14q-12 0 -21.5 8.5t-9.5 21.5q0 7 4 14q34 55 52 82q5 146 41 285
t104 243q23 35 57.5 55.5t65.5 20.5q32 0 51 -20.5t19 -62.5q0 -16 -3 -36q-8 -45 -25.5 -92t-33.5 -81.5t-48.5 -86.5t-48.5 -75.5t-57.5 -82t-53.5 -75.5q0 -5 -0.5 -19.5t-0.5 -22.5q0 -46 3.5 -86.5t13.5 -85.5t32 -72t54 -27t69 25q9 6 16 6q13 0 23.5 -11.5
t10.5 -24.5t-10 -20q-63 -50 -117 -50q-47 0 -83 38.5t-54 94t-23 122.5q0 6 -0.5 15.5t-0.5 14.5q-1 0 -1 -1z" />
    <glyph glyph-name="m" unicode="m" horiz-adv-x="796" 
d="M52 490q4 20 24 20q12 0 21 -8t9 -20v-7q-19 -99 -19 -269q108 261 240 261q12 0 18 -1q103 -13 103 -148q0 -2 -0.5 -6.5t-0.5 -6.5q85 133 165 138q3 1 10 1q44 0 67.5 -27.5t30 -70t9.5 -86.5t15 -84t39 -55q14 -8 14 -24q0 -12 -8 -21.5t-20 -9.5q-6 0 -9 1
q-25 7 -42.5 24.5t-26 44t-12.5 49t-7.5 55.5t-6.5 47q-12 65 -46 65q-44 0 -108.5 -93.5t-83.5 -151.5q-7 -23 -33 -23q-14 0 -23 8t-9 23v1q0 7 3 36.5t5.5 66t2.5 66.5q0 120 -42 120q-22 0 -59 -37q-62 -64 -102.5 -148.5t-80.5 -203.5q-7 -22 -31 -22q-12 0 -21.5 8
t-9.5 22v144q0 200 25 322z" />
    <glyph glyph-name="n" unicode="n" horiz-adv-x="699" 
d="M562 332q-9 -105 -9 -159q0 -45 8 -58t29 -15l19 1l16 1q13 0 20.5 -10.5t7.5 -24.5q0 -10 -9 -23t-20 -16q-21 -8 -69 -8h-5q-20 0 -34 7.5t-21.5 18t-11.5 29.5t-5 35.5t-1 42.5q0 29 3.5 78.5t3.5 64.5v4q0 97 -40 97t-82.5 -29t-75.5 -70q-89 -114 -158 -270
q-9 -18 -24 -18q-14 0 -29 9.5t-16 23.5q-8 118 -8 184q0 57 1.5 87t10.5 73t27 78q4 8 15.5 16.5t17.5 8.5q12 0 24.5 -8t12.5 -20q0 -6 -3 -15q-36 -82 -36 -206q0 -19 3 -57q35 65 66 111t72 89.5t89 66t103 23.5l10 -1q46 -3 73 -32.5t27 -72.5v-4q0 -2 -1 -15.5
t-1 -16.5z" />
    <glyph glyph-name="o" unicode="o" horiz-adv-x="563" 
d="M366 150q45 57 45 112q0 74 -42 111q-18 16 -49 25q-20 -113 -28 -116q-6 -2 -11 -2q-14 0 -25.5 7t-11.5 20v3q5 25 9 96q-34 -2 -59 -31q0 -1 -1 -3t-2 -3t-2 -3t-2 -3q-5 -7 -5 -8q-42 -78 -42 -148q0 -51 22 -73q46 -43 94 -43q63 0 110 59zM428 415q57 -70 57 -151
q0 -86 -67 -162q-76 -86 -173 -86q-70 0 -121 51q-61 61 -61 142q0 82 55 181l3 5l1 2q0 1 2 5t3 5q47 60 130 72q0 8 1 18v10v6v10q0 23 22 27q7 1 15 1q12 0 21 -3t15.5 -14.5t6.5 -25.5v-8q-3 -11 -4 -26q60 -15 94 -59z" />
    <glyph glyph-name="p" unicode="p" horiz-adv-x="525" 
d="M134 105q48 -16 90 -16q74 0 120 47l4 3q25 26 40 61q17 68 17 109q0 58 -26 82l-4 4q-19 19 -48 19q-58 0 -115 -57l-3 -3l-1 -1q-39 -39 -49 -82l-13 -47q-13 -70 -16 -115zM347 490q57 -6 92 -39q44 -45 44 -132q0 -53 -17 -108t-43 -95q-12 -19 -33 -42
q-62 -61 -153 -61q-48 0 -104 17l-4 -4q11 -399 108 -659q2 -8 2 -14q0 -11 -7 -20q-11 -10 -29 -10q-15 0 -25 8q-5 6 -8 15q-40 109 -79.5 313t-39.5 387q0 280 105 388q61 59 153 59q6 0 12 -0.5t14 -1.5t12 -1z" />
    <glyph glyph-name="q" unicode="q" horiz-adv-x="485" 
d="M333 463q22 -4 22 -25q0 -13 -9 -23t-23 -10h-6q-14 2 -28 2q-55 0 -100 -35t-68 -85.5t-23 -102.5v-7q2 -57 39 -57q20 0 44 14t40 29q89 81 109 184q5 25 30 25q14 0 26 -10t12 -26q0 -3 -1 -7q-44 -244 -44 -426q0 -120 18 -224q11 7 22.5 15.5t23.5 20t19 18.5t21 22
t18 19q10 10 22 10q13 0 23.5 -10.5t10.5 -23.5q0 -12 -9 -22q-5 -6 -21.5 -24t-22.5 -24.5t-20 -21t-23.5 -21.5t-23 -17t-27.5 -16.5t-30 -12.5q-5 -2 -10 -2q-11 0 -21.5 8t-12.5 19q-29 131 -29 283q0 116 17 250q-89 -112 -163 -112q-39 0 -69 34q-48 53 -48 122
q0 65 41.5 129t106.5 104t132 40q18 0 35 -3z" />
    <glyph glyph-name="r" unicode="r" horiz-adv-x="624" 
d="M87 467q0 13 10 21t23 8q37 0 37 -27v-8q0 -112 -1 -201q50 113 176 193q87 54 163 54q92 0 104 -105v-4q0 -13 -15.5 -26.5t-26.5 -13.5q-24 0 -30 24q-11 46 -53 46q-41 0 -82 -21t-74 -57q-78 -81 -116.5 -159t-66.5 -189q-9 -35 -34 -35q-29 0 -29 26v3
q13 185 15 471z" />
    <glyph glyph-name="s" unicode="s" horiz-adv-x="430" 
d="M346 433q-4 -22 -28 -22q-13 0 -22.5 7.5t-9.5 19.5v2v3q0 17 -21 17q-18 0 -46 -11.5t-35 -17.5q-33 -23 -33 -46q0 -39 99 -75q65 -24 90 -76q20 -38 20 -84q0 -73 -52 -118q-67 -57 -156 -57q-60 0 -101 31q-54 42 -54 86q0 35 37 62q8 5 17 5q13 0 22 -10.5t9 -24.5
q0 -13 -8 -22q-6 -6 -6 -10q0 -17 42.5 -29.5t65.5 -12.5h4h3q51 6 75 32q32 35 32 77q0 36 -27 60q-17 15 -44 29t-50 25t-45 26.5t-34.5 39.5t-12.5 57q0 53 59.5 92t122.5 39q40 0 64.5 -18t24.5 -55q0 -7 -2 -21z" />
    <glyph glyph-name="t" unicode="t" horiz-adv-x="449" 
d="M362 807q7 3 13 3q12 0 24.5 -10.5t12.5 -20.5q0 -14 -12 -21q-88 -54 -149 -231q13 -1 38 -3.5l45 -4.5t37 -4q13 -1 21 -10.5t8 -20.5t-7.5 -19t-21.5 -8q-93 0 -140 3q-17 -66 -23 -126q-6 -80 -6 -81q0 -39 4.5 -72.5t14.5 -63t30 -47t47 -17.5q40 0 94 37q6 4 14 4
q11 0 20.5 -10t9.5 -21q0 -12 -9 -19q-72 -59 -137 -59q-70 0 -113.5 48.5t-46.5 143.5v20q0 127 32 270q-51 6 -103 19q-20 6 -20 24q0 11 7.5 20t19.5 10v1q90 -5 115 -7q69 213 181 273z" />
    <glyph glyph-name="u" unicode="u" horiz-adv-x="721" 
d="M411 131q-22 -38 -51 -64t-58 -37.5t-51 -16t-42 -4.5q-4 0 -5.5 0.5t-3.5 0.5q-1 0 -4 0.5t-4 0.5q-64 7 -90 53t-26 123q0 52 13.5 149.5t14.5 127.5q0 15 12 23.5t28 8.5q36 0 37 -24v-2v-3v-14q0 -29 -16 -117.5t-16 -131.5q0 -87 53 -110q16 -7 30 -7
q24 0 48.5 15.5t47 44.5t42 59.5t38.5 71.5t32 69.5t27.5 64.5t18.5 46q10 22 48 22q16 0 27.5 -5.5t11.5 -15.5q0 -34 -13.5 -109t-13.5 -111q0 -175 120 -175q6 0 13 1t11 1q5 1 7 1l2.5 -0.5t3.5 -0.5q16 0 28 -13.5t12 -29.5q0 -20 -20 -25q-38 -8 -70 -8q-35 0 -64 10
t-47.5 26t-33 38.5t-21.5 43.5t-11.5 45t-6 40t-1.5 31v17q0 3 -2 3t-2 -2q-33 -63 -53 -111z" />
    <glyph glyph-name="v" unicode="v" horiz-adv-x="709" 
d="M91 448q-2 8 -2 11q0 12 16 23t28 11q20 0 27 -23q16 -47 39 -139.5t26 -103.5q3 -10 8.5 -31.5t9.5 -34.5t10.5 -31t13.5 -31q3 -3 5 -3q17 0 86 124q47 87 98.5 161.5t97.5 124t81.5 81t65.5 51.5q15 12 24 12q15 0 26 -14t11 -31q0 -21 -17 -34q-84 -55 -170.5 -165.5
t-152.5 -225.5q-4 -8 -16 -30.5t-20.5 -38t-22.5 -37t-26 -35t-27.5 -23.5t-30.5 -11h-2h-3q-34 0 -62 35.5t-47.5 94.5t-32.5 114.5t-24.5 117.5t-16.5 81z" />
    <glyph glyph-name="w" unicode="w" horiz-adv-x="837" 
d="M58 480q0 2 -0.5 5t-0.5 4q0 15 11.5 24.5t25.5 9.5q25 0 32 -24q20 -72 47 -208t34 -167l1 -1h1q11 20 44 85.5t58 107.5t55 79q10 12 28 12h6.5h7.5q23 0 28 -6q27 -40 43 -82.5t30 -100.5t23 -84l1 -1h1q38 59 110.5 203t123.5 223q1 3 8 5q7 4 16 4q11 0 26.5 -10.5
t21.5 -20.5q3 -7 3 -15q0 -9 -15 -39q-68 -108 -127.5 -218.5t-91 -171t-46.5 -77.5q-17 -15 -41 -15t-34 20q-15 34 -41 131.5t-51 142.5q-1 1 -2 0q-28 -42 -79 -144.5t-88 -151.5q-13 -18 -37 -18q-26 0 -35 27q-19 78 -48 236t-49 236z" />
    <glyph glyph-name="x" unicode="x" horiz-adv-x="774" 
d="M642 101q10 14 22 14q13 0 23 -15t10 -33q0 -30 -29 -37q-10 -3 -27 -8.5t-30 -9t-26 -3.5q-10 0 -19 2q-46 9 -89 50q-49 47 -125 162q-89 -147 -158 -246q-71 -102 -176 -206q-9 -10 -25.5 -20t-24.5 -10q-13 0 -24 13t-11 30q0 23 21 39q43 34 94.5 84.5t78.5 88.5
q57 83 104 156q4 7 81 132q-116 177 -176 177q-27 0 -43 -36q-7 -16 -19 -16q-10 0 -17.5 9.5t-7.5 22.5q0 8 3 16q34 77 82 77q43 0 93.5 -51t118.5 -145q26 39 47 69q44 62 95 102t100 40q63 0 112 -74q6 -9 6 -20q0 -15 -9.5 -26.5t-21.5 -11.5q-11 0 -19 11
q-33 50 -75 50q-25 0 -52 -17.5t-53.5 -50.5t-46 -61.5t-42.5 -67.5q36 -50 58.5 -79t52 -63t54 -49.5t44.5 -15.5q26 0 46 27z" />
    <glyph glyph-name="y" unicode="y" horiz-adv-x="593" 
d="M423 402q5 24 29 24q14 -1 24 -9.5t10 -23.5q1 -47 5 -173t4 -195v-21v-17q0 -185 -30 -334q-17 -89 -43.5 -156.5t-53.5 -103.5t-58 -58.5t-53.5 -28.5t-45.5 -6t-33 3h-2q-20 1 -45.5 6.5t-58.5 21t-59 37.5t-44.5 59.5t-18.5 84.5q0 39 15 86l1 3l1 3q72 177 345 341
q9 4 18 4q12 0 21.5 -11t9.5 -23q0 -16 -10 -23q-1 -1 -3 -2t-2 -2q-217 -132 -296 -266q-32 -56 -32 -95q0 -78 74 -117q64 -33 119 -33q77 0 109 62q64 126 86 271.5t22 325.5q0 1 -2 167q0 2 -1 3t-2 0q-3 0 -3 -1q-40 -80 -90 -130t-107 -50h-6t-8 1h-5.5h-5.5
q-34 7 -57.5 28t-35 53.5t-16 66t-4.5 75.5q0 28 2.5 75.5t2.5 57.5q0 15 10 23.5t23.5 8.5t23 -8t9.5 -23q0 -3 -3 -35t-3 -58q0 -200 64 -200h1q15 0 35 14q65 44 109.5 126t63.5 172z" />
    <glyph glyph-name="z" unicode="z" horiz-adv-x="576" 
d="M487 94q0 -18 -1 -28q-6 -35 -113 -35h-4q-38 -1 -108 -12q-76 -10 -98 -10q-38 0 -74 12q-10 2 -16.5 14t-6.5 28q0 20 9 31q28 41 66 85t63 70t90 90.5t95 95.5q1 0 1 3t-1.5 5.5t-2.5 3.5l-2 1h-1q-52 7 -77 7q-59 0 -101 -8.5t-103 -32.5v-1h-7q-10 0 -17.5 11
t-7.5 28q0 29 20 38q64 28 109.5 38t109.5 10q63 0 132 -18q7 -2 22 -29t15 -41v-8q-21 -36 -70.5 -90t-118 -122.5t-101.5 -104.5q-3 -3 -4 -6q-1 -1 -1 -7q0 -13 11 -13h2q13 1 48 5t61 6t49 2h9h8h1q11 0 31 0.5t28 0.5q7 0 17 0.5t14 0.5q15 0 20 -3.5t5 -16.5z" />
    <glyph glyph-name="braceleft" unicode="{" horiz-adv-x="356" 
d="M403 943q4 1 8 1q13 0 21.5 -10t8.5 -23q0 -17 -15 -25q-52 -26 -87 -57.5t-55 -69.5t-32 -73t-29 -85.5t-35 -88.5q-31 -63 -83 -101q53 -26 91 -81q25 -39 25 -123q0 -14 -0.5 -41.5t-0.5 -41.5q0 -30 2 -51.5t10 -45.5t21.5 -40t37.5 -28.5t57 -16.5q21 -2 31.5 -14.5
t10.5 -28.5q0 -17 -12 -30t-33 -13h-9q-136 20 -174 124q-14 38 -19.5 91.5t-8.5 94t-14 82t-44 72t-90 46.5q-29 9 -29 39q0 14 8 25t21 15q47 15 79.5 45t51.5 70t31.5 79.5t28 89t31.5 82.5q13 26 34.5 47t50.5 37t53 26.5t57 21.5z" />
    <glyph glyph-name="bar" unicode="|" horiz-adv-x="240" 
d="M104 845q2 13 10 19.5t18 6.5t17.5 -6.5t8.5 -19.5q8 -84 8 -181q0 -116 -15.5 -344.5t-15.5 -339.5q0 -18 -11 -28t-27 -10t-28 10t-13 28q-7 84 -7 178q0 41 1.5 87t3.5 83.5t6 90t7 83t9 89.5t8.5 83t10 88.5t9.5 82.5z" />
    <glyph glyph-name="braceright" unicode="}" horiz-adv-x="354" 
d="M44 854q-13 2 -21 12t-8 22q0 20 22 25q32 8 59 8q48 0 80 -24.5t47.5 -65t25 -90t17 -102t19 -98.5t36.5 -82.5t63 -51.5q14 -5 22.5 -17.5t8.5 -26.5q0 -23 -21 -36q-42 -26 -66.5 -45.5t-45 -46.5t-30 -60t-12.5 -81q-5 -75 -25 -113q-35 -69 -86.5 -100.5
t-131.5 -37.5h-2q-18 0 -29 14t-11 32q0 14 7.5 25t22.5 13q54 8 88 28.5t46.5 48t19.5 63t8.5 69t11 72t29.5 65.5q36 51 105 95q-31 32 -52 83t-29.5 101t-21 103.5t-26 95t-44 70t-76.5 33.5z" />
    <glyph glyph-name="asciitilde" unicode="~" horiz-adv-x="741" 
d="M85 222q-8 -7 -16 -7q-9 0 -15.5 7t-6.5 17q0 8 5 15q3 5 22.5 30.5t28.5 36.5t29.5 32.5t35 31.5t35.5 19t41 9h9q62 -6 124 -49q7 -5 25.5 -21t34.5 -25.5t31 -12.5q16 -2 31 -2q42 0 77 17.5t76 49.5q10 9 20 9q12 0 20.5 -9t8.5 -21q0 -14 -14 -24q-34 -25 -59 -40.5
t-61.5 -30t-68.5 -14.5q-43 0 -80 23q-11 7 -48 35t-64 41.5t-54 13.5q-37 0 -70 -33q-13 -13 -45.5 -47t-51.5 -51z" />
    <glyph glyph-name="section" unicode="&#xa7;" horiz-adv-x="498" 
d="M326 643q11 -1 17.5 -9.5t6.5 -18.5q0 -18 -18 -20q-5 -1 -24 -4t-28 -5t-23 -6.5t-25 -10.5q-44 -25 -44 -54q0 -27 33.5 -51.5t72.5 -37.5q50 -17 80.5 -35t52.5 -51q19 -29 19 -58q0 -25 -14 -50.5t-40.5 -48t-48.5 -37.5t-53 -34q59 -37 59 -83v-4q-2 -31 -15 -53
t-30.5 -33.5t-44.5 -18t-50 -8.5t-53.5 -4.5t-48.5 -5.5q-5 -1 -9 -1q-17 0 -25 10t-8 24q0 15 8 26t22 11q6 0 12 -2q13 -4 33 -4q32 0 75 11q21 5 37 20t16 31q0 21 -29 36q-9 5 -36.5 16.5t-42.5 19t-34 21.5t-31 30q-41 56 -41 113q0 48 29 90t79 73q-21 24 -34 59
q-6 16 -6 31q0 38 34.5 68t77.5 44t81 14h11zM203 393q-97 -62 -97 -126q0 -29 22 -58q29 -37 90 -62l2 0.5l2 0.5q31 5 64.5 29.5t56.5 53.5q21 27 21 50q0 13 -7.5 25.5t-17.5 20.5t-28 17t-28.5 13.5t-30.5 11.5q-26 10 -49 24z" />
    <glyph glyph-name="copyright" unicode="&#xa9;" horiz-adv-x="774" 
d="M482 282q7 5 15 5q11 0 19 -9.5t8 -21.5q0 -19 -20 -25q-84 -24 -140 -24q-100 0 -122 72q-4 14 -4 30q0 54 44.5 100.5t96.5 46.5q41 0 70 -32q6 -6 6 -15t-6.5 -16.5t-14.5 -7.5q-6 0 -12 4q-18 12 -39 12q-36 0 -67 -29t-31 -60q0 -27 26 -40q29 -15 73 -15
q61 0 98 25zM611 278q29 61 29 123q0 76 -47 114q-52 41 -137 41q-60 0 -119 -20.5t-96 -53.5q-10 -8 -20 -8q-18 0 -27 18q-37 -31 -58.5 -74.5t-21.5 -92.5q0 -23 5 -45q16 -80 74.5 -125.5t136.5 -45.5q33 0 66 8q71 18 129 59t86 102zM662 528q40 -61 40 -133
q0 -75 -41 -147t-108 -121.5t-142 -62.5q-34 -5 -67 -5q-72 0 -131 23.5t-99.5 76.5t-46.5 129q-1 13 -1 25q0 107 66 181.5t173 82.5q98 40 179 40q120 0 178 -89z" />
    <glyph glyph-name="guillemotleft" unicode="&#xab;" horiz-adv-x="559" 
d="M257 461q4 1 7 1q11 0 17 -7t6 -17q0 -22 -22 -27q-19 -6 -36.5 -17.5t-34 -30.5t-26.5 -32t-26.5 -38t-21.5 -32q-11 -16 -11 -28q0 -8 4 -14.5t12 -11.5t15.5 -8.5t19.5 -9t18 -8.5q20 -10 49 -34t36 -29q15 -10 15 -25q0 -14 -12.5 -25.5t-27.5 -11.5q-22 0 -29 26
q-6 21 -37.5 39t-69.5 35t-52 31q-11 12 -11 30q0 26 21 56q6 8 25 36t28.5 40.5t29 35.5t34.5 35t36.5 24t43.5 17zM404 448q9 13 22 13q10 0 17.5 -7t7.5 -17q0 -7 -4 -14q-11 -18 -54.5 -73t-56.5 -88v-5q0 -24 58.5 -56.5t86.5 -38.5q22 -3 22 -24q0 -14 -11 -27.5
t-25 -13.5q-9 0 -17 6q-14 10 -48 27t-59 30.5t-46.5 36.5t-23.5 48v3q0 35 33 76q63 74 98 124z" />
    <glyph glyph-name="uni00AD" unicode="&#xad;" horiz-adv-x="470" 
d="M65 202q0 17 21.5 22.5t70.5 5.5q50 0 82 -1h23h28h25q51 0 74.5 -5t23.5 -22q0 -23 -36 -28.5t-157 -8.5h-57q-60 0 -79 8t-19 29z" />
    <glyph glyph-name="registered" unicode="&#xae;" horiz-adv-x="610" 
d="M226 226v-1q0 -8 -5 -12t-13 -4q-14 0 -18 13q-7 23 -7 49q0 71 42 108q26 22 68 22q32 0 48 -17q15 -17 15 -39q0 -26 -19 -49q-16 -18 -34 -26l2 -1q2 -1 17.5 -16t27.5 -22.5t22 -7.5h4h5q11 0 17.5 -7t6.5 -16q0 -10 -6 -16.5t-15 -6.5q-4 0 -8 1q-41 9 -76 39
q-46 40 -71 46q-2 0 -3 1v-38zM241 304q8 -1 16 -1q30 0 47 19q10 12 10 24q0 7 -5 10q-9 4 -19 4q-18 0 -34 -11.5t-21 -27.5q-4 -10 -5 -15q5 0 11 -2zM122 428q0 9 11 17q127 87 230 87q57 0 102 -29q90 -58 90 -167q0 -55 -24.5 -109t-67.5 -93q-68 -63 -165 -63
q-59 0 -113.5 25.5t-90.5 72.5q-41 53 -41 113q0 82 69 146zM144 399q-48 -51 -48 -114q0 -71 61 -120q58 -48 136 -48q53 0 100 24t76 70q34 54 34 121q0 63 -33.5 105.5t-98.5 43.5h-5q-57 0 -113 -18.5t-91 -55.5q-8 -8 -18 -8z" />
    <glyph glyph-name="guillemotright" unicode="&#xbb;" horiz-adv-x="463" 
d="M77 397q-9 6 -9 17q0 10 7.5 18.5t17.5 8.5q7 0 12 -3q154 -94 154 -186q0 -7 -1 -13q-2 -27 -11 -48t-26 -38t-31.5 -28t-39.5 -28t-38 -27q-12 -8 -23 -8q-13 0 -21 10t-8 23q0 26 26 30q41 7 78.5 43.5t37.5 76.5q0 16 -7 30q-12 25 -33 48.5t-37 36.5t-48 37z
M247 421q-3 5 -3 10q0 10 8.5 17t18.5 7q13 0 20 -12q6 -10 41 -31.5t39 -25.5q48 -40 56 -68q6 -24 6 -50q0 -39 -14 -74q-10 -21 -21.5 -37.5t-33.5 -40t-28 -31.5q-13 -15 -28 -15q-12 0 -21.5 10t-9.5 23q0 22 27 30q24 8 45.5 49t23.5 68q1 10 1 18q0 37 -32 65
q-9 9 -31.5 25.5t-39 32t-24.5 30.5z" />
    <glyph glyph-name="afii10023" unicode="&#x401;" horiz-adv-x="512" 
d="M437 974q15 -1 25.5 -13t10.5 -26v-4q-1 -13 -12 -22t-25 -9q-1 0 -3.5 0.5t-3.5 0.5q-16 1 -26.5 12t-10.5 26v4q2 13 13 22t26 9h6zM173 961q16 -2 26.5 -12.5t10.5 -24.5q0 -1 -0.5 -2.5t-0.5 -2.5q-1 -13 -11.5 -22t-25.5 -9q-1 0 -3.5 0.5t-3.5 0.5
q-16 2 -26.5 12.5t-10.5 25.5v4q2 13 13.5 22t25.5 9q1 0 3 -0.5t3 -0.5zM158 779q59 18 95 23q39 6 95 6q16 0 49 -0.5t50 -0.5q55 0 93 6q6 1 11 1q20 0 31 -11t11 -26t-10.5 -26t-30.5 -11q-5 0 -12 1q-59 10 -124 10q-141 0 -259 -41q-3 -80 -28 -277q44 8 105 8
q21 0 120 -4q17 -1 26 -10t9 -21t-9 -21t-26 -10q-13 -1 -30 -1q-14 0 -42.5 0.5t-43.5 0.5q-73 0 -117 -11q-9 -73 -12 -134q-1 -7 -3 -25t-3.5 -38.5t-1.5 -37.5q0 -111 70 -111q14 0 33 5q65 18 215 82q8 4 17 4q16 0 26.5 -10t10.5 -23q0 -16 -18 -25q-3 -1 -22 -10.5
t-28.5 -14t-31 -14.5t-36 -16t-36.5 -15t-40 -14t-38 -10t-38.5 -7.5t-35.5 -2.5q-94 0 -111 83q-15 71 -15 152q0 97 28.5 277.5t32.5 219.5q-18 -8 -26 -13q-9 -5 -18 -5q-13 0 -22 9t-9 21q0 16 15 25q27 18 66 37q30 14 68 26z" />
    <glyph glyph-name="afii10053" unicode="&#x404;" horiz-adv-x="798" 
d="M842 172q16 10 31 10q19 0 32 -13.5t13 -31.5q0 -27 -28 -41q-65 -32 -112 -53t-111 -45t-125.5 -36t-119.5 -12q-64 0 -122 16q-83 23 -142 80t-86 130.5t-27 158.5q0 47 9 94q29 157 118.5 279t231.5 174q79 30 140 30q62 0 105 -31q35 -25 60 -58.5t25 -65.5
q0 -38 -38 -66q-10 -8 -22 -8q-14 0 -23.5 8.5t-9.5 21.5q0 10 6 20q3 4 3 8q0 17 -31.5 42t-46.5 29q-22 6 -45 6q-29 0 -59 -10q-103 -32 -186 -110q-52 -50 -87.5 -122t-48.5 -150q67 55 173.5 80t221.5 25q83 0 151 -12q29 -5 29 -35q0 -20 -14 -38t-33 -18q-8 0 -15 4
q-65 29 -155 29q-75 0 -146 -20t-130 -62.5t-82 -100.5q19 -109 92 -170.5t185 -61.5q11 0 22 1q106 5 211 37t186 88z" />
    <glyph glyph-name="afii10055" unicode="&#x406;" horiz-adv-x="250" 
d="M147 391q0 -4 -7 -75.5t-7 -109.5q0 -111 41 -177q6 -9 6 -18q0 -15 -14 -24.5t-32 -9.5q-25 0 -41 22q-47 75 -47 202q0 26 11 172q10 111 10 306v100q0 18 13.5 27.5t32.5 9.5t34.5 -11.5t15.5 -30.5v-25q0 -4 -2 -10v-26q0 -160 -14 -322z" />
    <glyph glyph-name="afii10056" unicode="&#x407;" horiz-adv-x="342" 
d="M191 363q-12 -168 -12 -184q0 -114 40 -179q5 -8 5 -17q0 -14 -13.5 -23.5t-31.5 -9.5q-25 0 -40 21q-48 77 -48 203q0 40 10 172q10 111 10 305v100q0 18 13.5 28t32.5 10q20 0 36 -11.5t16 -30.5v-26q0 -4 -2 -10v-25q0 -138 -16 -323zM120 964q-11 -30 -49 -55
q-9 -6 -18 -6l-12 3q-6 -2 -10 -2q-15 0 -27.5 11t-12.5 26v2q1 47 55 103q11 11 27 11q24 0 36 -18q15 -27 15 -52q0 -14 -4 -23zM314 951q-4 -12 -17 -21q-12 -6 -20 -6q-24 0 -33 20q-10 23 -10 46q0 42 30 56q12 7 30 7q41 0 72 -47q4 -6 4 -20q0 -23 -19 -35
q-6 -4 -20 -4q-9 0 -17 4zM312 988l-1 -1z" />
    <glyph glyph-name="afii10062" unicode="&#x40e;" horiz-adv-x="599" 
d="M553 1165q7 12 18 15q4 1 9 1q12 0 23 -7t14 -18t-4 -23q-12 -18 -32.5 -53t-37 -61.5t-38.5 -56t-48 -49.5t-55 -29q-20 -5 -37 -5h-4q-79 0 -108 96q-11 38 -11 82q0 83 32 129q8 11 18 14q5 1 10 1q12 0 22.5 -6.5t13.5 -17.5q4 -14 -5 -24q-22 -30 -22 -87
q0 -34 9 -63q7 -24 20 -39t32 -15q6 0 12 2q18 5 37 24q25 25 45.5 53.5t49.5 76.5t37 60zM653 846q7 -9 7 -31q0 -35 -26 -90q-22 -49 -68 -102q-11 -180 -25 -243q-50 -224 -181 -336q-42 -35 -99.5 -59.5t-111.5 -24.5q-61 0 -102 34q-49 42 -49 94q0 72 83 130
q15 10 25 10q15 0 25.5 -11.5t10.5 -25.5q0 -21 -23 -33q-43 -23 -43 -56q0 -24 23 -43t57 -19l3 1q1 0 3 -1q103 6 175 84q75 80 109 183.5t44 234.5q-76 -68 -81 -73q-92 -85 -150 -85q-34 0 -53 30q-34 51 -34 165v33q0 33 -1 49q0 5 -1 24.5t-2.5 31.5t-4.5 28.5
t-8.5 28.5t-14.5 20q-12 12 -30 12q-34 0 -70 -44t-46 -78q-6 -20 -25 -20q-29 0 -29 23v9l1 2l1 2q15 60 65.5 111t110.5 51q24 0 44 -8q12 -5 22.5 -13t18 -21t13 -23t9 -28.5t6 -28t4 -31t2 -27.5t1 -28t0.5 -23q1 -9 1 -27v-17q0 -60 5 -89q8 -44 36 -44t81 49
q28 26 122 120l14 13q7 79 20 133q17 73 45 99q17 14 34 14q34 0 57 -36z" />
    <glyph glyph-name="afii10017" unicode="&#x410;" horiz-adv-x="627" 
d="M140 224v-28q0 -77 13 -145q14 -11 14 -28l-1 -3v-4v-7q-1 -8 -9.5 -16t-16.5 -9l-7 -1h-9q-30 0 -35 26q-22 91 -23 182q-22 -13 -29 -20q2 -8 2 -12q0 -15 -9.5 -26.5t-26.5 -11.5h-24q-15 0 -26.5 12t-11.5 27q0 7 8 19q40 58 120 92q11 146 55 268q102 291 239 291h3
q31 0 54.5 -15t37.5 -35.5t24 -52t14 -55.5t7 -56q6 -59 10.5 -169.5t5.5 -132.5q17 -11 17 -33q0 -20 -13 -30q10 -135 46 -240q1 -4 1 -12q0 -14 -11 -23t-26 -9q-26 0 -34 24q-38 108 -48 255q-14 0 -44.5 0.5t-47.5 0.5q-142 0 -219 -23zM167 427q-9 -41 -21 -130
q97 23 253 23q9 0 25.5 -0.5t24.5 -0.5q0 23 -3.5 70t-4.5 72q0 5 -1 64.5t-3.5 83.5t-12 64.5t-27.5 65.5q-14 20 -33 20q-28 0 -63 -46t-63 -108.5t-47 -110.5t-24 -67z" />
    <glyph glyph-name="afii10018" unicode="&#x411;" horiz-adv-x="597" 
d="M762 791q12 5 18 5q14 0 23.5 -11t9.5 -24q0 -21 -22 -30q-175 -69 -430 -69q-48 0 -109 2q-15 1 -55 2q-24 -88 -32 -141q-6 -34 -12 -79q6 3 11 5q77 27 153 32q28 2 44 2q17 0 32 -2q6 -1 26.5 -7t22.5 -6q6 1 11 1q21 0 24 -16q37 -15 55 -47t18 -72q0 -39 -16 -75
q-25 -62 -69 -118t-99 -95q-68 -48 -154 -48q-22 0 -42 4q-59 11 -88 53q-13 17 -17 39q-9 7 -9 19q0 6 2 12l4 12q-1 21 -5 35q-1 5 -1 9q0 17 18 24q2 15 5 91q-22 17 -22 40q0 28 31 61q10 86 22 148q11 58 28 122h-28q-31 0 -58 -2q-53 -4 -81.5 -22t-40.5 -62
q-4 -16 -22 -16q-20 0 -25 18q-4 14 -4 28q0 34 26 58.5t67 36t77.5 16t73.5 4.5h3h28q18 60 40 123q5 16 25 16q9 0 15.5 -5t6.5 -14v-4q-8 -47 -27 -118q131 -4 171 -4q240 0 377 69zM224 407q-55 -14 -79 -30q-3 -29 -6 -57q0 -1 -2 -13q0 -3 -1 -5q-1 -13 -7 -48.5
t-8 -55.5q3 -5 3 -12q0 -6 -3 -13q0 -2 -2 -7q-1 -7 -1 -13q0 -15 2 -28v-3v-3q11 -25 39 -40.5t58 -15.5h5q73 4 123 46q89 75 125 157q18 43 18 70q0 13 -3 24q-7 23 -37 47q-3 -1 -6 -1q-8 0 -14 3q-3 2 -5.5 4.5t-3.5 2.5t-2.5 1t-3.5 1q-3 0 -12.5 2t-14.5 2
q-25 1 -37 1h-17q-58 -3 -108 -16z" />
    <glyph glyph-name="afii10019" unicode="&#x412;" horiz-adv-x="681" 
d="M585 429q46 -62 46 -134q0 -64 -35 -119.5t-97 -85.5q-74 -37 -174.5 -55.5t-198.5 -18.5q-14 0 -39.5 -2t-37.5 -2q-10 0 -19 1q-5 1 -28 3t-31 3t-30 4.5t-31.5 6.5t-28 8.5t-28 12t-22.5 16t-20 20.5t-13 26t-8 32q-1 2 -1 29q0 18 13 28.5t30 10.5q14 0 24.5 -7.5
t10.5 -22.5q0 -5 -1 -8q0 -1 -0.5 -3t-0.5 -4q0 -52 173 -66q1 7 1 17q0 13 -1.5 38.5t-1.5 31.5q0 16 1 60.5t1 59.5v16v19q0 11 -0.5 27t-0.5 25q0 14 1 31q4 187 37 276q-53 -42 -73 -54q-9 -6 -18 -6q-11 0 -21.5 17.5t-10.5 30.5t12 21q67 54 105.5 74.5t119.5 46.5
q45 15 96 15q125 0 160 -77q10 -23 10 -47q0 -86 -126 -183q79 -1 147.5 -29t108.5 -83zM129 735q4 -1 6 -1q10 0 18 -6t8 -16q0 -8 -2 -12q-9 -20 -15.5 -44t-10 -42t-6.5 -47t-3.5 -42.5t-2 -48t-1.5 -44.5v-15q0 -19 2.5 -57.5t2.5 -57.5v-15q0 -12 -2 -42.5t-2 -46.5
q0 -42 10 -66q3 -7 3 -16q0 -13 -9 -22h20q166 0 283 47q26 11 42 18.5t36.5 22t31.5 31.5q21 33 21 78q0 53 -29 90q-36 44 -93.5 67.5t-121.5 23.5q-74 0 -134 -30q-8 -4 -17 -4q-13 0 -21.5 10t-8.5 23q0 20 19 32q86 52 147 104q1 1 14.5 13t20 18t19 19t19 22.5
t12 21.5t5.5 22q0 11 -5 18q-26 46 -96 46q-37 0 -76.5 -12.5t-67.5 -29.5q-2 -1 -7.5 -4.5t-8.5 -5.5z" />
    <glyph glyph-name="afii10020" unicode="&#x413;" horiz-adv-x="518" 
d="M598 798q13 9 25 9q16 0 26.5 -12t10.5 -27q0 -23 -23 -31q-120 -44 -221 -44q-16 0 -32 1q-36 2 -104.5 10t-97.5 10v-11q-2 -26 -2 -55t2 -63q1 -28 1 -56q0 -93 -13 -193q-42 -351 -213 -376h-8q-17 0 -26 10t-9 24q0 16 10.5 29.5t27.5 13.5q6 0 13 -2q2 -1 4 -1
q13 0 31.5 23t30 42.5t20.5 38.5q29 60 43 154q19 123 19 256q0 24 -1 49q-2 66 -2 71q0 26 2 48h-16q-30 -1 -94.5 -14t-128.5 -39t-64 -54q0 -8 6 -17q5 -7 5 -16q0 -14 -9.5 -24t-22.5 -10q-12 0 -20 10q-23 31 -23 60q0 25 18 48t43 38.5t60 30t59 21.5t50 13
q70 18 149 18q5 15 10 26q10 21 26.5 32.5t34.5 11.5q21 0 36 -14.5t19 -40.5q1 -12 -5 -22q11 -1 43 -5t49.5 -6t44.5 -4t50 -2q106 0 166 41z" />
    <glyph glyph-name="afii10021" unicode="&#x414;" horiz-adv-x="970" 
d="M968 102q16 0 29 -12.5t13 -29.5q0 -5 -2 -11q-10 -28 -34.5 -77t-39 -90t-14.5 -81q0 -22 5 -44q1 -6 1 -11q0 -19 -12.5 -30t-30.5 -11q-16 0 -28.5 10.5t-14.5 30.5q-2 17 -2 33q0 26 3.5 50t12.5 53t13.5 41.5t20.5 50t19 44.5q-120 -2 -241 -2q-302 0 -612 13
q2 -38 23 -134q4 -18 10 -65t13 -70q3 -8 3 -15q0 -16 -12 -25t-29 -9t-29.5 9t-12.5 25q0 7 3 15q6 16 6 36q0 27 -14 78.5t-15 59.5q-8 48 -8 83q0 22 3 43l3 9q0 1 0.5 2l0.5 1h1q7 15 25 18q42 4 116 10q12 33 50.5 158t70.5 190q94 190 251 372q-2 7 -9.5 34.5
t-14 45.5t-15.5 32q-23 52 -82 53q-22 -2 -33 -11.5t-11 -24.5q0 -29 35 -48q8 -8 8 -20q0 -13 -8.5 -23t-20.5 -10q-8 0 -16 5q-65 45 -65 100q0 44 38 76t87 32q58 0 99 -46q32 -36 56.5 -90.5t35.5 -95t26.5 -112t22.5 -98.5q11 -43 38 -137t39 -144q2 -10 9 -38.5
t10.5 -42t11.5 -39t15 -41t19 -34.5t26 -33q3 -3 7 -9h43zM224 104q78 3 171 3q63 0 329 -5q-25 42 -47 100t-32 95.5t-28 113.5t-24 99q-9 36 -28 114.5t-30 118.5q-59 -79 -104.5 -147t-92.5 -152.5t-76.5 -171t-37.5 -168.5z" />
    <glyph glyph-name="afii10022" unicode="&#x415;" horiz-adv-x="552" 
d="M347 476q-5 1 -11 1q-21 0 -47 -10q20 -4 34 -4h2h4q30 0 30 7q0 4 -12 6zM703 159q12 8 23 8q14 0 23 -9.5t9 -22.5q0 -19 -20 -31q-22 -14 -50 -27q-67 -31 -117.5 -52t-124.5 -40t-135 -19q-98 0 -169 47q-52 35 -80.5 92t-28.5 120q0 31 7 61q25 106 135 185
q-18 21 -28 53q-7 26 -7 54q0 81 49.5 153.5t124.5 91.5q18 5 38 5q60 0 109 -34t49 -86q0 -25 -12 -50q-8 -16 -26 -16q-10 0 -17 5t-7 14q0 5 3 11q4 11 4 21q0 31 -33 52.5t-68 21.5q-9 0 -17 -2q-63 -16 -100 -75q-35 -56 -35 -108q0 -47 31 -76q70 36 107 36
q17 0 30 -6q46 -21 46 -60q0 -14 -6 -29q-10 -22 -36.5 -33.5t-58.5 -11.5q-28 0 -48 8q-24 9 -41 19q-21 -15 -36 -27q-42 -34 -66 -78.5t-24 -93.5q0 -22 5 -43q18 -80 77 -116.5t144 -36.5q95 0 202.5 38t174.5 87z" />
    <glyph glyph-name="afii10024" unicode="&#x416;" horiz-adv-x="1174" 
d="M1447 761q1 -2 1 -5q0 -14 -11.5 -23.5t-25.5 -9.5q-17 0 -24 17q-9 22 -68 22q-18 0 -39.5 -2t-41.5 -4.5t-24 -2.5q-125 -12 -219 -65q-34 -20 -68.5 -46t-60.5 -48.5t-60.5 -58t-54 -57t-56 -63t-52.5 -58.5q-4 -4 -9.5 -10t-7.5 -8q38 -40 55 -58t58.5 -58.5
t67.5 -62t67.5 -52.5t73.5 -46.5t71 -27.5t74 -12q81 0 147 59q13 11 27 11q15 0 26 -12t11 -28q0 -22 -23 -36q-91 -54 -186 -54q-64 0 -128 23t-125 65.5t-109 85t-105 100.5q-2 2 -5.5 6t-4.5 5q10 -179 45 -327q1 -4 1 -9q0 -17 -14.5 -28.5t-32.5 -11.5q-32 0 -35 31
q-3 28 -17 155.5t-19 195.5q-131 -134 -257 -232q-95 -75 -185 -134q-20 -13 -98.5 -60t-116.5 -77q-14 -12 -29 -12q-16 0 -28 13.5t-12 30.5q0 26 25 36q33 13 72.5 36.5t59 36.5t71 50.5t58.5 42.5q141 101 236 184q77 69 179 178q-117 116 -210 196q-53 46 -96 78.5
t-98 67t-113.5 54t-117.5 23.5q-13 1 -19.5 8.5t-6.5 18.5q0 12 8.5 22t21.5 10h2q73 -5 148.5 -32t137 -62.5t132 -91.5t118 -101t111.5 -108q0 97 12 184q2 20 5 37.5t10 55.5t17 67t22.5 60t31 48t38.5 17q13 0 27 -8q13 -6 13 -18q0 -8 -5.5 -17.5t-13 -18t-8.5 -10.5
q-31 -49 -34 -58q-14 -40 -19 -73q-21 -135 -22 -249q88 96 140 148q101 101 206 161.5t230 75.5q87 10 117 10q125 0 141 -80z" />
    <glyph glyph-name="afii10025" unicode="&#x417;" horiz-adv-x="651" 
d="M404 580q3 0 8 0.5t8 0.5q76 0 123 -78t47 -186q0 -70 -21 -134t-69 -117t-117 -75q-61 -18 -119 -18q-83 0 -146 38.5t-79 117.5q-5 22 -5 40q0 60 27 107t72 47q24 0 53 -16q20 -10 20 -31q0 -16 -12 -29.5t-28 -13.5q-8 0 -19 6q-1 1 -6 1q-20 0 -20 -57q0 -34 11 -66
t32 -43q49 -25 105 -25q50 0 92 18q71 30 115 91.5t45 138.5v6q0 70 -28.5 133t-78.5 63q-27 0 -60 -23v-2q-4 -8 -14.5 -14t-19.5 -6h-7q-15 0 -27.5 14t-12.5 29q0 14 13 24q3 2 7.5 6.5t7.5 6.5q-4 1 -4 7t5.5 15.5t14 22.5t12.5 22q3 8 10.5 25t12 27t10 25t7.5 28
q1 7 1 18q0 36 -36 36q-45 0 -103 -43.5t-58 -82.5q0 -6 6 -18q5 -9 5 -20q0 -15 -13 -27t-28 -12q-22 0 -32 19q-17 29 -17 58q0 52 44.5 102.5t106.5 80t114 29.5q5 0 14 -1.5t11 -1.5q70 -14 70 -90q0 -65 -50 -173z" />
    <glyph glyph-name="afii10026" unicode="&#x418;" horiz-adv-x="705" 
d="M646 806v-18v-18.5v-18.5q0 -69 -9.5 -198.5t-10.5 -151.5q0 -15 -2.5 -52.5t-2.5 -58.5q0 -136 25 -334v-5q0 -14 -9.5 -22t-23.5 -8q-35 0 -40 35q-22 165 -22 358q0 14 1 43t1 44q0 38 3 78.5t7.5 93.5t6.5 78l-144 -265q-11 -19 -52 -95.5t-63 -113t-62 -90
t-80 -87.5q-27 -23 -50 -23t-40 24t-25 61.5t-11.5 70.5t-3.5 61v16q4 72 26.5 260t23.5 294q-3 12 -3 15q0 17 11 26t26 9q16 0 27 -9t11 -26q0 -41 -2 -84.5t-4 -74.5t-7 -80t-7.5 -71t-10 -79t-9.5 -74q-10 -73 -10 -136v-1q0 -7 4.5 -51t4.5 -61q0 -14 -3 -17
q13 9 26.5 24t21 25t22.5 32t19 28q160 241 371 665q9 17 29 17q15 0 27 -10t13 -25z" />
    <glyph glyph-name="afii10027" unicode="&#x419;" horiz-adv-x="727" 
d="M651 1183q13 10 26 10q17 0 30.5 -13t13.5 -29q0 -14 -12 -25q-20 -17 -69 -62.5t-81.5 -73t-81.5 -52t-93 -24.5q-23 0 -44 6q-94 26 -94 147q0 66 27.5 134t66.5 99q13 10 26 10q17 0 30.5 -12.5t13.5 -28.5q0 -17 -13 -26q-28 -22 -47 -71t-19 -95q0 -36 13.5 -58.5
t41.5 -22.5q24 0 51 15q37 20 70 46t81 69.5t63 56.5zM626 706q-17 -134 -17 -235q0 -222 65 -442q2 -8 2 -13q0 -16 -13 -26.5t-29 -10.5q-29 0 -37 28q-57 190 -66 392q-52 -123 -117 -229q-23 -39 -40 -64t-45.5 -58.5t-60 -51t-64.5 -17.5q-31 0 -60 15q-74 38 -74 197
q0 33 9 132q4 40 27.5 170t23.5 197v11q-95 -77 -100 -147q-1 -18 -13.5 -28t-29.5 -10q-15 0 -26 9.5t-11 25.5v3q6 72 63.5 143t127.5 114q7 5 19 5q14 0 25.5 -8t14.5 -22q9 -42 9 -99q0 -77 -29 -235t-29 -236q0 -45 3 -66q10 -83 47 -83q28 0 71 49t70 93t49 85
q114 222 155 422q1 7 7.5 49t10.5 64q6 30 39 30q16 0 28 -9t12 -24l-1 -2q-1 -2 -1 -3v-7q0 -7 -1 -8q-11 -83 -14 -100z" />
    <glyph glyph-name="afii10028" unicode="&#x41a;" horiz-adv-x="798" 
d="M706 21q9 6 17 6q14 0 23.5 -11t9.5 -26q0 -19 -16 -29q-47 -32 -99 -32q-45 0 -84 28t-66 80q-10 20 -28 72.5t-36.5 103.5t-42 102t-54 82.5t-63.5 31.5q-18 0 -33 -8q-108 -170 -120 -322v-78q0 -16 -9.5 -25t-23.5 -9q-13 0 -23.5 9.5t-11.5 24.5q0 6 -1 16.5
t-1 15.5q0 18 2 46q0 104 4 338t4 357q0 16 11 24.5t25 8.5t25 -9t11 -25q0 -71 -3 -214.5t-4 -215.5l12 26q-5 7 -5 20q0 14 8 22q17 18 40 36q101 172 270 329q124 114 193 114q29 0 49 -16q43 -32 43 -85q0 -40 -23 -95q-9 -23 -35 -23q-14 0 -24 7.5t-10 21.5q0 1 3 13
q19 52 19 76q0 30 -23 30q-16 0 -50 -19q-58 -36 -93 -71q-48 -48 -154 -180l-52 -69q54 -7 100 -54t72 -119q6 -16 20 -66t27.5 -88.5t33 -81.5t46.5 -67t58 -24q28 0 62 21z" />
    <glyph glyph-name="afii10029" unicode="&#x41b;" horiz-adv-x="611" 
d="M579 49q8 -7 8 -16q0 -16 -19.5 -31t-40.5 -15q-14 0 -22 7q-110 93 -117 345q-1 42 -1.5 148.5t-3.5 164.5q-4 -16 -35 -149t-55 -196q-18 -47 -36.5 -84.5t-47.5 -82t-69.5 -77t-88.5 -48.5q-26 -8 -46 -8q-62 0 -103.5 52t-41.5 114q0 83 71 106q8 2 13 2
q14 0 22.5 -9t8.5 -21q0 -21 -25 -30q-23 -7 -23 -39q0 -31 20 -62.5t51 -40.5q10 -3 19 -3q13 0 26.5 5.5t24.5 13t22.5 20.5t20.5 24.5t19 29t16.5 29t14.5 29t11 25l9 22.5l6 14q37 86 82.5 269t85.5 273q9 19 44 19q22 0 40.5 -8t20.5 -22q23 -159 25 -452
q0 -5 0.5 -31.5t0.5 -34.5t1.5 -33t3.5 -35.5t5.5 -33t8 -34t11.5 -30.5t16 -32t21 -27.5t26 -26.5z" />
    <glyph glyph-name="afii10030" unicode="&#x41c;" horiz-adv-x="882" 
d="M813 29q26 -6 26 -30q0 -15 -10.5 -27.5t-25.5 -12.5q-1 0 -4 0.5t-5 0.5q-164 35 -164 277q0 32 1 49q-94 -212 -194 -212q-33 0 -63 20q-89 58 -98 277q-53 -204 -157 -331q-80 -100 -136 -100q-40 0 -77 41q-37 40 -37 108q0 61 31 127q8 18 27 18q14 0 25 -10t11 -25
v-22q0 -19 -14 -28q-8 -34 -8 -53v-9q39 -56 69 -56q21 0 39 32q52 62 72 96q52 96 82 207q19 70 48 212.5t49 212.5q6 26 31 26q15 0 26.5 -10.5t11.5 -26.5v-7q-36 -203 -36 -323q0 -162 53 -256q23 -38 47 -38q66 0 153 213q97 224 115 422q1 15 12 25t24 10
q14 0 24 -9.5t10 -25.5v-7q0 -41 -35.5 -236t-35.5 -297q0 -197 113 -222z" />
    <glyph glyph-name="afii10031" unicode="&#x41d;" horiz-adv-x="540" 
d="M449 424v-13q0 -194 52 -375q2 -6 2 -9q0 -15 -15 -24.5t-32 -9.5q-29 0 -35 23q-54 181 -54 398v13q-8 0 -23 1t-23 1q-78 0 -168 -16q0 -12 1 -19v-63.5t0.5 -70t1.5 -64.5t3 -71t5.5 -65t9 -69.5t13 -62t17.5 -64.5q2 -6 2 -8q0 -12 -11.5 -19.5t-28.5 -7.5
q-40 0 -49 27q-50 149 -50 430v113q0 -1 -6 -2q-26 -6 -47 -13.5t-41 -19.5t-31.5 -19.5t-36 -26t-36.5 -27.5q-11 -7 -19 -7q-14 0 -23.5 12t-9.5 27q0 17 14 27q5 4 25 18.5t26 18.5t23.5 16t25 17t23 14.5t26 14t25 11t28 11t28.5 8.5v40q0 280 65 468q9 20 31 20
q18 0 32.5 -11.5t14.5 -26.5q0 -7 -1 -10q-52 -147 -52 -365v-95q72 12 166 12q9 0 26 -0.5t26 -0.5q4 95 30 284q2 15 14.5 25.5t27.5 10.5q16 0 27 -10.5t11 -30.5v-10q-27 -244 -29 -288q29 -6 29 -35q0 -13 -8 -22.5t-22 -9.5z" />
    <glyph glyph-name="afii10032" unicode="&#x41e;" horiz-adv-x="762" 
d="M501 161q122 159 122 318q0 14 -2 42q-19 174 -138 210q-73 20 -109 20q-75 0 -148 -60q-20 -16 -36 -47q-59 -119 -59 -238q0 -87 35 -187q22 -66 71 -105.5t109 -39.5q88 0 155 87zM481 823q139 -43 198 -182q28 -68 28 -150q0 -105 -41.5 -215t-104.5 -185
q-43 -52 -102.5 -79.5t-121.5 -27.5q-66 0 -123 32.5t-94 97.5q-64 113 -64 277q0 97 26.5 187t76.5 153q14 20 34 38q79 70 186 70q53 0 102 -16z" />
    <glyph glyph-name="afii10033" unicode="&#x41f;" horiz-adv-x="628" 
d="M929 867q12 0 20 -7.5t10 -18.5q2 -4 2 -12q0 -15 -8.5 -27t-24.5 -16q-158 -43 -270 -43q-38 0 -70 4q-11 1 -19 3t-16 3q-9 -19 -18 -60.5t-10 -57.5q-1 -9 -8 -46.5t-10 -62t-4 -47.5q-2 -52 -2 -80q1 -78 7.5 -141t15 -98t17 -57.5t14.5 -32.5l6 -10q1 -7 1 -12
t-0.5 -8.5t-2 -5.5t-2.5 -3t-2 -1.5l-1 -0.5q-19 -12 -48 -12h-7q-18 2 -23 12q-62 108 -62 310q0 89 13 192q11 89 25 147.5t23 71.5l8 14q-151 34 -229 39h-44q-2 0 -7.5 1.5t-9 1.5t-5.5 -3q-7 -9 -17.5 -32t-26 -65t-26.5 -108.5t-12 -140.5v-25q0 -220 54 -384
q1 -3 1 -7q0 -11 -11 -19t-29 -10q-5 -1 -10 -1q-39 0 -50 37q-11 36 -27 169q-11 80 -11 175q0 21 1 42q1 35 3.5 68.5t6 60.5t8 53t9.5 45.5t11 38t10.5 31t10 25t8.5 19t7 13t4 7.5q-234 -22 -281 -178q-5 -14 -39 -14h-5q-20 4 -20 22v6q42 206 350 236q14 2 44 2
q13 0 34.5 -0.5t27.5 -0.5q93 0 303 -35q72 -12 144 -12q133 0 256 43q8 3 13 3z" />
    <glyph glyph-name="afii10034" unicode="&#x420;" horiz-adv-x="622" 
d="M673 768q6 -18 6 -39q0 -40 -21 -80t-53 -72q-20 -21 -41.5 -40t-47.5 -39t-44.5 -34t-50 -34.5t-47 -30.5t-52 -31.5t-48 -28t-53 -30.5t-49.5 -28q0 -12 0.5 -36.5t1.5 -36.5q1 -7 1 -22q0 -34 -6 -97t-7 -74q-1 -19 -13 -29t-28 -10q-19 0 -38.5 10t-19.5 26
q0 12 9 24q16 25 16 78q0 16 1.5 40.5t1.5 34.5v9v24q-10 -6 -25.5 -10t-25.5 -10q-10 -7 -20 -7q-15 0 -25 12.5t-10 28.5q0 24 23 36q15 7 41.5 30t41.5 30v44v20q0 13 -0.5 39t-0.5 39q0 68 20 153q48 199 101 199q15 0 30 -16q7 -8 7 -19q0 -12 -8 -21.5t-19 -11.5
q-3 -4 -4 -10q-8 -17 -12 -34q-11 -36 -17 -68q-10 -48 -14 -161q-2 -84 -2 -126q128 75 275 182q2 2 28.5 21t35.5 26t30.5 26t31 31.5t19 31t11.5 35.5v9q0 65 -97 104q-111 44 -237 44q-96 0 -196 -28q-243 -68 -243 -161q0 -11 6 -23q4 -5 4 -12q0 -13 -11.5 -23.5
t-24.5 -10.5t-21 11q-20 29 -20 53v14q8 112 203 188q166 64 324 64q134 0 242 -47q115 -49 141 -126zM214 759q-7 0 -14 5q6 -5 12 -5h2z" />
    <glyph glyph-name="afii10035" unicode="&#x421;" horiz-adv-x="721" 
d="M530 498q-5 -1 -10 -1q-14 0 -22 8.5t-8 20.5q0 11 7.5 20.5t21.5 12.5q56 12 101.5 59t45.5 98q0 23 -11 44q-36 65 -110.5 65t-154.5 -58q-101 -72 -163 -182t-76 -231q-3 -23 -3 -47q0 -42 8 -83t26.5 -80.5t45.5 -69.5t69 -49.5t93 -22.5h16q75 0 158.5 31t131.5 78
q16 16 35 16q14 0 24.5 -9.5t10.5 -22.5q0 -15 -13 -29q-62 -68 -161.5 -103t-198.5 -35q-79 0 -132 21q-59 24 -101.5 63t-65.5 87.5t-33 97.5t-10 103q0 76 18 153q39 168 182 308q50 49 142 92t169 43q26 0 47 -5q71 -19 106 -60.5t35 -95.5q0 -77 -63.5 -148t-156.5 -89
z" />
    <glyph glyph-name="afii10036" unicode="&#x422;" horiz-adv-x="800" 
d="M1086 912q9 6 18 6q15 0 24.5 -11.5t9.5 -27.5q0 -24 -22 -34q-217 -104 -410 -122q-1 0 -2 -1q-26 -39 -45.5 -141.5t-20.5 -143.5q-2 -40 -2 -61q0 -62 17 -162q3 -24 15.5 -71.5t23.5 -65.5q1 0 1 -1q5 -4 8 -8t6 -11.5t4 -9.5q-1 -16 -10.5 -28.5t-24.5 -12.5h-6
q-8 0 -21.5 9.5t-18.5 19.5q-40 71 -52.5 147.5t-12.5 181.5q0 11 -0.5 33.5t-0.5 33.5q0 39 3 67q16 147 47 216q0 2 -1 3h-1q-6 0 -17 1t-17 1q-25 0 -38 1q-26 0 -76 4h-1q-5 -1 -9 -4t-6.5 -6.5t-3.5 -4.5l-1 -1q-3 -6 -5 -11q-1 -5 -8 -23q-2 -8 -7 -26t-8 -26
q-22 -81 -25 -111q-6 -51 -6 -102q0 -55 7 -128q14 -130 34 -192q0 -1 1 -1q8 -11 8 -29q0 -14 -13 -23t-30 -9q-10 0 -21.5 10.5t-14.5 24.5v1q-29 69 -36 147q-9 97 -10 123q-2 52 -2 80q0 102 18 167q1 3 6.5 26.5t10 40t13.5 40.5t19 41q0 2 -1 3h-1q-44 6 -121 24
q-70 14 -82 18q-3 0 -3 -2q-2 -11 -9 -34.5t-10 -36.5q-11 -53 -16 -150q-3 -56 -3 -100q0 -64 5 -121q6 -69 34 -224q1 -3 0 -16t-1 -14q0 -16 -14 -26.5t-31 -10.5q-12 0 -26 11.5t-16 24.5q-2 36 -12 122.5t-12 116.5q-4 78 -4 117q0 22 2 66q7 142 18 192q3 16 13.5 53
t14.5 58q0 2 -1 2q-59 17 -107 17h-9h-1q-20 0 -20 22q0 25 21 28q20 5 49 5q23 0 51.5 -4.5t45 -8.5t52.5 -14t46 -13q127 -34 278 -37q17 -1 49 -1q330 0 533 117z" />
    <glyph glyph-name="afii10037" unicode="&#x423;" horiz-adv-x="599" 
d="M653 846q7 -9 7 -31q0 -35 -26 -90q-22 -49 -68 -102q-11 -180 -25 -243q-50 -224 -181 -336q-42 -35 -99.5 -59.5t-111.5 -24.5q-61 0 -102 34q-49 42 -49 94q0 72 83 130q15 10 25 10q15 0 25.5 -11.5t10.5 -25.5q0 -21 -23 -33q-43 -23 -43 -56q0 -24 23 -43t57 -19
l3 1q1 0 3 -1q103 6 175 84q75 80 109 183.5t44 234.5q-76 -68 -81 -73q-92 -85 -150 -85q-34 0 -53 30q-34 51 -34 165v33q0 33 -1 49q0 5 -1 24.5t-2.5 31.5t-4.5 28.5t-8.5 28.5t-14.5 20q-12 12 -30 12q-34 0 -70 -44t-46 -78q-6 -20 -25 -20q-29 0 -29 23v9l1 2l1 2
q15 60 65.5 111t110.5 51q24 0 44 -8q12 -5 22.5 -13t18 -21t13 -23t9 -28.5t6 -28t4 -31t2 -27.5t1 -28t0.5 -23q1 -9 1 -27v-17q0 -60 5 -89q8 -44 36 -44t81 49q28 26 122 120l14 13q7 79 20 133q17 73 45 99q17 14 34 14q34 0 57 -36z" />
    <glyph glyph-name="afii10038" unicode="&#x424;" horiz-adv-x="662" 
d="M254 -6l12 57q-77 18 -131 73t-78 126.5t-24 152.5q0 38 6 77q7 45 17 87.5t29.5 93t45 87t64.5 61.5t86 25h3q11 16 29 16q17 0 26 -19v-1q134 -19 207 -122t73 -251v-6q0 -48 -12 -102t-36.5 -107.5t-57.5 -97t-80.5 -71.5t-101.5 -29q-7 -46 -12 -67q-6 -24 -30 -24
q-14 0 -25 9.5t-11 23.5q0 2 0.5 4t0.5 4zM551 451q-20 266 -190 308q6 -35 6 -72q0 -38 -8 -111t-8 -107q-1 -37 -1.5 -111t-2 -133t-6.5 -111q61 6 111 62t74.5 126.5t24.5 131.5v17zM111 514q-10 -53 -10 -114q0 -224 173 -277q6 63 6.5 181t2.5 165q1 24 9.5 97t8.5 113
q0 48 -10 87h-5q-38 0 -70.5 -26.5t-53 -68t-33 -80.5t-18.5 -77z" />
    <glyph glyph-name="afii10039" unicode="&#x425;" horiz-adv-x="822" 
d="M971 873q12 -9 12 -24q0 -7 -2 -14q-11 -24 -34 -24q-9 0 -17 5q-25 15 -56 15q-74 0 -191 -107q-108 -100 -225 -228q-1 0 3 -8q5 -9 36.5 -75.5t53.5 -109t60.5 -99.5t72.5 -88q49 -43 94 -43q54 0 107 64q5 5 10 9q9 6 20 6q20 0 34 -17q10 -13 10 -28q0 -22 -21 -35
q-4 -2 -10 -6q-36 -23 -56 -34.5t-52.5 -23t-61.5 -11.5q-46 0 -89 28q-32 20 -59.5 47t-51 62t-39 62.5t-36.5 67.5q-15 31 -43 89.5t-38 79.5q-20 -23 -66.5 -79.5t-81 -96t-69.5 -75.5q-55 -55 -136 -123q-11 -9 -44 -35.5t-54 -46t-37 -39.5q-5 -6 -10 -9q-9 -7 -20 -7
q-19 0 -33 18q-10 12 -10 27q0 21 20 35q28 18 56.5 42t68 60.5t53.5 49.5q94 83 160 164q85 103 162 190q-17 29 -32 52q-35 51 -79.5 95.5t-91.5 67.5q-43 22 -78 22q-24 0 -45 -10q-25 -11 -46 -26.5t-21 -29.5l0.5 -4t0.5 -6q0 -15 -9.5 -25t-23.5 -12h-4q-25 0 -33 25
q-5 13 -5 26q0 37 28.5 66t65.5 47q49 25 102 25q56 0 106 -29q126 -72 221 -224q44 48 86 88q11 12 43.5 46t55 56t59 53.5t66.5 51t67.5 33.5t71.5 14q57 0 105 -37z" />
    <glyph glyph-name="afii10040" unicode="&#x426;" horiz-adv-x="660" 
d="M723 -71q-4 -9 -17 -43t-17.5 -46t-15 -40.5t-15.5 -46t-11 -42.5t-11 -48q-21 -118 -21 -193q0 -35 4 -68q10 -81 28.5 -144.5t58.5 -104.5q9 -10 9 -21q0 -16 -13.5 -28t-29.5 -12q-19 0 -29 19q-7 14 -24 45.5t-26 49t-19.5 45t-15.5 52.5q-19 84 -19 168q0 24 2 49
q6 101 38 227q9 39 37 106.5t38 96.5q6 20 6 37q0 63 -94 63q-61 0 -178 -32q-30 -8 -102.5 -21.5t-125 -29.5t-92.5 -44q-8 -5 -15 -5q-11 0 -18 9.5t-7 20.5q0 14 9 22q22 20 51 36v18q0 32 -7.5 96.5t-7.5 96.5q0 59 5 202q1 24 1 55q0 16 -0.5 49.5t-0.5 50.5
q0 143 24 226q6 22 29 22q11 0 20 -6.5t12 -17.5q3 -7 4 -14q2 -11 -4 -20q-3 -67 -6.5 -193t-4.5 -154q-4 -137 -4 -183v-10.5v-11.5q0 -13 -1 -45t-1 -50q0 -50 7 -82q45 16 132 34t106 23q53 14 72 18q-1 16 -5.5 47.5t-7 56.5t-2.5 48q0 3 1 6q1 88 13 179
q6 46 22.5 169t25.5 190q1 11 11 19.5t22 8.5q11 0 19 -9l6 -8q6 -6 6 -15t-5 -18v-8q0 -36 -3.5 -79t-7 -71.5t-10.5 -81.5t-10 -74q-1 -10 -5 -39.5t-6 -46t-4.5 -42t-3.5 -48t-1 -43.5q0 -74 16 -128q23 2 44 2q81 0 122 -41q35 -36 35 -90q0 -32 -12 -65z" />
    <glyph glyph-name="afii10041" unicode="&#x427;" horiz-adv-x="515" 
d="M401 826q8 15 30 15q18 0 34 -10.5t16 -24.5q0 -9 -1 -12q-28 -62 -37.5 -98.5t-19.5 -116.5q0 -3 -3 -36t-3 -37v-2q4 0 10 5t9 5q8 0 13 -6.5t5 -16.5q0 -14 -11 -25q-5 -5 -13 -14t-15 -16t-16 -13q-1 -12 -8 -55t-7 -54q0 -4 -3 -28.5t-5 -54.5t-2 -57
q0 -121 39 -121q6 0 7 1h7q12 0 19 -11t7 -26q0 -31 -23 -37q-13 -4 -27 -4q-102 0 -102 225q0 82 10 162q-50 -19 -97 -19q-51 0 -97 22q-87 45 -87 181q0 43 10.5 123t10.5 110q1 14 12 21.5t26 7.5q34 0 34 -28q0 -21 -8.5 -93t-8.5 -111q0 -113 57 -143q28 -14 58 -14
q46 0 100 33q18 120 43 232t37 141z" />
    <glyph glyph-name="afii10042" unicode="&#x428;" horiz-adv-x="810" 
d="M914 39q30 -6 30 -36q0 -21 -14.5 -38.5t-35.5 -17.5q-12 0 -25 7q-32 19 -74 35q-13 -7 -25 -7q-23 0 -33 24l-1 1q-96 25 -205 25q-32 0 -62 -3q-16 -23 -47 -23q-20 0 -29 14q-1 -1 -4 -1.5t-5 -0.5q-6 -1 -52.5 -10t-68 -14t-57 -16t-59.5 -23q-11 -21 -39 -25
q0 -1 -1.5 -2t-2.5 -2q-9 -8 -23 -8q-13 0 -22.5 7.5t-9.5 19.5q0 3 1 6q3 13 10 25q4 32 4 75q0 24 -2 74t-2 74q0 12 1 23q4 126 14 228q26 257 84 432q8 24 36 24q14 0 23 -7t9 -20q0 -3 -1 -7q-50 -215 -67 -424q-9 -119 -12 -228q0 -17 -2.5 -66t-2.5 -76q0 -21 1 -39
q16 8 35 14.5t35 11t38 10t33 8t32.5 6.5t25.5 5q16 4 35 7q-17 82 -18 114v11q0 67 16 158q4 23 15.5 89t17 99t12 85.5t7.5 96.5h1q2 15 15 25t27 10q27 0 29 -28q2 -25 2 -53q0 -22 -1.5 -46.5t-3.5 -43.5t-6.5 -48t-7 -43t-8 -47t-7.5 -44q-22 -126 -24 -187
q-2 -49 -2 -56q0 -51 9 -82q42 4 82 4q59 0 114 -8q21 -4 51 -11q-30 73 -35 135q-5 48 -5 99q0 73 10 151q4 38 8 62t11 63t17 67t24 59t34.5 55t46.5 40q8 5 16 5q13 0 22 -11t9 -24q0 -15 -12 -25q-19 -14 -34 -35.5t-25 -53.5t-16.5 -55.5t-11.5 -64t-6.5 -55
t-4.5 -52.5q-8 -91 -8 -143q0 -171 67 -246q69 -21 110 -28z" />
    <glyph glyph-name="afii10043" unicode="&#x429;" horiz-adv-x="1001" 
d="M1017 -76q18 -8 18 -27q0 -18 -14 -34t-31 -16q-12 0 -21 8q-46 38 -115 64q-8 -2 -11 -2q-18 0 -24 13q-92 28 -226 37q4 -84 4 -127q0 -27 -2 -79q-5 -88 -29 -249t-30 -231q-1 -18 -14.5 -27.5t-29.5 -9.5q-15 0 -26 8t-11 22q0 6 1 9q63 270 63 551v9q0 58 -5 128
q-68 5 -124 5q-93 0 -160 -18q1 -3 1 -8q0 -16 -14 -27.5t-31 -11.5q-21 0 -30 18q-20 -11 -39 -24q-10 -7 -22 -7q-13 0 -23 9t-10 21q0 14 13 26q27 26 66 46q-6 25 -20.5 80.5t-23.5 98t-13 83.5q-9 78 -9 158q0 93 14 158q4 21 9 44t16.5 63.5t24.5 70t32 52.5t40 23
q13 0 27 -9q13 -9 13 -23q0 -12 -8.5 -22.5t-21.5 -11.5q5 0 2 -3q-2 -2 -3 -3.5t-2.5 -4t-3.5 -5.5q-11 -25 -17 -39q-18 -48 -22 -70q-23 -114 -24 -189v-27q0 -117 20 -237q2 -11 6.5 -38t7 -42.5t7.5 -38.5t11 -41q82 27 206 27q38 0 98 -3q-3 25 -9 82.5t-9 90t-6.5 80
t-4.5 87.5v72q0 136 16 231q4 23 6.5 35t8 35t12.5 37t17.5 30t25 26t32.5 14q4 1 7 1q12 0 19 -8.5t7 -19.5q0 -18 -17 -26q-15 -6 -26 -24.5t-16.5 -38.5t-9.5 -52t-4.5 -50.5t-1 -49.5t-0.5 -35q-2 -33 -2 -68q0 -127 17 -276q13 -120 18 -177q126 -7 207 -28q5 -1 20 -6
q-4 118 -4 186q0 112 9 203q12 126 36 217q7 27 35.5 88.5t33.5 98.5q1 13 10.5 20.5t20.5 7.5t19 -7.5t8 -21.5q0 -41 -25.5 -107.5t-30.5 -89.5q-22 -106 -30 -208q-4 -48 -6.5 -105.5t-3.5 -97.5t-2.5 -108.5t-2.5 -99.5q25 -11 69.5 -33t66.5 -32z" />
    <glyph glyph-name="afii10044" unicode="&#x42a;" horiz-adv-x="871" 
d="M91 613q-4 -19 -25 -19q-12 0 -20.5 6.5t-8.5 17.5v2q3 30 3 60q0 46 -8 94v6q0 13 6 23t18 12q33 5 78 5q20 0 60.5 -1.5t60.5 -1.5q122 0 190 46q9 8 27 20q8 5 17 5q14 0 25 -11.5t11 -25.5q0 -13 -11 -22q-10 -8 -16 -12q-68 -54 -119 -149t-75.5 -195t-24.5 -192
v-16q1 -37 3 -57.5t10 -52.5t23 -53q46 -67 123 -67q45 0 91 23.5t78 61.5q36 41 67.5 97t31.5 104q0 60 -60 86q-35 15 -72 15q-80 0 -179 -74q-9 -7 -19 -7q-14 0 -24 12.5t-10 27.5q0 19 16 30q56 36 119.5 58t120.5 22q77 0 126 -45.5t53 -145.5v-7q0 -53 -30 -113.5
t-76.5 -110t-107 -82.5t-116.5 -33q-20 0 -38 4q-74 17 -123 64t-69 109.5t-20 141.5q0 118 42.5 248.5t110.5 231.5q-24 -3 -48 -3h-17q-3 0 -21 2t-40.5 3.5t-41.5 1.5q-77 0 -78 -28q-2 -59 -13 -116z" />
    <glyph glyph-name="afii10045" unicode="&#x42b;" horiz-adv-x="808" 
d="M178 827q5 19 23 19q11 0 20 -7.5t9 -19.5q0 -3 -1 -6q-9 -46 -49.5 -207.5t-48.5 -252.5q-1 -12 -1 -27q0 -41 7 -86.5t21.5 -92.5t42.5 -77.5t64 -30.5q29 0 62 19q48 27 74 81t26 112q0 62 -28.5 104t-79.5 42q-44 0 -97 -33q-10 -6 -19 -6q-14 0 -23.5 11.5
t-9.5 25.5q0 24 24 34q89 36 155 36q124 0 149 -128q6 -34 6 -70q0 -77 -28.5 -146t-83.5 -108q-46 -33 -105 -33q-72 0 -133.5 47t-79.5 118q-16 65 -16 139q0 82 18 170t54.5 209t47.5 164zM709 787q7 18 25 18q11 0 19 -7t8 -18q0 -3 -1 -7q-5 -22 -21 -87.5t-23 -94.5
t-19 -87t-17.5 -96t-10 -87.5t-4.5 -94.5q0 -112 26 -210q1 -5 1 -11q0 -15 -12.5 -25.5t-27.5 -10.5q-28 0 -33 27q-21 109 -21 222q0 256 111 569z" />
    <glyph glyph-name="afii10046" unicode="&#x42c;" horiz-adv-x="485" 
d="M361 206q2 14 2 18q0 60 -46.5 100t-106.5 40q-61 0 -99 -38v-22q0 -113 22 -190q24 -80 77 -80q46 0 94.5 57.5t56.5 114.5zM114 411q45 23 103 23q63 0 116.5 -29.5t77.5 -84.5q19 -42 19 -93q0 -71 -35 -137t-95 -101q-41 -26 -86 -26q-66 0 -110 59.5t-50 141.5
q-8 112 -8 250q0 16 0.5 34.5t1.5 41t1 34.5q3 59 27.5 162t29.5 143q4 25 28 25q15 0 27.5 -11t12.5 -27v-6q-3 -22 -30.5 -158.5t-29.5 -212.5v-28z" />
    <glyph glyph-name="afii10047" unicode="&#x42d;" horiz-adv-x="761" 
d="M190 335q-6 -3 -13 -3q-10 0 -17.5 8t-7.5 18q0 13 12 20q7 4 44.5 30t63 37.5t52.5 11.5q6 0 11 -1q64 -7 137 -36q6 -2 26.5 -11t33 -14t31 -9.5t32.5 -4.5h5q4 28 4 44v26q0 41 -5.5 79.5t-18.5 78t-39 70.5t-62 46q-40 17 -85 17q-76 0 -146 -44t-104 -112
q-6 -13 -21 -13q-10 0 -18.5 7.5t-8.5 17.5q0 4 1 8q30 83 117 145.5t180 62.5q43 0 81 -16q96 -40 147.5 -129.5t51.5 -198.5q0 -22 -2 -45q-2 -24 -4 -37q19 -12 19 -35q0 -27 -27 -32q-4 0 -6 -1q-54 -214 -239 -300q-66 -31 -136 -31q-69 0 -131 30.5t-107 86.5
q-9 11 -9 24q0 14 10.5 24t24.5 10q17 0 28 -16q31 -44 79.5 -66t103.5 -22q91 0 163 52q106 77 145 206q-19 2 -41 7.5t-34 9.5t-42.5 15.5t-39.5 14.5q-53 19 -90 19q-39 0 -83 -20q-12 -6 -34.5 -15.5t-31.5 -13.5z" />
    <glyph glyph-name="afii10048" unicode="&#x42e;" horiz-adv-x="812" 
d="M460 726q86 64 160 64q64 0 113 -49q91 -95 91 -258q0 -82 -24.5 -165.5t-65.5 -146.5q-41 -64 -110 -114.5t-133 -50.5q-85 0 -128 97q-42 93 -52 208q-76 -37 -118 -74q-53 -49 -62 -108q-2 -32 -2 -50q1 -35 11 -85v-5q0 -17 -11 -28t-26 -11q-23 0 -32 26
q-8 28 -10 57q-1 9 -6.5 39t-8.5 52.5t-3 41.5q0 16 6 38q-5 42 -8 104t-8 103q-7 69 -7 179q0 103 7 241q1 15 12.5 23.5t27.5 8.5q17 0 30.5 -10t13.5 -26q0 -44 -5.5 -111.5t-5.5 -98.5q0 -55 5 -101q3 -32 7.5 -121.5t7.5 -121.5q60 60 184 116q1 82 23 165q-3 4 -3 15
t4 18q8 13 15 22q3 9 5.5 15.5t6 12t5 8.5t6.5 8.5t7.5 7.5t10 9t11.5 11q27 24 59 45zM663 210q87 156 87 284q0 93 -44 152q-39 54 -99 54q-52 0 -103.5 -44t-77.5 -102q-43 -105 -43 -213q0 -65 16 -125q28 -109 87 -120q14 -2 23 -2q48 0 87.5 33.5t66.5 82.5z" />
    <glyph glyph-name="afii10049" unicode="&#x42f;" horiz-adv-x="552" 
d="M606 127q9 6 17 6q14 0 22.5 -10.5t8.5 -25.5q0 -18 -15 -28q-68 -43 -125 -43q-74 0 -110 80q-20 45 -27 121q-37 -91 -84 -146q-35 -43 -84 -74t-98 -31q-16 0 -34 5q-26 7 -46 28.5t-28 39t-20.5 55.5t-16.5 47q-2 8 -2 13q0 14 9.5 21.5t23.5 7.5q25 0 34 -23
q1 -3 12.5 -42.5t25 -61.5t34.5 -22q1 0 2 1t2 1q92 11 147 95q73 115 96 268q-89 -56 -147 -56q-50 0 -90 36q-50 46 -50 117q0 58 34 140q58 153 193 168h10q29 0 52.5 -17t38.5 -45.5t24 -54.5t15 -53q9 -46 9 -103q0 -75 -13 -147q4 -22 7 -65.5t6 -62.5q4 -38 9 -63.5
t14 -51.5t25 -39t39 -13q34 0 80 28zM127 499q12 -83 70 -83q13 0 29 4.5t29.5 10t30.5 15.5t26 16.5t24 16.5l18 12q0 1 3 2t4 1q5 45 5 83v17q-2 54 -13 83q-13 57 -62 57q-32 0 -75 -23q-35 -41 -62.5 -96t-27.5 -101q0 -3 0.5 -7.5t0.5 -7.5z" />
    <glyph glyph-name="afii10065" unicode="&#x430;" horiz-adv-x="536" 
d="M140 126q23 -33 60 -33q33 0 68 22t46 39q-20 62 -83 62q-36 0 -65 -21.5t-29 -50.5q0 -12 3 -18zM559 29q28 -4 28 -30q0 -17 -12.5 -31.5t-31.5 -14.5h-6q-3 0 -19.5 2.5t-22 3.5t-19 4t-21 6.5t-17.5 9t-17 12.5q-12 11 -33.5 40t-34.5 40q-3 3 -10 3q-12 0 -39 -18
t-33 -20q-52 -21 -98 -22h-3q-48 0 -82 44t-34 96q0 24 9 45q21 44 67 67.5t99 23.5q15 0 24 -1q31 -3 71 -25q-2 56 -13 92q-8 26 -34 42t-57 16q-32 0 -54 -18q-13 -10 -27 -10q-17 0 -30 12.5t-13 27.5t13 25q49 40 118 40q49 0 90 -23t62 -67q28 -63 28 -160
q0 -49 -7 -108q11 -9 29 -29q27 -37 56 -53.5t74 -21.5z" />
    <glyph glyph-name="afii10066" unicode="&#x431;" horiz-adv-x="578" 
d="M344 721q-80 -77 -137 -184.5t-57 -211.5v-2v-6q0 -46 19 -92q21 -52 62 -88t82 -36q68 0 90 99q12 63 12 77q0 22 -10 50l-2 2q-31 11 -43 11q-39 0 -53 -45q-1 0 -1 -1q0 -19 -12 -29.5t-30 -10.5t-30 11t-12 31q0 63 40.5 100.5t94.5 37.5q47 0 85 -30t50 -86
q3 -15 3 -47q0 -96 -55 -179t-135 -83q-38 0 -75 20q-157 81 -157 287q0 188 94 321q133 185 293 257q20 8 72 28t76 30.5t66 33.5t65 44.5t47 55.5t37 75q11 28 37 28q18 0 37.5 -15t19.5 -33q0 -2 -1.5 -7.5t-1.5 -7.5h-1q-24 -76 -73.5 -128t-112.5 -82.5t-127 -54
t-135.5 -59t-120.5 -81.5z" />
    <glyph glyph-name="afii10067" unicode="&#x432;" horiz-adv-x="571" 
d="M505 217q0 -132 -63 -179q-48 -38 -102 -38q-66 0 -131 50.5t-104 121t-44 134.5q-1 11 -1 34q0 73 20 150t57 145.5t99.5 112t138.5 43.5q3 0 10 -0.5t10 -0.5q52 -4 80.5 -47t28.5 -98q0 -23 -4 -40q-18 -75 -78 -148q37 -29 60 -97.5t23 -142.5zM342 83
q41 0 64.5 33.5t23.5 83.5q0 48 -18 120.5t-34 72.5q-1 0 -3 -2q-13 -9 -25 -10q-52 -47 -129 -100q-9 -8 -22 -8q-16 0 -27.5 13.5t-11.5 30.5q0 21 19 34q180 126 232 231q15 30 15 61t-17.5 55.5t-44.5 24.5q-28 0 -67 -26q-70 -43 -110.5 -133.5t-43.5 -183.5v-17
q0 -59 16 -113.5t55 -100t96 -61.5q18 -5 32 -5z" />
    <glyph glyph-name="afii10068" unicode="&#x433;" horiz-adv-x="509" 
d="M388 106q10 7 24 7q18 0 31 -14t13 -32q0 -22 -18 -34q-47 -32 -108 -32q-66 0 -114 38t-48 102q0 29 7 49q12 38 57.5 114t55.5 120q1 7 1 20q0 67 -103 67q-50 0 -110 -13.5t-94 -28.5q-6 -3 -17 -3q-17 0 -28 13t-11 31q0 31 27 41q119 49 235 49q160 0 187 -110
q4 -15 4 -36q0 -67 -54 -153q-3 -6 -18 -28.5t-21 -33.5t-14.5 -30t-11.5 -35q-1 -7 -1 -18q0 -32 20 -51t50 -19q28 0 59 20z" />
    <glyph glyph-name="afii10069" unicode="&#x434;" 
d="M556 85q54 -16 54 -64q0 -40 -46 -124.5t-50 -97.5q-7 -25 -35 -25q-15 0 -26 8.5t-11 21.5q0 8 3 15q9 17 26 47.5t30.5 55.5t22.5 49q14 33 14 35q0 11 -19 14q-35 6 -89 6h-15q-17 0 -49 -0.5t-49 -0.5q-36 0 -54 1q-40 2 -60 2q-33 0 -125 -10q-21 -11 -21 -28v-2
q2 -11 23 -83.5t21 -77.5v-4q0 -20 -22 -20q-7 0 -16 2q-20 5 -50.5 89t-32.5 119v3q0 19 13 33.5t26 18.5l13 4q60 103 141 189q64 66 101 98l10 9l18 16l8 9q-7 36 -34 64.5t-59 37.5q-21 6 -21 25q0 14 11.5 26t27.5 12h6q56 -11 93 -58.5t66 -117.5q5 -13 54 -149
q2 -5 9.5 -35t15.5 -49.5t20 -28.5q3 -5 8 -12t9 -13q0 -1 2 -1q20 -3 38 -9zM356 95q44 2 67 3q-1 6 -1 7l-6 12q-5 14 -14 33t-14 33q-35 106 -40 119q-6 16 -9 25q0 1 -2 1h-1q-41 -23 -113 -108q-59 -67 -95 -129l-1 -1l2 -2q42 9 102 9q17 0 52 -1t53 -1h20z" />
    <glyph glyph-name="afii10070" unicode="&#x435;" horiz-adv-x="529" 
d="M281 434q-32 -2 -63 -25.5t-53 -54.5q-21 -31 -34 -65q19 -6 35 -9q11 -3 35 -3q48 0 84 26.5t46 70.5q1 3 1 10q0 20 -15 36t-35 16zM425 150q13 9 24 9q14 0 23 -11.5t9 -27.5q0 -28 -23 -43q-110 -73 -215 -73q-123 0 -174 112q-21 50 -21 105q0 81 41.5 154.5
t111.5 105.5q45 20 91 20q53 0 88 -26t35 -76q0 -24 -10 -53q-22 -64 -78 -103t-121 -39q-41 0 -87 22v-10q0 -75 52 -103q37 -22 85 -22q81 0 169 59z" />
    <glyph glyph-name="afii10072" unicode="&#x436;" horiz-adv-x="1021" 
d="M1036 515q15 -12 15 -28t-12 -29t-28 -13q-11 0 -19 7q-26 18 -39 23t-41 5q-79 0 -148 -41q-53 -32 -81 -53.5t-60.5 -50.5t-73.5 -60q-4 -3 -11.5 -8t-11.5 -8q52 -54 85.5 -85t82 -67t98 -52.5t104.5 -16.5q53 0 128 34q13 5 22 5q18 0 29 -13.5t11 -31.5
q0 -37 -37 -44q-15 -3 -45 -9.5t-46 -9.5t-41 -6t-49 -3q-56 0 -104 15q-62 20 -108 52t-104 88q-21 21 -65 72q-2 -48 -2 -72q0 -7 -0.5 -22.5t-0.5 -23.5q0 -51 16 -81q6 -9 6 -19q0 -19 -17.5 -33t-37.5 -14q-32 0 -39 35q-6 25 -6 121q0 26 2 90q-106 -82 -195 -157
q-53 -45 -76.5 -62.5t-68.5 -38.5t-94 -27q-3 -1 -9 -1q-20 0 -30.5 11.5t-10.5 28.5q0 20 12 35t33 15q9 0 15 -2q3 -1 10 -1q18 0 44 14.5t43.5 28.5t44.5 38t30 27q110 90 165 134q15 11 43.5 33.5t43.5 33.5q-180 200 -289 200q-51 0 -91 -41q-9 -9 -21 -9
q-13 0 -23.5 9.5t-10.5 21.5q0 9 8 19q59 70 139 70q132 0 302 -177q32 303 111 303q9 0 17 -4q21 -8 21 -31q0 -27 -25 -33q0 -1 -1 -2q-5 -14 -8 -25q-12 -43 -17 -74q-12 -69 -22 -158q22 16 61 52t69 55q13 7 42.5 25.5t36.5 22.5t26.5 15t31 14.5t30.5 9t42 10.5
q24 5 55 5h6.5h7.5q43 0 70 -8.5t60 -32.5z" />
    <glyph glyph-name="afii10073" unicode="&#x437;" horiz-adv-x="627" 
d="M333 -492q-30 -9 -57 -9q-85 0 -158.5 64t-101.5 150q-14 42 -14 83q0 86 60 142t163 74q1 0 4 1l3 1h7q18 0 28 -13t10 -29q0 -25 -28 -31q-88 -14 -130 -53t-42 -92q0 -75 67 -143t139 -68q60 0 94 55q37 61 63 156.5t26 189.5q0 71 -16 127.5t-56 100t-102 55.5
q-26 5 -26 35q0 16 10 28.5t27 12.5q3 0 3 3v1q0 3 14.5 37.5t16.5 43.5q6 24 6 39q0 46 -39 46q-57 0 -101 -59q-7 -7 -7 -11q-14 -14 -32 -14q-17 0 -29 10t-12 24q0 8 8 19q29 38 96.5 83.5t118.5 45.5q61 0 72 -62q0 -1 1 -5l1 -4q3 -30 3 -38q0 -44 -12 -94.5
t-33 -86.5q0 -4 2 -5q81 -44 119.5 -135t38.5 -200v-32q0 -1 -0.5 -6t-0.5 -6q-4 -63 -14 -120.5t-31 -126t-62 -118t-97 -66.5z" />
    <glyph glyph-name="afii10074" unicode="&#x438;" horiz-adv-x="721" 
d="M411 131q-22 -38 -51 -64t-58 -37.5t-51 -16t-42 -4.5q-4 0 -5.5 0.5t-3.5 0.5q-1 0 -4 0.5t-4 0.5q-64 7 -90 53t-26 123q0 52 13.5 149.5t14.5 127.5q0 15 12 23.5t28 8.5q36 0 37 -24v-2v-3v-14q0 -29 -16 -117.5t-16 -131.5q0 -87 53 -110q16 -7 30 -7
q24 0 48.5 15.5t47 44.5t42 59.5t38.5 71.5t32 69.5t27.5 64.5t18.5 46q10 22 48 22q16 0 27.5 -5.5t11.5 -15.5q0 -34 -13.5 -109t-13.5 -111q0 -175 120 -175q6 0 13 1t11 1q5 1 7 1l2.5 -0.5t3.5 -0.5q16 0 28 -13.5t12 -29.5q0 -20 -20 -25q-38 -8 -70 -8q-35 0 -64 10
t-47.5 26t-33 38.5t-21.5 43.5t-11.5 45t-6 40t-1.5 31v17q0 3 -2 3t-2 -2q-33 -63 -53 -111z" />
    <glyph glyph-name="afii10075" unicode="&#x439;" horiz-adv-x="675" 
d="M371 126q-20 -34 -45.5 -58.5t-51 -36.5t-46.5 -17t-41 -5q-6 0 -14.5 1t-11.5 1q-108 13 -108 170q0 52 14.5 151t15.5 127q0 24 30 24q18 0 33.5 -11t17.5 -28v-11q0 -28 -19 -115t-19 -129q0 -72 45 -93q17 -7 32 -7q28 0 55.5 22.5t50 60.5t40 74.5t35.5 79t27 58.5
q18 32 43 32q17 0 31 -14.5t14 -30.5q0 -25 -8 -71t-8 -67q0 -73 28.5 -113.5t97.5 -40.5h8h8q15 0 25 2l2 1l2 1q14 0 23.5 -13t9.5 -29q0 -28 -24 -34q-36 -8 -72 -8q-45 0 -79 16.5t-51 38.5t-27 52.5t-12 50.5t-2 40v14q-29 -39 -49 -85zM266 719q9 20 25 20
q10 0 17.5 -8.5t7.5 -20.5q0 -3 -2 -11q-4 -13 -4 -30q0 -25 11.5 -42.5t32.5 -17.5q8 0 23 5q54 22 84 67q9 13 23 13q13 0 24 -10t11 -24q0 -7 -8 -19q-30 -46 -64 -70t-81 -24q-2 0 -5.5 1t-4.5 1q-53 3 -79.5 29.5t-26.5 68.5q0 37 16 72z" />
    <glyph glyph-name="afii10076" unicode="&#x43a;" horiz-adv-x="707" 
d="M813 -203q-107 0 -172 24q-69 25 -126.5 76t-118.5 127q-23 28 -50.5 77t-56.5 85t-73 64q-75 -121 -105 -236q-6 -24 -32 -24q-14 0 -24.5 8.5t-10.5 22.5q0 73 11.5 206t13.5 177q0 3 1 39.5t3 50.5t11.5 37t25.5 35q10 7 19 7q13 0 22 -11.5t9 -25.5q0 -19 -14 -29
q-15 -11 -15 -77q0 -19 1.5 -50.5t1.5 -39.5v-9q-2 -15 -4 -47t-4 -47q58 112 140 193.5t183 110.5q53 16 101 16q75 0 106 -46q25 -35 25 -74q0 -49 -41 -98q-9 -12 -23 -12q-13 0 -23.5 11t-10.5 26q0 13 8 22q33 39 33 63q0 37 -74 37q-55 0 -83 -12q-29 -9 -58 -24
q-101 -60 -155 -139l-1 -1q-1 0 0 -1q55 -27 91 -61t72 -87q10 -15 38.5 -57t45 -65t43.5 -53.5t53 -49.5q84 -60 203 -60q111 0 223 42q6 2 10 2q36 0 43 -38v-4q0 -21 -19 -29q-114 -52 -243 -52z" />
    <glyph glyph-name="afii10077" unicode="&#x43b;" horiz-adv-x="682" 
d="M688 165q14 16 32 16q15 0 26.5 -11t11.5 -25q0 -16 -15 -27q-6 -4 -16 -12q-41 -30 -59.5 -36t-77.5 -6q-55 0 -102 31q-76 50 -103 153q-46 -104 -107 -169q-52 -54 -104 -54q-21 0 -40 9q-36 18 -55 54t-19 79q0 36 14 68q7 18 29 18q10 0 17 -5.5t7 -15.5q0 -3 -1 -6
q-1 -7 -1 -19q0 -40 12.5 -77.5t38.5 -37.5q9 0 20 6q26 15 46.5 42.5t41.5 66.5q76 143 101 279q3 15 15.5 23.5t26.5 8.5q13 0 21.5 -7t8.5 -20q0 -3 -1 -7q-1 -8 -4 -21q-9 -51 -9 -95q0 -122 70 -191q34 -34 94 -36q1 3 13 4t32 5.5t36 14.5z" />
    <glyph glyph-name="afii10078" unicode="&#x43c;" horiz-adv-x="908" 
d="M825 43q0 -15 -13 -27t-28 -12q-18 0 -30 19q-50 83 -58 199q-16 -40 -31 -68.5t-37 -56.5t-50 -42.5t-62 -14.5h-3q-22 1 -40 6t-30 10.5t-22 17t-15.5 20.5t-11 26t-8 27t-6.5 31q-2 9 -3 13q-56 -132 -138 -195q-45 -35 -102 -35q-42 0 -67 22q-59 48 -59 129v15
q1 5 1 14v14q1 11 10 18t20 7h1h1q39 0 39 -23v-5q-4 -28 -4 -49q0 -79 61 -80h1q65 0 121 87q76 116 114 308q3 16 34 16q13 0 24 -9t11 -22q0 -6 -1 -9q-7 -35 -7 -69q0 -42 2 -70.5t9 -68.5t25 -62t46 -22q21 0 46 25q34 34 58.5 85t47.5 114t41 96q7 15 26 15
q13 0 22.5 -8.5t9.5 -21.5q0 -18 -5 -60.5t-5 -63.5q0 -146 57 -218q8 -13 8 -22z" />
    <glyph glyph-name="afii10079" unicode="&#x43d;" horiz-adv-x="606" 
d="M503 289q6 -6 6 -24q0 -24 -14 -28q-6 -2 -22 -2q-12 0 -27 2t-24 4l-8 2q-1 -44 -1 -65q0 -199 52 -314q3 -9 3 -17q0 -17 -12.5 -29t-27.5 -12q-18 0 -27 19q-63 140 -63 361q0 19 2 65h-115h-50q-3 -120 -10 -214q-1 -16 -13 -26t-27 -10q-14 0 -24 8.5t-10 23.5v4
q7 91 7 307q0 14 -0.5 29t-0.5 16q-1 6 -1 27.5t-2 39t-6 25.5t-4 18q0 16 12 27.5t27 11.5q19 0 28 -19q26 -46 26 -157v-36q33 3 108 3q52 0 61 -1q9 97 30 174q6 26 33 26q44 0 44 -28q0 -3 -2 -11q-26 -115 -31 -173q10 -2 24 -4t21.5 -3t17.5 -6t20 -14z" />
    <glyph glyph-name="afii10080" unicode="&#x43e;" horiz-adv-x="544" 
d="M478 259q0 -93 -70 -176q-37 -43 -83.5 -68t-95.5 -25q-73 0 -126 56q-63 66 -63 154t57 196l3 5l1 2l3 6t2 5q49 66 135 78q0 10 0.5 20.5l0.5 10.5v6v5.5v5.5q0 25 23 29q7 1 15 1q14 0 22 -3q10 -3 17 -15.5t7 -27.5q0 -5 -1 -9q-3 -11 -4 -28q62 -16 98 -64
q59 -76 59 -164zM401 257q0 32 -10.5 66t-33.5 54q-18 18 -51 28q-20 -123 -29 -126q-4 -2 -11 -2q-15 0 -27 7.5t-12 21.5q0 1 1 3q4 27 9 104q-36 -1 -61 -33q-1 -1 -2 -3.5t-1 -3.5q-1 0 -4 -6q-6 -8 -6 -9q-43 -84 -43 -161q0 -55 23 -79q48 -47 97 -47q66 0 114 65
q47 62 47 121z" />
    <glyph glyph-name="afii10081" unicode="&#x43f;" horiz-adv-x="591" 
d="M585 531q14 0 23 -11t9 -25q0 -30 -30 -39q-18 -5 -56 -16t-56 -16q-22 -24 -28 -55.5t-6 -80.5q0 -5 0.5 -15t0.5 -14q2 -33 20 -90.5t38 -79.5q16 -20 16 -34q0 -4 -1 -6q-5 -16 -15 -20.5t-29 -4.5q-6 0 -17 6.5t-17 12.5q-31 34 -46 79t-24 121q0 104 21 155
q-41 -9 -118 -9q-60 0 -86 5q-1 0 -1 -4q-1 -2 -1 -3q-6 -23 -9 -46q-7 -51 -8 -95q-2 -44 -2 -67q1 -34 5 -63.5t8 -45t4 -16.5q0 -16 -14 -26.5t-31 -10.5q-40 0 -42 30l-0.5 6t-1 16.5t-1 24t-0.5 31.5v35v24q5 168 25 224q-9 3 -17 8t-12 8t-14 11.5t-13 11.5
q-10 9 -10 22t8.5 27t18.5 14q4 0 14 -6q54 -31 138 -40q19 -2 45 -2q156 0 293 64q9 5 19 5z" />
    <glyph glyph-name="afii10082" unicode="&#x440;" horiz-adv-x="525" 
d="M134 105q48 -16 90 -16q74 0 120 47l4 3q25 26 40 61q17 68 17 109q0 58 -26 82l-4 4q-19 19 -48 19q-58 0 -115 -57l-3 -3l-1 -1q-39 -39 -49 -82l-13 -47q-13 -70 -16 -115zM347 490q57 -6 92 -39q44 -45 44 -132q0 -53 -17 -108t-43 -95q-12 -19 -33 -42
q-62 -61 -153 -61q-48 0 -104 17l-4 -4q11 -399 108 -659q2 -8 2 -14q0 -11 -7 -20q-11 -10 -29 -10q-15 0 -25 8q-5 6 -8 15q-40 109 -79.5 313t-39.5 387q0 280 105 388q61 59 153 59q6 0 12 -0.5t14 -1.5t12 -1z" />
    <glyph glyph-name="afii10083" unicode="&#x441;" horiz-adv-x="520" 
d="M266 376v5q0 12 9.5 20.5t21.5 8.5q21 0 27 -21q1 -10 13 -10q14 0 29 15t15 33q0 17 -12 30q-31 33 -69 33q-10 0 -16 -1q-47 -14 -95 -92q-53 -87 -53 -168q0 -25 4 -42q23 -113 143 -113q91 0 169 26.5t131 70.5q12 10 23 10q12 0 20 -9.5t8 -21.5q0 -18 -18 -30
q-6 -4 -33.5 -22.5t-34 -22.5t-30.5 -18.5t-33 -18.5t-31 -14.5t-35.5 -13.5t-34.5 -8.5t-41.5 -7t-42.5 -1.5q-91 0 -144 27q-107 54 -107 184q0 38 11.5 92.5t26.5 87.5q55 122 129 156q48 23 84 23q40 0 81 -18.5t63 -54.5q12 -21 12 -63q0 -44 -42.5 -78.5t-84.5 -34.5
q-23 0 -40.5 15.5t-22.5 46.5z" />
    <glyph glyph-name="afii10084" unicode="&#x442;" horiz-adv-x="914" 
d="M817 558q2 1 4.5 2.5t4.5 2.5q9 5 20 5q26 0 38 -24q4 -12 4 -18q0 -25 -26 -38q-42 -20 -49 -23q-1 -10 -11 -18q-62 -51 -64 -185q0 -3 -0.5 -22t-0.5 -33q0 -107 21 -121q20 -14 20 -30q0 -18 -18 -29.5t-37 -11.5h-7q-23 4 -23 28q0 3 2 11v10q0 16 -10.5 54
t-11.5 53q-3 33 -3 68q0 30 3 59q11 82 37 132q-122 -36 -228 -40q-36 -79 -36 -118v-27v-10q0 -12 -1.5 -38.5t-1.5 -40.5q0 -56 25 -76q5 -3 11 -11q6 -10 6 -20q0 -22 -22 -37q-12 -7 -23 -7q-21 0 -34 21q-16 27 -24.5 67t-10 71t-1.5 83v13q0 11 2 24t4 21t7.5 24t7 20
t9.5 23l9 19q-149 7 -199 23q-51 -46 -51 -159q0 -11 2 -35q1 -6 2.5 -29.5t3 -32.5l4.5 -27t8.5 -31t12.5 -26q5 -9 5 -20q-1 -16 -16 -27t-33 -11h-3q-32 2 -32 36v13q0 22 -10.5 64.5t-12.5 57.5q-7 47 -7 82q0 12 2 36q4 29 15 74.5t14 67.5l-7 14t-6 16q0 13 13 23
t27 10q2 0 29.5 -5t29.5 -6q19 -4 26 -5q4 -1 10 -4q80 -19 199 -19h11q8 3 18 1q30 0 60 3q150 15 293 83z" />
    <glyph glyph-name="afii10085" unicode="&#x443;" 
d="M460 503q6 27 33 27q16 -1 27.5 -10.5t11.5 -26.5q1 -54 5.5 -197t4.5 -222v-23v-20q0 -210 -34 -379q-20 -102 -50 -178t-60.5 -117.5t-66 -67t-61 -32.5t-51.5 -7t-38 4h-2q-23 1 -51.5 7.5t-66 23.5t-67.5 42t-51 68t-21 96q0 44 17 98q0 1 1 4l2 3q81 201 392 387
q10 5 20 5q14 0 25 -12t11 -27q0 -18 -12 -26q0 -1 -3 -2t-3 -2q-246 -150 -336 -303q-36 -63 -36 -108q0 -89 84 -132q72 -38 135 -38q87 0 124 71q72 143 97.5 308t25.5 370q0 1 -3 190l-3 3q-3 0 -3 -1q-103 -205 -224 -205h-7t-9 1q-1 0 -7 1h-6q-128 25 -128 253
q0 32 3 85.5t3 65.5q0 17 11 26.5t26 9.5t26 -9t11 -26q0 -3 -3 -39.5t-3 -65.5q0 -228 72 -228h1q18 0 40 16q75 50 125 143.5t72 195.5z" />
    <glyph glyph-name="afii10086" unicode="&#x444;" horiz-adv-x="640" 
d="M181 439q-62 -38 -62 -143q0 -73 34 -134.5t88 -70.5q-8 72 -8 106q0 33 1 49q18 143 52 258q-53 -27 -105 -65zM497 429q-56 89 -126 97q-54 -152 -54 -320q0 -50 6 -97q68 37 130.5 113t62.5 144q0 35 -19 63zM286 -609q-9 -18 -32 -18q-16 0 -29.5 11.5t-13.5 28.5
q0 4 6 18q73 138 73 303q0 75 -20 200q-4 23 -16 79q-94 3 -154.5 90.5t-60.5 196.5q0 147 102 207q115 83 178 96q39 95 74 146q12 17 34 17q16 0 29.5 -11t13.5 -26q0 -9 -9 -20q-31 -49 -60 -108q55 -14 100 -54t73 -96q19 -39 19 -82q0 -100 -80.5 -201.5t-172.5 -138.5
q0 -1 -3 -1t-3 -1q32 -202 32 -297q0 -188 -80 -339z" />
    <glyph glyph-name="afii10087" unicode="&#x445;" horiz-adv-x="862" 
d="M758 103q12 13 27 13t27.5 -14.5t12.5 -31.5q0 -30 -35 -37q-12 -2 -33 -7.5t-36.5 -9t-31.5 -3.5q-12 0 -24 2q-56 9 -108 49q-28 21 -57 50.5t-47 50t-48 57.5q-110 -143 -194 -240q-24 -28 -74.5 -65.5t-97 -75t-68.5 -70.5q-14 -20 -34 -20q-17 0 -30 12.5t-13 29.5
q0 23 25 38q52 34 115 83.5t95 86.5q70 80 128 152q5 6 99 129q-142 173 -215 173q-33 0 -52 -35q-9 -15 -24 -15q-12 0 -21 8.5t-9 21.5q0 8 4 16q41 75 100 75q52 0 113.5 -50t144.5 -141q31 38 57 67q55 61 116.5 100t121.5 39q78 0 137 -72q7 -9 7 -20q0 -14 -12 -25.5
t-26 -11.5q-13 0 -23 11q-41 49 -91 49q-31 0 -64 -17.5t-65 -49.5t-56 -60t-52 -66q44 -49 71 -77.5t63.5 -61.5t66 -48.5t54.5 -15.5q32 0 56 27z" />
    <glyph glyph-name="afii10088" unicode="&#x446;" 
d="M736 -23q0 -21 -20 -33q-12 -27 -50 -59l-36 -30t-37.5 -31.5t-31.5 -30.5t-31 -38q-49 -73 -81 -160.5t-32 -170.5q0 -69 24 -126q4 -9 4 -17q0 -19 -15.5 -31t-34.5 -12q-14 0 -23.5 8t-10.5 23q-1 26 -9 87.5t-8 95.5q0 25 3 49q16 109 67 209q60 119 121 167
q10 8 37 28t45.5 35.5t34.5 31.5v3.5v4.5q0 23 -122 41t-167 18q-48 0 -134.5 -12t-120.5 -14h-1q-11 0 -18 8.5t-7 19.5q0 10 5 17q14 17 24 22q-1 6 -6 44t-7 55.5t-4.5 49.5t-2.5 58q0 86 21 146t78 89q7 3 14 3q14 0 28 -10t14 -22q0 -14 -13 -22q-20 -14 -33 -36.5
t-19 -52t-7.5 -51t-2.5 -51.5l-2 -67q0 -72 18 -109q17 3 43 5q13 2 43.5 5.5t51.5 5t42 1.5h29q0 7 0.5 21.5t1.5 25.5t1 17q9 73 22 127q32 135 94 135h8q13 -2 23 -11.5t10 -19.5q0 -18 -18 -29q-11 -6 -19.5 -19t-14 -33.5t-8 -33t-5.5 -37.5t-3 -27q-1 -2 -10.5 -51
t-9.5 -74h1q4 0 34.5 -4t41 -5.5t39.5 -7.5t42.5 -11t36 -14.5t34 -20.5t23 -27.5t15.5 -35.5q1 -5 1 -9z" />
    <glyph glyph-name="afii10089" unicode="&#x447;" horiz-adv-x="560" 
d="M478 556q20 -5 20 -22q0 -21 -21 -32q-2 -3 -3 -8q-5 -15 -7 -25q-6 -26 -13 -69q-11 -70 -19 -158q-1 -9 -11 -96.5t-12 -132.5q-1 -14 -12.5 -22.5t-25.5 -8.5q-11 0 -19 6t-8 18q-1 23 -1 51q0 138 12 249q-3 -2 -18 -11.5t-19.5 -12t-18 -10.5t-20 -11t-18.5 -9
t-20.5 -8.5t-19.5 -5.5t-21 -4.5t-20 -1.5q-27 0 -52 10q-37 14 -55 50t-18 84q0 38 10.5 75.5t28.5 62.5q10 14 28 14q12 0 20.5 -7.5t8.5 -19.5q0 -2 -2 -26q-1 -12 -12 -20q-8 -33 -8 -65q0 -82 52 -82h3q44 3 94 28t81 59q4 5 11 8q30 155 92 155q6 0 13 -2z" />
    <glyph glyph-name="afii10090" unicode="&#x448;" horiz-adv-x="688" 
d="M642 109q38 -6 38 -40q0 -19 -12.5 -34t-31.5 -15q-8 0 -15 3q-95 32 -204 32q-34 0 -67 -3q-14 -8 -30 -8q-8 0 -16 3q-86 -14 -161 -42q-12 -25 -33 -25h-1q-24 0 -45 18q-8 7 -8 19q0 17 11 28q-7 9 -7 21q-3 31 -20 105.5t-17 118.5q0 116 29 190q8 22 33 22
q12 0 20.5 -7t8.5 -18q0 -4 -1 -7q-18 -100 -18 -152q0 -165 42 -213q1 -1 7 -10q60 29 131 38q-7 70 -7 121q0 140 42 246q7 22 35 22q29 0 29 -25q0 -4 -1 -7q-22 -103 -26 -205q0 -10 -1 -32.5t-1 -34.5q0 -49 10 -80h8q79 0 191 -16q2 14 2 23q0 20 -6 57t-6 42
q-5 62 -5 76q0 15 1 22q8 101 68 162q10 10 22 10q13 0 23 -10.5t10 -23.5q0 -9 -6 -18q-37 -55 -37 -134q0 -35 4 -66q2 -28 2 -42q0 -12 -1 -38t-1 -38q0 -22 1 -33q7 0 17 -2z" />
    <glyph glyph-name="afii10091" unicode="&#x449;" horiz-adv-x="831" 
d="M771 457q7 22 33 22q12 0 20.5 -6.5t8.5 -18.5q0 -4 -1 -6q-8 -39 -33 -99.5t-45 -117.5t-20 -102q0 -10 2 -28v-3q14 -8 14 -24q0 -15 -11.5 -27t-26.5 -12q-7 0 -10 1q-84 31 -166 31q-49 0 -111 -13q2 -48 8 -134q1 -19 1 -32q0 -10 -1.5 -29.5t-1.5 -41.5v-41v-35
q0 -54 -7.5 -93.5t-33.5 -106.5q-10 -26 -40 -26q-16 0 -27.5 10t-11.5 25q0 4 3.5 12.5t4.5 11.5q4 11 11 31.5t9 26.5t6 21t5 22.5t2.5 22.5t2 30.5t0.5 37.5q0 48 -1.5 85t-4.5 80t-4 76q0 2 -1.5 11.5t-1.5 11.5q-122 -38 -187 -38q-14 0 -20 1q-5 0 -7 1q-13 -8 -26 -8
q-28 0 -35 31q-31 130 -31 232q0 166 85 235q11 9 22 9q12 0 21 -9t9 -22t-11 -24q-20 -19 -30.5 -61.5t-12 -65t-3.5 -70.5q0 -8 -0.5 -29.5t-0.5 -34.5q0 -82 22 -116q27 8 88 22t92 24q21 7 25 8q8 224 106 416q10 21 35 21q12 0 21 -7t9 -19q0 -5 -3 -14
q-72 -174 -82 -286q-4 -39 -4 -87q10 3 37 7q37 6 73 6q67 0 130 -21q20 105 39 153q62 156 68 173z" />
    <glyph glyph-name="afii10092" unicode="&#x44a;" horiz-adv-x="626" 
d="M82 448v-5q0 -14 -9.5 -22.5t-21.5 -8.5q-20 0 -25 21q-5 25 -5 55q0 15 2 50q1 13 9.5 21.5t21.5 9.5t27 1q38 0 114 -7.5t113 -7.5q55 0 99 11l1 1q10 10 25 10q21 0 29 -17q0 -1 1 -2q7 -10 5 -22q0 -3 -2 -11q-7 -16 -21 -19l-1 -1q-54 -18 -96 -91.5t-55 -158.5
q88 63 161 63q87 0 101 -103q2 -13 2 -27q0 -76 -52.5 -132.5t-128.5 -56.5q-15 0 -30 2q-66 11 -97 60t-31 122q0 77 31 163t79 148q-42 0 -123.5 7t-122.5 7q-2 -32 -2 -36q0 -13 2 -24zM290 170q3 -37 18 -62q21 -38 64 -38q36 0 69 26.5t39 62.5q2 14 2 25q0 57 -49 57
q-28 0 -64.5 -18.5t-60.5 -42.5q-7 -8 -18 -10z" />
    <glyph glyph-name="afii10093" unicode="&#x44b;" horiz-adv-x="715" 
d="M555 513q5 18 28 18q15 0 27.5 -9t12.5 -22v-4q-6 -31 -22.5 -94t-26.5 -115.5t-10 -98.5q0 -62 20 -113q2 -5 2 -11q0 -13 -13 -21.5t-30 -8.5t-29 8.5t-14 25.5q-1 13 -4 36.5t-4.5 37.5t-3 34t-1.5 37q0 39 7 73q11 57 61 227zM192 549q9 9 20 9t20 -9t9 -21
q0 -11 -8 -20q-68 -80 -90 -202q-10 -60 -10 -101v-15q1 6 9 16q33 33 76 55.5t83 22.5q50 0 84 -36q31 -33 31 -84q0 -53 -33 -101.5t-81 -59.5q-35 -8 -65 -8q-43 0 -76 16.5t-52 46.5t-28 67.5t-9 82.5q0 94 34.5 191.5t85.5 149.5zM135 164q11 -67 54 -87q25 -12 53 -12
q42 0 72.5 23.5t30.5 61.5q0 18 -7 38q-10 27 -39 27q-25 0 -55 -18.5t-42 -36.5t-31 -18q-24 0 -36 22z" />
    <glyph glyph-name="afii10094" unicode="&#x44c;" horiz-adv-x="480" 
d="M321 97q23 29 23 62q0 29 -18.5 48.5t-48.5 19.5q-15 0 -30 -4q-77 -21 -101 -57q17 -40 50 -71t68 -31q33 0 57 33zM306 307q57 -3 85.5 -44t28.5 -99q0 -53 -26 -100q-41 -71 -128 -71q-48 0 -93 22.5t-72 60.5q-9 13 -20 33q-27 12 -27 38v6q0 3 3 9t3 9q-9 39 -9 79
q0 130 70 250q13 20 33 20q16 0 29 -12t13 -27q0 -9 -6 -20q-58 -100 -59 -201q74 47 160 47h15z" />
    <glyph glyph-name="afii10095" unicode="&#x44d;" horiz-adv-x="607" 
d="M173 241q-6 -2 -11 -2q-12 0 -19 9.5t-7 22.5q0 18 13 27q69 46 141 46h10q23 -1 68.5 -24t67.5 -24v8q0 52 -27.5 93.5t-77.5 53.5q-30 7 -60 7q-79 0 -157 -48q-7 -4 -15 -4q-12 0 -20.5 9.5t-8.5 21.5q0 11 8 20q73 76 187 76q64 0 120.5 -25.5t93 -76.5t36.5 -117
q0 -23 -4 -46q-14 -72 -63 -132.5t-116 -92.5q-75 -35 -130 -36q-17 0 -35 3.5t-27.5 6.5t-31.5 11.5t-30 11.5q-29 11 -29 36q0 17 13 31.5t29 14.5q15 0 26 -13q22 -27 69 -27q30 0 63.5 10.5t56.5 24.5q79 46 111 110q-26 6 -41 12q-5 2 -21 10.5t-27.5 13.5t-22.5 7
q-9 2 -20 2q-35 0 -112 -31z" />
    <glyph glyph-name="afii10096" unicode="&#x44e;" horiz-adv-x="782" 
d="M538 424q139 0 187 -107q19 -47 19 -81q0 -74 -41 -132.5t-113 -82.5q-45 -14 -88 -14q-63 0 -114.5 29t-75.5 88q-6 11 -77 11q-11 0 -42 -6.5t-37 -6.5q-6 -138 -6 -155q0 -12 -13 -19t-30 -7q-39 0 -39 24q0 20 10.5 208.5t11.5 280.5q0 14 15 23t34 9q37 0 37 -22
q-3 -107 -10 -239q3 0 8 -2.5t8 -2.5q9 -1 28 -1q41 0 77 14q1 0 3.5 20.5t2.5 22.5q1 2 5.5 15.5t7.5 19.5t9 17.5t14 20t19 15.5l3 4q3 3 5 6l3 3q1 1 11.5 7.5t13.5 7.5q71 32 154 32zM661 224q0 33 -18 66q-35 64 -123 69h-17q-32 0 -57 -7t-38.5 -18.5t-19.5 -19.5
t-10 -17q-21 -44 -21 -59q0 -56 25 -100q28 -54 101 -54q39 0 73 9q38 9 71.5 47t33.5 84z" />
    <glyph glyph-name="afii10097" unicode="&#x44f;" horiz-adv-x="682" 
d="M796 174q10 5 19 5q27 0 27 -36q0 -30 -25 -39q-37 -12 -82 -34t-81.5 -33t-87.5 -11q-10 0 -21 1q-86 7 -118 64q-13 24 -20 35.5t-19.5 26.5t-27.5 24q0 -1 -1 -2.5t-2 -2.5q-33 -50 -71.5 -91.5t-93.5 -75.5t-109 -38q-6 -1 -11 -1q-41 0 -60 25.5t-19 65.5q0 28 9 59
q5 20 26 20q12 0 20 -7t8 -18v-3q-4 -25 -4 -38q0 -38 26 -38q8 0 19 4q61 19 112 67q52 48 83 95q-6 1 -44 6t-53 8t-39.5 13t-37.5 25q-21 23 -21 54q0 33 21 68t49 61q29 27 67.5 47.5t74.5 20.5q43 0 69 -34q37 -48 37 -116q0 -54 -23 -112q43 -23 72 -62q5 -7 13 -21
t13.5 -21.5t14 -16.5t20.5 -13t27 -4h2q56 1 119 23q25 8 40 13.5t22 8.5t24.5 11.5t36.5 16.5zM207 285q22 -5 62 -12.5t57 -11.5q15 39 15 75q0 8 -1 16q-6 76 -40 76h-2q-41 -1 -85 -47q-39 -42 -39 -65q0 -22 33 -31z" />
    <glyph glyph-name="afii10071" unicode="&#x451;" horiz-adv-x="529" 
d="M403 664q16 -1 26.5 -13t10.5 -27v-3q-2 -13 -12.5 -22t-24.5 -9q-2 0 -4 0.5t-3 0.5q-16 1 -26.5 12t-10.5 26v4q1 13 12.5 22t25.5 9h6zM148 652q15 -2 26 -13t11 -25q0 -1 -1 -2t-1 -2q-1 -14 -11.5 -22.5t-24.5 -8.5q-2 0 -4.5 0.5t-3.5 0.5q-16 1 -26 12t-10 25v4
q1 13 12.5 22.5t26.5 9.5q1 0 3 -0.5t3 -0.5zM281 434q-32 -2 -63 -25.5t-53 -54.5q-21 -31 -34 -65q19 -6 35 -9q11 -3 35 -3q48 0 84 26.5t46 70.5q1 3 1 10q0 20 -15 36t-35 16zM425 150q13 9 24 9q14 0 23 -11.5t9 -27.5q0 -28 -23 -43q-48 -32 -105 -52.5t-110 -20.5
q-123 0 -174 112q-21 49 -21 105q0 81 41.5 154.5t111.5 105.5q45 20 91 20q53 0 88 -26t35 -76q0 -24 -10 -53q-22 -64 -78 -103t-121 -39q-41 0 -87 22v-10q0 -75 52 -103q37 -22 85 -22q81 0 169 59z" />
    <glyph glyph-name="afii10101" unicode="&#x454;" horiz-adv-x="541" 
d="M369 411q0 2 1.5 7t1.5 8q0 13 -22.5 22t-40.5 9q-2 0 -4 -0.5t-3 -0.5q-22 -3 -43 -15q-59 -29 -80 -61q-43 -63 -52 -132q27 20 39 27.5t38 20t54.5 17.5t64.5 5q17 0 42.5 -4t28.5 -4q13 -2 23 -16.5t10 -25.5q0 -13 -9.5 -24t-23.5 -11q-8 0 -16 4q-31 14 -69 14
q-53 0 -103 -23t-71 -61q31 -89 145 -89q50 0 102.5 17.5t90.5 44.5q13 8 22 8q13 0 22 -10t9 -22q0 -19 -20 -28q-55 -26 -80.5 -37t-76 -25.5t-90.5 -14.5q-63 0 -109.5 31.5t-67.5 78.5q-6 4 -7 14v3q-12 38 -12 81q0 38 9 77q19 77 74 139t130 80q22 6 49 6q50 0 75 -28
q29 -32 29 -55q0 -20 -22 -42q-6 -6 -15 -6t-16 6t-7 15z" />
    <glyph glyph-name="afii10103" unicode="&#x456;" horiz-adv-x="325" 
d="M266 93q4 1 11 1q16 0 26.5 -12.5t10.5 -28.5q0 -27 -27 -36q-37 -10 -68 -10q-58 0 -95.5 34t-52.5 84t-15 115q0 112 38 219q10 27 39 27q15 0 26.5 -10t11.5 -25q0 -6 -1 -12q-39 -108 -39 -212q0 -140 93 -140q18 0 42 6zM210 574q-14 0 -25 10t-11 25q0 6 -5 15.5
t-5 17.5q0 3 1 8.5t1 6.5v8q0 3 1.5 6t1.5 8q0 17 18 33.5t34 16.5q1 0 13 -3q35 -15 37 -52v-7q0 -52 -32 -81q-15 -12 -29 -12z" />
    <glyph glyph-name="afii10104" unicode="&#x457;" horiz-adv-x="412" 
d="M31 670q3 27 23.5 45.5t45.5 18.5h6q23 -3 38.5 -21.5t15.5 -43.5q0 -2 -0.5 -6t-0.5 -6q-3 -28 -22 -46t-44 -18h-7q-23 3 -39 22.5t-16 44.5v10zM266 669q3 27 21.5 45.5t43.5 18.5q1 0 4 -1t4 -1q23 -2 38.5 -20.5t15.5 -43.5q0 -2 -1 -6.5t-1 -6.5
q-3 -28 -21.5 -45.5t-43.5 -17.5h-7q-23 2 -39 22t-16 46q0 1 1 5t1 5zM297 93q4 1 12 1q16 0 26.5 -12.5t10.5 -28.5q0 -27 -27 -36q-37 -10 -70 -10q-58 0 -95.5 34t-52 84t-14.5 115q0 109 39 219q10 27 38 27q16 0 27.5 -10t11.5 -25q0 -4 -2 -12q-40 -111 -40 -212
q0 -140 93 -140q19 0 43 6z" />
    <glyph glyph-name="afii10110" unicode="&#x45e;" 
d="M200 766q4 24 22 27q2 1 5 1q10 0 17.5 -7t10.5 -19q1 -4 1 -12v-9q0 -11 2 -23q5 -23 18.5 -38.5t32.5 -15.5q5 0 10 1q7 1 23 10q52 37 73 90q5 15 21 20h6q13 0 24.5 -7.5t14.5 -20.5q1 -9 -4 -22q-21 -56 -51.5 -89t-79.5 -44q-2 -1 -6 -0.5t-5 0.5q-16 -3 -30 -3
q-44 0 -70.5 22t-34.5 60q-4 20 -4 40t4 39zM460 503q6 27 33 27q16 -1 27.5 -10.5t11.5 -26.5q1 -52 5.5 -195.5t4.5 -223.5v-23v-20q0 -212 -34 -379q-14 -74 -34 -134.5t-41 -101t-45.5 -72t-46.5 -49t-45.5 -28t-41 -14t-35.5 -3.5q-26 0 -38 4h-2q-23 1 -51.5 7.5
t-66 23.5t-67.5 42t-51 68t-21 96q0 44 17 98q0 1 1.5 4l1.5 3q81 201 392 387q10 5 20 5q14 0 25 -12t11 -27q0 -18 -12 -26q-1 0 -3.5 -1.5t-2.5 -2.5q-246 -150 -336 -303q-36 -63 -36 -108q0 -40 20.5 -75t63.5 -57q72 -38 135 -38q87 0 124 71q72 143 97.5 308
t25.5 370q0 1 -3 190q0 2 -1 3t-2 0q-3 0 -3 -1q-46 -91 -102.5 -148t-121.5 -57q-4 1 -7.5 1h-8.5q-1 0 -7 0.5l-6 0.5q-39 8 -65.5 31.5t-39.5 61t-18 75t-5 85.5q0 32 3 85.5t3 65.5q0 17 11 26.5t26 9.5t26 -9t11 -26q0 -3 -3 -39.5t-3 -65.5q0 -228 72 -228h1
q18 0 40 16q75 50 125 143.5t72 195.5z" />
    <glyph glyph-name="afii10050" unicode="&#x490;" horiz-adv-x="485" 
d="M320 221q-6 -34 -18 -71.5t-32 -78.5t-52 -67.5t-69 -26.5h-10q-64 5 -128 83.5t-64 153.5q0 45 32 77q13 13 25 13q16 0 28 -12.5t12 -28.5q0 -15 -11 -26q-10 -10 -10 -31q0 -29 18.5 -64t48.5 -56q28 -19 49 -19q35 0 61 39.5t36 83t10 77.5v4q-3 78 -39 235t-36 241
v14q0 15 12.5 27.5t27.5 12.5q9 0 19 -7q90 -65 169 -65q3 0 10 0.5t10 0.5q61 5 111 34l59 60h-2q-17 0 -26.5 11t-9.5 26q0 16 10 27.5t28 12.5h5q70 0 70 -62q0 -33 -19.5 -70t-47.5 -55q-89 -60 -193 -60q-74 0 -151 36q6 -55 39.5 -191t33.5 -210q0 -33 -6 -68z" />
    <glyph glyph-name="afii10098" unicode="&#x491;" horiz-adv-x="525" 
d="M611 656q0 -53 -51 -107q-51 -53 -113.5 -67.5t-158.5 -14.5q-13 0 -37 2q40 -123 40 -234q0 -139 -40 -206q-42 -68 -104 -68q-74 1 -120.5 71t-48.5 155v4q0 19 12.5 29.5t29.5 10.5q18 0 31.5 -11.5t14.5 -32.5q3 -83 16 -107q19 -34 48 -34q10 0 23 3q12 4 25 23.5
t17 38.5q11 42 11 92q0 5 1 27t1 31v8q-12 125 -65 236q-6 11 -6 21q0 18 12 32t30 14q1 0 13 -3q45 -15 103 -15q97 0 157 23q35 13 53.5 35.5t18.5 50.5q0 11 -9.5 29t-9.5 24q0 18 11 30.5t30 12.5h1q31 0 47.5 -30t16.5 -73z" />
    <glyph glyph-name="endash" unicode="&#x2013;" horiz-adv-x="452" 
d="M149 205q107 0 185.5 -11.5t78.5 -27.5q0 -20 -38 -24.5t-164 -7.5h-58q-63 0 -82.5 7t-19.5 25q0 16 26.5 27.5t71.5 11.5z" />
    <glyph glyph-name="emdash" unicode="&#x2014;" horiz-adv-x="894" 
d="M79 166q0 11 17.5 19.5t58 14.5t100.5 6q22 0 76 -3t86 -3q25 -1 57 -1h33.5h32.5q99 0 160 -8.5t61 -24.5q0 -19 -70.5 -24.5t-279.5 -7.5h-30h-111q-81 0 -122.5 3.5t-55 10t-13.5 18.5z" />
    <glyph glyph-name="afii00208" unicode="&#x2015;" horiz-adv-x="810" 
d="M88 199q-7 0 -11 5t-2 10.5t10 6.5q109 20 262 20q63 0 183.5 -4.5t175.5 -4.5q10 0 15.5 -5.5t5.5 -13.5t-5.5 -13.5t-15.5 -5.5q-53 0 -160.5 -1t-161.5 -1q-173 0 -296 7z" />
    <glyph glyph-name="quoteleft" unicode="&#x2018;" horiz-adv-x="120" 
d="M144 743q-1 -25 -17.5 -38t-34.5 -13q-12 0 -18 5q-36 27 -40 66q-1 7 -1 15q0 28 12.5 62t32 73t26.5 55q8 23 29 24q2 1 4 1q10 0 18 -6t10 -16q1 -9 -6 -21q-14 -18 -25 -47.5t-11 -57.5q0 -6 1 -12q0 -4 10 -35t10 -50v-5z" />
    <glyph glyph-name="quoteright" unicode="&#x2019;" horiz-adv-x="85" 
d="M85 849q1 25 17 38t35 13q12 0 18 -5q35 -27 40 -66q1 -7 1 -15q0 -28 -12.5 -62t-32.5 -73t-26 -55q-8 -22 -29 -24h-4q-11 0 -19 6t-9 15q-2 9 6 21q13 18 24.5 48t11.5 57q0 6 -1 12q-1 4 -10.5 35t-9.5 50v5z" />
    <glyph glyph-name="quotesinglbase" unicode="&#x201a;" horiz-adv-x="167" 
d="M54 80q1 25 17 38t35 13q12 0 18 -5q35 -27 40 -66q1 -7 1 -15q0 -28 -12.5 -62t-32.5 -73t-26 -55q-8 -22 -29 -24h-4q-11 0 -19 6t-9 15t6 21q13 18 24.5 48t11.5 57q0 6 -1 12q-1 4 -10.5 35t-9.5 50v5z" />
    <glyph glyph-name="quotedblleft" unicode="&#x201c;" horiz-adv-x="286" 
d="M320 743q-1 -25 -17.5 -38t-34.5 -13q-12 0 -18 5q-36 27 -40 66q-1 7 -1 15q0 28 12.5 62t32 73t26.5 55q8 23 29 24q2 1 4 1q10 0 18 -6t10 -16q1 -9 -6 -21q-14 -18 -25 -47.5t-11 -57.5q0 -6 1 -12q0 -4 10 -35t10 -50v-5zM144 743q-1 -25 -17.5 -38t-34.5 -13
q-12 0 -18 5q-36 27 -40 66q-1 7 -1 15q0 28 12.5 62t32 73t26.5 55q8 23 29 24q2 1 4 1q10 0 18 -6t10 -16q1 -9 -6 -21q-14 -18 -25 -47.5t-11 -57.5q0 -6 1 -12q0 -4 10 -35t10 -50v-5z" />
    <glyph glyph-name="quotedblright" unicode="&#x201d;" horiz-adv-x="295" 
d="M42 885q1 25 17 38t35 13q11 0 18 -5q35 -27 40 -66q1 -5 1 -15q0 -28 -12.5 -62t-32.5 -72.5t-26 -55.5q-8 -22 -29 -24h-4q-25 0 -28 21q-1 9 6 21q36 50 36 105q0 2 -0.5 6t-0.5 6q-1 4 -10.5 35t-9.5 50v5zM218 885q1 25 17 38t35 13q11 0 18 -5q35 -27 40 -66
q1 -5 1 -15q0 -28 -12.5 -62t-32.5 -72.5t-26 -55.5q-8 -22 -29 -24h-4q-25 0 -28 21q-1 9 6 21q36 50 36 105q0 2 -0.5 6t-0.5 6q-1 4 -10.5 35t-9.5 50v5z" />
    <glyph glyph-name="quotedblbase" unicode="&#x201e;" horiz-adv-x="295" 
d="M30 84q1 25 17 38t35 13q11 0 18 -5q35 -27 40 -66q1 -5 1 -15q0 -28 -12.5 -62t-32.5 -72.5t-26 -55.5q-8 -22 -29 -24h-4q-25 0 -28 21q-1 9 6 21q36 50 36 105q0 2 -0.5 6t-0.5 6q-1 4 -10.5 35t-9.5 50v5zM206 84q1 25 17 38t35 13q11 0 18 -5q35 -27 40 -66
q1 -5 1 -15q0 -28 -12.5 -62t-32.5 -72.5t-26 -55.5q-8 -22 -29 -24h-4q-25 0 -28 21q-1 9 6 21q36 50 36 105q0 2 -0.5 6t-0.5 6q-1 4 -10.5 35t-9.5 50v5z" />
    <glyph glyph-name="Euro" unicode="&#x20ac;" horiz-adv-x="633" 
d="M578 -17q-76 -28 -155 -28q-30 0 -70 5q-103 15 -175 71t-91 150q-6 -1 -16 -1t-30 2.5t-30 2.5q-20 0 -20 24q0 23 20 24q9 1 22 1h20q17 0 27 1v9q0 36 15 84q-47 2 -86 7q-20 3 -20 21t20 21q25 3 110 8q48 89 160 181q101 82 191 82q78 0 121 -72q3 -6 3 -11
q0 -9 -7.5 -16t-15.5 -7q-9 0 -16 7q-35 44 -90 44q-67 0 -142 -60t-125 -146q196 0 304 7h3q16 0 25 -9t9 -22q0 -25 -28 -28q-111 -12 -252 -12q-60 0 -90 1q-18 -44 -21 -81q92 -3 172 -3q97 0 157 2h1q16 0 25.5 -10t9.5 -23q0 -11 -7.5 -18.5t-21.5 -8.5
q-38 -1 -110 -1q-34 0 -106.5 0.5t-114.5 0.5q4 -24 16 -42q35 -60 104.5 -89t155.5 -29q69 0 135 17q17 0 25 -20q3 -6 3 -11t-2 -9.5t-4.5 -7.5t-5 -5.5z" />
    <glyph glyph-name="uni20B4" unicode="&#x20b4;" horiz-adv-x="505" 
d="M91 340q-16 5 -16 23q0 9 5 15.5t14 6.5h3q50 -7 130 -7h34q53 47 74 84q16 26 16 48q0 52 -97 52q-60 0 -104 -15q-2 -1 -7 -1q-9 0 -15 7.5t-6 16.5q0 12 11 18q51 26 123 26q64 0 108 -25t44 -75q0 -24 -13 -55q-15 -39 -52 -79q27 2 86 4h1q13 0 20 -8t7 -20
q0 -13 -7.5 -22.5t-20.5 -9.5q-6 0 -9 1q-36 8 -81 8q-30 0 -46 -1l-46 -44q-19 -21 -27 -31q21 -1 66 -1q67 0 108 7q1 0 4 0.5t4 0.5q13 0 20.5 -8.5t7.5 -20.5t-7.5 -20.5t-21.5 -8.5h-7q-40 6 -103 6q-17 0 -51 -0.5t-52 -0.5q-22 -39 -22 -76v-7q3 -41 30 -60t67 -19
q41 0 85 15.5t66 34.5q12 8 22 8q13 0 23 -9.5t10 -22.5q0 -11 -10 -22q-32 -30 -80.5 -47.5t-98.5 -17.5q-73 0 -122 35.5t-49 104.5q0 15 1 23q3 29 17 61q-33 2 -59 8q-16 3 -16 19q0 10 6 17t16 7q11 0 24 -0.5t29 -1t25 -1.5q23 35 56 68h-17q-56 0 -100 12z" />
    <glyph glyph-name="afii61352" unicode="&#x2116;" horiz-adv-x="841" 
d="M130 -33q-1 -13 -8.5 -19.5t-18.5 -6.5q-15 0 -27.5 10.5t-13.5 27.5q-1 16 -1 35q0 57 7.5 121t23.5 129t47 107.5t71 42.5q53 0 119 -76q36 -41 171 -188q27 -30 46 -30t30 27.5t19 82t12 69.5q17 69 28.5 111t30.5 95t39.5 91t51 80.5t70.5 82.5q19 19 39 19
q18 0 30 -14t12 -32q0 -21 -17 -34q-58 -44 -97 -108.5t-60 -137t-37 -144t-39.5 -152t-55.5 -138.5q-6 -10 -20.5 -17.5t-27.5 -7.5q-10 0 -16 4q-47 25 -85.5 67.5t-82.5 105t-67 89.5q-45 53 -78 53q-18 0 -32 -13.5t-23 -40.5t-15.5 -53t-11 -65.5t-6.5 -63.5t-4 -62.5
t-3 -46.5z" />
    <glyph glyph-name="trademark" unicode="&#x2122;" horiz-adv-x="910" 
d="M420 654q-7 -8 -16 -8t-15.5 7.5t-6.5 17.5q0 5 2 10q59 136 68 154q4 7 14 12t18 5q9 0 10 -7q6 -30 40 -57.5t68 -27.5q27 0 45 19q17 17 48 55t49 55q10 8 23 8q20 0 27 -16q22 -46 30 -134.5t19 -123.5q2 -4 2 -11q0 -12 -9 -19.5t-21 -7.5q-29 0 -32 30q-1 9 -4 45
t-5 53.5t-7 45.5t-12 49q-4 -5 -19 -22.5t-20.5 -23.5t-20 -19.5t-24.5 -19t-25.5 -12t-31.5 -8.5q-4 -1 -13 -1q-14 0 -26.5 3.5t-25.5 12.5t-20 14.5t-21.5 20t-19.5 18.5q-2 -4 -11 -23t-12.5 -26.5t-11.5 -22t-16 -25t-17 -20.5zM81 816q-17 3 -17 21q0 10 6 17t16 7h1
q44 0 107 14q1 11 8 17.5t15 6.5q15 0 22 -15q7 1 29 4t35 5t29.5 7t26.5 12q11 6 19 6q13 0 20.5 -11t7.5 -25q0 -29 -26 -29h-4h-7q-16 0 -48.5 -9.5t-41.5 -10.5q-29 -7 -37 -8q0 -10 -1 -29t-1 -30v-15q0 -64 13 -73q15 -10 15 -24q0 -12 -11.5 -22t-24.5 -10
q-24 0 -27 30q-1 6 -7 21t-7 24q-5 30 -5 57q0 42 2 62q-33 -5 -60 -5z" />
  </font>
</defs>
</svg>
