<svg xmlns="http://www.w3.org/2000/svg">
<defs>
<font id="Veles-Bold" horiz-adv-x="781" >
  <font-face 
    font-family="Veles"
    font-weight="700"
    font-stretch="normal"
    units-per-em="1000"
    panose-1="2 0 8 3 0 0 0 0 0 0"
    ascent="800"
    descent="-200"
    x-height="426"
    cap-height="907"
    bbox="-255 -908 1508 1310"
    underline-thickness="50"
    underline-position="-100"
    unicode-range="U+0020-2122"
  />
<missing-glyph horiz-adv-x="1134" 
d="M980 522q38 -47 38 -119q0 -29 -6.5 -62t-20.5 -58t-31 -39t-31.5 -21.5t-29.5 -10.5q-20 -5 -41 -5q-34 0 -64 10.5t-43 26.5t-23 42.5t-10 53.5q0 47 30 77q35 34 83 34q19 0 34 -5q25 -9 25 -36q0 -6 -2 -12q-9 -25 -35 -25q-7 0 -13 2q-4 1 -9 1q-17 0 -29 -13
q-8 -7 -8 -23q0 -27 14 -46q18 -12 50 -12q16 0 30 5q38 14 50 69q5 26 5 48q0 44 -22 70q-30 37 -93 37h-2q-68 -1 -212 -101q108 -157 108 -250v-2q0 -123 -63 -175q-40 -32 -100 -32q-26 0 -56 6q-34 8 -60 22.5t-40.5 32.5t-22.5 33.5t-12 31.5q-4 20 -4 41q0 31 9.5 58
t24.5 39q15 13 41.5 22.5t53.5 9.5q47 0 77 -30q34 -35 34 -83q0 -19 -5 -35q-9 -25 -36 -25q-6 0 -13 3q-25 9 -25 35q0 7 3 13q1 4 1 10q0 16 -12 29q-8 8 -24 8q-26 0 -46 -14q-8 -14 -8 -40q0 -18 6 -34q16 -40 74 -53q22 -4 40 -4q33 0 52 15q36 29 36 116v2
q-1 68 -94 206q-15 -11 -40 -30q-35 -27 -45 -34q-109 -72 -196 -72q-21 0 -40 5q-66 15 -104 78q-29 49 -29 98q0 53 36 92q43 47 107 47q31 0 58 -13q48 -23 55 -67q1 -7 1 -14q0 -48 -42 -91q-11 -11 -27 -11q-15 0 -26 11t-11 26q0 16 10 27q21 21 21 38v1q-1 6 -14 12
q-11 6 -25 6q-31 0 -52 -23q-16 -17 -16 -42q0 -27 19 -58q21 -36 56 -44q10 -2 22 -2q65 0 155 59q8 5 42 31q21 16 41 31q-7 10 -21 28q-24 33 -31 43q-67 104 -67 190q0 21 4 41q16 66 80 104q50 30 98 30q53 0 90 -35q45 -42 45 -104q0 -32 -14 -60q-24 -47 -67 -55
q-7 -1 -14 -1q-48 0 -91 43q-11 11 -11 26.5t11 26.5t26 11q16 0 27 -11q21 -20 38 -20h1q6 1 12 14q6 12 6 26q0 29 -20 49q-16 15 -40 15q-26 0 -58 -19q-37 -22 -46 -57q-2 -12 -2 -24q0 -64 55 -149q5 -8 29 -39q9 -13 21 -29q164 114 255 115h2q100 0 153 -64z

<glyph glyph-name=".notdef" horiz-adv-x="1134" 
d="M980 522q38 -47 38 -119q0 -29 -6.5 -62t-20.5 -58t-31 -39t-31.5 -21.5t-29.5 -10.5q-20 -5 -41 -5q-34 0 -64 10.5t-43 26.5t-23 42.5t-10 53.5q0 47 30 77q35 34 83 34q19 0 34 -5q25 -9 25 -36q0 -6 -2 -12q-9 -25 -35 -25q-7 0 -13 2q-4 1 -9 1q-17 0 -29 -13
q-8 -7 -8 -23q0 -27 14 -46q18 -12 50 -12q16 0 30 5q38 14 50 69q5 26 5 48q0 44 -22 70q-30 37 -93 37h-2q-68 -1 -212 -101q108 -157 108 -250v-2q0 -123 -63 -175q-40 -32 -100 -32q-26 0 -56 6q-34 8 -60 22.5t-40.5 32.5t-22.5 33.5t-12 31.5q-4 20 -4 41q0 31 9.5 58
t24.5 39q15 13 41.5 22.5t53.5 9.5q47 0 77 -30q34 -35 34 -83q0 -19 -5 -35q-9 -25 -36 -25q-6 0 -13 3q-25 9 -25 35q0 7 3 13q1 4 1 10q0 16 -12 29q-8 8 -24 8q-26 0 -46 -14q-8 -14 -8 -40q0 -18 6 -34q16 -40 74 -53q22 -4 40 -4q33 0 52 15q36 29 36 116v2
q-1 68 -94 206q-15 -11 -40 -30q-35 -27 -45 -34q-109 -72 -196 -72q-21 0 -40 5q-66 15 -104 78q-29 49 -29 98q0 53 36 92q43 47 107 47q31 0 58 -13q48 -23 55 -67q1 -7 1 -14q0 -48 -42 -91q-11 -11 -27 -11q-15 0 -26 11t-11 26q0 16 10 27q21 21 21 38v1q-1 6 -14 12
q-11 6 -25 6q-31 0 -52 -23q-16 -17 -16 -42q0 -27 19 -58q21 -36 56 -44q10 -2 22 -2q65 0 155 59q8 5 42 31q21 16 41 31q-7 10 -21 28q-24 33 -31 43q-67 104 -67 190q0 21 4 41q16 66 80 104q50 30 98 30q53 0 90 -35q45 -42 45 -104q0 -32 -14 -60q-24 -47 -67 -55
q-7 -1 -14 -1q-48 0 -91 43q-11 11 -11 26.5t11 26.5t26 11q16 0 27 -11q21 -20 38 -20h1q6 1 12 14q6 12 6 26q0 29 -20 49q-16 15 -40 15q-26 0 -58 -19q-37 -22 -46 -57q-2 -12 -2 -24q0 -64 55 -149q5 -8 29 -39q9 -13 21 -29q164 114 255 115h2q100 0 153 -64z
M216 718.5q0 46.5 46.5 46.5t46.5 -46.5t-46.5 -46.5t-46.5 46.5zM821 723.5q0 46.5 46.5 46.5t46.5 -46.5t-46.5 -46.5t-46.5 46.5zM789 54.5q0 46.5 46.5 46.5t46.5 -46.5t-46.5 -46.5t-46.5 46.5zM166 117.5q0 46.5 46 46.5t46 -46.5t-46 -46.5t-46 46.5z" />
    <glyph glyph-name=".null" horiz-adv-x="0" 
 />
    <glyph glyph-name="nonmarkingreturn" horiz-adv-x="333" 
 />
    <glyph glyph-name="space" unicode=" " horiz-adv-x="528" 
 />
    <glyph glyph-name="exclam" unicode="!" horiz-adv-x="364" 
d="M246 1021q14 19 38 19q8 0 16 -2q12 -5 20 -15t8 -24q0 -8 -3 -16q-10 -28 -39.5 -65t-36.5 -54q-20 -46 -43 -141q-42 -169 -42 -316q0 -39 3 -75q1 -6 0 -11q-2 -24 -20 -38t-39 -14h-6q-18 2 -31.5 15t-13.5 35q0 18 2 54t2 54v6v6q0 72 4 111q11 103 30 179
q2 7 7 28.5t7.5 31.5t8 29.5t10 32t11.5 28.5t14 29q16 28 50 63.5t43 49.5zM61 78q13 20 32 28q14 6 29 6q28 0 49 -20.5t21 -51.5q0 -19 -8 -35q-10 -22 -29.5 -37t-42.5 -15h-7q-54 6 -71 74q-1 5 -1 9q0 28 27 42h1z" />
    <glyph glyph-name="quotedbl" unicode="&#x22;" horiz-adv-x="383" 
d="M230 820q-3 -1 -6 -1q-16 0 -25 11t-9 24q0 12 8 22.5t22 12.5q19 2 35 2q51 0 74 -24.5t23 -62.5q0 -32 -15 -87t-16 -62q-2 -18 -15 -28t-29 -10t-29 10t-13 28q0 8 4 17q5 12 10.5 41.5t5.5 55.5q0 51 -21 51h-4zM47 814h-6q-15 0 -24.5 10.5t-9.5 24.5q0 12 8 22
t22 12q19 2 36 2q50 0 73.5 -24t23.5 -63q0 -32 -15.5 -87t-15.5 -61q-3 -19 -16 -29t-28 -10q-16 0 -29.5 10t-13.5 28q0 8 4 17q5 13 11 42.5t6 54.5q0 52 -22 52q-2 0 -4 -1z" />
    <glyph glyph-name="numbersign" unicode="#" horiz-adv-x="787" 
d="M431 225q6 31 19 88.5t19 84.5q-19 1 -32 1q-11 0 -20 -1q-38 -1 -96 -3q-16 -84 -34 -169q23 0 71 -0.5t73 -0.5zM87 396q-17 1 -27 12t-10 25.5t9.5 26t26.5 12.5q15 1 142 9q19 61 46 111q9 20 33 20q16 0 29 -10t13 -27v-4v-1q-5 -32 -13 -84q27 1 80 1q47 -2 68 -3
q5 26 8.5 42.5t14 38.5t26.5 36q11 10 26 10q16 0 27.5 -11t11.5 -27q0 -10 -4 -18q-15 -28 -24 -76q29 -2 52 -2q57 0 101 9q6 1 11 1q21 0 33.5 -14t12.5 -31t-11.5 -30.5t-31.5 -15.5q-43 -6 -93 -6q-32 0 -85 3q-5 -39 -9 -61q-16 -63 -25 -106q80 0 178 5h3
q21 0 33 -14.5t12 -32.5t-12 -32t-32 -14h-4q-107 5 -196 5q-10 -41 -23 -117q-3 -16 -15 -25.5t-27 -9.5q-20 0 -36 13t-16 35q0 5 1 10q13 63 21 94h-143q-4 -18 -13.5 -60t-14.5 -65q-4 -16 -16 -25t-27 -9q-21 0 -36.5 13.5t-15.5 35.5q0 5 1 10q5 24 17 101l-123 3
q-17 0 -27 11.5t-10 26t10 26t27 12.5q90 2 134 2q17 111 30 168q-60 0 -118 3z" />
    <glyph glyph-name="dollar" unicode="$" horiz-adv-x="512" 
d="M194 457q0 -22 33 -47q17 -14 69 -44.5t75 -52.5q78 -79 78 -149q0 -33 -18 -61q-47 -69 -135 -90q-5 -21 -5 -53v-1v-1q-1 -4 -1.5 -14.5t-1.5 -16.5q-2 -16 -16 -27t-35 -11h-3h-1q-21 1 -35 13t-14 28q0 2 1 3q1 10 1 29v1q3 43 4 48q-92 16 -132 102q-5 11 -5 23
q0 21 16 34.5t36 13.5q18 0 32.5 -12t17.5 -34q2 -18 26 -28.5t61 -10.5q42 0 65 12q46 27 46 58q0 48 -133 128q-112 68 -122 146q-1 11 -1 21q0 53 37 86t98 45q1 33 4 76v7v1q2 16 16.5 27.5t35.5 11.5h3q21 -1 35 -13t14 -29v-2l-1 -7q-2 -49 -2 -66q57 -4 98 -29
q20 -12 20 -33q0 -15 -11.5 -27t-29.5 -12q-10 0 -19 4q-24 11 -59 11q-57 0 -99.5 -17.5t-42.5 -40.5z" />
    <glyph glyph-name="percent" unicode="%" horiz-adv-x="799" 
d="M580 293q3 0 7 -1q15 10 28 10q21 0 36 -20q8 -1 16 -4q30 -13 49 -30h1v-1q36 -39 39 -90v-1q0 -62 -41 -109.5t-109 -47.5q-55 0 -95 28t-40 80q0 10 2 16q8 65 61 125q3 18 14.5 31.5t31.5 13.5zM365 384q32 80 49.5 128t38 118.5t29.5 131.5q3 15 15.5 23t27.5 8
q17 0 31.5 -10t14.5 -28v-4q-25 -182 -93 -376.5t-172 -429.5q-14 -34 -50 -34q-21 0 -38 13t-17 33q0 12 7 24v1q34 53 60 120.5t52 151t45 130.5zM569 113q0 -27 27 -27q29 0 48.5 17.5t19.5 41.5v4q-2 18 -15 30q-4 4 -17.5 10t-18.5 6q-1 0 -9 -3q-21 -27 -31 -55
q-4 -14 -4 -24zM203 680h3q63 0 105.5 -46.5t42.5 -105.5q0 -53 -41 -88q-56 -47 -130 -47q-73 0 -107 54q-22 31 -22 66q0 39 25 74v5q0 20 18 35q18 16 29.5 25t33 18.5t43.5 9.5zM140 512q0 -13 13.5 -22.5t33.5 -9.5q28 0 48.5 13.5t20.5 35.5q0 21 -17 39t-34 19
q-4 -8 -10.5 -13t-14.5 -9.5t-9 -4.5q-6 -10 -17 -15q-14 -17 -14 -33z" />
    <glyph glyph-name="ampersand" unicode="&#x26;" horiz-adv-x="763" 
d="M833 150q7 3 14 3q22 0 34.5 -16.5t12.5 -35.5q0 -16 -9.5 -28.5t-26.5 -16.5q-38 -7 -79 -7q-112 0 -231 53q-113 -104 -244 -123q-17 -2 -37 -2q-32 0 -65.5 7t-65.5 21.5t-52.5 42.5t-20.5 65v1q0 43 14.5 82t40.5 71t53.5 56t64.5 49q-2 3 -5 9q-28 48 -28 113
q0 52 18.5 99t57.5 79.5t91 32.5q31 0 64 -12q47 -16 82.5 -50.5t35.5 -81.5q0 -15 -5 -30q-10 -34 -26.5 -61t-42.5 -48.5t-47.5 -35t-56.5 -32.5q-4 -2 -8 -5q31 -33 68 -58q66 -47 107 -73q61 66 127 171q12 18 32 18q16 0 28 -10.5t12 -26.5q0 -10 -5 -19
q-59 -104 -118 -175q77 -36 144 -36q36 0 72 10zM292 501q5 -42 23 -80q54 33 68 42l1 1l1 1q27 11 46 38.5t19 52.5q0 38 -42 50q-18 4 -34 4q-41 0 -62 -26.5t-21 -69.5q0 -6 1 -13zM312 72q80 20 152 75q-105 65 -177 153q-49 -34 -78 -71q-38 -47 -38 -87
q0 -34 25.5 -55t70.5 -21q22 0 45 6z" />
    <glyph glyph-name="quotesingle" unicode="'" horiz-adv-x="208" 
d="M79 786q-18 22 -18 47q0 29 22.5 49.5t51.5 20.5q31 0 54 -22q35 -35 35 -80q0 -33 -16 -69t-44.5 -77t-34.5 -52q-15 -28 -44 -28q-17 0 -30.5 11t-13.5 28q0 16 13 30q15 17 29.5 46.5t14.5 53.5q0 25 -17 40l-1 1z" />
    <glyph glyph-name="parenleft" unicode="(" horiz-adv-x="394" 
d="M526 925q4 -9 4 -18q0 -21 -16.5 -34.5t-36.5 -13.5q-26 0 -37 23v1l-1 1q-16 0 -63.5 -47.5t-58.5 -65.5q-34 -55 -58 -115q-70 -173 -84 -285q-6 -49 -6 -107q0 -63 8 -118.5t25.5 -108t52 -83t82.5 -30.5q7 0 14 1h6q18 0 28.5 -11t10.5 -26q0 -18 -13 -33.5
t-34 -18.5q-23 -3 -45 -3q-57 0 -101 24t-70.5 62.5t-43 92t-22.5 106t-6 110.5q0 131 25 241q59 263 192 409q31 35 81 64t94 29q52 0 73 -46z" />
    <glyph glyph-name="parenright" unicode=")" horiz-adv-x="430" 
d="M296 849q98 -141 102 -392v-12q0 -38 -4 -83.5t-14.5 -104t-26 -113.5t-42 -109t-60 -94t-82 -65t-104.5 -25q-21 0 -42 4q-18 3 -28.5 15.5t-10.5 28.5t11.5 29t31.5 13h5q7 -1 14 -1q48 0 89 33.5t67.5 83t46.5 111t30 111t13 90.5q3 27 3 56q0 86 -25 215
q-12 58 -33 110q-6 16 -41.5 60t-48.5 44q-2 0 -4 -2q-14 -21 -38 -21q-17 0 -31 11.5t-14 29.5q0 13 8 25q29 42 77 42q42 0 85 -28.5t66 -61.5z" />
    <glyph glyph-name="asterisk" unicode="*" horiz-adv-x="316" 
d="M357 834q32 -19 32 -49q0 -15 -11 -27q-11 -10 -24 -10q-7 0 -13 2t-10.5 4.5t-10 6.5t-7.5 6.5t-6 6l-4 3.5q-1 1 -5 2h-2l-1 1q-3 1 -7.5 3l-4.5 2q4 -13 7 -26q3 -18 2 -34v-1q0 -5 -2 -11q0 -2 -1 -6t-1 -5q1 -4 1 -8q0 -19 -13.5 -33t-32.5 -14q-11 0 -22 6
q-21 13 -21 37q0 17 11 30q1 6 1 13v5q-2 -2 -4 -3q-15 -13 -31 -20q-3 -1 -11 -4.5t-12 -5.5h-1q-15 -5 -27 -5q-15 0 -26.5 8t-15.5 23q-2 6 -2 12q0 18 12.5 31.5t31.5 13.5q7 0 14 -3h2q2 0 8 3q1 1 2.5 2t3.5 2q-12 2 -24 8l-34 15l-1 1q-33 17 -33 47q0 16 12 28
q13 13 30 13q27 0 44 -26q3 -3 8 -6q-1 10 -1 20q0 8 1 17q2 9 9 38q4 16 16.5 28.5t29.5 12.5q11 0 22 -6q20 -12 20 -34q0 -16 -13 -37l-1 -1l-1 -1q0 -3 -1 -5q29 23 64 30l7 3q11 6 22 6q18 0 31.5 -12.5t13.5 -32.5t-13 -32t-30 -12q-8 0 -15 2q9 -3 18 -8
q13 -6 20 -14z" />
    <glyph glyph-name="plus" unicode="+" horiz-adv-x="703" 
d="M542 461q10 3 19 3q26 0 42 -19t16 -43t-15.5 -42.5t-44.5 -21.5q-74 -7 -154 -7h-15q2 -92 10 -152v-7q0 -26 -18.5 -40t-41.5 -14t-41.5 14t-18.5 40v7q8 61 10 155q-89 5 -185 19q-18 3 -28 15.5t-10 28.5q0 20 13 36t35 17q24 1 51 1q32 0 125 -4q0 91 2 142
q1 22 15 34.5t32 12.5t32 -12.5t15 -34.5q2 -52 2 -146q92 1 153 18z" />
    <glyph glyph-name="comma" unicode="," horiz-adv-x="274" 
d="M103 -23q-19 23 -19 50q0 32 24 54t56 22t57 -24q39 -37 39 -87q0 -36 -18 -74.5t-49 -84t-38 -58.5q-16 -30 -47 -30q-18 0 -32.5 12t-14.5 30q0 17 14 32q17 19 33 51.5t16 59.5q0 28 -19 45h-1z" />
    <glyph glyph-name="hyphen" unicode="-" horiz-adv-x="528" 
d="M169 358q193 0 259 -18q52 -14 52 -39q0 -35 -45.5 -43t-165.5 -8h-30h-66q-73 0 -101.5 10.5t-28.5 40.5q0 28 34.5 42.5t91.5 14.5z" />
    <glyph glyph-name="period" unicode="." horiz-adv-x="330" 
d="M71 28q0 38 27 65.5t65 27.5t56 -29.5t18 -68.5q0 -37 -28 -59.5t-65 -22.5q-38 0 -55.5 24.5t-17.5 62.5z" />
    <glyph glyph-name="slash" unicode="/" horiz-adv-x="345" 
d="M353 700q13 23 37 23q18 0 32 -14t14 -33q0 -10 -4 -20q-28 -64 -90.5 -186.5t-89.5 -184.5q-8 -17 -33.5 -76.5t-38 -87t-36 -72.5t-46.5 -80q-16 -25 -44 -25q-22 0 -38.5 15t-16.5 37q0 14 7 27q51 93 163.5 324t183.5 353z" />
    <glyph glyph-name="zero" unicode="0" horiz-adv-x="696" 
d="M606 190q-44 -83 -120.5 -150t-166.5 -85q-26 -6 -51 -6q-54 0 -95.5 25.5t-64.5 68t-34.5 89.5t-11.5 97q0 36 5 75.5t20 84.5t37 79.5t59 58t83 23.5q8 0 15 -1q2 0 6.5 2t9.5 5t6 4q70 32 138 32q93 0 142 -63q64 -81 64 -182q0 -80 -41 -157zM157 268v-23
q0 -32 5 -64t17 -63.5t34 -51.5t52 -20q7 0 15 2q63 9 126 54t103.5 111t40.5 128q0 69 -48 116q-33 31 -77 31q-67 0 -144 -65t-100 -127q-7 -18 -24 -28z" />
    <glyph glyph-name="one" unicode="1" horiz-adv-x="517" 
d="M42 439q43 0 87 23t78.5 58.5t60 77.5t36.5 82q6 19 23 29t36 10q23 0 41 -13t18 -36q0 -5 -1 -10q-30 -161 -45 -313q-7 -67 -15 -177q-1 -10 -6 -54t-5 -67t4 -40q1 -6 1 -12q0 -27 -20.5 -42t-45.5 -15q-24 0 -41.5 14t-17.5 39q0 9 3 19q7 28 7 75q0 9 -0.5 28
t-0.5 28q0 18 1 31q7 98 15 179q4 33 8 71q-98 -88 -197 -88q-24 0 -47 6q-16 4 -25 15.5t-9 25.5q0 21 15.5 38.5t38.5 17.5h1.5h1.5zM1308 694v30h30v-30h-30z" />
    <glyph glyph-name="two" unicode="2" horiz-adv-x="616" 
d="M292 83q31 0 69.5 5t64.5 10.5t71.5 16t61.5 14.5q7 1 14 1q22 0 34.5 -14.5t12.5 -34.5q0 -21 -15 -38.5t-40 -19.5q-36 -3 -133 -22t-154 -19q-13 0 -25 1q-36 2 -69 12t-58.5 33.5t-25.5 55.5q0 24 16 51q19 30 64 70t56 55q12 13 53.5 59.5t64 78t35 64t12.5 60.5
q0 50 -43 50q-13 0 -30 -4q-149 -33 -181 -78q-13 -19 -39 -19q-18 0 -32.5 11t-14.5 29q0 8 4 16q19 43 61 69t102 46q1 1 16.5 6t20 6.5t18.5 5.5t22 5.5t20 4t22.5 3.5t21.5 1q30 0 54 -10q90 -34 90 -130q0 -76 -48 -151q-79 -123 -172 -203q-3 -3 -16.5 -14t-22.5 -19
t-20 -19t-17 -19t-6 -13v-2l3 -2t10 -3q31 -6 68 -6z" />
    <glyph glyph-name="three" unicode="3" horiz-adv-x="612" 
d="M476 559q0 -49 -61 -118q127 -29 162 -119q15 -37 15 -76q0 -93 -76 -168q-44 -45 -110 -75.5t-132 -30.5q-48 0 -89 18q-40 19 -60.5 48.5t-20.5 64.5q0 54 45 103q17 18 41 18q27 0 46 -19.5t19 -43.5q0 -31 -33 -47q-1 -2 -1 -3q0 -6 14 -10l2 -1h1q20 -12 43 -12
q9 0 20 2q44 10 76 27q97 51 105 109q1 7 1 15q0 52 -53.5 80.5t-129.5 29.5q-24 0 -39 14.5t-15 33.5q0 16 11 29q3 4 31 32t50 52.5t24 34.5q-23 16 -57 16q-41 0 -92 -22.5t-91 -49.5q-14 -10 -29 -10q-19 0 -32 12.5t-13 30.5q0 20 16 35q44 43 114 75t139 32
q74 0 123 -39q36 -29 36 -68z" />
    <glyph glyph-name="four" unicode="4" horiz-adv-x="549" 
d="M336 340q36 126 92 229q6 11 19 19t27 8q28 0 37 -26q4 -14 4 -22q0 -9 -6 -29q-4 -10 -13 -17q-40 -110 -59 -181q3 -9 3 -17q0 -20 -16 -36q-21 -92 -21 -177q0 -14 3.5 -46.5t3.5 -50.5q0 -23 -19 -36.5t-43 -13.5q-22 0 -39 12t-17 33q0 135 22 254q-91 -13 -130 -13
q-113 0 -123 79q-1 5 -1 15q0 16 3.5 32.5t10.5 35t12 30t15.5 31t12.5 24.5q0 1 13.5 35t28.5 56.5t37 32.5q12 5 24 5q32 0 44 -23q6 -10 6 -23v-8q-1 -18 -25 -32q-3 -4 -7 -12q-3 -5 -15 -26t-18 -33q-47 -85 -48 -115q12 -7 52 -7q67 0 130 13z" />
    <glyph glyph-name="five" unicode="5" horiz-adv-x="558" 
d="M316 366q33 0 59 -8q55 -17 85.5 -55.5t30.5 -87.5q0 -23 -7 -47q-18 -63 -76 -112t-132 -77q-49 -18 -94 -18q-25 0 -43 6q-19 6 -33 15t-32 27l-22 22q-16 14 -16 34q0 24 21 42t45 18q17 0 30 -11t17 -32q3 -14 24 -14q34 0 83.5 23t87 56.5t37.5 60.5v5t0.5 5.5
l0.5 2.5q-10 47 -79 47q-22 0 -44 -7q-5 -1 -41.5 -23t-63.5 -22q-4 0 -8 1q-18 2 -30 14.5t-12 30.5q0 8 2 16q8 23 19 111q-8 5 -14 12q-39 47 -39 90q0 30 19.5 56.5t49 45.5t74.5 36.5t85.5 28.5t92.5 21.5t85 15.5t73.5 11t47.5 7t13 1q24 0 37.5 -16t13.5 -37
q0 -23 -16 -41.5t-43 -18.5h-1q-44 0 -141.5 -14.5t-190.5 -43.5t-93 -58q0 -3 2 -7q3 1 6 1q17 0 30.5 -10t13.5 -28q0 -5 -1 -10q-7 -30 -14 -82q13 4 24 7q42 10 77 10z" />
    <glyph glyph-name="six" unicode="6" horiz-adv-x="613" 
d="M390 317q20 0 39 -3q53 -10 93 -40.5t40 -77.5q0 -20 -8 -41q-29 -73 -101 -121.5t-158 -48.5q-99 0 -160 63q-80 82 -80 207q0 80 32.5 159.5t87.5 139.5q103 101 215 133q35 11 66 11q28 0 48 -13t20 -41q0 -7 -1 -15q-4 -17 -18.5 -27.5t-30.5 -10.5q-14 0 -27 17
q-83 -31 -103 -44q-74 -48 -115 -105q-33 -46 -53.5 -100.5t-20.5 -105.5q0 -16 2 -32q123 96 233 96zM317 88q51 0 91 33q17 14 32 31.5t15 28.5q0 2 -1 3q-2 12 -20 18.5t-41 6.5h-7q-104 -5 -177 -71q-2 -3 -6 -5q51 -45 114 -45z" />
    <glyph glyph-name="seven" unicode="7" horiz-adv-x="557" 
d="M43 259q0 15 11.5 32t29.5 21q30 7 50.5 10t31 3.5t34 1t46.5 1.5q15 55 36 104q33 79 69 129q-32 2 -157 20q-13 -30 -42 -30q-12 0 -23 8q-31 25 -47 55q-6 9 -6 20q0 19 15 33t34 14h1q38 -1 127 -16t135 -15q36 0 68 7q16 9 42 16q6 2 12 2q21 0 34 -14t13 -32
q0 -14 -8 -25.5t-22 -16.5q-4 -2 -23 -9q-72 -31 -128 -196q-3 -7 -8 -21.5t-6 -20.5q46 5 74 11q6 2 15 2q21 0 33 -14t12 -32q0 -20 -14.5 -36t-39.5 -18q-70 -4 -104 -7q-3 -12 -3 -17q-13 -89 -13 -112q0 -50 20 -82q6 -20 6 -21q0 -22 -20.5 -35.5t-43.5 -13.5
q-21 0 -36 12.5t-15 33.5q0 19 -8 61.5t-8 65.5q0 55 7 96q-40 -5 -56 -5q-8 0 -17 1q-20 -4 -34 -4q-11 0 -26 2q-1 0 -7 0.5t-10 1t-10.5 3t-10.5 5.5t-7 8t-3 13z" />
    <glyph glyph-name="eight" unicode="8" horiz-adv-x="549" 
d="M339 637q29 9 46 11q9 1 18 1q48 0 70.5 -35t22.5 -82q0 -14 -1 -22q-3 -29 -16 -55.5t-41.5 -56t-41.5 -40.5t-51 -43q16 -26 35 -63q32 -80 32 -129q0 -34 -13 -59q-21 -37 -64.5 -60.5t-94.5 -23.5q-17 0 -28 1q-65 11 -114.5 56.5t-49.5 104.5v14v1q4 29 23.5 56.5
t39.5 43.5t52.5 39.5t44.5 33.5q-56 86 -58 119q-3 36 -3 39q0 103 61 148q24 18 67 18q33 0 55 -12l4 -2l4 -2zM256 77h1q52 12 52 56q0 47 -49 129q-4 -3 -17.5 -12t-18 -12.5t-15.5 -11t-16.5 -12.5t-13 -12t-13 -13t-9.5 -13l-1 -1v-1q-6 -8 -6 -19q0 -27 30.5 -53.5
t62.5 -26.5q10 0 12 1zM265 432q11 -20 30 -50q111 85 111 142q0 17 -7 29q-1 4 -8 4t-14 -3v-14q0 -18 -16 -28.5t-35 -10.5q-25 0 -52 34q-16 -2 -20.5 -7.5t-5.5 -25.5l3.5 -8.5t3.5 -15.5q0 -4 -1 -8q2 -21 11 -38z" />
    <glyph glyph-name="nine" unicode="9" horiz-adv-x="578" 
d="M308 632q49 0 90 -19.5t64 -54.5h2q21 0 37.5 -13.5t16.5 -36.5q0 -64 -3 -108.5t-12.5 -101t-31 -106t-56.5 -92.5q-72 -85 -161 -120q-36 -15 -74 -15q-44 0 -115 32q-36 16 -36 49q0 25 18.5 44t43.5 19q22 0 40 -18q18 -19 43 -19q50 0 112 55.5t84 99.5q20 42 29 92
q-60 -43 -132 -56q-21 -4 -43 -4q-66 0 -112.5 33.5t-46.5 92.5v9q4 69 46 131.5t110 90.5q42 16 87 16zM228 365q24 0 49 7t40 18q53 36 82 87q-5 5 -7 8q-29 44 -76 44q-48 0 -95 -41t-47 -86q0 -37 54 -37z" />
    <glyph glyph-name="colon" unicode=":" horiz-adv-x="271" 
d="M45 445q4 33 28.5 55t55.5 22h7h1q29 -4 48 -27t19 -53q0 -4 -0.5 -8l-0.5 -4v-1v-1q-4 -33 -27 -55t-54 -22h-8h-1q-29 4 -48.5 27.5t-19.5 54.5v11v1zM30 142q4 32 26.5 54.5t53.5 22.5l10 -2q30 -3 48.5 -25.5t18.5 -53.5q0 -7 -2 -13v-1v-1q-4 -32 -26.5 -54
t-53.5 -22h-8q-30 3 -49.5 27.5t-19.5 55.5l2 11v1z" />
    <glyph glyph-name="semicolon" unicode=";" horiz-adv-x="318" 
d="M102 79q-18 22 -18 47q0 29 22.5 50t51.5 21q31 0 54 -23q35 -34 35 -80q0 -33 -16 -68.5t-44.5 -77t-34.5 -52.5q-15 -28 -44 -28q-17 0 -30.5 11t-13.5 29q0 16 13 30q15 16 29.5 45.5t14.5 53.5q0 25 -17 40l-1 1zM87 433q4 33 28.5 55t55.5 22h7h1q29 -4 48 -27
t19 -53q0 -4 -0.5 -8l-0.5 -4v-1v-1q-4 -33 -27 -55t-54 -22h-8h-1q-29 4 -48.5 27.5t-19.5 54.5v11v1z" />
    <glyph glyph-name="less" unicode="&#x3c;" horiz-adv-x="387" 
d="M273 540q10 9 23 9q14 0 24 -9.5t10 -23.5q0 -13 -10 -23q-9 -10 -44.5 -56t-62.5 -68q-33 -27 -73 -73q4 -4 8 -7q8 -6 21 -17t20 -16q82 -68 133 -87q29 -11 29 -42q0 -17 -10.5 -30.5t-28.5 -13.5q-8 0 -15 3q-43 17 -85.5 46.5t-87 66.5t-71.5 55q-23 14 -20 36
q1 10 4 19.5t9.5 18t11 14.5t14 14t14 11.5t15 10.5t12.5 9q34 25 85.5 79t74.5 74z" />
    <glyph glyph-name="equal" unicode="=" horiz-adv-x="489" 
d="M57 165q-13 2 -20 12t-7 21t6.5 21.5t19.5 13.5q59 13 140 13q38 0 106 -3.5t90 -4.5q19 -1 30.5 -14.5t11.5 -30t-11.5 -29.5t-31.5 -14q-38 -1 -74 -1q-144 0 -260 16zM77 323q-13 3 -19.5 13t-6.5 21q0 13 9 24t24 11h1h1q52 -3 108 -3q90 0 201 7h3q19 0 30 -13.5
t11 -30.5t-11 -30.5t-30 -13.5h-3q-20 1 -45 1q-18 0 -54 -0.5t-54 -0.5q-99 0 -165 15z" />
    <glyph glyph-name="greater" unicode="&#x3e;" horiz-adv-x="461" 
d="M120 426q-11 10 -11 24t10.5 24.5t24.5 10.5q10 0 18 -5q42 -26 113 -83t102 -77q19 -12 19 -35q0 -22 -19 -35q-32 -19 -122 -84.5t-146 -93.5q-9 -5 -19 -5q-18 0 -30 13t-12 30q0 23 21 33q35 18 69 40.5t82 57t65 46.5q-84 64 -165 139z" />
    <glyph glyph-name="question" unicode="?" horiz-adv-x="557" 
d="M150 667q12 -11 12 -28q0 -16 -11 -30t-27 -17q-11 -2 -21 -2q-27 0 -43 16q-16 17 -16 49q0 41 23.5 93t46.5 74q56 54 134 93.5t151 39.5q27 0 51 -6q33 -9 58 -26q57 -40 57 -117q0 -81 -56 -160q-19 -27 -41.5 -54.5t-52.5 -62t-43 -50.5q-3 -3 -22 -25.5t-26 -31.5
t-24 -31t-24.5 -35.5t-18 -32t-14.5 -34.5t-4 -30v-6q1 -13 -3 -25q-6 -16 -20.5 -25t-30.5 -9q-10 0 -20 4q-30 11 -30 42q0 9 4 20q6 17 17.5 55.5t24 68t30.5 57.5q32 49 107 137q8 9 40.5 45t50.5 57.5t35.5 53t17.5 54.5q0 6 -1 12q-3 14 -9 23q-13 23 -50 23
q-33 0 -76.5 -16t-74.5 -35q-57 -35 -72 -58q-31 -49 -31 -65q0 -3 2 -5zM166 54q15 10 31 10q7 0 14 -2q10 -3 19 -11q28 -8 31 -37q1 -6 1 -13q0 -47 -35 -66q-14 -8 -30 -8q-23 0 -40 13q-2 2 -6 5q-27 10 -27 38q0 4 1 8l1 5v5q2 26 22 43q8 6 18 10z" />
    <glyph glyph-name="at" unicode="@" horiz-adv-x="778" 
d="M450 638q18 2 35 2q110 0 188.5 -77.5t78.5 -184.5q0 -50 -19 -97q-27 -67 -74.5 -109.5t-115.5 -42.5q-49 0 -81 36q-47 -43 -100 -43q-16 0 -32 4q-49 13 -75 49t-26 83q0 30 11 60q21 60 64 97t103 37q9 0 17 -1q48 -4 77.5 -35.5t29.5 -75.5q0 -9 -2 -17q4 -10 3 -21
q0 -7 -2.5 -16t-2.5 -12q0 -19 10 -32t23 -13q10 0 21 7q35 21 51 62q16 39 16 79q0 44 -19 78q-46 82 -142 82q-84 0 -169 -56q-66 -43 -116 -110t-50 -131q0 -54 39 -99q43 -50 116 -78.5t148 -28.5q27 0 52 4q5 1 9 1q23 0 35.5 -14.5t12.5 -33.5q0 -21 -14.5 -37.5
t-39.5 -16.5q-39 1 -75 3.5t-81 10t-83 19t-76.5 31.5t-66.5 46t-47.5 64t-25.5 85q-2 17 -2 35q0 74 35 146t91.5 125.5t127.5 90t143 45.5zM346 228q8 -2 16 -2q23 0 40.5 18t25.5 45q0 9 3 19q1 7 2 10q2 6 5 12q-6 21 -33 21h-3q-46 -1 -62 -49q-9 -26 -9 -46
q0 -24 15 -28z" />
    <glyph glyph-name="A" unicode="A" horiz-adv-x="687" 
d="M396 232q-140 0 -218 -18v-16q0 -68 12 -129q17 -15 17 -34q0 -5 -1 -6v-1v-7v-1q-2 -13 -14.5 -23.5t-27.5 -12.5q-1 0 -3.5 -0.5t-3.5 -0.5h-2h-10q-19 0 -34 9t-20 27q-17 68 -23 137q-4 -17 -17 -28.5t-33 -11.5h-24q-22 0 -37.5 16t-15.5 36q0 12 11 27
q41 57 118 90q13 139 59 254q114 291 272 291h3q37 0 65.5 -16t44 -37.5t27 -55t15.5 -56.5t7 -54q6 -57 10.5 -165.5t5.5 -120.5q17 -15 17 -39q0 -21 -13 -35q11 -124 45 -221l1 -1q1 -6 1 -15q0 -22 -16 -34.5t-36 -12.5q-15 0 -28.5 8.5t-19.5 25.5q-38 100 -50 230
q-8 0 -37 0.5t-47 0.5zM402 729q-23 0 -56 -42.5t-62.5 -99t-50.5 -103t-27 -64.5q-9 -38 -19 -104q100 19 252 19q7 0 37 -1q-1 16 -4 57t-4 65q0 12 -0.5 50.5t-2 60t-5.5 53t-13 55t-23 41.5q-10 13 -22 13z" />
    <glyph glyph-name="B" unicode="B" 
d="M372 848q47 0 88 -11t73 -43t32 -80q0 -81 -106 -164q163 -16 236 -112q49 -64 49 -138q0 -66 -37.5 -123t-103.5 -88q-157 -73 -398 -73q-13 0 -40 -2t-41 -2t-22 1q-3 0 -28 2.5t-32.5 3.5t-31.5 4.5t-34 6.5t-30.5 9t-30.5 12.5t-25 17t-22.5 22t-15 27.5t-9.5 35
q-1 7 -1 19v8v5q0 25 18 39t40 14q18 0 34 -11.5t16 -32.5q0 -3 -1 -8t-1 -7q1 -17 45.5 -30t104.5 -19q0 14 -1.5 38t-1.5 31q0 16 1 60t1 58v34q0 10 -0.5 25.5t-0.5 25.5q0 18 1 31q4 148 25 228q-18 -13 -39 -25q-22 -8 -27 -8q-22 0 -35.5 21t-13.5 38q0 18 19 31
q72 50 114 70.5t126 43.5q48 16 106 16zM255 682q-32 -70 -37 -186q1 1 3.5 2.5t3.5 2.5q102 60 152 102q89 73 89 105q0 3 -1.5 6.5t-1.5 4.5q-23 38 -87 38q-63 0 -131 -33q13 -13 13 -27q0 -15 -3 -15zM245 423q-17 0 -30 11v-2v-15q0 -18 2.5 -56.5t2.5 -58.5v-15
q0 -13 -2 -43.5t-2 -45.5q0 -39 9 -60q4 -11 4 -22v-7q168 0 287 46q84 34 108 66q18 29 18 70q0 49 -26 81q-35 41 -92.5 63t-120.5 22q-72 0 -133 -28q-11 -6 -25 -6z" />
    <glyph glyph-name="C" unicode="C" horiz-adv-x="769" 
d="M705 686q0 -70 -59.5 -132t-149.5 -78q-6 -1 -11 -1q-20 0 -32.5 11.5t-12.5 26.5q0 14 11 25.5t29 15.5q46 9 84.5 44t38.5 70q0 15 -8 29q-28 45 -88 45q-64 0 -134 -44q-90 -58 -145 -146t-68 -184q-3 -18 -3 -37q0 -42 12 -81.5t35.5 -74t65 -56t95.5 -24.5h14
q66 0 140.5 25.5t113.5 63.5q18 18 40 18q18 0 31.5 -12t13.5 -30q0 -19 -15 -35q-55 -61 -148 -92.5t-188 -31.5q-76 0 -128 19q-55 21 -94.5 55.5t-60.5 76.5t-30.5 84t-9.5 89q0 64 16 129q35 147 164 263q49 43 136 80t163 37q26 0 48 -6q66 -16 100 -54.5t34 -87.5z
" />
    <glyph glyph-name="D" unicode="D" horiz-adv-x="762" 
d="M81 785q0 15 9.5 28.5t25.5 17.5q68 16 140 16q190 0 323 -107t133 -283q0 -25 -1 -38q-6 -71 -52.5 -150t-115.5 -144t-160.5 -107.5t-179.5 -42.5q-95 0 -168 55q-24 16 -24 43q0 21 14.5 36.5t37.5 15.5q12 0 36 -11q-1 4 -1 11q11 459 21 609q-18 5 -28 19.5
t-10 31.5zM193 98h1q98 0 195 54t158 139.5t61 171.5q0 9 -2 29q-14 120 -116 186.5t-241 66.5q-17 0 -23 -1q-4 -84 -8.5 -294.5t-13.5 -325.5q-1 -15 -11 -26z" />
    <glyph glyph-name="E" unicode="E" horiz-adv-x="576" 
d="M453 807q50 0 80 6q5 1 12 1q24 0 38 -16t14 -36q0 -21 -13.5 -36.5t-37.5 -15.5q-8 0 -13 1q-53 10 -110 10q-120 0 -230 -34q-3 -80 -23 -236q36 5 81 5t115 -4q22 -1 35 -14.5t13 -31.5t-13 -31.5t-35 -14.5q-6 0 -15.5 -0.5t-14.5 -0.5q-14 0 -41 0.5t-41 0.5
q-63 0 -96 -7q-7 -57 -10 -118q0 -4 -3.5 -39t-3.5 -57q0 -91 49 -91q13 0 26 4q67 20 203 81q12 6 24 6q22 0 36 -14.5t14 -33.5q0 -25 -24 -38q-2 -1 -20.5 -10.5t-27.5 -14t-29.5 -15t-35 -16.5t-36 -15t-39 -14t-37.5 -10.5t-39 -8t-36 -2.5q-95 0 -112 92
q-13 72 -13 150q0 67 8.5 144t22.5 168t19 142q-10 -6 -21 -6q-18 0 -29.5 13.5t-11.5 30.5q0 23 19 36q19 14 51 33q1 13 1 37q0 7 -0.5 22t-0.5 23v3q0 19 13 30t29 11q18 0 33 -11.5t16 -30.5q2 -32 2 -49q33 11 71 17q37 6 93 6q16 0 47.5 -0.5t46.5 -0.5z" />
    <glyph glyph-name="F" unicode="F" horiz-adv-x="551" 
d="M402 814q95 0 180 -20q15 -4 23 -15.5t8 -25.5q0 -15 -10 -28t-28 -13h-5q-95 12 -175 12q-115 0 -211 -24q-10 -36 -13.5 -82t-3.5 -111t-1 -86q40 10 100 10q21 0 60.5 -1.5t56.5 -1.5q29 0 49 3h8q22 0 36.5 -14t14.5 -32q0 -14 -9.5 -25t-26.5 -15q-20 -4 -44.5 -6.5
t-40 -3t-45 -0.5h-39.5h-12h-13h-14q-67 0 -90 -12q-19 -198 -21 -302q-1 -22 -16 -34t-34 -12q-18 0 -32.5 11t-14.5 31v6q7 71 20.5 230.5t22.5 244.5q1 14 3.5 96t12.5 126q-1 5 -1 9q0 20 16 32q9 19 11 23q28 19 36 19q21 0 35 -14q100 25 207 25z" />
    <glyph glyph-name="G" unicode="G" horiz-adv-x="751" 
d="M348 353q45 2 96.5 3t112 1.5t92.5 1.5q21 0 35 -14.5t14 -33.5q0 -6 -2 -12q-16 -59 -50.5 -113.5t-82.5 -98t-112 -69.5t-134 -26q-15 0 -30 1q-52 4 -94.5 30t-69.5 64t-45.5 86t-26.5 94.5t-8 90.5q0 31 4 58q8 51 28.5 104.5t55.5 104t79.5 91t104 66t123.5 28.5h14
q91 0 144 -46t53 -114q0 -76 -63 -140q-11 -12 -29 -12q-17 0 -29.5 11.5t-12.5 26.5q0 14 11 25q40 37 40 74q0 35 -35 60t-85 25q-38 0 -73 -16q-79 -39 -122 -78q-56 -53 -87 -121.5t-31 -140.5q0 -48 13 -93q24 -80 71.5 -133t111.5 -53q43 0 91 25q109 56 159 154
q-106 -3 -153 -3l-78 1q-23 1 -37 14.5t-14 31t13.5 31t37.5 14.5z" />
    <glyph glyph-name="H" unicode="H" horiz-adv-x="678" 
d="M450 422q-36 2 -50 2q-94 0 -187 -12v-53.5t0.5 -57t1 -53t2.5 -57.5t5 -53t7.5 -56.5t11 -51.5t15.5 -54.5t20 -49.5l2 -3l1 -10q-1 -27 -20.5 -38t-42.5 -11q-42 0 -60 39q-20 44 -32.5 93t-17.5 108t-6 96.5t-1 104.5v96l-2 3q-50 -9 -78 -12.5t-40 -4.5t-19 -2
q-15 -1 -16 -1h-2.5h-2.5q-45 0 -45 31q0 33 43 49q24 9 41 12t47 7.5t67 12.5v19q0 99 2.5 154t18.5 140t49 154q13 26 51 26h14q41 0 41 -60v-3.5v-2.5q0 -7 -3 -16q-35 -106 -45.5 -165t-10.5 -147v-78l2 -3q94 10 195 10q8 0 26 -0.5t26 -0.5q6 85 37 238q8 46 50 46
q47 0 52 -39v-8l-1 -7q-32 -221 -35 -257l3 -3q32 -10 32 -36q0 -28 -36 -40q2 -178 61 -342q3 -5 3 -12q0 -4 -3 -13q-14 -44 -45 -44h-8q-37 0 -46 24q-69 181 -69 385v5l-2 2h-1z" />
    <glyph glyph-name="I" unicode="I" horiz-adv-x="280" 
d="M191 702q0 -155 -14 -312q0 -5 -7 -73.5t-7 -103.5q0 -103 39 -163q8 -13 8 -26q0 -22 -19 -34.5t-42 -12.5q-33 0 -53 28v1h-1q-23 36 -29.5 73.5t-6.5 91.5v14.5v14.5q0 26 1.5 53t5 65.5t4.5 48.5q10 106 10 294v96q0 24 11.5 41.5t36.5 17.5q24 0 44.5 -14.5
t20.5 -40.5v-24q0 -6 -2 -12v-23z" />
    <glyph glyph-name="J" unicode="J" horiz-adv-x="586" 
d="M425 780v3l22 39l5 2q11 4 22 4q23 0 38.5 -15t15.5 -37v-7q-8 -57 -11.5 -142.5t-6 -148.5t-15.5 -140t-38 -138q-16 -38 -36.5 -70.5t-51 -64t-73 -51t-92.5 -21.5h-12q-50 0 -92.5 18.5t-68.5 48.5t-40.5 65.5t-14.5 70.5q0 50 30.5 84t87.5 34q21 0 45 -4
q18 -4 27 -16t9 -26q0 -16 -12 -29.5t-32 -13.5h-4h-10q-47 0 -47 -34t35 -67.5t79 -33.5q27 0 53 16q69 42 103 98q53 93 66 235q5 57 9 162t10 179z" />
    <glyph glyph-name="K" unicode="K" horiz-adv-x="816" 
d="M150 410l27 49q107 175 287 333q27 24 40.5 35t47.5 35.5t65 36t60 11.5q36 0 61 -19q51 -36 51 -97q0 -44 -24 -101q-7 -15 -21.5 -23.5t-30.5 -8.5q-19 0 -35 11.5t-16 32.5q0 3 3 17l1 1q19 50 19 71q0 10 -2 12.5t-7 2.5q-13 0 -44 -16q-59 -33 -95 -66
q-50 -46 -161 -172l-39 -48q68 -14 126.5 -59.5t86.5 -127.5q5 -12 14.5 -43.5t16.5 -52t19.5 -51t27 -50.5t33 -39.5t43 -29.5t52.5 -10q4 0 12.5 -0.5t12.5 -0.5q25 0 39 9q12 8 25 8q21 0 34.5 -16t13.5 -36q0 -36 -24 -52q-25 -17 -41 -20.5t-72 -8.5h-18
q-69 4 -123.5 34t-83.5 81q-19 27 -36.5 73.5t-32.5 90.5t-34.5 88t-52 77t-75.5 46q-8 2 -23 2q-11 0 -18 -2q-103 -156 -115 -304v-77q0 -23 -14.5 -36t-33.5 -13t-34 13t-16 34v0q0 4 -1 14.5t-1 16.5q0 18 2 45q0 101 4 326.5t4 344.5q0 22 16 34t35 12t35 -13t16 -36
q0 -69 -3 -196t-3 -172z" />
    <glyph glyph-name="L" unicode="L" horiz-adv-x="643" 
d="M80 397q2 25 8 95t9.5 105.5t11.5 91.5t18 102q4 16 15 24.5t25 8.5q19 0 34.5 -12.5t15.5 -32.5q0 -4 -1 -9q-13 -55 -20 -117.5t-12.5 -138.5t-10.5 -120q-2 -12 -3 -69.5t-2 -127.5t-2 -99q36 19 71.5 33t79.5 23t70 14t81 8.5t71.5 4.5t80.5 3h3q24 0 37.5 -15.5
t13.5 -36.5q0 -22 -14.5 -39t-38.5 -17q-6 0 -13 1q-37 7 -76 7q-85 0 -168.5 -25.5t-190.5 -72.5q-13 -6 -29 -6q-21 0 -39 12.5t-25 33.5q-20 62 -20 141q0 35 3 74t9 86.5t8 69.5z" />
    <glyph glyph-name="M" unicode="M" horiz-adv-x="942" 
d="M759 257q0 -178 102 -200q17 -4 27.5 -16t10.5 -27q0 -21 -14.5 -38t-36.5 -17l-9 1h-2h-1q-174 37 -180 274q-88 -160 -186 -160q-39 0 -74 22q-82 51 -102 207q-52 -152 -142 -257q-27 -32 -46 -51.5t-49 -37t-59 -17.5q-47 0 -88 46q-41 44 -41 118q0 65 32 133
q13 27 41 27q19 0 35 -14t16 -36v-22q0 -23 -16 -37q-6 -27 -6 -44v-4q34 -46 55 -46q13 0 27 23l1 2l1 1q53 58 73 90q54 90 84 196q20 66 50 203t51 205q4 16 17.5 26t29.5 10q22 0 38.5 -14.5t16.5 -37.5v-8v-2q-37 -201 -37 -320q0 -158 53 -248q19 -31 35 -31
q17 0 39.5 23.5t43.5 59t36 66t26 55.5q99 222 118 417q3 6 8.5 14t19.5 21.5t25 13.5q19 0 34 -13t15 -35v-7q0 -41 -18 -133.5t-36 -199t-18 -181.5z" />
    <glyph glyph-name="N" unicode="N" horiz-adv-x="789" 
d="M171 50q-1 -14 -15 -22t-32 -8t-32 8t-14 22q-1 50 -6 182.5t-5 204.5q0 76 4 139q0 2 1 20.5t1.5 23.5t2.5 22t4 24t5.5 21t9 22t12.5 19t16.5 19t20.5 15q11 5 24 5q19 0 35 -10q42 -36 76 -92.5t71 -142.5t46 -105q50 -96 117 -215q5 34 12 97.5t12 102.5t16.5 96
t26.5 98.5t41 88.5t60 86q15 12 36 12q22 0 38.5 -12.5t16.5 -28.5q0 -26 -14 -46q-44 -43 -71.5 -106.5t-38.5 -135t-17 -141.5t-15.5 -149t-26.5 -135q-4 -12 -19.5 -19t-33.5 -7q-32 0 -46 17q-51 92 -153 297.5t-162 309.5q-4 6 -7 11q-1 -7 -1 -19v-17v-17v-10v-14
q0 -26 2.5 -75t2.5 -70q2 -107 2 -183q0 -99 -3 -183z" />
    <glyph glyph-name="O" unicode="O" horiz-adv-x="822" 
d="M374 104q86 0 152 77q127 147 127 295q0 13 -2 39q-9 74 -39.5 122t-96.5 65q-75 19 -112 19q-74 0 -148 -54q-19 -13 -34 -40q-60 -109 -60 -221q0 -82 35 -173q23 -60 71.5 -94.5t106.5 -34.5zM409 839q58 0 114 -17q152 -43 215 -184q29 -68 29 -150
q0 -104 -42.5 -212.5t-109.5 -183.5q-48 -52 -114.5 -80t-136.5 -28q-75 0 -139 33.5t-103 99.5q-66 113 -66 275q0 96 27 185t79 152q14 20 38 39q88 71 209 71z" />
    <glyph glyph-name="P" unicode="P" horiz-adv-x="682" 
d="M581 893q56 -22 95.5 -52.5t55.5 -78.5q7 -20 7 -42q0 -43 -22.5 -84t-55.5 -74q-43 -40 -91.5 -77t-109.5 -73t-100.5 -58t-112.5 -60q-21 -11 -31 -16q0 -9 0.5 -30t1.5 -32q1 -7 1 -22q0 -34 -6.5 -95.5t-7.5 -71.5q-2 -24 -19 -37.5t-39 -13.5q-14 0 -30 4t-31 15.5
t-15 29.5q0 16 12 32q14 20 14 67q0 16 1.5 39.5t1.5 33.5v8v1q-23 -6 -29 -9q-15 -9 -30 -9q-23 0 -37.5 16.5t-14.5 37.5q0 32 33 47q12 6 38 26t40 28v53q0 12 -0.5 37.5t-0.5 38.5q0 67 21 151l3 13t6 25.5t9.5 32.5t13 37t16.5 35t20.5 30.5t24 21t28.5 8.5
q23 0 43 -21q11 -13 11 -29q0 -15 -9.5 -27t-23.5 -18v-3l-1 -1q-7 -16 -12 -32v-1q-11 -34 -17 -66q-10 -46 -14 -158q-2 -66 -2 -100q122 70 261 168q5 3 20.5 14t22.5 16t21.5 16t22.5 18l20 17.5t18.5 19t14 19t11.5 20.5t5 20v8q0 55 -91 90q-113 43 -241 43
q-98 0 -200 -27q-33 -9 -66.5 -20.5t-77 -31t-70.5 -44.5t-27 -51q0 -7 4 -15q6 -9 6 -20q0 -20 -16 -34.5t-35 -14.5q-20 0 -33 17q-23 34 -23 62v15q9 124 217 201q175 65 343 65q143 0 258 -48z" />
    <glyph glyph-name="Q" unicode="Q" horiz-adv-x="817" 
d="M275 610q0 4 1 7q-44 -38 -68 -73q-87 -131 -87 -247q0 -14 1 -21q4 -48 18.5 -93t44.5 -84t69 -51h1q19 -7 44 -7q83 0 175 83q-40 32 -76 32q-33 0 -70 -29q-12 -9 -29 -9q-20 0 -34 13.5t-14 32.5q0 15 12 29q49 53 124 53q55 0 132 -34q11 -5 23 -13q31 41 49 79
q39 80 39 168q0 23 -3 44q-6 55 -43 104.5t-84 49.5q-16 0 -41 -10q-52 -23 -108 -61q-14 -9 -28 -9q-20 0 -34 14t-14 32zM703 703q0 -15 -9.5 -27.5t-23.5 -16.5q68 -69 68 -201q0 -72 -20 -148q-24 -90 -99 -185l15 -18q81 -99 181 -99q65 0 134 38l1 1q11 4 20 4
q21 0 33.5 -15.5t12.5 -33.5q0 -23 -21 -36q-95 -63 -184 -63q-63 0 -129 27q-23 9 -47.5 29t-39 35.5t-40.5 44.5q-4 6 -7 9q-121 -112 -240 -112q-34 0 -68 10q-57 18 -100 52.5t-67.5 79.5t-36.5 95t-12 105q0 88 27 174.5t74 149.5q29 38 71.5 76t94 71t111 54t113.5 21
q116 0 180 -96q8 -11 8 -25z" />
    <glyph glyph-name="R" unicode="R" horiz-adv-x="661" 
d="M146 349q29 7 31 8q86 51 135 97t60 110q10 39 10 85q0 14 -2 38q-3 20 -7.5 28.5t-9 11t-19.5 6.5q-3 3 -14 3h-25q-47 0 -65 -31q-28 -67 -59 -176t-35 -180zM774 93q31 0 56 4h1l1 1h3h5q25 0 40.5 -17t15.5 -39q0 -21 -14 -36.5t-39 -17.5q-50 -4 -76 -4
q-150 0 -240 63q-19 13 -62.5 54.5t-83.5 79.5t-87 69t-78 31q-9 0 -15 -3q-3 -1 -18 -10t-24 -11v-138q0 -59 -1 -89q0 -23 -15 -36t-35 -13q-19 0 -34.5 12t-17.5 34q-12 192 -12 247q0 206 69 415q33 103 91.5 143.5t151.5 40.5q24 0 52 -14q88 -50 88 -192q0 -31 -9 -94
q-24 -124 -152 -218q12 -9 18 -13q37 -29 99.5 -85t98.5 -85t96.5 -54t126.5 -25z" />
    <glyph glyph-name="S" unicode="S" horiz-adv-x="579" 
d="M368 824q46 0 87 -23.5t47 -65.5q1 -3 1 -7q0 -19 -16.5 -32t-33.5 -13q-12 0 -22 7.5t-13 21.5q-1 4 -18 12t-29 8q-47 0 -94 -34.5t-47 -88.5q0 -32 22 -60q72 -88 136 -132q42 -29 77.5 -68t55.5 -82q24 -51 24 -97q0 -63 -45 -107t-127 -64q-83 -19 -164 -19
q-144 0 -178 76q-13 30 -13 61q0 57 33.5 105.5t91.5 65.5q6 2 13 2q20 0 39 -14t19 -30q0 -22 -23 -31q-27 -10 -44.5 -35.5t-17.5 -51.5q0 -23 9.5 -33t38.5 -13q29 -4 58 -4q57 0 106 15q55 17 75 39t20 51q0 41 -37 85.5t-94 83.5q-34 24 -58.5 43.5t-57 51t-50.5 66
t-18 69.5q0 7 1 14q16 182 180 221q26 7 66 7z" />
    <glyph glyph-name="T" unicode="T" horiz-adv-x="464" 
d="M438 920q77 0 154 9q4 1 11 1q20 0 31.5 -14t11.5 -31q0 -15 -8.5 -31t-26.5 -20q-46 -8 -73 -11t-67.5 -4.5t-80.5 -5.5h-1h-12q-9 0 -24 0.5t-16 0.5q-1 -2 -2 -5q-4 -10 -5 -14l-4 -14q-11 -35 -17 -72.5t-8 -63.5t-4.5 -77t-5.5 -86q-5 -78 -5 -192v-109
q0 -97 -9 -173q-2 -23 -18.5 -37t-37.5 -14t-37.5 13.5t-19.5 37.5q-5 68 -5 124q0 59 5 169t6 159v30q0 53 5.5 125.5t7.5 147.5q0 1 1 33v15q-131 7 -222 10h-1q-36 4 -36 53v5q0 17 10.5 32.5t31.5 15.5h44q52 0 146.5 -3t145.5 -3q29 0 73 -0.5t62 -0.5z" />
    <glyph glyph-name="U" unicode="U" horiz-adv-x="778" 
d="M26 668q-47 -43 -51 -125q-1 -18 -14 -28.5t-29 -10.5q-17 0 -29.5 10.5t-13.5 28.5v1v7q0 50 17 95.5t49.5 82.5t86.5 59t123 22q2 0 11.5 -1t19.5 -2.5t11 -1.5q37 -1 58.5 -28.5t22.5 -77.5v-5q0 -29 -7 -67q-8 -47 -31.5 -113t-32.5 -103q-9 -39 -15.5 -99t-6.5 -102
q0 -12 2 -35q5 -44 19.5 -60t35.5 -16q33 0 77.5 29.5t65.5 54.5q38 43 62.5 90t49.5 114q3 9 9.5 26.5t9.5 26.5q2 124 34 222q24 77 65 132q17 22 44 22q12 0 24 -6q3 -2 6 -5q22 -13 22 -39q0 -7 -1 -12q-9 -55 -20 -106q-28 -136 -66 -236q5 -94 30.5 -188t64.5 -168
q20 -38 42 -68l1 -1q7 -12 7 -23q0 -19 -15 -32t-33 -13q-17 0 -31 13q-56 56 -96.5 136t-55.5 177q-14 -28 -24 -40q-22 -29 -48 -56.5t-63 -60t-80 -52t-84 -19.5q-29 0 -55 11q-57 24 -87.5 74.5t-30.5 111.5q0 41 8 101.5t17 94.5q10 41 34 105.5t33 107.5q2 15 2 30
q0 5 0.5 12.5t0.5 11.5q0 37 -8 39h-1v0q-6 1 -20 1q-33 0 -58 -10t-58 -39z" />
    <glyph glyph-name="V" unicode="V" horiz-adv-x="622" 
d="M250 379q5 -24 17 -93t21 -105q15 81 17 88q5 18 15.5 59.5t16.5 65.5t16.5 58.5t21.5 63.5q24 64 40 102.5t48.5 93t70.5 91.5q35 35 93 68t103 33q6 0 12 -1q27 -3 42 -24.5t15 -57.5q0 -13 -2 -29q-3 -20 -17 -32t-32 -12q-5 0 -10 1q-15 3 -26 16t-11 30q0 6 1 11
q1 3 1 6q-27 -11 -67 -44l-1 -1q-56 -45 -96 -124q-61 -115 -99 -251q-10 -36 -24 -116.5t-32.5 -145t-50.5 -113.5q-5 -9 -18 -16v0q-11 -6 -24 -6q-33 0 -41 22q-63 181 -105 338q-66 245 -87 402v1q0 9 3 17v1h1q5 11 24 18.5t32 7.5q11 0 20 -5l6 -3q21 -11 21 -37v-8
l-1 -3v-1l-1 -2q11 -67 43.5 -189.5t43.5 -174.5z" />
    <glyph glyph-name="W" unicode="W" horiz-adv-x="801" 
d="M810 900q14 11 34 11t34.5 -11.5t14.5 -26.5q0 -22 -11 -41q-90 -107 -147 -234.5t-104 -294.5q-2 -7 -8.5 -43t-15 -70.5t-22 -72.5t-35 -64.5t-48.5 -31.5q-9 -2 -18 -2q-21 0 -39 9.5t-31.5 23t-25.5 38t-19.5 43t-16 51t-12.5 50t-11 50.5l-3 15q-6 -21 -15.5 -61.5
t-16.5 -65.5t-19 -58t-28.5 -60t-37.5 -50h-1q-14 -9 -35 -9q-13 0 -23 4h-1q-12 9 -22 20.5t-17 21.5t-12.5 27t-8.5 25.5t-5.5 29.5t-3.5 26t-2.5 28t-1.5 24q-14 199 -14 435v82q0 12 13.5 18.5t30.5 6.5t31.5 -7t15.5 -19q13 -282 29 -519q49 158 112 277q13 24 43 24
q31 0 43 -24q23 -40 36 -80.5t26.5 -105.5t18.5 -82q8 -29 16 -39q7 8 15.5 30.5t14 43t13.5 51t10 37.5q50 176 114 313.5t166 256.5z" />
    <glyph glyph-name="X" unicode="X" horiz-adv-x="839" 
d="M790 910q51 0 94 -41q14 -14 14 -35q0 -9 -3 -18q-4 -14 -14.5 -24.5t-26.5 -10.5q-12 0 -22 8q-17 12 -36 12q-54 0 -146 -98q-87 -92 -182 -211q4 -8 30.5 -72.5t44.5 -104.5t49 -93.5t59 -82.5q36 -36 66 -36q37 0 75 57q5 8 11 12q12 10 26 10q24 0 40 -25
q10 -16 10 -35q0 -29 -23 -47q-2 -1 -12.5 -10t-14 -11t-14 -10t-15 -11t-14.5 -9.5t-16.5 -9t-16 -7t-17.5 -6t-17.5 -3t-18.5 -1.5q-44 0 -84 31q-36 28 -68 73.5t-49 80.5t-41 91q-4 9 -58 142q-10 -15 -38.5 -56t-43 -61.5t-38 -52.5t-44.5 -57q-46 -56 -114 -125
q-8 -8 -36.5 -35.5t-44.5 -45.5t-28 -37q-5 -7 -10 -12q-12 -11 -26 -11q-24 0 -39 24q-11 17 -11 36q0 27 21.5 44.5t45 41t52.5 55.5t45 48q77 79 132 156q67 95 130 176q-12 23 -23 42q-28 47 -64.5 88.5t-72.5 62.5q-32 19 -56 19q-16 0 -31 -8q-15 -9 -31 -23t-16 -20
q1 -8 1 -10q0 -20 -11.5 -34.5t-27.5 -16.5q-3 -1 -6 -1q-14 0 -25.5 10t-15.5 26q-4 15 -4 30q0 42 24.5 74t56.5 52q46 27 94 27q51 0 97 -31q100 -70 177 -209q29 37 57 70q9 11 35.5 44.5t45.5 57t50 55.5t58 52.5t60.5 35t64.5 14.5z" />
    <glyph glyph-name="Y" unicode="Y" horiz-adv-x="628" 
d="M146 787v-1q-2 -17 -3 -19q-3 -16 -3 -40q0 -60 18 -126t51 -114t70 -48q29 0 64 28q67 54 117 136t79 175q11 31 42 31q18 0 32 -12.5t14 -31.5q0 -3 -1 -8v-2q-8 -38 -23 -82.5t-41.5 -95.5t-58.5 -93.5t-77 -76t-94 -44.5q4 -59 5.5 -169.5t4.5 -158.5v-3
q0 -19 -16 -30.5t-35 -11.5q-16 0 -30.5 8.5t-19.5 24.5q-23 70 -23 169q0 44 10 173q-47 14 -84 50t-58.5 83t-32.5 97t-11 99q0 62 18 109q6 15 18.5 22.5t26.5 7.5q15 0 28 -10t13 -29v-7z" />
    <glyph glyph-name="Z" unicode="Z" horiz-adv-x="670" 
d="M279 95q55 11 117 26t137 35.5t114 30.5q6 1 13 1q20 0 32.5 -14.5t12.5 -32.5q0 -14 -8 -26.5t-23 -17.5q-225 -80 -422 -111q-63 -10 -92 -10q-40 0 -65 14q-62 30 -62 90q0 30 13.5 63t35.5 71t27 49q16 32 44 83h-24q-20 0 -59 2h-1q-19 2 -30.5 15t-11.5 29t12 28.5
t31 13.5q70 2 140 8q47 70 85 117q10 13 65 77.5t87 100.5q-47 4 -101 4q-70 0 -131.5 -9t-72.5 -20q-14 -14 -31 -14q-18 0 -32 12.5t-14 31.5q0 10 7 22l1 1q23 32 114 49.5t194 17.5q199 0 199 -74q0 -7 -2 -13q-9 -37 -39 -72.5t-72.5 -73t-55.5 -52.5q-35 -38 -72 -93
l131 9h3q24 0 37 -15.5t13 -34.5t-13 -35t-38 -16h-3q-11 1 -33 1q-37 0 -157 -9q-58 -98 -81 -133q-1 -1 -7 -11l-10.5 -17.5l-12 -20t-12.5 -23t-10.5 -22t-8 -21.5t-2.5 -17v-3q0 -5 1 -6t9 -1h1h2q68 3 131 16z" />
    <glyph glyph-name="bracketleft" unicode="[" horiz-adv-x="333" 
d="M428 996q5 -1 9.5 -3t7.5 -5t5.5 -6.5t4 -8t2 -8t1 -8.5t0.5 -7.5v-7v-4.5v-2.5v-2.5q0 -21 -10 -31q-10 -11 -34 -11h-12q-29 0 -56.5 2t-53.5 2h-16.5h-17.5q-51 0 -78 2q-6 -87 -11.5 -270t-5.5 -271q0 -14 0.5 -42.5t0.5 -43.5q0 -24 -1 -44v-23q0 -37 2 -99.5
t2 -103.5q0 -5 2 -33.5t2 -41.5h69q82 0 139 -2q53 -4 53 -55q0 -25 -15 -38t-41 -14q-17 0 -51 -1.5t-61 -1.5q-22 0 -46 0.5t-53 1.5t-45 1q-26 0 -42.5 18t-16.5 46q0 1 -0.5 3.5t-1 6t-0.5 6.5v1v1v3q0 5 -1 21.5t-1 21.5v58q0 49 -3 143t-3 145v7q0 114 9 323.5
t19 323.5q6 63 55 63h10h1q51 -8 115 -8q14 0 42.5 0.5t42.5 0.5q46 0 83 -4z" />
    <glyph glyph-name="backslash" unicode="\" horiz-adv-x="417" 
d="M-20 634q-4 9 -4 17q0 17 11 28.5t27 11.5q15 0 26 -12q329 -361 389 -646q1 -6 1 -11q0 -22 -15 -35t-33 -13q-15 0 -28 9t-18 25q-29 79 -76 165t-90.5 151.5t-98.5 153t-91 156.5z" />
    <glyph glyph-name="bracketright" unicode="]" horiz-adv-x="399" 
d="M83 848h-1q-21 0 -33.5 14.5t-12.5 33.5q0 9 5.5 16.5t15.5 11.5t17.5 6t17 4l9.5 2q51 12 85 12q9 0 37 -1.5t53 -1.5q33 0 65.5 1t54.5 1h27q25 0 41.5 -17.5t16.5 -41.5q0 -8 -1 -13q-46 -201 -46 -544q0 -42 0.5 -124.5t0.5 -122.5q0 -115 -4 -205q-1 -23 -17 -42
t-41 -19h-6q-33 2 -105.5 2t-122 7.5t-104.5 30.5q-34 16 -34 49q0 26 21 37.5t48 11.5q14 0 26 -5q52 -21 122 -21q13 0 42.5 1t45.5 1q8 0 15 -1q2 53 2 115q0 57 -2 174.5t-2 176.5q0 263 31 434q-28 1 -64.5 5t-75.5 4z" />
    <glyph glyph-name="asciicircum" unicode="^" horiz-adv-x="377" 
d="M51 643q-9 -5 -19 -5q-16 0 -25.5 11.5t-9.5 25.5t8 25q18 21 51 57t44 49q38 45 81 45h6q44 -4 89 -58q8 -9 20 -26t22 -30t18 -18q22 -14 22 -36q0 -19 -14.5 -33t-33.5 -14q-23 0 -35 23q-13 21 -49 60t-51 39q-2 0 -4 -2q-23 -27 -37 -42t-37.5 -36t-45.5 -35z" />
    <glyph glyph-name="underscore" unicode="_" horiz-adv-x="955" 
d="M89 -43q-19 2 -30.5 15t-11.5 29t11.5 29t30.5 15q128 9 295 9q76 0 228.5 -2.5t228.5 -2.5q25 0 39.5 -17t14.5 -39t-14.5 -39t-39.5 -17q-26 0 -121.5 0.5t-132.5 1t-119 2t-132 3.5t-118.5 5t-128.5 8z" />
    <glyph glyph-name="grave" unicode="`" horiz-adv-x="318" 
d="M187 801q-17 -14 -17 -39q0 -24 14.5 -53t30.5 -47q13 -24 13 -29q0 -18 -13.5 -29t-30.5 -11q-29 0 -44 28q-7 12 -35 53t-44.5 76.5t-16.5 68.5q0 44 35 80q23 22 54 22q29 0 51.5 -20.5t22.5 -49.5q0 -25 -17 -47l-1 -2z" />
    <glyph glyph-name="a" unicode="a" horiz-adv-x="596" 
d="M339 150l-1 2q-16 29 -35.5 40.5t-47.5 11.5q-39 0 -69 -20.5t-30 -46.5q0 -9 3 -14q22 -32 60 -32q32 0 68 19.5t53 38.5h-1v1zM242 399q-33 0 -53 -14q-21 -16 -39 -16q-22 0 -38.5 16t-16.5 36q0 19 19 34q51 43 136 43q59 0 109 -24t76 -70v-1q32 -66 32 -163
q0 -51 -7 -103q3 -5 15 -16t17 -17q32 -36 58.5 -49t76.5 -19q37 -5 37 -40q0 -22 -15.5 -38.5t-39.5 -16.5h-6q-34 0 -72 11t-63 31q-18 14 -36 40.5t-32 35.5l-9 8q-2 1 -7 1q-11 0 -40 -17.5t-40 -21.5q-61 -23 -116 -24h-4q-56 0 -94.5 47t-38.5 102q0 26 10 50v0
q24 48 76.5 72.5t115.5 24.5q50 0 98 -21q-3 42 -14 72q-8 21 -35 34t-60 13z" />
    <glyph glyph-name="b" unicode="b" horiz-adv-x="631" 
d="M470 444q34 -35 52.5 -97t18.5 -130q0 -129 -63 -178q-50 -39 -109 -39q-76 0 -144 51.5t-105.5 121.5t-42.5 135q-1 11 -1 34q0 57 11 116.5t37 119.5t63 107t94 76.5t125 29.5q5 0 11.5 -0.5t8.5 -0.5h1q55 -5 84 -53t29 -107q0 -24 -4 -43q-15 -74 -66 -143zM182 348
v-8q3 5 8 8q189 127 237 225q12 24 12 55q0 27 -13.5 46t-31.5 19q-20 0 -60 -23q-69 -41 -109.5 -128t-42.5 -177v-17zM221 273q-15 0 -28 8q37 -135 150 -164q20 -4 28 -4q33 0 52.5 27.5t19.5 74.5q0 35 -12 93.5t-24 80.5q-11 -6 -19 -7q-35 -30 -133 -97
q-16 -12 -34 -12z" />
    <glyph glyph-name="c" unicode="c" horiz-adv-x="600" 
d="M283 378v1v6q0 19 15 31.5t34 12.5q14 0 26.5 -8.5t17.5 -22.5q9 2 19 12t10 20q0 11 -8 20q-29 27 -62 27h-13q-27 -8 -48 -29.5t-43 -54.5q-54 -81 -54 -158q0 -22 4 -38q21 -99 136 -99q94 0 174.5 25t130.5 67q16 13 33 13q18 0 30 -14t12 -31q0 -26 -24 -42
q-5 -4 -15 -10q-48 -32 -73.5 -47t-68 -35t-86 -28t-95.5 -8q-101 0 -160 28q-57 28 -85.5 80t-28.5 115q0 39 11.5 94t27.5 89q56 126 139 161q54 24 96 24q46 0 94 -20t73 -59q16 -24 16 -70q0 -51 -50.5 -88.5t-101.5 -37.5q-31 0 -54 19.5t-29 54.5z" />
    <glyph glyph-name="d" unicode="d" horiz-adv-x="673" 
d="M643 836q-1 -9 -22 -107.5t-36.5 -210.5t-15.5 -213q0 -34 4 -94l1 -1q0 -79 24 -126q5 -10 5 -21q0 -18 -13 -31t-31 -13t-31 13q-59 49 -59 168v6q-50 -85 -121.5 -134t-178.5 -55q-24 -3 -26 -3q-45 0 -75 30.5t-37 74.5q-2 20 -2 32q0 42 13.5 88.5t35.5 82.5
q53 83 137 125q18 11 59 11h3.5h3.5q112 0 166 -45q38 138 96 436q1 4 3 7.5t4 5.5l1 1q11 16 40 16h5q5 1 6 1q16 0 28.5 -10t12.5 -28v-6zM127 130q0 -26 7.5 -36t29.5 -18q92 14 148.5 70.5t98.5 158.5q-1 1 -4.5 4t-6.5 7q-27 28 -54.5 37.5t-62.5 9.5q-6 0 -24.5 -4.5
t-24.5 -7.5q-30 -13 -45 -29.5t-36 -50.5q-26 -48 -26 -141z" />
    <glyph glyph-name="e" unicode="e" horiz-adv-x="589" 
d="M324 420l-10 -1q-30 -2 -62.5 -23.5t-55.5 -50.5q-14 -17 -29 -46q15 -4 19 -4l1 -1q11 -2 35 -2q49 0 85 23t46 62l1 1v1v5q0 11 -9 21.5t-21 14.5zM285 121q91 0 177 56q17 12 32 12q22 0 34.5 -16.5t12.5 -37.5q0 -36 -30 -56q-49 -33 -113.5 -54t-127.5 -21
q-144 0 -200 114q-22 49 -22 104q0 81 44.5 153.5t122.5 104.5q54 21 111 21q64 0 106.5 -28.5t42.5 -83.5q0 -25 -11 -55q-24 -65 -90 -105t-146 -40q-41 0 -79 14q5 -48 48 -66q38 -16 88 -16z" />
    <glyph glyph-name="f" unicode="f" horiz-adv-x="517" 
d="M273 312q35 3 106.5 8t82.5 5q19 0 24.5 -12t5.5 -33q0 -14 -8.5 -26t-24.5 -14q-91 -14 -199 -21q-7 -68 -15 -225q-3 -37 -3 -111v-170q0 -21 -18.5 -38t-41.5 -17q-19 0 -35.5 18t-19.5 35q-6 43 -6 93q0 14 1 44t1 47q0 40 4 122q8 135 13 193h-140h-1
q-19 1 -30 13.5t-11 28t11 28.5t31 14q41 1 151 7q14 100 44 171q29 76 85 132.5t117 56.5q37 0 67 -30.5t49 -90.5l1 -1q1 -6 1 -14q0 -19 -13.5 -30.5t-30.5 -11.5q-33 0 -45 31q-16 44 -32 44q-24 0 -62.5 -64t-43.5 -88z" />
    <glyph glyph-name="g" unicode="g" horiz-adv-x="584" 
d="M272 -463v1q57 103 91 305q-108 -70 -151 -107q-24 -20 -41 -36.5t-38 -40t-32 -47.5t-11 -47q0 -18 8 -37q33 -52 80 -52q29 0 55 17.5t38 43.5h1zM182 194v-10q4 -37 17 -51t33 -17h3q4 0 10 -0.5t7 -0.5q39 0 68.5 11.5t47.5 31.5t27 36.5t16 37.5q3 10 3 22
q0 81 -69 81q-54 0 -108.5 -44.5t-54.5 -96.5zM242 47q-80 0 -123 47.5t-43 113.5q0 64 43 117.5t106 81.5t127 28q69 0 115 -44.5t46 -132.5q0 -6 0.5 -10.5t0.5 -9.5q0 -33 -1 -70t-4.5 -101t-9.5 -124.5t-18 -133.5t-27.5 -135t-40 -122t-54.5 -102t-72 -68t-91 -26
q-4 0 -10.5 0.5t-8.5 0.5h-1q-92 9 -140.5 67.5t-48.5 142.5q0 32 8 69q10 40 34 77.5t53.5 66t72 59t76 50.5t80 47.5t71.5 44.5q2 20 6 55.5t6 46.5q-66 -36 -152 -36z" />
    <glyph glyph-name="h" unicode="h" horiz-adv-x="610" 
d="M97 327q26 181 37 438q2 21 17 33t34 12q20 0 35.5 -12t15.5 -32v-3q-11 -231 -33 -386q72 68 149 68q14 0 29 -3q55 -10 84 -47.5t35 -91.5q3 -28 3 -62q0 -31 -3 -77q0 -10 -3.5 -31t-3.5 -28q10 4 19 4q20 0 35 -15t15 -34.5t-16 -33.5q-41 -34 -74 -34
q-30 0 -49 21.5t-26 49.5t-7 60q0 10 1 20q2 31 2 61q0 57 -11 98t-27 41q-22 0 -60 -40q-82 -85 -123 -175q-8 -64 -24 -107q-7 -17 -21 -25.5t-30 -8.5q-18 0 -32.5 12t-14.5 33q0 3 1 5q3 49 28 124q4 28 9.5 84t8.5 82z" />
    <glyph glyph-name="i" unicode="i" horiz-adv-x="355" 
d="M263 559q-19 -15 -38 -15q-20 0 -35.5 14t-15.5 36q0 1 -2.5 4.5t-5 11t-2.5 17.5q0 3 2 15v9q1 5 3 11v2q0 25 22 45t45 20q3 0 17 -3l1 -1h1q44 -19 46 -66v-7q0 -59 -37 -92zM239 117q16 0 38 6q6 1 15 1q24 0 38 -17.5t14 -38.5q0 -38 -38 -50q-39 -11 -72 -11
q-48 0 -84 20t-55.5 54t-29 73.5t-9.5 84.5q0 108 39 210q7 18 21.5 27.5t31.5 9.5q21 0 37 -14t16 -36q0 -7 -1 -14v-2l-1 -1q-14 -37 -26 -90t-12 -98q0 -114 78 -114z" />
    <glyph glyph-name="j" unicode="j" horiz-adv-x="377" 
d="M322 585v-1q-2 -40 -18 -60t-41 -20q-24 0 -48 16l-1 1l-1 1q-13 11 -25 34l-1 3v21l-2 3v4q0 30 23 47t50 17q25 0 44.5 -18t19.5 -45v-3zM225 299q0 44 -6 106l-2 10q1 25 17.5 37t36.5 12q17 0 31.5 -10.5t17.5 -29.5q11 -66 11 -144q0 -186 -76 -364
q-11 -25 -23 -48.5t-33 -52.5t-44.5 -50t-56.5 -36.5t-70 -18.5q-7 -1 -16 -1q-68 0 -101.5 44.5t-33.5 105.5q0 64 32 119t87 55q47 0 85 -33l3 -2q19 -15 19 -36q0 -22 -18 -38.5t-44 -16.5q-15 0 -30 8h-1l-1 1q-2 1 -5 2q-8 -10 -8 -35q0 -19 5.5 -33.5t12 -21
t11.5 -6.5q19 0 51 32q56 56 95 155q54 141 54 290z" />
    <glyph glyph-name="k" unicode="k" horiz-adv-x="767" 
d="M793 -14q66 0 149 24q10 3 15 3q20 0 32.5 -15t12.5 -34q0 -34 -33 -46q-97 -33 -189 -33q-162 0 -270 103q-28 27 -67.5 71.5t-75 79.5t-74.5 62q-29 19 -57 19h-3l-2 -1l-4 -1q-14 -2 -23 -6.5t-14.5 -14.5t-8 -18.5t-7 -27t-7.5 -30.5q-7 -69 -18 -143q0 -7 -1 -11
q-3 -17 -15 -26t-26 -9q-19 0 -35 12.5t-17 33.5q-1 11 -1 34q0 70 23 140q5 43 26.5 280.5t41.5 364.5q4 16 16 24.5t28 8.5q17 0 32.5 -10.5t15.5 -30.5v-4v-1q-19 -132 -48 -466q61 63 107.5 97t121.5 67q28 14 75 14h9.5h8.5q62 0 101 -25.5t39 -75.5q0 -51 -45 -115
q-17 -22 -40 -22q-19 0 -33.5 13t-14.5 32q0 6 5 21v1v1q16 31 16 51q0 25 -37 25q-18 0 -35.5 -5.5t-26.5 -10t-30 -18t-29 -18.5q-42 -25 -78 -55q87 -29 135 -79q19 -20 58 -68t71.5 -78.5t70.5 -48.5q72 -35 155 -35z" />
    <glyph glyph-name="l" unicode="l" horiz-adv-x="466" 
d="M302 820q-70 -133 -106 -276q24 31 43 59q2 2 18 24.5t19 27.5t16 24.5t17.5 27.5t14.5 25t15 28t10.5 25.5t9.5 27.5q4 16 4 35q0 23 -9 23q-8 0 -23.5 -13t-28.5 -38zM66 241v1q-6 -2 -12 -2q-18 0 -32 12.5t-14 31.5q0 11 6 21q32 51 50 76q12 321 161 515
q29 38 71.5 60.5t80.5 22.5q37 0 61 -25.5t24 -72.5q0 -17 -3 -39q-10 -49 -31.5 -101t-44 -91.5t-62 -93.5t-64.5 -84t-72 -85q-12 -14 -17 -21q-1 -4 -1.5 -16t-0.5 -20q0 -43 5 -83t16 -78.5t32 -61.5t50 -23q31 0 70 23h1q13 8 24 8q20 0 34.5 -16t14.5 -35.5t-18 -33.5
q-65 -51 -136 -51q-47 0 -84 23t-59 62t-34 82.5t-16 93.5v1z" />
    <glyph glyph-name="m" unicode="m" horiz-adv-x="856" 
d="M27 172q0 190 25 306q4 15 15 23.5t24 8.5q17 0 31 -12t14 -31v-8v-2q-16 -81 -18 -195q102 205 234 205q14 0 22 -1q57 -7 85.5 -42t34.5 -87q79 100 156 106q6 1 13 1q41 0 68 -21.5t38 -54t18.5 -72t10.5 -75t12 -64.5t26 -38q21 -13 21 -37q0 -18 -12 -32t-31 -14
l-11 1q-31 8 -52 28t-30.5 49t-14 53t-8 57t-5.5 45q-11 53 -33 53q-24 0 -66.5 -47.5t-76.5 -102t-44 -85.5q-6 -16 -20 -24.5t-30 -8.5q-20 0 -34.5 12.5t-14.5 33.5v1q0 8 3 37.5t5.5 65.5t2.5 66q0 33 -4 57.5t-10.5 36t-13.5 11.5q-17 0 -51 -30q-63 -58 -105.5 -136
t-82.5 -185q-5 -15 -17.5 -22.5t-27.5 -7.5q-18 0 -32 11.5t-14 30.5v136z" />
    <glyph glyph-name="n" unicode="n" horiz-adv-x="759" 
d="M622 316q-9 -105 -9 -158q0 -30 3 -42.5t6 -13.5t13 -2q6 0 17.5 1t17.5 1q21 0 32 -16t11 -34q0 -16 -11.5 -32t-27.5 -21q-24 -9 -74 -9h-5q-32 0 -52.5 12t-29 37t-11 45.5t-2.5 53.5q0 30 4 79.5t4 63.5v4q0 82 -27 82q-38 0 -81.5 -25t-75.5 -61q-95 -103 -167 -246
q-12 -25 -38 -25q-19 0 -38.5 11t-21.5 33q-8 112 -8 173q0 54 1.5 82.5t11 71t28.5 76.5q7 12 20 22.5t26 10.5q17 0 35 -11t18 -32q0 -13 -4 -21q-36 -78 -36 -200v-5q34 56 66.5 97t74.5 78.5t92.5 57t107.5 20.5h1l11 -1q54 -4 87 -38t33 -82v-4q0 -4 -1 -17t-1 -15v-1z
" />
    <glyph glyph-name="o" unicode="o" horiz-adv-x="604" 
d="M99 394l2 4l6 10v1l1 2l1 2q49 61 143 77q0 5 0.5 9t0.5 6v3v1v1v4v5.5v5.5q0 37 39 44h1h1q9 1 19 1q17 0 31 -3q18 -6 27.5 -22t9.5 -36v-11l-1 -1q-1 -6 -2 -14q62 -18 97 -66q63 -75 63 -161q0 -93 -73 -174q-39 -42 -94.5 -67t-115.5 -25q-90 0 -148 57
q-67 66 -67 155q0 87 59 192zM209 386q-1 -1 -4 -7l-4 -5v-1h-1l-2 -3l-2 -4q-19 -32 -32.5 -75t-13.5 -79q0 -49 19 -68q50 -43 99 -43q65 0 115 59q48 55 48 112q0 30 -10.5 61t-31.5 48q-13 11 -33 19q-1 -8 -4.5 -27.5t-6 -31.5t-6.5 -26.5t-9.5 -23t-12.5 -11.5h-1
q-8 -3 -19 -3q-21 0 -41 10.5t-20 33.5q0 1 1 4v1v1q3 17 9 84q-19 -5 -37 -25z" />
    <glyph glyph-name="p" unicode="p" horiz-adv-x="585" 
d="M176 224q-11 -52 -15 -93q45 -12 87 -12q77 0 124 38l1 1l5 3q24 21 40 49q17 58 17 93q0 47 -23 64l-4 4q-17 13 -43 13t-58.5 -13t-59.5 -34l-5 -4q-41 -32 -51 -67zM345 493q7 0 14.5 -0.5t16.5 -1.5t13 -1q67 -6 106 -43q48 -47 48 -134q0 -52 -17.5 -105.5
t-44.5 -91.5q-13 -19 -35 -41v-1h-1q-71 -61 -182 -61q-50 0 -104 13q6 -184 32.5 -340t87.5 -299v-1q3 -10 3 -18q0 -17 -11 -29l-1 -1l-2 -1q-17 -14 -44 -14q-23 0 -39 11l-1 1l-1 2q-8 8 -12 19q-41 107 -80.5 306.5t-39.5 379.5q0 278 109 388q72 63 185 63z" />
    <glyph glyph-name="q" unicode="q" horiz-adv-x="545" 
d="M330 466q21 0 42 -3q17 -3 27.5 -14.5t10.5 -25.5q0 -18 -15 -33t-38 -15h-8q-15 2 -28 2q-55 0 -100.5 -30.5t-69 -75t-23.5 -89.5v-6q1 -25 7.5 -32.5t18.5 -7.5q16 0 40.5 12t40.5 24q93 73 114 165q4 17 18 26t31 9q22 0 40 -13t18 -35q0 -4 -1 -9q-48 -228 -48 -397
q0 -105 16 -198q29 21 86 80q15 14 33 14q20 0 34.5 -15t14.5 -34q0 -18 -13 -32q-4 -4 -21.5 -23.5t-23 -25t-21 -21.5t-25 -22.5t-25 -17.5t-31 -18t-33.5 -13q-8 -3 -17 -3q-19 0 -34.5 11t-19.5 28q-31 132 -31 286q0 91 12 193q-84 -76 -157 -76q-46 0 -81 37
q-52 54 -52 124q0 67 44.5 131t117.5 103.5t150 39.5z" />
    <glyph glyph-name="r" unicode="r" horiz-adv-x="684" 
d="M72 12q13 173 15 440q0 21 15 32.5t33 11.5q19 0 35.5 -9.5t16.5 -32.5v-8v-142q60 85 166 147q99 56 187 56q47 0 79.5 -29t39.5 -89v-1v-5q0 -21 -19.5 -38t-37.5 -17q-15 0 -28 9t-17 26q-5 20 -14.5 27.5t-25.5 7.5q-41 0 -83 -18.5t-76 -49.5q-84 -74 -124.5 -144.5
t-69.5 -171.5q-5 -19 -17 -33t-31 -14q-17 0 -30.5 10.5t-13.5 30.5v4z" />
    <glyph glyph-name="s" unicode="s" horiz-adv-x="490" 
d="M316 428q0 2 -6 2q-13 20 -38 20q-31 0 -62 -24q-18 -10 -18 -33q0 -5 1 -11.5t1 -7.5q0 -14 33.5 -30t72.5 -27q71 -26 98 -79q22 -39 22 -85q0 -75 -57 -121q-72 -57 -186 -57q-75 0 -120 34q-60 45 -60 98q0 43 43 74q12 8 26 8q20 0 33 -15t13 -35q0 -21 -12 -33v-2
q-1 -1 -1 -2q0 -12 27 -19t56 -7q23 0 24 4h7q55 5 77 25q30 28 30 63q0 28 -22 46q-18 13 -61 30t-75 30.5t-58.5 44t-26.5 71.5q0 59 73.5 98t153.5 39q44 0 74 -22t30 -66q0 -10 -2 -24q-4 -16 -16 -25t-27 -9q-18 0 -32.5 11t-14.5 31v5z" />
    <glyph glyph-name="t" unicode="t" horiz-adv-x="509" 
d="M190 535q81 208 211 270q9 5 19 5q18 0 35 -14t17 -32q0 -22 -19 -34q-78 -48 -146 -205q73 -6 111 -10q19 -2 30.5 -15.5t11.5 -30.5t-12 -29.5t-32 -12.5q-92 0 -143 2q-16 -52 -22 -102q-8 -73 -8 -74q0 -74 23.5 -122t71.5 -48q40 0 91 34q10 7 22 7q18 0 31.5 -14
t13.5 -32.5t-14 -30.5q-77 -62 -153 -62q-88 0 -142 50t-57 144v19q0 112 28 241q-42 6 -88 17q-15 5 -23 15.5t-8 24t7.5 25t19.5 16.5v5l16 -1q89 -4 108 -6z" />
    <glyph glyph-name="u" unicode="u" 
d="M455 139q-25 -40 -57.5 -68t-66 -40t-58 -17t-47.5 -5q-5 0 -7.5 0.5l-2.5 0.5q-3 0 -10 2q-130 13 -130 178q0 50 13.5 142t14.5 117q0 23 17 35t38 12q50 0 53 -39q1 -4 1 -5v-14q0 -29 -17 -110t-17 -118q0 -71 46 -88q13 -5 25 -5q22 0 45.5 13.5t45.5 39t41 51.5
t40 64t33.5 62t29.5 59t22 43q13 31 65 31q22 0 40 -8t18 -28q0 -34 -14.5 -103t-14.5 -100q0 -71 25.5 -109t84.5 -38q5 0 11 0.5t11 1.5q7 1 9 1q1 0 3.5 -0.5l2.5 -0.5q23 0 39 -18.5t16 -39.5q0 -14 -8.5 -25t-22.5 -14q-41 -10 -74 -10q-48 0 -85.5 16t-59.5 39
t-37 54.5t-20.5 56.5t-7.5 51q-20 -39 -32 -66z" />
    <glyph glyph-name="v" unicode="v" horiz-adv-x="769" 
d="M295 5q-42 0 -75.5 35.5t-54.5 93t-34.5 111t-24.5 112t-15 72.5q-2 10 -2 15q0 21 21 35t38 14q31 0 41 -33q16 -47 39.5 -136.5t28.5 -107.5q31 -100 38 -115q11 11 28 36.5t32 49.5t15 25q94 165 192.5 269.5t174.5 153.5q19 15 33 15q23 0 37.5 -19t14.5 -41
q0 -30 -17 -43q-83 -51 -178 -158t-161 -211q-3 -5 -19.5 -33.5t-28.5 -46.5t-31.5 -42t-41.5 -37t-45 -14h-5z" />
    <glyph glyph-name="w" unicode="w" horiz-adv-x="897" 
d="M58 463v2q0 1 -0.5 3t-0.5 6q0 22 16 35.5t36 13.5q36 0 46 -35q14 -51 26.5 -105.5t28 -130t21.5 -103.5q6 11 25.5 47.5t29 53t26.5 45t33 51t34 43.5q18 18 42 18h15h3.5h4.5q25 0 34 -13q21 -29 37 -64t23 -55.5t18.5 -65.5t15.5 -57q33 51 105 187.5t122 210.5
q3 5 5.5 8t4.5 3.5t4 0.5l2 1q9 5 22 5q17 0 35 -12.5t26 -26.5q5 -12 5 -22q0 -20 -17 -47q-69 -100 -130.5 -204.5t-94 -161.5t-51.5 -75q-23 -18 -54 -18q-37 0 -50 29q-18 38 -42.5 126t-42.5 126q-21 -32 -72.5 -129.5t-90.5 -147.5q-20 -24 -52 -24q-40 0 -51 36
q-19 72 -47.5 221.5t-49.5 224.5z" />
    <glyph glyph-name="x" unicode="x" horiz-adv-x="834" 
d="M641 104q19 0 34 21q15 20 34 20q22 0 35 -20.5t13 -42.5q0 -18 -10 -32.5t-30 -19.5q-9 -2 -26 -8t-31.5 -9.5t-30.5 -3.5q-11 0 -23 3q-53 9 -102 53q-51 47 -120 145q-86 -133 -154 -226q-75 -103 -186 -209q-35 -34 -61 -34q-21 0 -35.5 18t-14.5 40q0 30 26 51
q43 32 95.5 79.5t78.5 82.5q61 77 110 147q11 17 80 117q-44 60 -91 107.5t-76 47.5q-18 0 -31 -27q-11 -25 -34 -25q-18 0 -30 14t-12 33q0 11 5 22q39 86 101 86q26 0 54.5 -14.5t58.5 -44t53 -56.5t56 -70q20 29 37 52q112 148 218 148q72 0 125 -80q9 -13 9 -29
q0 -20 -13.5 -36.5t-32.5 -16.5t-31 18q-29 43 -64 43q-71 0 -185 -166q69 -85 119 -131.5t82 -46.5z" />
    <glyph glyph-name="y" unicode="y" horiz-adv-x="653" 
d="M-5 -346q83 166 361 318v1h1q13 6 26 6q21 0 36 -15.5t15 -33.5q0 -23 -20 -37l-53.5 -31l-53.5 -31q-83 -52 -127 -95.5t-87 -106.5q-31 -47 -31 -87q0 -70 71 -103q65 -32 121 -32q74 0 104 54q67 120 90.5 258.5t23.5 313.5q0 36 -2 118q-91 -143 -202 -144h-2l-1 1
h-4.5h-9.5q-1 0 -3.5 0.5t-5 0.5h-3.5h-1h-1q-42 8 -70.5 30.5t-42 57.5t-18.5 68t-5 75q0 28 3 73.5t3 55.5q0 20 15.5 32.5t36 12.5t36 -12.5t15.5 -33.5q0 -5 -2.5 -36.5t-2.5 -56.5q0 -77 13 -131t40 -54q12 0 29 11q68 42 114.5 122.5t65.5 166.5q4 17 16 26.5t28 9.5
v0q19 -1 34 -12.5t15 -31.5q1 -44 5 -162t4 -183v-19v-16q0 -186 -30 -337q-18 -90 -46.5 -159t-58 -107t-64.5 -61.5t-62 -30.5t-54 -7q-23 0 -38 3h-1q-22 1 -50 7t-65 22t-66.5 39.5t-50 64t-20.5 91.5q0 41 16 92l2 4q1 1 1 2q6 14 13 29z" />
    <glyph glyph-name="z" unicode="z" horiz-adv-x="636" 
d="M413 29q-40 0 -118 -10t-117 -10q-43 0 -79 11q-33 11 -33 54q0 22 11 36q19 26 43.5 52.5t41.5 44.5t55.5 51.5t53 45.5t69 57t71.5 59q-45 5 -71 5q-64 0 -108.5 -8t-99.5 -29v-1l-11 -3q-3 -1 -6 -1.5t-5 0.5h-1q-18 1 -28.5 17t-10.5 37q0 38 29 52q65 28 117.5 38.5
t126.5 10.5q73 0 147 -18q16 -5 32 -34.5t16 -50.5v-12l-2 -4q-23 -36 -73.5 -84t-134 -118.5t-110.5 -94.5v-1q12 1 89 6.5t89 5.5h19q13 0 33 0.5t28 0.5q6 0 16 0.5t15 0.5q22 0 31 -8t9 -25q0 -21 -2 -28q-3 -15 -14.5 -25t-31.5 -14t-35 -5t-37 -1h-4.5h-5.5h-4z" />
    <glyph glyph-name="braceleft" unicode="{" horiz-adv-x="356" 
d="M398 957q7 2 13 2q20 0 32.5 -15t12.5 -33q0 -26 -23 -38q-50 -25 -83.5 -55t-52.5 -67t-31 -70.5t-29 -84.5t-36 -91q-27 -55 -69 -92q43 -27 76 -75q28 -42 28 -131q0 -14 -0.5 -42t-0.5 -41q0 -29 2 -49.5t8.5 -42.5t19 -36t34 -24.5t51.5 -14.5q26 -3 40.5 -19.5
t14.5 -38.5q0 -23 -16.5 -40.5t-43.5 -17.5q-5 0 -11 1q-145 20 -186 133q-15 42 -21 96t-8.5 93t-12.5 77.5t-40.5 66.5t-83.5 44q-20 7 -30 21.5t-10 31.5q0 18 10.5 33.5t29.5 21.5q43 14 73.5 41.5t48 66.5t29.5 77t28 88t34 85q13 28 36.5 51t54.5 40t54.5 27t57.5 21z
" />
    <glyph glyph-name="bar" unicode="|" horiz-adv-x="240" 
d="M89 847q3 18 15.5 28.5t28 10.5t27.5 -10.5t13 -28.5q8 -85 8 -183q0 -117 -15.5 -345.5t-15.5 -338.5q0 -24 -16 -38.5t-37 -14.5t-37.5 14t-18.5 38q-7 85 -7 179q0 47 1.5 95t5.5 106.5t6.5 92t10 106t9.5 91.5t11.5 105t10.5 93z" />
    <glyph glyph-name="braceright" unicode="}" horiz-adv-x="354" 
d="M43 839q-19 3 -31 17t-12 32q0 13 8.5 24.5t24.5 15.5q34 8 63 8q51 0 85.5 -25t53 -66.5t30 -91.5t20 -103.5t19 -99.5t32 -81.5t53.5 -47.5q19 -7 30 -23t11 -35q0 -31 -28 -49q-42 -26 -65 -44t-42.5 -43.5t-28 -56.5t-11.5 -77q-5 -78 -26 -119q-38 -72 -93 -106
t-138 -40h-3q-26 0 -40.5 19t-14.5 42q0 19 11 34.5t32 18.5q52 7 83 26t41.5 44t16 59t6.5 67t12 72.5t34 71.5q34 48 94 89q-35 44 -56.5 108.5t-31 122t-22 111t-41 87.5t-76.5 39z" />
    <glyph glyph-name="asciitilde" unicode="~" horiz-adv-x="741" 
d="M95 211q-12 -11 -26 -11q-16 0 -26.5 11.5t-10.5 27.5q0 13 8 24q5 6 22.5 30t28 37t31 34.5t37 33t39.5 21t46 9.5h10q66 -7 131 -52q9 -6 27.5 -21t32 -24t26.5 -11q14 -2 28 -2q38 0 71 16t72 48q14 12 30 12q19 0 31.5 -13.5t12.5 -31.5q0 -22 -20 -36
q-36 -26 -60.5 -41.5t-63.5 -31t-74 -15.5q-47 0 -88 25q-13 9 -49.5 35.5t-61 39.5t-47.5 13q-31 0 -60 -29q-12 -12 -44.5 -46t-52.5 -52z" />
    <glyph glyph-name="section" unicode="&#xa7;" horiz-adv-x="498" 
d="M328 658q16 -1 26.5 -14t10.5 -29q0 -12 -8.5 -22.5t-22.5 -12.5q-4 -1 -23.5 -4t-27.5 -5t-21 -6t-23 -9q-36 -21 -36 -41q0 -18 30.5 -40.5t65.5 -34.5q51 -18 83.5 -37t56.5 -55q22 -32 22 -66q0 -27 -13 -53t-37 -48t-44.5 -37t-48.5 -33q46 -36 46 -82v-5
q-2 -35 -16.5 -60t-34.5 -37.5t-49.5 -20.5t-53.5 -10t-54.5 -4t-45.5 -5q-7 -1 -12 -1q-23 0 -35.5 15t-12.5 34q0 20 12 36t33 16q8 0 17 -3q11 -3 28 -3q30 0 71 11q18 4 30 15.5t12 20.5q0 12 -21 23q-8 4 -35.5 15.5t-43 19.5t-36.5 23.5t-34 32.5q-44 60 -44 121
q0 49 27 92t74 76q-15 21 -26 50q-7 18 -7 36q0 35 22 63t55.5 44.5t67.5 25t63 8.5h13zM204 375q-83 -55 -83 -108q0 -24 19 -49q26 -33 79 -55q27 4 59 27.5t53 49.5q18 23 18 41q0 22 -27.5 39t-74.5 35q-23 9 -43 20z" />
    <glyph glyph-name="copyright" unicode="&#xa9;" horiz-adv-x="774" 
d="M474 294q11 8 23 8q18 0 30 -14.5t12 -31.5q0 -13 -8 -24t-23 -15q-85 -25 -144 -25q-111 0 -136 83q-5 16 -5 34q0 60 48.5 111t107.5 51q47 0 81 -37q10 -11 10 -25q0 -15 -10 -27t-26 -12q-11 0 -20 7q-14 9 -31 9q-29 0 -56 -25.5t-27 -48.5q0 -17 18 -27
q26 -13 66 -13q56 0 90 22zM597 284q28 59 28 117q0 69 -41 102q-48 38 -128 38q-57 0 -113.5 -19.5t-91.5 -50.5q-14 -12 -30 -12t-29 11q-63 -60 -63 -145q0 -21 5 -42q15 -75 69 -117t127 -42q31 0 62 8q69 17 124 56t81 96zM675 536q42 -64 42 -141q0 -79 -42.5 -154.5
t-112.5 -127t-149 -64.5q-34 -5 -69 -5q-74 0 -136.5 25t-106 81.5t-49.5 136.5q-1 13 -1 26q0 112 69 191t182 88q100 40 182 40q128 0 191 -96z" />
    <glyph glyph-name="guillemotleft" unicode="&#xab;" horiz-adv-x="559" 
d="M254 476q5 1 10 1q17 0 27.5 -12t10.5 -27q0 -14 -9 -26t-24 -16q-17 -5 -32 -15t-31 -28.5t-25 -30t-26.5 -38t-22.5 -32.5q-8 -12 -8 -19q0 -4 2.5 -7t9 -7t12 -6.5t17.5 -8.5t19 -9q22 -12 52.5 -36.5t35.5 -28.5q21 -14 21 -37q0 -21 -17 -36.5t-38 -15.5
q-15 0 -26.5 9.5t-16.5 27.5q-5 15 -33.5 29.5t-66.5 33t-57 38.5q-14 15 -14 38q0 31 24 65q6 8 24.5 35t28.5 41t29.5 37.5t36 36.5t40 26t47.5 18zM392 457q13 19 34 19q16 0 28 -11.5t12 -27.5q0 -11 -6 -21q-13 -22 -55.5 -76t-53.5 -83q0 -12 55.5 -44t77.5 -36
q16 -2 25 -13.5t9 -25.5q0 -20 -14.5 -38t-36.5 -18q-14 0 -26 9q-11 8 -45.5 24.5t-61 31t-50.5 41t-26 57.5v3q0 40 37 85q62 74 97 124z" />
    <glyph glyph-name="uni00AD" unicode="&#xad;" horiz-adv-x="470" 
d="M50 202q0 15 8 24.5t26 13t32.5 4.5t40.5 1q50 0 83 -1h22h27.5h25.5h9q24 0 37 -0.5t31.5 -4t27 -13t8.5 -24.5q0 -17 -9.5 -27.5t-35.5 -15.5t-48 -6t-72 -2q-28 -1 -43 -1h-57q-62 0 -87.5 11t-25.5 41z" />
    <glyph glyph-name="registered" unicode="&#xae;" horiz-adv-x="610" 
d="M241 226q0 -10 -5 -18q-9 -14 -28 -14q-25 0 -32 24q-8 24 -8 53q0 78 47 119q31 26 78 26q39 0 59 -22q19 -21 19 -49q0 -31 -22 -58l-1 -1q-9 -10 -20 -18q32 -30 44 -30h2h7q18 0 28.5 -11.5t10.5 -26.5t-10 -26.5t-26 -11.5q-6 0 -12 1q-43 11 -82 43q-27 23 -37 30
q-6 4 -12 7v-17zM250 318h7q23 0 36 14q4 5 6 12q-4 1 -9 1q-12 0 -24 -8.5t-16 -18.5zM108 435q4 13 16 22q131 90 239 90q62 0 110.5 -31.5t72.5 -78.5t24 -101q0 -58 -26 -115t-71 -98q-72 -67 -175 -67q-62 0 -119.5 27t-96.5 77q-44 56 -44 122q0 86 70 153zM151 385
q-40 -46 -40 -100q0 -64 55 -108q54 -45 127 -45q50 0 93.5 22.5t69.5 64.5q32 51 32 113q0 58 -29.5 95.5t-87.5 38.5h-5q-54 0 -107.5 -18t-85.5 -51q-9 -10 -22 -12z" />
    <glyph glyph-name="guillemotright" unicode="&#xbb;" horiz-adv-x="463" 
d="M233 415q-4 8 -4 16q0 17 13 28t29 11q22 0 33 -19q3 -4 17 -13.5t32.5 -21t26.5 -18.5q17 -14 24.5 -20.5t20 -23t16.5 -32.5q7 -26 7 -54q0 -42 -15 -80q-11 -23 -23.5 -40.5t-34.5 -41t-28 -30.5q-17 -21 -39 -21q-19 0 -32.5 14.5t-13.5 33.5q0 15 10 27t27 18
q17 5 37 43t22 61v0q1 9 1 16q0 30 -27 54q-8 7 -31 24t-40.5 33.5t-27.5 35.5zM68 385q-15 11 -15 29q0 17 11.5 29.5t28.5 12.5q11 0 20 -6q29 -17 52 -34t50.5 -43t43 -57t15.5 -64q0 -8 -1 -15q-3 -29 -13 -52t-28 -41.5t-33 -30.5t-40.5 -29t-37.5 -26q-16 -11 -32 -11
q-20 0 -32 15t-12 33q0 16 10 29t29 16q35 6 69 39t34 66q0 12 -5 24q-11 22 -31 44t-36 35.5t-47 36.5z" />
    <glyph glyph-name="afii10023" unicode="&#x401;" horiz-adv-x="572" 
d="M31 717q148 91 350 91q19 0 54.5 -0.5t52.5 -0.5q59 0 95 6q5 1 13 1q26 0 41.5 -15.5t15.5 -36.5t-15 -36.5t-41 -15.5q-9 0 -14 1q-63 10 -128 10q-142 0 -264 -35q-4 -78 -26 -235q40 5 94 5q52 0 130 -4q24 -1 38.5 -14.5t14.5 -31.5t-14.5 -31t-37.5 -15
q-8 0 -18 -0.5t-16 -0.5q-16 0 -47 0.5t-46 0.5q-73 0 -111 -8q-8 -56 -13 -117q0 -5 -4 -39.5t-4 -56.5q0 -91 59 -91q15 0 31 4q69 18 231 82q13 5 25 5q23 0 39.5 -14t16.5 -34q0 -25 -29 -39q-4 -2 -31 -14t-43 -19t-46.5 -19.5t-54.5 -20t-53.5 -16t-57 -12.5t-51.5 -4
q-110 0 -129 92q-15 75 -15 150q0 68 9.5 144t26 169t22.5 142q-14 -8 -26 -8q-20 0 -33 13.5t-13 30.5q0 23 22 37zM128 916q2 20 19.5 33t39.5 13h5l3 -1q22 -2 38 -17t16 -35l-2 -8q-2 -19 -18 -31t-37 -12q-27 0 -45.5 15.5t-18.5 38.5v4zM413 929q3 19 19.5 32t38.5 13
h7q24 -2 39.5 -18t15.5 -36v-5q-2 -20 -18.5 -32.5t-37.5 -12.5l-8 1h-1q-23 2 -39 17t-16 36v5z" />
    <glyph glyph-name="afii10053" unicode="&#x404;" horiz-adv-x="858" 
d="M473 77q108 5 215.5 36.5t189.5 85.5q20 13 40 13q26 0 43 -18t17 -42q0 -36 -36 -54q-66 -32 -115.5 -53.5t-116.5 -45.5t-132.5 -36.5t-128.5 -12.5q-69 0 -132 16q-89 24 -152 81.5t-91.5 131.5t-28.5 159q0 47 9 94q20 101 65.5 187.5t124.5 156.5t181 105
q86 31 152 31q69 0 119 -34q39 -27 67 -62.5t28 -73.5q0 -45 -45 -78q-16 -11 -34 -11q-20 0 -35 13t-15 32q0 14 10 28q-1 9 -30.5 31t-39.5 25q-22 6 -43 6q-28 0 -57 -8q-104 -30 -188 -101q-46 -40 -80 -98t-50 -121q142 86 389 86q89 0 161 -12q21 -4 32 -18t11 -32
q0 -26 -18 -48.5t-46 -22.5q-12 0 -23 5q-64 28 -155 28q-117 0 -220 -43.5t-138 -119.5q20 -98 91.5 -152.5t181.5 -54.5q11 0 23 1z" />
    <glyph glyph-name="afii10055" unicode="&#x406;" horiz-adv-x="280" 
d="M191 702q0 -155 -14 -312q0 -5 -7 -73.5t-7 -103.5q0 -103 39 -163q8 -13 8 -26q0 -22 -19 -34.5t-42 -12.5q-33 0 -53 28v1h-1q-49 76 -49 203q0 26 1.5 53t5 65.5t4.5 48.5q10 106 10 293v97q0 25 19 37.5t42 12.5q24 0 44.5 -14.5t20.5 -40.5v-24q0 -6 -2 -12v-23z
" />
    <glyph glyph-name="afii10056" unicode="&#x407;" horiz-adv-x="402" 
d="M367 918q-8 -8 -17 -13v-1q-20 -10 -28 -10q-37 0 -53 38q-13 29 -13 58q0 40 44 56q16 7 39 7q49 0 85 -47q6 -7 6 -20q0 -39 -26 -60q-9 -9 -28 -9q-7 0 -9 1zM162 987l-7 -29q-13 -32 -61 -61q-13 -9 -26 -9q-3 0 -5.5 0.5t-4.5 1.5h-2q-5 -1 -10 -1q-21 0 -38 15
t-17 37v2q0 23 10 45.5t20.5 35.5t28.5 33q15 15 38 15q32 0 53 -24q21 -27 21 -61zM209 -50q-44 0 -62 21q-56 75 -56 203q0 40 10 173q10 111 10 304v100q0 19 22 28.5t50 9.5q29 0 54 -11t25 -31v-26q0 -5 -3 -17v-18q0 -144 -19 -324q0 -5 -7 -75t-7 -108
q0 -105 45 -163q8 -13 8 -33q0 -16 -21.5 -24.5t-48.5 -8.5z" />
    <glyph glyph-name="afii10062" unicode="&#x40e;" horiz-adv-x="659" 
d="M178 68h5q105 6 175 75q71 70 106.5 159.5t47.5 202.5q-9 -6 -31.5 -25.5t-23.5 -21.5q-103 -89 -170 -89q-46 0 -70 36q-17 23 -26 54.5t-10.5 54t-1.5 58.5v31q0 32 -1 47q-1 5 -2.5 24t-2.5 29.5t-4 25t-7.5 24.5t-11.5 15q-7 8 -21 8q-27 0 -62 -41t-43 -70
q-4 -15 -15.5 -23t-24.5 -8q-16 0 -30 9t-14 29q0 11 2 17l1 1q17 66 71.5 119t122.5 53q30 0 53 -9q27 -10 45.5 -31t27 -50t12 -53t4.5 -54q2 -52 2 -66v-16q0 -57 5 -84q6 -30 23 -30q8 0 19.5 5t27 16.5t24 18.5t26 22.5t18.5 15.5q15 13 44.5 40.5t44.5 40.5l10 9
q9 79 21 124q7 25 10.5 36.5t15 32t27.5 34.5q23 18 44 18q41 0 69 -42q10 -14 10 -33v-3v-3q0 -36 -27 -93q-22 -47 -67 -98q-11 -170 -25 -233q-55 -222 -197 -332q-47 -36 -110 -60.5t-124 -24.5q-70 0 -118 38q-54 45 -54 101q0 77 91 137q22 12 36 12q23 0 38.5 -15.5
t15.5 -34.5q0 -29 -33 -45q-37 -17 -37 -41q0 -16 18.5 -30t47.5 -15zM358 1051q0 -36 13 -69t35 -33q17 0 41 22q25 23 47 52t50.5 73.5t40.5 61.5q14 23 40 23q20 0 37 -14t17 -33q0 -12 -8 -24q-11 -16 -31.5 -52t-38 -62.5t-42 -57.5t-54.5 -52.5t-63 -30.5
q-21 -6 -43 -6h-4q-70 0 -106 55.5t-36 137.5q0 88 37 138q16 21 42 21q18 0 33.5 -9.5t20.5 -25.5q1 -5 1 -10q0 -16 -10 -27q-19 -28 -19 -78z" />
    <glyph glyph-name="afii10017" unicode="&#x410;" horiz-adv-x="687" 
d="M396 232q-140 0 -218 -18v-16q0 -68 12 -129q17 -15 17 -34q0 -5 -1 -6v-1v-7v-1q-2 -13 -14.5 -23.5t-27.5 -12.5q-1 0 -3.5 -0.5t-3.5 -0.5h-2h-10q-19 0 -34 9t-20 27q-17 68 -23 137q-4 -17 -17 -28.5t-33 -11.5h-24q-22 0 -37.5 16t-15.5 36q0 12 11 27
q41 57 118 90q13 139 59 254q114 291 272 291h3q37 0 65.5 -16t44 -37.5t27 -55t15.5 -56.5t7 -54q6 -57 10.5 -165.5t5.5 -120.5q17 -15 17 -39q0 -21 -13 -35q11 -124 45 -221l1 -1q1 -6 1 -15q0 -22 -16 -34.5t-36 -12.5q-15 0 -28.5 8.5t-19.5 25.5q-38 100 -50 230
q-8 0 -37 0.5t-47 0.5zM402 729q-23 0 -56 -42.5t-62.5 -99t-50.5 -103t-27 -64.5q-9 -38 -19 -104q100 19 252 19q7 0 37 -1q-1 16 -4 57t-4 65q0 12 -0.5 50.5t-2 60t-5.5 53t-13 55t-23 41.5q-10 13 -22 13z" />
    <glyph glyph-name="afii10018" unicode="&#x411;" horiz-adv-x="657" 
d="M801 791q15 6 24 6q21 0 34.5 -14.5t13.5 -32.5q0 -30 -31 -42q-180 -68 -450 -68q-50 0 -114 2q-17 1 -45 2q-22 -74 -30 -123q-4 -23 -9 -52q76 24 150 29q30 2 47 2q20 0 36 -2q6 -1 16 -3.5t20 -5.5t13 -4q6 1 11 1q27 0 38 -20q41 -17 60 -51t19 -75q0 -40 -17 -78
q-28 -62 -75 -117.5t-106 -94.5q-74 -49 -170 -50q-25 0 -47 4q-67 12 -101 57q-13 17 -19 39q-11 11 -11 26q0 8 3 16q2 4 3 8q-1 18 -4 29q-2 6 -2 12q0 21 20 33q2 16 4 72q-23 19 -23 45q0 31 34 65q10 80 22 139q10 49 24 101h-9q-32 0 -59 -2q-52 -4 -76.5 -18
t-35.5 -52q-3 -13 -13.5 -19.5t-22.5 -6.5q-13 0 -24 7t-15 20q-5 16 -5 31q0 32 20.5 56.5t49.5 37t68 20.5t68 10t59 2h3h17q18 54 38 109q10 26 41 26q15 0 27.5 -8.5t12.5 -25.5q0 -3 -1 -6q-8 -41 -23 -97q110 -3 158 -3q246 0 383 64h1zM363 408q-60 -3 -110 -14.5
t-72 -23.5q-3 -24 -5 -48q-1 -2 -2 -11q0 -4 -1 -7q-2 -13 -7.5 -45t-7.5 -49q3 -7 3 -14q0 -9 -5 -18q0 -1 -1 -4v-9q0 -14 1 -25v-5q0 -16 31.5 -29t54.5 -13h4q71 3 119 40q90 69 126 145q18 38 18 61q0 10 -3 18q-6 17 -28 34q-14 0 -23 4h-1l-1 1q-5 3 -9 7q-6 0 -15 2
t-12 2q-26 1 -38 1h-16z" />
    <glyph glyph-name="afii10019" unicode="&#x412;" horiz-adv-x="741" 
d="M202 682q-19 -44 -26.5 -86t-10.5 -100q3 2 7 5q89 51 152 102q19 16 27 23.5t26.5 25.5t27 32t8.5 24q0 6 -3 10v1q-23 38 -87 38q-65 0 -131 -33q13 -12 13 -27q0 -10 -3 -15zM192 423q-17 0 -30 11v-1v-2q-1 -6 -1 -14q0 -18 3 -56.5t3 -58.5v-15q0 -14 -2 -44t-2 -45
q0 -39 9 -60q4 -11 4 -22v-7q169 1 287 46q84 33 108 66q18 29 18 70q0 48 -26 81q-35 41 -92 63t-121 22q-74 0 -133 -28q-12 -6 -25 -6zM406 550q163 -15 236 -112q49 -64 49 -138q0 -66 -37.5 -123t-103.5 -88q-80 -37 -186.5 -55t-211.5 -18q-13 0 -39.5 -2t-40.5 -2
q-12 0 -22 1q-6 1 -28.5 3t-32.5 3t-32 4t-33.5 6.5t-31 9t-30.5 12.5t-25 17t-22.5 21.5t-15 27.5t-9.5 35q-1 7 -1 31t18 38t40 14q19 0 34.5 -11t15.5 -33l-1 -9q-1 -4 -1 -5q1 -17 45.5 -30t104.5 -18q0 13 -1.5 37t-1.5 31q0 16 1 59t1 57v16v18v25.5v24.5v30
q4 148 25 226q-15 -12 -39 -24q-22 -8 -27 -8q-22 0 -35.5 21.5t-13.5 39.5q0 19 19 32q71 51 113 72t127 46q50 16 106 16q60 0 110 -19.5t72 -63.5q11 -25 11 -51q0 -79 -106 -164z" />
    <glyph glyph-name="afii10020" unicode="&#x413;" horiz-adv-x="578" 
d="M472 757q105 0 163 39q16 11 33 11q23 0 37.5 -16t14.5 -36q0 -14 -8.5 -26t-24.5 -18q-122 -43 -232 -43q-17 0 -34 1q-37 2 -105.5 9t-89.5 9q-1 -23 -1 -48q0 -28 1 -60q2 -27 2 -55q0 -90 -13 -189q-46 -349 -236 -375h-11q-24 0 -38 15t-14 34q0 22 15 40t40 18
q9 0 18 -3q10 2 34.5 35.5t36.5 56.5q30 57 44 146q19 118 19 246v49q-2 66 -2 71q0 17 1 33q-57 -2 -170 -34t-113 -58q0 -4 4 -8q7 -12 7 -25q0 -20 -13.5 -34.5t-33 -14.5t-32.5 16q-26 33 -26 65q0 103 246 159q70 16 149 17q3 9 7 17q12 23 33 36.5t45 13.5
q27 0 47.5 -18.5t24.5 -49.5q1 -6 0 -11q125 -15 175 -15z" />
    <glyph glyph-name="afii10021" unicode="&#x414;" horiz-adv-x="1030" 
d="M907 123l106 1q23 0 40 -16.5t17 -38.5q0 -8 -3 -16q-10 -29 -34.5 -76.5t-38.5 -86t-14 -74.5q0 -20 5 -41q1 -7 1 -14q0 -26 -17.5 -41t-41.5 -15q-22 0 -39.5 14.5t-20.5 40.5q-2 17 -2 34q0 40 11.5 85t20 64.5t32.5 74.5q-113 -2 -226 -2q-306 0 -618 12
q3 -30 22 -115q4 -19 10 -65.5t13 -67.5q3 -11 3 -20q0 -24 -17 -36.5t-39 -12.5q-21 0 -39 12.5t-18 36.5q0 10 4 20q5 13 5 31q0 24 -13.5 74t-15.5 61q-8 48 -8 83q0 22 3 44v1l4 11v12h8q11 14 31 17v0q44 4 108 9q9 22 49 143.5t74 185.5q97 182 257 357q-2 5 -7.5 25
t-8.5 29t-9 23t-11 23l-1 1v1q-20 42 -71 44q-30 -3 -30 -21q0 -20 28 -35l2 -1l2 -1q13 -13 13 -31q0 -19 -13.5 -33.5t-33.5 -14.5q-13 0 -25 8q-73 49 -73 112q0 51 44 87t101 36q67 0 114 -51q34 -37 60.5 -91.5t38 -95t27.5 -110.5t23 -95q12 -42 40 -133.5t40 -141.5
q3 -8 10 -37.5t10.5 -41t11.5 -36t15 -38.5t18.5 -31.5t25.5 -30.5l4 -5h36zM559 709q-56 -73 -100 -138t-87.5 -142t-72 -156t-38.5 -153q74 2 160 2q80 0 314 -5q-23 43 -43 98t-30.5 93t-27 105.5t-23.5 92.5q-9 37 -26.5 105.5t-25.5 97.5z" />
    <glyph glyph-name="afii10022" unicode="&#x415;" horiz-adv-x="612" 
d="M352 64q98 0 209.5 37.5t177.5 84.5q16 11 32 11q20 0 33.5 -14t13.5 -33q0 -28 -27 -44q-23 -14 -52 -28q-109 -49 -208 -80.5t-195 -31.5q-109 0 -187 48q-56 36 -86 94t-30 123q0 32 7 62q25 101 130 178q-15 20 -22 45q-8 26 -8 55q0 84 55 157.5t140 94.5q21 5 45 5
q43 0 84 -15.5t70 -47.5t29 -72q0 -28 -15 -57q-13 -24 -42 -24q-15 0 -27.5 9t-12.5 25q0 9 4 17q3 8 3 15q0 22 -29.5 40.5t-61.5 18.5q-8 0 -14 -1q-61 -14 -97 -64q-34 -48 -34 -92q0 -33 20 -56q68 33 110 33q21 0 38 -7q58 -25 58 -74q0 -17 -7 -35q-13 -28 -45.5 -41
t-70.5 -13q-32 0 -56 9q-20 7 -37 15q-17 -11 -29 -21q-88 -64 -88 -153q0 -19 5 -38q32 -135 217 -135z" />
    <glyph glyph-name="afii10024" unicode="&#x416;" horiz-adv-x="1234" 
d="M1350 841q139 0 157 -92q1 -4 1 -8q0 -21 -16 -34.5t-36 -13.5q-28 0 -38 26q-1 3 -7 5.5t-18.5 5t-29.5 2.5q-18 0 -39 -2t-41.5 -4.5t-24.5 -2.5q-125 -11 -218 -60q-40 -22 -77 -48t-80 -65.5t-63.5 -59.5t-72.5 -75t-63 -66q-3 -3 -7 -8q48 -47 80.5 -77.5t86.5 -75
t96.5 -71t95 -46t97.5 -19.5q76 0 140 55q17 15 37 15q23 0 38 -16.5t15 -38.5q0 -31 -30 -49q-97 -56 -199 -56q-64 0 -129 22t-126 62t-109.5 81t-104.5 96q12 -155 44 -284q1 -6 1 -13q0 -25 -20 -40t-44 -15q-19 0 -34 11.5t-17 32.5q-4 39 -16.5 149.5t-17.5 170.5
q-122 -120 -240 -211q-98 -75 -189 -135q-21 -13 -101 -59.5t-117 -76.5q-19 -15 -39 -15q-24 0 -39.5 18.5t-15.5 40.5q0 36 35 50q31 13 70 35.5t59.5 36t71.5 50t60 42.5q143 97 239 177q76 63 172 160q-112 105 -203 179q-53 44 -96.5 75t-99 63t-113 51t-115.5 23
q-19 1 -29.5 13t-10.5 27q0 17 12.5 31t32.5 14h2q74 -5 149 -30t137 -59t131 -86.5t117.5 -96t110.5 -103.5q2 79 12 151q0 1 1 7q2 19 4 33.5t8.5 47.5t13 57.5t18 54.5t25 50t32.5 34t40 14q17 0 35 -10q21 -10 21 -31q0 -7 -3 -15t-7 -14.5t-8 -11.5t-7.5 -8.5
l-3.5 -3.5l-1 -1q-31 -48 -33 -55q-14 -38 -19 -70q-17 -111 -21 -208q68 72 116 120q104 102 214 164t241 77q88 10 120 10z" />
    <glyph glyph-name="afii10025" unicode="&#x417;" horiz-adv-x="711" 
d="M513 742q0 -59 -45 -152q57 -3 100 -43.5t62.5 -99.5t19.5 -127q0 -70 -22 -133.5t-74.5 -118t-129.5 -76.5q-68 -19 -134 -19q-60 0 -110 15t-89.5 52.5t-51.5 93.5q-5 22 -5 42q0 38 11.5 73.5t38.5 62t64 26.5q30 0 65 -17q30 -13 30 -42q0 -21 -17.5 -37.5
t-42.5 -16.5q-12 0 -25 5q-7 -11 -7 -39q0 -29 11 -55.5t27 -34.5q49 -22 106 -22q52 0 94 16q73 27 117 83t45 126v5q0 65 -27.5 120t-70.5 55q-22 0 -51 -17q-18 -28 -51 -28h-8q-24 0 -42 17.5t-18 37.5t21 34v1h1q2 1 5 4q-1 2 -1 3q0 10 6.5 21t16.5 23.5t14 18.5
q3 7 11.5 24l13 26t9.5 22t8 24q1 6 1 15q0 12 -5 16t-18 4q-42 0 -100.5 -40.5t-58.5 -70.5q0 -3 5 -10q7 -14 7 -28q0 -22 -18.5 -38t-42.5 -16q-31 0 -45 27q-19 32 -19 65q0 58 50 112t119.5 84.5t129.5 30.5q6 0 11 -0.5t10 -1.5t8 -1h1q46 -8 68 -35t22 -66z" />
    <glyph glyph-name="afii10026" unicode="&#x418;" horiz-adv-x="765" 
d="M651 841q20 0 37 -13t18 -35v-18v-18v-17q0 -68 -9.5 -193.5t-10.5 -145.5q0 -15 -2.5 -51.5t-2.5 -55.5q0 -130 25 -321v-1v-6q0 -21 -14.5 -33t-33.5 -12q-20 0 -36 13t-19 35q-22 169 -22 360q0 15 1 44t1 43q0 56 11 180l-118 -202q-14 -25 -44.5 -77.5t-51.5 -87.5
t-51.5 -79.5t-63.5 -81t-69 -64.5q-34 -27 -62 -27q-25 0 -43.5 18.5t-28 44t-15 59.5t-7 57t-1.5 45v16q4 71 26.5 251.5t23.5 280.5q-3 10 -3 17q0 23 16 35.5t36 12.5q21 0 38 -13t17 -37q0 -49 -2 -95t-7.5 -102t-8.5 -82.5t-12.5 -98.5t-11.5 -87q-10 -72 -10 -134v-1
q0 -6 3.5 -41.5t4.5 -51.5q11 11 21 24t23 31.5t19 25.5q177 249 397 664q13 25 42 25z" />
    <glyph glyph-name="afii10027" unicode="&#x419;" horiz-adv-x="783" 
d="M678 1180q23 13 36 13q25 0 43 -17t18 -40q0 -16 -11 -29q-5 -6 -6 -7l-3 -3q-19 -15 -69.5 -61t-84.5 -74t-87.5 -53t-102.5 -25q-28 0 -50 7q-56 15 -82.5 58.5t-26.5 102.5q0 70 30 140t74 105q18 13 36 13q24 0 42.5 -17t18.5 -39q0 -24 -21 -39q-23 -17 -42 -64
t-19 -89q0 -66 42 -66q20 0 45 13q37 19 71 45t83 69t66 57zM691 784q-9 -63 -14 -91q-18 -126 -18 -225q0 -209 67 -422q3 -9 3 -17q0 -23 -18.5 -36.5t-40.5 -13.5q-41 0 -53 39q-51 161 -65 334q-42 -89 -97 -175q-25 -41 -41.5 -65t-48 -60t-67 -54.5t-74.5 -18.5
q-35 0 -69 17q-85 41 -85 204q0 36 9 129q4 45 27 162t26 176q-67 -61 -72 -114q-1 -25 -19 -38.5t-39 -13.5t-36.5 12.5t-15.5 35.5v3v1q7 74 66.5 144t134.5 112q13 7 28 7q19 0 35.5 -11t20.5 -29q10 -41 10 -98q0 -77 -30 -228.5t-30 -223.5q0 -43 3 -62q8 -67 33 -67
q31 0 89.5 74.5t93.5 135.5q119 214 159 401l9 54t10 55q4 20 20.5 31t35.5 11q21 0 39 -12.5t18 -35.5l-2 -8v-4q0 -5 -2 -15z" />
    <glyph glyph-name="afii10028" unicode="&#x41a;" horiz-adv-x="858" 
d="M689 30q23 0 54 19q12 8 25 8q21 0 34.5 -16t13.5 -36q0 -27 -23 -42q-51 -34 -108 -34q-52 0 -97 30.5t-76 85.5q-12 24 -32 76.5t-39 101.5t-42 97.5t-51.5 78.5t-58.5 30q-13 0 -24 -5q-109 -163 -121 -311v-77q0 -23 -14.5 -36t-33.5 -13t-34 13t-16 34v0
q0 4 -1 14.5t-1 16.5q0 18 2 45q0 101 4 326.5t4 344.5q0 22 16 34t35 12t35 -13t16 -36q0 -66 -3 -191t-3 -149q13 13 28 24q109 173 288 330q28 24 41.5 35t47.5 35.5t65.5 36t60.5 11.5q35 0 59 -19q49 -36 49 -97q0 -43 -24 -101q-6 -15 -20 -23.5t-29 -8.5
q-19 0 -35 11.5t-16 32.5q0 3 4 17v1q20 50 20 71q0 10 -2 12.5t-7 2.5q-13 0 -45 -16q-59 -33 -95 -66q-50 -46 -162 -172l-40 -49q55 -15 99.5 -60.5t69.5 -110.5q8 -18 23.5 -65.5t29 -82.5t32.5 -74.5t44 -61t53 -21.5z" />
    <glyph glyph-name="afii10029" unicode="&#x41b;" horiz-adv-x="671" 
d="M545 368v-21q1 -39 2 -60t5.5 -57.5t13.5 -60t26 -50.5t42 -47q13 -10 13 -26q0 -24 -24 -41.5t-51 -17.5q-19 0 -32 11q-39 31 -65.5 75.5t-39 96t-17.5 93t-6 91.5q-1 6 -2 198q-40 -166 -68 -235q-15 -38 -29.5 -68t-38.5 -69t-50.5 -68t-65 -55.5t-82.5 -40.5
q-30 -9 -54 -9q-71 0 -116.5 57t-45.5 124q0 41 20.5 74t60.5 46h1v1q10 2 17 2q20 0 33.5 -13.5t13.5 -31.5q0 -15 -9.5 -26.5t-26.5 -17.5q-13 -4 -13 -25q0 -26 18 -54t44 -35q9 -2 16 -2q76 0 165 195q38 80 86.5 255.5t91.5 264.5q14 28 61 28q28 0 52.5 -10t27.5 -33
q24 -154 26 -438z" />
    <glyph glyph-name="afii10030" unicode="&#x41c;" horiz-adv-x="942" 
d="M759 257q0 -178 102 -200q17 -4 27.5 -16t10.5 -27q0 -21 -14.5 -38t-36.5 -17l-9 1h-2h-1q-174 37 -180 274q-88 -160 -186 -160q-39 0 -74 22q-82 51 -102 207q-52 -152 -142 -257q-27 -32 -46 -51.5t-49 -37t-59 -17.5q-47 0 -88 46q-41 44 -41 118q0 65 32 133
q13 27 41 27q19 0 35 -14t16 -36v-22q0 -23 -16 -37q-6 -27 -6 -44v-4q34 -46 55 -46q13 0 27 23l1 2l1 1q53 58 73 90q54 90 84 196q20 66 50 203t51 205q4 16 17.5 26t29.5 10q22 0 38.5 -14.5t16.5 -37.5v-8v-2q-37 -201 -37 -320q0 -158 53 -248q19 -31 35 -31
q17 0 39.5 23.5t43.5 59t36 66t26 55.5q99 222 118 417q3 6 8.5 14t19.5 21.5t25 13.5q19 0 34 -13t15 -35v-7q0 -41 -18 -133.5t-36 -199t-18 -181.5z" />
    <glyph glyph-name="afii10031" unicode="&#x41d;" horiz-adv-x="600" 
d="M539 454q0 -13 -8 -25.5t-22 -16.5q0 -185 51 -359q3 -8 3 -13q0 -22 -20 -34.5t-42 -12.5q-40 0 -50 34q-57 175 -57 386q-29 1 -33 1q-76 0 -162 -13v-4l1 -1v-1v-62.5t0.5 -68t1.5 -62t3 -69t6 -62t9.5 -67.5t13.5 -59t18 -61q3 -9 3 -13q0 -21 -18.5 -31.5
t-40.5 -10.5q-21 0 -40.5 9t-26.5 28q-32 89 -43 192t-11 232v90q-24 -5 -43 -12t-38.5 -18t-30 -17.5t-35 -24t-35.5 -26.5q-15 -9 -28 -9q-21 0 -34.5 16.5t-13.5 36.5q0 24 20 38q54 38 76.5 53t67.5 37.5t88 34.5v27q0 276 70 461v1q13 29 48 29q24 0 45 -15t21 -38
q0 -9 -2 -15q-32 -81 -43.5 -163.5t-11.5 -183.5v-76q71 10 161 10q3 0 40 -1q5 86 31 258q4 21 20.5 34t37.5 13t37 -14t16 -40v-11q-3 -22 -10.5 -84.5t-11.5 -103t-6 -79.5q28 -13 28 -44z" />
    <glyph glyph-name="afii10032" unicode="&#x41e;" horiz-adv-x="822" 
d="M374 104q86 0 152 77q127 147 127 295q0 13 -2 39q-9 74 -39.5 122t-96.5 65q-75 19 -112 19q-74 0 -148 -54q-19 -13 -34 -40q-60 -109 -60 -221q0 -82 35 -173q23 -60 71.5 -94.5t106.5 -34.5zM409 839q58 0 114 -17q152 -43 215 -184q29 -68 29 -150
q0 -104 -42.5 -212.5t-109.5 -183.5q-48 -52 -114.5 -80t-136.5 -28q-75 0 -139 33.5t-103 99.5q-66 113 -66 275q0 96 27 185t79 152q14 20 38 39q88 71 209 71z" />
    <glyph glyph-name="afii10033" unicode="&#x41f;" horiz-adv-x="688" 
d="M533 -16q-11 0 -23 8.5t-14 13.5q-66 119 -66 332q0 95 14 202q20 162 49 231q-148 31 -213 36h-44q-3 0 -6 0.5t-5 1l-2 0.5q-13 -20 -28 -54.5t-32.5 -113.5t-18.5 -168v-25q0 -221 55 -380q2 -8 2 -13q0 -18 -16.5 -29.5t-38.5 -14.5q-3 0 -7 -0.5t-6 -0.5
q-52 0 -66 48q-12 40 -28 174q-11 76 -11 179v43q5 215 69 344q-49 -6 -83 -15t-68 -26.5t-57 -47.5t-38 -74q-5 -14 -23.5 -20.5t-30.5 -6.5h-6h-2q-13 3 -22.5 13t-9.5 25v7v1q10 53 38 94.5t64 68.5t84 46t91.5 28t93.5 14q24 2 47 2q13 0 35.5 -0.5t28.5 -0.5
q99 0 293 -33q14 -2 21 -4q73 -12 146 -12q134 0 257 44q10 4 18 4q17 0 29 -11t15 -27q3 -7 3 -17q0 -20 -11.5 -37.5t-32.5 -22.5q-157 -46 -280 -46q-41 0 -74 4q-11 1 -24 4q-5 -14 -10 -36.5t-8.5 -42t-4.5 -22.5q-2 -13 -8.5 -51.5t-10 -65.5t-4.5 -51q-2 -55 -2 -83
q1 -83 7 -147t15 -99t17 -57t14.5 -33.5t7.5 -15.5q2 -10 2 -15q0 -23 -16 -33q-26 -16 -65 -16z" />
    <glyph glyph-name="afii10034" unicode="&#x420;" horiz-adv-x="682" 
d="M581 893q56 -22 95.5 -52.5t55.5 -78.5q7 -20 7 -42q0 -43 -22.5 -84t-55.5 -74q-43 -40 -91.5 -77t-109.5 -73t-100.5 -58t-112.5 -60q-21 -11 -31 -16q0 -9 0.5 -30t1.5 -32q1 -7 1 -22q0 -34 -6.5 -95.5t-7.5 -71.5q-2 -24 -19 -37.5t-39 -13.5q-14 0 -30 4t-31 15.5
t-15 29.5q0 16 12 32q14 20 14 67q0 16 1.5 39.5t1.5 33.5v8v1q-23 -6 -29 -9q-15 -9 -30 -9q-23 0 -37.5 16.5t-14.5 37.5q0 32 33 47q12 6 38 26t40 28v53q0 12 -0.5 37.5t-0.5 38.5q0 67 21 151l3 13t6 25.5t9.5 32.5t13 37t16.5 35t20.5 30.5t24 21t28.5 8.5
q23 0 43 -21q11 -13 11 -29q0 -15 -9.5 -27t-23.5 -18v-3l-1 -1q-7 -16 -12 -32v-1q-11 -34 -17 -66q-10 -46 -14 -158q-2 -66 -2 -100q122 70 261 168q5 3 20.5 14t22.5 16t21.5 16t22.5 18l20 17.5t18.5 19t14 19t11.5 20.5t5 20v8q0 55 -91 90q-113 43 -241 43
q-98 0 -200 -27q-33 -9 -66.5 -20.5t-77 -31t-70.5 -44.5t-27 -51q0 -7 4 -15q6 -9 6 -20q0 -20 -16 -34.5t-35 -14.5q-20 0 -33 17q-23 34 -23 62v15q9 124 217 201q175 65 343 65q143 0 258 -48z" />
    <glyph glyph-name="afii10035" unicode="&#x421;" 
d="M810 726q0 -81 -68.5 -153t-171.5 -90q-7 -1 -13 -1q-21 0 -34.5 12.5t-13.5 29.5q0 16 11.5 28.5t31.5 16.5q54 11 99 52.5t45 83.5q0 19 -10 36q-33 54 -103 54q-75 0 -155 -53q-104 -67 -168 -170.5t-79 -216.5q-3 -22 -3 -44q0 -50 14 -96.5t41 -87t75.5 -66.5
t111.5 -29h16q75 0 161.5 30t133.5 75q20 20 45 20q20 0 35 -13.5t15 -33.5q0 -21 -17 -40q-65 -70 -171.5 -106t-215.5 -36q-86 0 -145 22q-64 25 -110 64.5t-70.5 88.5t-35 98t-10.5 103q0 75 18 151q41 171 191 306q56 50 155.5 92.5t185.5 42.5q29 0 54 -6
q77 -19 116 -63t39 -101z" />
    <glyph glyph-name="afii10036" unicode="&#x422;" horiz-adv-x="860" 
d="M700 230q2 -17 16 -68t22 -64q11 -12 22 -32l2 -3l-1 -4q-1 -20 -14 -36.5t-37 -16.5h-8q-32 2 -54 36q-41 70 -54.5 146.5t-13.5 176.5v65q0 44 2 66q16 134 43 196q-4 0 -8.5 0.5t-7.5 0.5q-27 0 -40 1q-39 0 -77 3q-1 0 -2 -1l-2 -2l-2.5 -2.5l-3.5 -3.5q0 -4 -3 -7
q-1 -5 -4 -13t-4 -9q-5 -17 -15 -49q-22 -73 -26 -105q-6 -48 -6 -96q0 -52 7 -122q14 -117 34 -179q11 -17 11 -37q0 -21 -19 -33t-41 -12q-17 0 -32.5 13.5t-19.5 32.5q-29 66 -38 144q-9 92 -10 119q-2 50 -2 77q0 101 19 165q29 103 43 130q-45 6 -108 21q-54 9 -72 13
q-2 -7 -8 -25.5t-8 -29.5q-10 -46 -17 -142q-3 -54 -3 -96q0 -62 5 -115q9 -83 36 -215q1 -6 0.5 -11t-1 -12t-0.5 -8q0 -23 -19.5 -36.5t-42.5 -13.5q-19 0 -37.5 14t-21.5 34q-2 33 -12 116.5t-12 113.5q-4 76 -4 114q0 22 2 64q7 138 18 187q4 16 13 48t13 47
q-50 13 -91 13h-10q-17 0 -26 11.5t-9 25.5t8.5 27t24.5 16q22 5 52 5q25 0 54.5 -4.5t47.5 -9t54.5 -14.5t47.5 -13q130 -33 283 -36q18 -1 50 -1q335 0 540 115q13 8 26 8q22 0 35.5 -16.5t13.5 -37.5q0 -34 -31 -48q-218 -99 -419 -118q-23 -39 -42 -133.5t-20 -129.5
q-2 -38 -2 -58q0 -33 6.5 -84t9.5 -63z" />
    <glyph glyph-name="afii10037" unicode="&#x423;" horiz-adv-x="659" 
d="M597 865q22 17 44 17q41 0 69 -42q10 -14 10 -33v-3v-3q0 -36 -27 -93q-22 -47 -67 -98q-11 -164 -21 -214q0 -3 -1.5 -9l-2.5 -10q-55 -222 -197 -332q-47 -36 -110 -60.5t-124 -24.5q-70 0 -118 38q-54 45 -54 101q0 77 91 137q22 12 36 12q23 0 38.5 -15.5t15.5 -34.5
q0 -29 -33 -45q-37 -17 -37 -41q0 -16 18.5 -30t47.5 -15l3 1h5q105 6 175 75q120 119 150 335q2 9 4 27q-3 -2 -6 -4.5t-6.5 -5.5t-5.5 -5q-36 -30 -37 -32q-103 -89 -170 -89q-46 0 -70 36q-17 23 -26 54.5t-10.5 54t-1.5 58.5v31q0 32 -1 47q0 3 -2 24t-3.5 30t-4.5 25
t-7.5 25.5t-11.5 14.5q-8 7 -20 7q-27 0 -62 -41t-43 -70q-9 -31 -40 -31q-16 0 -30 9t-14 29q0 9 1 13l1 4l1 1q17 66 71.5 119t122.5 53q30 0 53 -9q84 -31 89 -188q1 -15 1 -39q1 -6 1 -27v-16q0 -57 5 -84q6 -30 23 -30q22 0 75 43q6 6 20 17.5t20 17.5q15 13 44.5 40.5
t44.5 40.5l10 9q9 79 21 124q20 65 53 104z" />
    <glyph glyph-name="afii10038" unicode="&#x424;" horiz-adv-x="722" 
d="M262 11v1q2 6 5.5 20.5t5.5 20.5q-62 16 -109.5 52t-75 84.5t-41.5 102.5t-14 112q0 37 6 76q7 44 17 84.5t30.5 91.5t48 87.5t71.5 63t97 27.5q17 16 39 16q24 0 39 -21q98 -15 166.5 -69.5t100 -132t31.5 -172.5v-6q0 -46 -11.5 -98t-36.5 -105.5t-59.5 -96.5
t-85.5 -72.5t-110 -33.5q-6 -34 -12 -55q-4 -17 -18 -26t-30 -9q-21 0 -38 13t-17 35l1 8v2zM581 434v16q-4 54 -14.5 97.5t-29.5 82t-50 66.5t-74 42q3 -26 3 -51q0 -39 -8 -112.5t-9 -105.5q-1 -37 -1.5 -105.5t-2 -125.5t-5.5 -106q54 13 99.5 66t68.5 117t23 119z
M305 751q-33 -3 -63 -28t-50 -62.5t-32.5 -75.5t-18.5 -74q-10 -51 -10 -111q0 -201 154 -257q5 58 5.5 167.5t2.5 159.5q2 25 11 98t9 111q0 39 -8 72z" />
    <glyph glyph-name="afii10039" unicode="&#x425;" horiz-adv-x="882" 
d="M911 910q62 0 114 -40q18 -14 18 -36q0 -10 -3 -19q-6 -14 -18.5 -24t-29.5 -10q-13 0 -24 7q-23 13 -49 13q-71 0 -186 -99q-108 -92 -226 -210q4 -7 38 -73.5t56 -104.5t60 -91.5t72 -81.5q46 -38 87 -38q49 0 99 59q5 7 12 11q14 9 29 9q28 0 46 -23q13 -17 13 -37
q0 -30 -28 -48q-3 -2 -10 -6q-35 -22 -56 -34t-57.5 -24.5t-68.5 -12.5q-52 0 -101 30q-33 21 -62.5 49.5t-54.5 64.5t-41 63t-38 68q-11 21 -24 46.5t-27.5 56t-22.5 45.5q-16 -18 -50 -58t-53.5 -62.5t-49.5 -54.5t-57 -58q-57 -56 -141 -125q-11 -9 -45.5 -35.5t-55 -45
t-35.5 -37.5q-6 -8 -13 -12q-13 -10 -29 -10q-26 0 -45 23q-13 17 -13 37q0 28 27 45.5t56 40.5t67 56t56 48q96 79 164 156q82 95 160 175q-14 22 -28 41q-35 47 -80 88.5t-90 62.5q-41 20 -73 20q-22 0 -41 -9q-19 -8 -39 -22t-21 -20q1 -7 1 -10q0 -21 -14 -35t-32 -16
q-4 -1 -7 -1q-15 0 -28.5 9t-18.5 26q-6 16 -6 31q0 43 31.5 75t71.5 52q55 26 112 26q62 0 117 -31q127 -70 223 -213q39 40 76 75q12 12 44.5 45.5t56.5 56.5t62 55t71 52t73.5 34.5t78.5 14.5z" />
    <glyph glyph-name="afii10040" unicode="&#x426;" horiz-adv-x="720" 
d="M196 787q2 -8 4 -22q1 -8 -5 -20q-2 -67 -6 -190.5t-5 -152.5q-4 -137 -4 -183v-10.5v-11.5q0 -14 -1.5 -46t-1.5 -49q0 -37 5 -62q45 13 128 29.5t108 22.5q47 11 63 15q-1 11 -4.5 33.5t-5 36.5t-3 33.5t-1.5 36.5v7q1 88 14 180q6 46 24 169t26 190q3 17 18 29t33 12
q20 0 33 -15l7 -7q9 -11 9 -25q0 -9 -5 -20v-4q0 -35 -3.5 -77.5t-7.5 -70t-11.5 -78.5t-9.5 -70q-2 -10 -6 -39t-6 -44.5t-5 -40t-4 -45.5t-1 -41q0 -62 13 -108q19 1 35 1q90 0 136 -44q39 -39 39 -97q0 -35 -13 -70q-4 -9 -17 -43.5t-17.5 -46t-14.5 -40t-15 -45.5
t-11.5 -41.5t-10.5 -47.5q-21 -117 -21 -190q0 -34 4 -66q21 -177 83 -241q13 -13 13 -31q0 -23 -18 -39t-40 -16q-29 0 -42 27q-8 14 -26 45t-27.5 49.5t-21 47t-17.5 54.5q-20 85 -20 171q0 25 1 50q8 102 41 229q11 41 40.5 108.5t38.5 95.5q6 19 6 33q0 25 -20.5 36.5
t-62.5 11.5q-62 0 -185 -31q-33 -8 -109.5 -22t-129.5 -29.5t-92 -41.5q-11 -8 -23 -8q-18 0 -29 14t-11 31q0 20 14 33q20 18 46 33v9q0 28 -7.5 90.5t-7.5 95.5q0 57 5 195q1 23 1 53q0 15 -0.5 47.5t-0.5 48.5q0 141 24 222q5 16 17.5 24t26.5 8q17 0 30.5 -9t19.5 -26z
" />
    <glyph glyph-name="afii10041" unicode="&#x427;" horiz-adv-x="575" 
d="M432 818h1q12 23 43 23q23 0 44 -13t21 -35q0 -11 -2 -16v-1q-28 -58 -37 -91.5t-19 -108.5q0 -5 -4 -47q17 0 26 -11t9 -26q0 -19 -15 -34q-1 -1 -15.5 -16.5t-25.5 -22.5q-1 -15 -7.5 -52t-6.5 -47q0 -4 -3 -28t-5 -52.5t-2 -53.5q0 -32 4 -56.5t9.5 -35.5t10.5 -11
q8 2 15 1q21 -1 30.5 -17t9.5 -35q0 -42 -35 -52q-14 -4 -30 -4q-36 0 -61.5 18.5t-40 51.5t-20.5 72.5t-6 87.5q0 68 8 135q-47 -12 -89 -12q-64 0 -114 23q-95 48 -95 188q0 44 10.5 121.5t10.5 105.5q1 21 17 31.5t36 10.5t34.5 -10.5t14.5 -30.5q0 -23 -8.5 -91.5
t-8.5 -104.5q0 -101 53 -125q28 -12 58 -12q43 0 97 26q20 116 47 220.5t41 135.5v1z" />
    <glyph glyph-name="afii10042" unicode="&#x428;" horiz-adv-x="870" 
d="M438 737l2 10q6 19 23 30.5t36 11.5q17 0 30.5 -11t15.5 -30q2 -27 2 -55q0 -27 -1.5 -53t-7 -61.5t-7.5 -49t-11 -60.5t-9 -51q-23 -125 -25 -184q-1 -49 -1 -56q0 -39 5 -66q38 3 74 3q62 0 121 -9q12 -1 26 -4q-23 59 -28 112q-4 49 -4 101q0 74 10 153q5 40 8.5 62
t11 63.5t18.5 69t26.5 61t38 58.5t51.5 42q12 8 25 8q21 0 34 -15t13 -34q0 -22 -18 -35q-26 -18 -44 -52.5t-28 -83t-14.5 -80.5t-8.5 -80q-8 -87 -8 -137q0 -155 62 -225q70 -19 106 -26q20 -3 31 -17t11 -31q0 -26 -18.5 -47.5t-46.5 -21.5q-16 0 -32 9q-29 17 -68 31
q-14 -5 -27 -5q-30 0 -46 27q-97 23 -203 23q-29 0 -57 -2q-23 -24 -57 -24q-21 0 -37 12q-4 -1 -53 -10t-70 -13.5t-56.5 -14.5t-59.5 -21q-15 -23 -43 -28l-1 -1q-13 -12 -33 -12q-17 0 -32 11t-15 31q0 5 1 10q3 13 11 26q3 30 3 67q0 24 -2 72t-2 72q0 12 1 23
q4 121 14 221q26 250 85 421q6 17 20.5 25.5t31.5 8.5q19 0 34 -11t15 -31q0 -5 -1 -11q-52 -213 -70 -422q-10 -118 -13 -227q0 -17 -2.5 -66t-2.5 -75v-17q19 8 40 14.5t45 12t37.5 8.5t39 7.5t28.5 5.5q10 2 21 4q-15 66 -16 102v11q0 69 17 161q4 23 16.5 88.5t18 98
t12 84t7.5 94.5z" />
    <glyph glyph-name="afii10043" unicode="&#x429;" horiz-adv-x="1061" 
d="M940 13q25 -10 66.5 -30.5t61.5 -29.5q27 -13 27 -41q0 -24 -18 -44.5t-42 -20.5q-17 0 -31 11q-42 35 -109 60q-6 -1 -10 -1q-23 0 -36 15q-86 25 -208 34q3 -69 3 -111q0 -27 -2 -80q-5 -89 -30 -250t-31 -230q-2 -25 -20.5 -38t-40.5 -13q-21 0 -37.5 11.5t-16.5 33.5
q0 7 1 14q65 268 65 546v9q0 52 -4 114q-63 4 -114 4q-87 0 -150 -14q-2 -23 -21 -37t-41 -14q-21 0 -35 14q-13 -8 -26 -17q-14 -10 -31 -10q-19 0 -33.5 13t-14.5 32q0 21 18 37q24 23 59 41q-5 18 -20 73.5t-23 94t-12 76.5q-9 76 -9 155q0 91 14 155q48 256 139 256
q18 0 36 -12q21 -12 21 -34q0 -13 -9 -25.5t-23 -17.5q-6 -8 -8 -11q-12 -23 -17 -36q-18 -45 -22 -65q-24 -109 -25 -179v-26q0 -111 21 -225q21 -117 28 -139q83 23 203 23q35 0 85 -2q-2 11 -9 73.5t-9.5 86.5t-5.5 69.5t-4 82.5q-1 40 -1 69q0 133 18 226q0 2 1 6
q4 22 6.5 34t9 34t14.5 36.5t20 30.5t29 26t38 15q5 1 11 1q19 0 30.5 -13t11.5 -30q0 -28 -27 -39q-8 -4 -15 -11.5t-11.5 -20t-8.5 -25t-6.5 -31t-4 -32t-2.5 -34t-1.5 -31t-1.5 -29.5t-1 -24q-1 -33 -1 -67q0 -126 17 -274q13 -112 18 -165q122 -7 205 -28q-4 152 -4 166
q0 113 10 205q13 127 38 219q8 30 37 91t34 94q3 19 16.5 30t30.5 11t29.5 -11.5t12.5 -30.5q0 -44 -26 -110t-30 -84q-23 -102 -31 -198q-4 -45 -6.5 -100t-3.5 -90t-2.5 -103.5t-2.5 -93.5z" />
    <glyph glyph-name="afii10044" unicode="&#x42a;" horiz-adv-x="931" 
d="M134 714q-2 -44 -3.5 -60.5t-9.5 -58.5q-3 -15 -15 -23t-25 -8q-17 0 -30.5 10.5t-13.5 28.5v2v1v1q3 29 3 58q0 45 -8 91v1v8q0 17 8.5 32t28.5 18q34 5 80 5q21 0 64 -1.5t64 -1.5q122 0 191 43q10 8 29 20q13 8 27 8q22 0 38 -15.5t16 -36.5q0 -20 -18 -34
q-10 -7 -17 -12q-69 -50 -121.5 -138.5t-78 -183.5t-25.5 -181v-15q1 -34 3 -54t10 -48t22 -47q44 -58 116 -58q45 0 90 21.5t77 54.5q36 37 68 89.5t32 93.5q0 49 -53 70q-34 13 -70 13q-78 0 -179 -71q-14 -10 -29 -10q-23 0 -38 17t-15 38q0 27 25 43q60 37 129 59.5
t132 22.5q86 0 140 -48.5t59 -151.5v-7q0 -55 -32 -117t-81.5 -112t-115.5 -83t-128 -33q-23 0 -44 4q-63 13 -109.5 43.5t-74 73.5t-40.5 93t-13 108q0 108 40.5 227t106.5 217h-20h-18q-5 0 -23.5 2t-42 3.5t-42.5 1.5q-23 0 -39 -2.5t-21.5 -5.5t-5.5 -5z" />
    <glyph glyph-name="afii10045" unicode="&#x42b;" horiz-adv-x="868" 
d="M58 288q0 81 18 167t55 203t48 158q4 14 15 22t25 8q17 0 31 -12t14 -30v-8q-9 -44 -52 -199.5t-51 -241.5q-1 -11 -1 -25q0 -39 7.5 -82t22 -84t40 -68t57.5 -27q26 0 57 16q46 24 72 72t26 100q0 55 -26.5 90t-72.5 35q-41 0 -94 -31q-14 -8 -29 -8q-22 0 -36 16
t-14 36q0 34 35 48q97 37 170 37q65 0 112 -32.5t62 -103.5q7 -34 7 -70q0 -78 -31.5 -148.5t-94.5 -110.5q-53 -35 -120 -35q-82 0 -149.5 48t-86.5 122q-16 65 -16 138zM624 225q0 245 116 553q11 27 39 27q17 0 29.5 -10.5t12.5 -27.5q0 -5 -1 -11q-6 -20 -22 -84
t-22.5 -91.5t-19 -83.5t-17.5 -92t-9.5 -83.5t-4.5 -89.5q0 -106 25 -199q2 -7 2 -14q0 -23 -17 -36.5t-38 -13.5q-18 0 -32.5 10t-18.5 29q-22 106 -22 217z" />
    <glyph glyph-name="afii10046" unicode="&#x42c;" horiz-adv-x="545" 
d="M235 64q45 0 97 51t59 100q2 12 2 15q0 51 -47.5 85t-110.5 34q-61 0 -94 -28v-15q0 -105 21 -176q24 -66 73 -66zM144 437v-3q42 15 99 15q78 0 139.5 -30.5t87.5 -88.5q20 -44 20 -96q0 -73 -37.5 -140t-102.5 -103q-52 -28 -110 -28q-81 0 -130.5 61.5t-55.5 146.5
q-8 108 -8 242q0 16 0.5 34t1.5 39.5t1 33.5q3 59 27.5 159t29.5 137q3 18 15.5 28t27.5 10q22 0 42 -15t20 -38v-7l-1 -1q-7 -42 -25 -113t-29 -129.5t-12 -111.5v-1v-1z" />
    <glyph glyph-name="afii10047" unicode="&#x42d;" horiz-adv-x="821" 
d="M286 350q-13 -6 -37 -15t-33 -13q-10 -5 -21 -5q-18 0 -30.5 12.5t-12.5 28.5q0 21 21 33q5 3 46 29.5t70.5 39t62.5 12.5q6 0 13 -1q70 -7 151 -37q7 -3 26.5 -10.5t31.5 -12t28.5 -9.5t29.5 -6q2 17 2 29q1 13 1 26q0 38 -6 73.5t-19 70.5t-38.5 62t-60.5 40
q-40 15 -85 15q-76 0 -147 -42t-105 -106q-11 -21 -36 -21q-16 0 -29 11t-13 29q0 7 2 13q32 88 128 153t200 65q50 0 93 -17q105 -40 160 -130t55 -199q0 -23 -2 -45q-1 -18 -3 -28q18 -17 18 -40q0 -15 -9.5 -27.5t-26.5 -17.5q-58 -207 -255 -290q-74 -31 -152 -31
t-145.5 32t-114.5 91q-12 15 -12 33q0 20 15 34.5t35 14.5q25 0 40 -22q29 -41 77 -61.5t104 -20.5q92 0 164 47q100 65 143 172q-19 2 -40 7.5t-34 9.5t-39.5 13t-38.5 13q-53 17 -90 17q-38 0 -82 -19z" />
    <glyph glyph-name="afii10048" unicode="&#x42e;" horiz-adv-x="872" 
d="M419 682q30 24 64 44q95 65 177 65q74 0 129 -52q95 -96 95 -259q0 -81 -25 -163t-67 -145q-44 -65 -119.5 -115.5t-148.5 -50.5q-46 0 -85 26t-64 80q-41 86 -53 191q-64 -31 -100 -62q-51 -45 -60 -99q-2 -30 -2 -48q1 -34 11 -82v-2v-6q0 -23 -16 -38.5t-37 -15.5
q-15 0 -27.5 10t-18.5 26v1q-9 28 -11 57q-1 8 -6.5 37.5t-8.5 51.5t-3 41q0 17 6 38q-5 40 -8 99t-8 98q-7 67 -7 174q0 100 7 234q1 22 17.5 34t37.5 12q22 0 40.5 -13.5t18.5 -37.5q0 -44 -5.5 -108.5t-5.5 -93.5q0 -52 5 -96q3 -30 7 -105.5t6 -99.5q60 46 165 90
q2 74 23 148q-3 7 -3 16q0 15 7 25q7 12 15 21q3 7 6 13.5t5 10.5t6 9.5t6 8t7.5 7.5t7.5 7t9.5 8t10.5 9zM543 124q45 0 83.5 31t64.5 77q89 152 89 277q0 89 -42 143q-37 48 -92 48q-48 0 -98.5 -41t-76.5 -96q-44 -103 -44 -207q0 -63 16 -121q27 -99 79 -109
q13 -2 21 -2z" />
    <glyph glyph-name="afii10049" unicode="&#x42f;" horiz-adv-x="612" 
d="M60 182q4 -10 13 -41t18.5 -49.5t21.5 -20.5q47 5 88 28t66 58q67 95 94 222q-77 -41 -135 -41q-59 0 -106 39q-57 48 -57 124q0 60 36 141q30 72 84.5 118t133.5 54h1h11q29 0 54 -13t41 -32t29 -44.5t19 -45.5t11 -41q10 -46 10 -102q0 -72 -14 -142q4 -22 7.5 -63
t6.5 -59q8 -73 25 -110.5t52 -37.5q31 0 73 24q12 9 25 9q21 0 33.5 -15t12.5 -35q0 -25 -22 -39q-71 -44 -135 -44q-89 0 -132 86q-14 31 -22 70q-32 -58 -69 -97q-39 -44 -94 -75.5t-111 -31.5q-19 0 -41 6q-24 6 -42.5 20t-31 35t-19.5 38t-15.5 42.5t-12.5 35.5v1l-1 1
q-2 9 -2 16q0 20 14.5 31t33.5 11q15 0 28.5 -8t19.5 -23zM160 510q0 -2 0.5 -6.5t1.5 -6.5q6 -39 20.5 -52.5t37.5 -13.5q12 0 27.5 4t28 9t31 14.5t26.5 14t26 15.5t19 12q6 66 6 69v16q-2 49 -13 74l-1 1v1q-11 43 -50 43q-29 0 -70 -19q-34 -37 -62 -87t-28 -88z" />
    <glyph glyph-name="afii10065" unicode="&#x430;" horiz-adv-x="596" 
d="M167 153q0 -6 1 -9q20 -21 51 -21q26 0 57.5 13.5t48.5 27.5q-20 37 -72 37q-34 0 -60 -15t-26 -33zM482 121q28 -32 54.5 -46t69.5 -19q19 -3 30 -14.5t11 -27.5q0 -23 -16.5 -42t-42.5 -19h-7h-1q-3 1 -23.5 3.5t-29 4.5t-25 6.5t-29.5 11t-24 16.5q-16 13 -39 42
t-34 37h-1q-6 0 -32.5 -16t-40.5 -21q-60 -22 -112 -23h-4q-56 0 -94 46.5t-38 100.5q0 26 10 49q24 47 75 71t111 24q18 0 28 -1q29 -3 58 -15q-3 32 -12 55q-6 17 -30 28.5t-53 11.5t-49 -15q-19 -13 -38 -13q-23 0 -40.5 16.5t-17.5 38.5t19 37q53 43 133 43
q58 0 107 -23.5t74 -69.5q32 -62 32 -156q0 -44 -6 -96q10 -8 26 -24h1v-1z" />
    <glyph glyph-name="afii10066" unicode="&#x431;" horiz-adv-x="629" 
d="M969 1096q-27 -75 -79.5 -128t-119 -83.5t-133 -54.5t-139 -58t-120.5 -77q-82 -70 -140 -170t-58 -196v-7q0 -39 18 -82q20 -46 60 -77.5t76 -31.5q59 0 79 75q13 47 13 63q0 14 -8 34q-28 7 -34 7q-30 0 -41 -35v-1q-2 -24 -19.5 -37t-40.5 -13q-24 0 -42 15.5
t-18 41.5q0 70 47.5 111.5t109.5 41.5q55 0 99 -31t58 -89q4 -16 4 -46q0 -59 -25 -117.5t-76 -100t-114 -41.5q-45 0 -86 21q-86 41 -126.5 116.5t-40.5 169.5q0 186 97 315q139 187 312 262q24 9 66 24t67 25t60 25.5t58.5 31t48 37t42 49.5t28.5 61l1 3l1 2q15 38 51 38
q24 0 48 -18.5t24 -44.5q0 -5 -3 -17l-4 -10z" />
    <glyph glyph-name="afii10067" unicode="&#x432;" horiz-adv-x="620" 
d="M471 444q38 -35 59.5 -97.5t21.5 -129.5q0 -130 -72 -178q-56 -39 -116 -39q-57 0 -113 30.5t-95.5 76.5t-65.5 100t-29 101q-1 11 -1 34q0 72 20.5 147.5t59.5 144.5t107 113t153 44q5 0 12 -0.5t9 -0.5h1h2q62 -5 94.5 -52.5t32.5 -107.5q0 -24 -4 -43
q-20 -75 -76 -143zM173 348v-11q8 8 13 11q186 125 238 226q14 28 14 54t-14.5 45.5t-34.5 19.5q-25 0 -62 -24q-69 -40 -110 -127.5t-44 -176.5v-17zM216 273q-16 0 -31 10q39 -136 151 -166q22 -4 30 -4q34 0 55 28.5t21 73.5q0 34 -13 94.5t-26 80.5q-12 -6 -22 -8
q-54 -45 -133 -98q-13 -11 -32 -11z" />
    <glyph glyph-name="afii10068" unicode="&#x433;" horiz-adv-x="569" 
d="M372 116q26 0 53 18q14 9 32 9q24 0 41.5 -18.5t17.5 -42.5q0 -29 -25 -46q-51 -35 -118 -35q-78 0 -136 39t-58 105q0 30 9 51q14 39 63.5 109.5t59.5 106.5q1 6 1 17q0 52 -96 52q-53 0 -117.5 -13.5t-95.5 -27.5l-1.5 -0.5t-7.5 -2t-14 -1.5q-24 0 -39 18t-15 41
q0 17 9 32.5t28 22.5q49 20 118.5 35t136.5 15q38 0 71.5 -6t64 -19t51.5 -37.5t30 -58.5q4 -17 4 -40q0 -67 -58 -147q-2 -4 -19 -26.5t-23 -31t-14.5 -24.5t-11.5 -30q-1 -5 -1 -14q0 -23 16.5 -36.5t43.5 -13.5z" />
    <glyph glyph-name="afii10069" unicode="&#x434;" horiz-adv-x="700" 
d="M570 111q10 -2 36 -8q64 -19 64 -76q0 -33 -21 -76.5t-46 -84.5t-30 -56q-10 -36 -51 -36q-21 0 -38.5 12t-17.5 33q0 11 4 18l1 3l3 6q9 15 27.5 45.5t31.5 54t22 46.5q3 7 7.5 16l5.5 11q-1 0 -3 0.5t-3 0.5q-36 6 -92 6h-16q-18 0 -53 -0.5t-52 -0.5q-39 0 -59 1
q-42 2 -64 2q-32 0 -129 -10q-10 -6 -10 -13q0 -13 23 -84.5t23 -77.5v-5q0 -13 -9.5 -24t-29.5 -11q-4 0 -20 2q-30 7 -61 89.5t-33 123.5v3q0 47 57 66q72 108 146 178q66 62 109 95q5 5 32 26q-9 28 -34 50.5t-53 29.5q-34 8 -34 39q0 20 17 36.5t41 16.5h8h1
q36 -6 65.5 -24t51.5 -46t36 -52t29 -56q12 -27 32 -77.5t27 -66.5q3 -8 11 -35.5t15 -44t16 -22.5l2 -1l1 -2q4 -6 14 -20zM369 110h21q9 0 25 0.5t24 1.5q-5 15 -14.5 33.5t-15.5 32.5q-38 109 -42 119q-1 1 -2 5t-2 5q-37 -24 -103 -97q-47 -50 -84 -102q37 4 80 4
q20 0 57.5 -1t55.5 -1z" />
    <glyph glyph-name="afii10070" unicode="&#x435;" horiz-adv-x="589" 
d="M324 420l-10 -1q-30 -2 -62.5 -23.5t-55.5 -50.5q-14 -17 -29 -46q15 -4 19 -4l1 -1q11 -2 35 -2q49 0 85 23t46 62l1 1v1v5q0 11 -9 21.5t-21 14.5zM285 121q91 0 177 56q17 12 32 12q22 0 34.5 -16.5t12.5 -37.5q0 -36 -30 -56q-49 -33 -113.5 -54t-127.5 -21
q-144 0 -200 114q-22 49 -22 104q0 81 44.5 153.5t122.5 104.5q54 21 111 21q64 0 106.5 -28.5t42.5 -83.5q0 -25 -11 -55q-24 -65 -90 -105t-146 -40q-41 0 -79 14q5 -48 48 -66q38 -16 88 -16z" />
    <glyph glyph-name="afii10072" unicode="&#x436;" horiz-adv-x="1081" 
d="M1090 512q21 -17 21 -40q0 -22 -16.5 -39.5t-38.5 -17.5q-15 0 -28 10q-2 1 -8.5 5.5t-8 5.5l-6 4t-6 3t-5.5 2t-6 2.5l-6 1.5t-8 1h-8.5h-10.5q-77 0 -145 -39q-54 -29 -82 -48.5t-61.5 -46t-76.5 -55.5h-1v-1q-4 -1 -9 -5q49 -45 84 -73t81 -57.5t93.5 -43t99.5 -13.5
q32 0 58 7t67 26h1q16 6 27 6q25 0 40 -18.5t15 -41.5q0 -20 -12.5 -37t-36.5 -22q-14 -2 -45 -9t-47.5 -10t-43 -6t-52.5 -3q-60 0 -112 16q-65 20 -114 53.5t-110 89.5q-16 16 -43 45v-34q0 -8 -0.5 -23t-0.5 -23q0 -47 14 -73q9 -13 9 -27q0 -27 -23 -44.5t-50 -17.5
q-19 0 -34.5 12t-20.5 35q-7 27 -7 124q0 22 1 59q-93 -71 -174 -137q-36 -29 -48.5 -39t-42.5 -31t-49.5 -29.5t-49.5 -18.5t-62 -14q-5 -1 -12 -1q-27 0 -41.5 16.5t-14.5 38.5q0 25 16 45t44 20q11 0 20 -3h5q15 0 39 13t40 24.5t45 35t32 25.5l171 126q14 10 40.5 28.5
t35.5 24.5q-172 172 -275 172q-47 0 -83 -37q-14 -13 -32 -13q-19 0 -34 13.5t-15 32.5q0 15 11 29q64 75 154 75q132 0 300 -159q7 60 16 105t23.5 89t36.5 67.5t50 23.5q12 0 24 -5q31 -13 31 -45q0 -14 -8.5 -26.5t-21.5 -18.5q-4 -11 -6 -19q-12 -42 -17 -72
q-10 -55 -18 -122q9 8 30 27t38 32.5t38 25.5q13 8 38 23.5t33 20t26 14.5t27.5 13.5t26 10t32.5 10t37 8.5q27 5 61 5h6.5h7.5q45 0 76 -9.5t65 -34.5v0z" />
    <glyph glyph-name="afii10073" unicode="&#x437;" horiz-adv-x="687" 
d="M597 -47q-26 -388 -223 -444q-36 -10 -67 -10q-99 0 -179.5 67t-110.5 157q-15 45 -15 88q0 93 66 152.5t180 78.5q7 2 11 2h1h2h4q27 0 42.5 -18t15.5 -39q0 -17 -11.5 -29.5t-32.5 -16.5q-92 -13 -132.5 -48t-40.5 -82q0 -45 32 -91t80.5 -75.5t94.5 -29.5q57 0 89 48
q39 58 66 152t27 186q0 64 -16 114.5t-56.5 88t-102.5 47.5q-21 4 -31.5 17.5t-10.5 29.5q0 17 12.5 32t33.5 19q3 8 17 36t15 34q6 22 6 35q0 31 -26 31q-23 0 -49.5 -13.5t-47.5 -39.5l-1 -1l-3 -5v-2l-5 -5q-20 -18 -47 -18q-24 0 -42.5 14t-18.5 35q0 13 12 28
q35 42 110.5 88.5t137.5 46.5q36 0 62 -18t33 -56v-1q2 -7 2 -9q3 -31 3 -40q0 -40 -11.5 -86.5t-33.5 -81.5q84 -47 122 -133.5t38 -189.5v-32q0 -3 -1 -11v-1v-1z" />
    <glyph glyph-name="afii10074" unicode="&#x438;" 
d="M455 139q-25 -40 -57.5 -68t-66 -40t-58 -17t-47.5 -5q-5 0 -7.5 0.5l-2.5 0.5q-3 0 -10 2q-130 13 -130 178q0 50 13.5 142t14.5 117q0 23 17 35t38 12q50 0 53 -39q1 -4 1 -5v-14q0 -29 -17 -110t-17 -118q0 -71 46 -88q13 -5 25 -5q22 0 45.5 13.5t45.5 39t41 51.5
t40 64t33.5 62t29.5 59t22 43q13 31 65 31q22 0 40 -8t18 -28q0 -34 -14.5 -103t-14.5 -100q0 -71 25.5 -109t84.5 -38q5 0 11 0.5t11 1.5q7 1 9 1q1 0 3.5 -0.5l2.5 -0.5q23 0 39 -18.5t16 -39.5q0 -14 -8.5 -25t-22.5 -14q-41 -10 -74 -10q-48 0 -85.5 16t-59.5 39
t-37 54.5t-20.5 56.5t-7.5 51q-20 -39 -32 -66z" />
    <glyph glyph-name="afii10075" unicode="&#x439;" horiz-adv-x="735" 
d="M356 680q-4 -2 -4 -26q0 -21 8.5 -33t22.5 -12q3 0 19 4q53 20 82 61q14 20 38 20q21 0 37.5 -14t16.5 -35q0 -13 -12 -27q-70 -101 -168 -101l-12 2q-62 3 -95.5 34t-33.5 79q0 36 15 71.5t45 35.5q18 0 30.5 -13t12.5 -31q0 -4 -1 -8.5t-1 -6.5zM128 483q24 0 44 -14
t23 -39v-12q0 -32 -19.5 -118.5t-19.5 -125.5q0 -30 9 -46t30 -25q6 -3 19 -3q4 0 10 0.5t7 0.5q25 0 50 20t46 54t37.5 67.5t35.5 74t30 59.5q25 40 60 40q26 0 45 -17.5t19 -37.5q0 -25 -8.5 -67t-8.5 -58q0 -63 26.5 -95t90.5 -32h16q14 0 20 1q3 3 9 3q22 0 35 -18
t13 -39q0 -17 -9 -31t-27 -18q-37 -8 -75 -8q-44 0 -79 12t-55.5 29.5t-34.5 41.5t-20 44t-8 41q-16 -26 -24 -41q-46 -71 -86.5 -100t-104.5 -29q-11 0 -23 1q-26 2 -28 2h-1q-65 7 -92 59t-27 125q0 50 14.5 143.5t15.5 116.5q0 19 14 29t31 10z" />
    <glyph glyph-name="afii10076" unicode="&#x43a;" horiz-adv-x="767" 
d="M1107 -150q-117 -53 -255 -53q-114 0 -183 25q-75 26 -136 78t-125 130q-25 30 -52.5 75.5t-53.5 79t-64 59.5q-70 -113 -97 -219q-5 -16 -18 -25.5t-29 -9.5q-19 0 -34.5 11.5t-15.5 32.5q0 70 11.5 197t13.5 167q0 8 0.5 30t1.5 37t5 35t14 36t26 27h1v1q14 9 27 9
q20 0 33.5 -16t13.5 -36q0 -26 -21 -41q-3 -4 -6 -23.5t-3 -41.5q0 -18 1.5 -49.5t1.5 -40.5v-10q-1 -12 -2 -26q129 202 309 251q57 17 109 17q86 0 122 -53q29 -39 29 -82q0 -55 -46 -107q-14 -18 -36 -18q-20 0 -35.5 15.5t-15.5 36.5q0 18 12 32q31 34 31 53
q0 22 -61 22q-16 0 -35.5 -2.5t-30.5 -5t-14 -3.5h-1h-1q-28 -8 -57 -23q-94 -50 -146 -115q52 -25 87.5 -57t71.5 -79q10 -14 39.5 -53.5t46.5 -61t44 -49t52 -44.5q83 -57 202 -57q112 0 224 41q9 3 15 3q23 0 38.5 -14t19.5 -36v-2v-5q0 -14 -7.5 -25.5t-20.5 -17.5z" />
    <glyph glyph-name="afii10077" unicode="&#x43b;" horiz-adv-x="742" 
d="M645 152q7 3 34 6.5t44 13.5q18 19 42 19q21 0 37 -14.5t16 -34.5q0 -23 -21 -38q-41 -29 -56 -37.5t-38.5 -13t-71.5 -4.5q-63 0 -117 33q-70 41 -103 120q-45 -80 -100 -134q-59 -58 -122 -58q-25 0 -47 11q-40 19 -61 58t-21 84q0 38 15 71q11 26 43 26q15 0 27 -9
t12 -25q0 -4 -1 -8q-1 -6 -1 -17q0 -34 11 -65t25 -31q6 0 14 4q41 21 87 100q80 136 106 265q4 21 22 32.5t39 11.5q18 0 32.5 -11t14.5 -31q0 -5 -1 -10q-2 -8 -4 -21q-10 -48 -10 -89q0 -112 69 -174q31 -27 85 -30z" />
    <glyph glyph-name="afii10078" unicode="&#x43c;" horiz-adv-x="968" 
d="M492 388q0 -8 -4 -36.5t-4 -41.5q0 -207 70 -208q16 0 37 21q34 32 59 81t49.5 112t42.5 97q13 24 41 24q18 0 32.5 -11.5t14.5 -30.5t-5 -58.5t-5 -57.5q0 -132 54 -195v-1h1q10 -18 10 -28q0 -21 -17 -36t-39 -15q-27 0 -43 26q-41 68 -55 150q-17 -33 -29.5 -53.5
t-32.5 -42.5t-46 -32.5t-58 -10.5l-10 -2l-8 1q-71 3 -102.5 34t-44.5 85q-55 -105 -130 -160q-52 -38 -117 -38q-48 0 -78 26q-64 52 -64 140v16v14t1 15q27 38 45 38h2h1q53 0 53 -38v-7q-4 -30 -4 -47q0 -32 10.5 -48t36.5 -17h1q59 0 114 74q80 108 117 281q6 26 47 26
h3h2q19 0 35.5 -12.5t16.5 -33.5z" />
    <glyph glyph-name="afii10079" unicode="&#x43d;" horiz-adv-x="666" 
d="M481 322q4 0 15 -1.5t16 -2.5t14 -3.5t17 -7.5t16 -12q10 -10 10 -33q0 -33 -24 -39q-9 -3 -27 -3q-19 0 -44 5q-1 -31 -1 -45q0 -187 51 -295v-1q4 -12 4 -22q0 -23 -17 -39.5t-38 -16.5q-28 0 -43 28q-73 138 -73 354q0 19 1 48h-153q-4 -106 -10 -188
q-2 -22 -18.5 -34.5t-36.5 -12.5q-19 0 -34 12t-15 32v4v1q7 85 7 287v18t-0.5 15.5t-0.5 8.5q-1 7 -1.5 27t-2 34t-3.5 19q-6 11 -6 25q0 23 16.5 38.5t37.5 15.5q28 0 41 -27q28 -47 28 -150v-19q43 2 106 2h55q10 81 32 147q5 17 20.5 27t33.5 10q21 0 40 -9.5t19 -33.5
q0 -5 -2 -14q-24 -98 -30 -149z" />
    <glyph glyph-name="afii10080" unicode="&#x43e;" horiz-adv-x="604" 
d="M99 394l2 4l6 10v1l1 2l1 2q49 61 143 77q0 5 0.5 9t0.5 6v3v1v1v4v5.5v5.5q0 37 39 44h1h1q9 1 19 1q17 0 31 -3q18 -6 27.5 -22t9.5 -36v-11l-1 -1q-1 -6 -2 -14q62 -18 97 -66q63 -75 63 -161q0 -93 -73 -174q-39 -42 -94.5 -67t-115.5 -25q-90 0 -148 57
q-67 66 -67 155q0 87 59 192zM209 386q-1 -1 -4 -7l-4 -5v-1h-1l-2 -3l-2 -4q-19 -32 -32.5 -75t-13.5 -79q0 -49 19 -68q50 -43 99 -43q65 0 115 59q48 55 48 112q0 30 -10.5 61t-31.5 48q-13 11 -33 19q-1 -8 -4.5 -27.5t-6 -31.5t-6.5 -26.5t-9.5 -23t-12.5 -11.5h-1
q-8 -3 -19 -3q-21 0 -41 10.5t-20 33.5q0 1 1 4v1v1q3 17 9 84q-19 -5 -37 -25z" />
    <glyph glyph-name="afii10081" unicode="&#x43f;" horiz-adv-x="651" 
d="M604 524q13 7 26 7q22 0 34.5 -15.5t12.5 -35.5q0 -18 -10.5 -33t-30.5 -20q-15 -4 -51.5 -15t-58.5 -16q-19 -21 -24.5 -49.5t-5.5 -73.5q0 -5 0.5 -14.5t0.5 -14.5q2 -29 21.5 -85t37.5 -75h1q19 -24 19 -44q0 -6 -2 -11q-5 -16 -16.5 -24t-21 -9.5t-23.5 -1.5
q-23 0 -49 24q-36 36 -53.5 83t-26.5 125v1v1q0 86 14 136q-44 -5 -104 -5q-49 0 -81 3q-5 -19 -7 -38q-7 -51 -9 -94t-2 -66q1 -33 5.5 -61t8.5 -43.5t4 -20.5q0 -24 -20 -38t-43 -14q-11 0 -21.5 2.5t-22.5 13t-13 28.5v1q-3 70 -3 113v24q4 154 22 216q-10 4 -16.5 9
t-18.5 15.5t-13 11.5q-15 13 -15 33q0 18 11 37t31 19q8 0 22 -8q51 -29 138 -38q20 -2 47 -2q67 0 149.5 14.5t156.5 47.5z" />
    <glyph glyph-name="afii10082" unicode="&#x440;" horiz-adv-x="585" 
d="M176 224q-11 -52 -15 -93q45 -12 87 -12q77 0 124 38l1 1l5 3q24 21 40 49q17 58 17 93q0 47 -23 64l-4 4q-17 13 -43 13t-58.5 -13t-59.5 -34l-5 -4q-41 -32 -51 -67zM345 493q7 0 14.5 -0.5t16.5 -1.5t13 -1q67 -6 106 -43q48 -47 48 -134q0 -52 -17.5 -105.5
t-44.5 -91.5q-13 -19 -35 -41v-1h-1q-71 -61 -182 -61q-50 0 -104 13q6 -184 32.5 -340t87.5 -299v-1q3 -10 3 -18q0 -17 -11 -29l-1 -1l-2 -1q-17 -14 -44 -14q-23 0 -39 11l-1 1l-1 2q-8 8 -12 19q-41 107 -80.5 306.5t-39.5 379.5q0 278 109 388q72 63 185 63z" />
    <glyph glyph-name="afii10083" unicode="&#x441;" horiz-adv-x="580" 
d="M274 359v1v6q0 19 15 31.5t34 12.5q15 0 27.5 -8.5t17.5 -22.5q9 1 19.5 11.5t10.5 21.5t-9 20q-11 11 -29 19.5t-33 8.5q-9 0 -14 -1q-44 -12 -92 -78q-55 -76 -55 -148q0 -21 4 -36q22 -93 138 -93q96 0 177.5 26t132.5 67q16 14 33 14q19 0 31 -14t12 -32
q0 -25 -25 -42q-5 -4 -15 -11q-49 -31 -75 -46.5t-69 -35.5t-87 -28.5t-96 -8.5q-103 0 -163 27q-57 27 -86 77t-29 110q0 38 11.5 90.5t27.5 86.5q58 120 141 155q55 24 98 24q46 0 94.5 -20t74.5 -60q15 -25 15 -71q0 -52 -51 -90t-102 -38q-31 0 -54.5 19.5t-29.5 55.5z
" />
    <glyph glyph-name="afii10084" unicode="&#x442;" horiz-adv-x="974" 
d="M83 266q0 38 15 97.5t16 66.5q-1 2 -4.5 8t-6 12t-2.5 12q0 21 17.5 34.5t37.5 13.5q4 0 18 -2.5t29.5 -5.5t16.5 -3q4 -1 18.5 -4t20.5 -6q83 -18 203 -18h9q4 1 23 1q30 0 60 3q156 15 301 81q2 2 10 6q12 6 26 6q35 0 51 -32l1 -1v-1q5 -15 5 -23q0 -34 -34 -51
t-44 -21q-5 -12 -13 -19q-61 -45 -61 -161q0 -3 -0.5 -21t-0.5 -30q0 -34 5 -66t10 -35q28 -17 28 -40q0 -25 -24 -38.5t-49 -13.5h-10q-16 2 -26.5 14t-10.5 29q0 11 2 13v8q0 13 -11 50.5t-12 55.5q-3 33 -3 69q0 41 3 61q6 56 26 107q-104 -28 -201 -32q-32 -66 -32 -103
v-37q0 -12 -2 -39t-2 -40q0 -51 20 -64q3 -2 16 -15v-1q9 -14 9 -27q0 -21 -4 -29.5t-18 -15.5l-9 -5q-16 -9 -32 -9q-32 0 -49 26q-19 27 -28.5 67t-11 69t-1.5 78v12q0 43 34 109q-131 6 -182 19q-41 -41 -41 -132q0 -10 2 -32q1 -7 2.5 -23.5t2 -24t3 -21t5 -22.5t7 -20
t10.5 -20q7 -9 7 -25v-1q-2 -22 -22 -35.5t-43 -13.5h-3q-20 2 -33.5 14.5t-13.5 33.5v12q0 18 -10.5 57t-12.5 55q-7 58 -7 79z" />
    <glyph glyph-name="afii10085" unicode="&#x443;" horiz-adv-x="705" 
d="M448 -36q0 -8 -4.5 -19.5t-10.5 -15.5q-7 -4 -10 -6l-1 -1l-1 -1q-261 -148 -355 -298q-36 -58 -36 -100q0 -80 81 -119q74 -36 137 -36q84 0 119 63q76 137 102.5 296.5t26.5 359.5q0 41 -2 145q-106 -173 -231 -173h-1h-1q-2 0 -6 0.5t-10 0.5q-2 0 -5 0.5t-5.5 0.5
h-2.5h-2h-1q-38 7 -65.5 26t-43.5 43.5t-25.5 58t-13 64t-3.5 66.5q0 32 3.5 84t3.5 62q0 24 17 37.5t39 13.5t39 -13t17 -37q0 -5 -3.5 -39t-3.5 -61q0 -85 15 -144t47 -59q14 0 34 13q77 46 129.5 133t74.5 182q4 18 17.5 28.5t29.5 10.5h1h1q21 -1 37 -14.5t16 -37.5
q1 -51 5.5 -189.5t4.5 -214.5v-22v-20q0 -203 -34 -368q-20 -103 -52 -180.5t-65.5 -121t-73 -70t-69.5 -34.5t-60 -8q-26 0 -43 4h-1q-25 1 -56.5 8t-72.5 25t-74 44.5t-56 72t-23 102.5q0 46 18 104q1 1 2 5l1 2q83 206 420 394h1q14 7 29 7q23 0 39 -16.5t16 -37.5z" />
    <glyph glyph-name="afii10086" unicode="&#x444;" horiz-adv-x="700" 
d="M208 413q-59 -29 -59 -117q0 -56 27 -105.5t70 -64.5q-7 44 -7 71q0 33 2 50v1q15 111 46 213q-38 -20 -78 -46l-1 -1v-1zM529 412q-50 69 -112 82q-54 -140 -54 -288q0 -20 4 -60q68 39 123.5 102.5t55.5 117.5q0 28 -17 46zM328 -609q-14 -18 -49 -18q-24 0 -43.5 11.5
t-19.5 28.5q0 9 4 21l4 11q77 134 77 289q0 66 -21 200q-7 45 -15 80q-103 9 -164.5 95t-61.5 191q0 64 27 119t82 88l32 20t38 23t35.5 19.5t42 19t41.5 12.5q47 107 79 148q15 17 51 17q23 0 43 -10.5t20 -26.5q0 -21 -13 -38q-33 -52 -55 -95q111 -33 170 -145
q21 -38 21 -82q0 -101 -84 -200.5t-185 -137.5q33 -210 33 -301q0 -189 -89 -339z" />
    <glyph glyph-name="afii10087" unicode="&#x445;" horiz-adv-x="922" 
d="M746 106q27 0 46 22q17 18 38 18q23 0 39 -19t16 -42q0 -18 -12.5 -32.5t-34.5 -18.5q-11 -3 -32 -8.5t-38.5 -9t-35.5 -3.5q-13 0 -27 2q-62 9 -120 52q-63 46 -148 146q-106 -133 -190 -226q-27 -29 -80 -67.5t-100.5 -75t-68.5 -66.5q-18 -27 -46 -27q-23 0 -40.5 17
t-17.5 40q0 31 32 51q52 32 116 78.5t96 79.5q73 76 132 144q15 17 95 113q-54 60 -110 105.5t-93 45.5q-25 0 -41 -27q-13 -23 -38 -23q-19 0 -33 13t-14 32q0 12 6 23q47 83 118 83q31 0 64.5 -14.5t70 -43.5t65 -56t68.5 -69q26 30 48 54q134 144 259 144q87 0 150 -77
q11 -13 11 -30q0 -21 -16 -36.5t-37 -15.5t-34 16q-37 44 -82 44q-88 0 -226 -162q85 -84 144.5 -129t100.5 -45z" />
    <glyph glyph-name="afii10088" unicode="&#x446;" horiz-adv-x="705" 
d="M795 4q1 -7 1 -12q0 -27 -24 -43q-14 -28 -51 -60q-13 -12 -46.5 -38.5t-54.5 -46t-38 -43.5q-52 -71 -85 -156.5t-33 -165.5q0 -66 24 -120q5 -12 5 -23q0 -26 -21.5 -42t-47.5 -16q-20 0 -35.5 12t-16.5 33q-1 25 -9.5 86.5t-8.5 97.5q0 27 3 51q17 112 73 214
q66 122 134 172q11 8 38.5 27.5t45.5 33.5t33 28q-23 16 -141.5 31t-149.5 15q-51 0 -141.5 -12t-124.5 -14h-1h-1q-18 0 -29 13t-11 28q0 14 9 24q12 14 19 19q-19 135 -19 189q0 39 4 70t15 64t33 58.5t55 41.5q10 5 22 5q20 0 40.5 -13t20.5 -34q0 -22 -20 -35
q-35 -21 -47 -68.5t-13 -110.5l-2 -66q0 -60 13 -92q14 1 35 3q12 2 45 5.5t56 5t47 1.5h15q2 41 3 51q10 74 23 128q5 20 8.5 31.5t13.5 37t21 39.5t30.5 26.5t42.5 12.5q5 0 10 -1q20 -2 35 -14t15 -28q0 -25 -27 -39q-6 -3 -11.5 -9.5t-10 -17t-7.5 -18.5t-6 -23
t-4.5 -21.5t-4 -22.5t-2.5 -19q-2 -9 -10.5 -46.5t-10.5 -55.5q6 -1 17 -2q28 -3 43 -5t44 -6.5t47 -10t41.5 -15.5t38.5 -21.5t28 -29t18 -38.5z" />
    <glyph glyph-name="afii10089" unicode="&#x447;" horiz-adv-x="620" 
d="M510 558q8 0 17 -2q14 -4 22.5 -14t8.5 -23q0 -26 -24 -43q-1 -1 -1 -2q-5 -14 -7 -23q-6 -24 -12 -64q-11 -66 -19 -148q-1 -9 -11 -91t-12 -124q-1 -20 -18 -31t-38 -11q-18 0 -32.5 9.5t-14.5 27.5q-1 21 -1 47q0 115 11 211q-35 -19 -57.5 -29.5t-56.5 -20.5t-65 -10
t-59 10q-43 15 -63 54t-20 87q0 84 42 140q14 20 40 20q17 0 31 -11.5t14 -30.5q0 -3 -3 -27q-1 -15 -13 -27q-7 -26 -7 -50q0 -59 39 -59h4q45 3 99 25.5t86 51.5q4 4 10 7q17 69 42.5 110t67.5 41z" />
    <glyph glyph-name="afii10090" unicode="&#x448;" horiz-adv-x="748" 
d="M684 131q3 0 5 -1q25 -4 38 -18t13 -33q0 -23 -16.5 -41.5t-42.5 -18.5q-10 0 -20 4q-95 29 -210 29q-33 0 -66 -3q-19 -7 -37 -7q-9 0 -19 2q-84 -12 -159 -36q-17 -28 -45 -28h-1q-30 0 -55 22q-13 10 -13 28q0 15 8 28q-4 8 -4 18q-3 26 -20 96.5t-17 114.5
q0 112 30 183q5 15 18.5 23.5t28.5 8.5q17 0 30.5 -10.5t13.5 -29.5q0 -5 -1 -11q-18 -97 -18 -148q0 -159 41 -204q54 22 116 32q-6 61 -6 108q0 142 46 251q13 32 53 32q17 0 32 -10.5t15 -29.5q0 -5 -2 -11q-23 -101 -27 -201q0 -12 -1 -33.5t-1 -33.5q0 -38 6 -65
q80 0 187 -14v6q0 18 -6 54.5t-7 43.5q-5 63 -5 77q0 15 1 24q9 105 75 171q15 14 33 14q19 0 33.5 -14.5t14.5 -34.5q0 -14 -9 -26q-34 -48 -34 -118q0 -32 4 -60v-1q2 -26 2 -40q0 -12 -1 -36t-1 -35v-18z" />
    <glyph glyph-name="afii10091" unicode="&#x449;" horiz-adv-x="891" 
d="M732 283q56 128 70 164q5 16 18.5 24t28.5 8q17 0 30.5 -10.5t13.5 -29.5q0 -6 -2 -10q-8 -41 -52.5 -145.5t-44.5 -157.5q0 -8 2 -22q14 -13 14 -31q0 -20 -16 -36.5t-38 -16.5q-10 0 -16 2q-86 30 -169 30q-45 0 -100 -9q2 -38 8 -107q1 -20 1 -33q0 -12 -1.5 -31
t-1.5 -40v-41v-35q0 -54 -8.5 -96t-36.5 -109q-7 -18 -22.5 -27t-33.5 -9q-22 0 -39.5 14t-17.5 36q0 6 1.5 11.5t4 10t3.5 7.5q4 12 13 35.5t10.5 29.5t6 22t5 27.5t1.5 29.5t1 43q0 48 -1.5 84.5t-4.5 79.5t-4 77q0 1 -1 3q-114 -33 -183 -33q-15 0 -22 1h-4
q-14 -7 -28 -7q-18 0 -31.5 10.5t-18.5 29.5q-31 124 -31 222q0 163 90 233q15 12 32 12q20 0 33.5 -13.5t13.5 -32.5t-16 -35q-17 -16 -27 -54t-12.5 -64.5t-3.5 -67.5q0 -9 -0.5 -30.5t-0.5 -33.5q0 -68 14 -98q25 6 85.5 19.5t91.5 22.5q2 1 8 3t8 2q10 221 113 412
q15 29 50 29q18 0 33 -11t15 -30q0 -7 -4 -19l-1 -1q-74 -164 -85 -269q-3 -30 -4 -64q4 0 21 3q41 6 79 6q64 0 125 -17q18 86 38 133z" />
    <glyph glyph-name="afii10092" unicode="&#x44a;" horiz-adv-x="686" 
d="M110 457q0 -8 2 -22v-7q0 -21 -14 -33.5t-32 -12.5q-32 0 -40 33q-5 26 -5 58q0 15 2 51q1 19 14 31.5t31 13.5q5 0 14.5 0.5t13.5 0.5q41 0 122.5 -7.5t121.5 -7.5q53 0 100 10q16 12 36 12q32 0 44 -25l1 -1q7 -24 7 -28v-3q0 -4 -1 -8t-1 -6l-1 -1v-1q-9 -19 -27 -26
l-1 -1l-4 -1q-46 -13 -86.5 -67.5t-59.5 -121.5q83 46 152 46q46 0 77 -27.5t39 -83.5q2 -18 2 -28q0 -79 -58 -137t-145 -58q-23 0 -35 2q-79 11 -116.5 61.5t-37.5 123.5q0 68 29 144t76 134q-35 1 -108.5 7t-110.5 7q0 -5 -0.5 -11.5t-0.5 -9.5zM352 176q-6 -5 -14 -9
q4 -24 16 -40q18 -27 55 -27q34 0 65.5 20.5t35.5 47.5q2 8 2 21q0 22 -8.5 29.5t-27.5 7.5q-26 0 -63 -15.5t-61 -34.5z" />
    <glyph glyph-name="afii10093" unicode="&#x44b;" horiz-adv-x="775" 
d="M521 274q7 35 17.5 71.5t26 87t21.5 69.5q8 29 42 29q20 0 37.5 -12t17.5 -34v-7q-7 -32 -23.5 -95t-26 -114t-9.5 -96q0 -59 19 -107q3 -9 3 -17q0 -22 -18.5 -33.5t-39.5 -11.5q-22 0 -40 12t-21 35q-1 13 -4 36.5t-5 38t-3.5 34.5t-1.5 38q0 40 8 76zM72 211
q0 92 35.5 187t89.5 147q14 13 33 13q20 0 34 -13.5t14 -31.5q0 -17 -13 -30q-71 -71 -92 -180q-7 -41 -9 -70q79 66 163 66q61 0 103 -39q38 -35 38 -89q0 -56 -39 -106t-97 -62q-40 -8 -75 -8q-93 0 -141 60q-44 57 -44 156zM186 136q-5 0 -11 1q13 -24 37 -33t51 -9
q40 0 68 17t28 45q0 13 -7 28t-27 15q-22 0 -52 -14.5t-40 -27.5q-18 -22 -47 -22z" />
    <glyph glyph-name="afii10094" unicode="&#x44c;" horiz-adv-x="540" 
d="M299 94q30 0 54 24q21 22 21 47q0 21 -15.5 34t-43.5 13q-16 0 -31 -3q-76 -16 -104 -40q21 -31 54.5 -53t64.5 -22zM350 322q65 -3 97.5 -47.5t32.5 -103.5q0 -54 -28 -103q-46 -75 -150 -75q-61 0 -115 22.5t-83 61.5q-9 12 -19 29q-31 15 -31 46v7v1q1 3 6 15
q-9 37 -9 75q0 127 72 243q18 27 46 27q26 0 46.5 -16t20.5 -38q0 -13 -9 -27q-56 -75 -65 -152q81 35 169 35h19z" />
    <glyph glyph-name="afii10095" unicode="&#x44d;" horiz-adv-x="667" 
d="M315 257q-36 0 -118 -30q-10 -3 -19 -3q-20 0 -31 14.5t-11 32.5q0 25 19 39q79 49 165 49h13q30 -1 77.5 -22t55.5 -23q-3 39 -29.5 68.5t-73.5 38.5q-32 7 -64 7q-85 0 -162 -46q-11 -6 -23 -6q-19 0 -31.5 14t-12.5 32t12 30q78 81 211 81q75 0 138.5 -25.5t103.5 -77
t40 -119.5q0 -22 -4 -46q-15 -72 -67.5 -131.5t-128.5 -91.5q-87 -34 -152 -35q-21 0 -41.5 4t-30.5 6.5t-34 12t-29 11.5q-39 15 -39 50q0 24 17 42.5t40 18.5q22 0 38 -18q17 -22 61 -22q31 0 66.5 9t58.5 21q71 34 107 79q-15 3 -27 7l-24.5 10.5t-29 11.5t-22.5 5
q-8 2 -19 2z" />
    <glyph glyph-name="afii10096" unicode="&#x44e;" horiz-adv-x="842" 
d="M592 121q34 8 66.5 38t32.5 65q0 25 -17 51q-21 32 -50 42t-68 12h-17q-95 0 -118 -46v-1q-21 -36 -21 -46q0 -46 24 -81q26 -41 94 -41q39 0 74 7zM407 393q78 31 170 31q155 0 207 -108q20 -47 20 -81q0 -74 -44 -132.5t-123 -81.5q-51 -14 -99 -14q-70 0 -128.5 27
t-86.5 81q-16 5 -69 5q-3 0 -69 -10q-5 -103 -5 -128q0 -22 -18.5 -31.5t-39.5 -9.5t-37.5 9t-16.5 30q0 19 10.5 196t11.5 263q0 23 20.5 35t43.5 12q20 0 36.5 -8.5t16.5 -28.5q-3 -96 -10 -213q2 -1 3 -1q9 -1 27 -1q36 0 68 9q4 19 5 30v2l1 3l5.5 13.5t8.5 19.5
t10 17.5t16.5 20.5t21.5 16l10 10q14 11 34 18z" />
    <glyph glyph-name="afii10097" unicode="&#x44f;" horiz-adv-x="742" 
d="M710 143q27 7 41.5 12t21.5 7.5t25 10.5l36 16q14 6 26 6q22 0 32 -15t10 -33q0 -39 -36 -50q-34 -11 -80.5 -32t-86.5 -31.5t-96 -10.5q-12 0 -23 1q-98 7 -136 67q-31 52 -52 68q-57 -76 -132 -131t-161 -61q-6 -1 -12 -1q-48 0 -71 31t-23 75q0 30 9 63q4 14 16 22.5
t25 8.5q17 0 30 -11t13 -29v-3v-2q-4 -24 -4 -36q0 -14 2.5 -18.5t8.5 -4.5t14 3q61 17 111 59q41 33 70 67q-2 0 -18.5 2t-21 2.5t-19 2.5t-20.5 3.5t-19 4t-20 6t-16.5 7.5t-17 9.5t-14.5 11.5q-25 25 -25 59q0 35 23 69.5t54 60.5q33 29 75.5 50.5t83.5 21.5q53 0 86 -40
q42 -49 42 -118q0 -48 -21 -99q41 -22 69 -57q6 -7 17.5 -25t16.5 -23t17 -11t28 -6h2q56 1 120 21zM208 301q0 -11 23 -16q21 -5 60.5 -12t49.5 -9q10 29 10 57v15q-6 62 -27 62h-1q-37 -1 -78 -42q-37 -38 -37 -55z" />
    <glyph glyph-name="afii10071" unicode="&#x451;" horiz-adv-x="589" 
d="M285 121q91 0 177 56q17 12 32 12q22 0 34.5 -16.5t12.5 -37.5q0 -36 -30 -56q-49 -33 -113.5 -54t-127.5 -21q-144 0 -200 114q-22 49 -22 104q0 81 44.5 153.5t122.5 104.5q54 21 111 21q64 0 106.5 -28.5t42.5 -83.5q0 -25 -11 -55q-24 -65 -90 -105t-146 -40
q-41 0 -79 14q5 -48 48 -66q38 -16 88 -16zM324 420l-10 -1q-30 -2 -62.5 -23.5t-55.5 -50.5q-14 -17 -29 -46q15 -4 19 -4l1 -1q11 -2 35 -2q49 0 85 23t46 62l1 1v1v5q0 11 -9 21.5t-21 14.5zM157 653q3 0 7 -1q24 -3 40.5 -17.5t16.5 -35.5l-2 -7q-2 -19 -19 -31t-38 -12
q-3 0 -8 1h-1h-1q-21 2 -35 17t-14 35v5v1q2 19 18 32t36 13zM449 664h1q21 -2 35.5 -18t14.5 -37v-4v-1q-3 -19 -18 -31.5t-34 -12.5l-7 1h-1h-2q-23 2 -38.5 17t-15.5 36v5h1q2 20 19.5 32.5t37.5 12.5h7z" />
    <glyph glyph-name="afii10101" unicode="&#x454;" horiz-adv-x="601" 
d="M434 360q-17 0 -30 10t-13 26q0 8 3 14v1q-3 4 -22 10t-31 6q-8 -1 -9 -1q-19 -3 -39 -13h-1q-62 -24 -83 -47q-31 -39 -45 -84q81 51 192 51q21 0 51 -4t31 -4v0q23 -3 36 -22t13 -35q0 -19 -14 -34.5t-37 -15.5q-13 0 -25 5q-31 13 -70 13q-53 0 -103 -17.5t-71 -45.5
q31 -65 141 -65q53 0 109.5 17t91.5 42h1v1q16 10 30 10q20 0 33 -14.5t13 -32.5q0 -29 -29 -42q-48 -22 -81 -35.5t-88.5 -28t-102.5 -14.5q-74 0 -125.5 31t-74.5 78q-8 8 -10 20v1v1q0 13 -6 39.5t-6 39.5q0 38 9 76q20 78 80 139t148 79q27 6 59 6q63 0 96 -33
q34 -36 34 -65q0 -26 -27 -53q-11 -10 -28 -10z" />
    <glyph glyph-name="afii10103" unicode="&#x456;" horiz-adv-x="376" 
d="M279 559q-19 -15 -38 -15q-20 0 -35.5 14t-15.5 36q0 1 -2.5 4.5t-5 11t-2.5 17.5q0 3 2 15v9q1 5 3 11v2q0 25 22 45t45 20q3 0 17 -3l1 -1h1q44 -19 46 -66v-7q0 -59 -37 -92zM255 117q16 0 38 6q6 1 15 1q24 0 38 -17.5t14 -38.5q0 -38 -38 -50q-39 -11 -72 -11
q-48 0 -84 20t-55.5 54t-29 73.5t-9.5 84.5q0 108 39 210q7 18 21.5 27.5t31.5 9.5q21 0 37 -14t16 -36q0 -7 -1 -14v-2l-1 -1q-14 -37 -26 -90t-12 -98q0 -114 78 -114z" />
    <glyph glyph-name="afii10104" unicode="&#x457;" horiz-adv-x="472" 
d="M31 656v1q4 33 28.5 55t55.5 22h7h1q31 -4 53 -27t22 -53q0 -4 -1 -8l-1 -4v-1v-1q-4 -32 -30 -54.5t-58 -22.5h-8h-1q-29 4 -48.5 27.5t-19.5 54.5v11zM289 655v1q4 31 30 54t57 23l10 -2q30 -3 48.5 -25.5t18.5 -53.5q0 -7 -2 -13v-1v-1q-4 -32 -26.5 -54t-53.5 -22h-8
q-32 3 -54.5 27.5t-22.5 55.5zM292 117q21 0 46 6q6 1 16 1q24 0 38 -17.5t14 -38.5q0 -38 -38 -50q-39 -11 -82 -11q-56 0 -96.5 19.5t-62 54t-31 73.5t-9.5 85q0 105 40 210q13 37 58 37q25 0 44.5 -14t19.5 -36q0 -6 -3 -16v-1q-18 -38 -32.5 -90t-14.5 -98
q0 -114 93 -114z" />
    <glyph glyph-name="afii10110" unicode="&#x45e;" horiz-adv-x="705" 
d="M448 -36q0 -8 -4.5 -19.5t-10.5 -15.5q-7 -4 -10 -6l-1 -1l-1 -1q-261 -148 -355 -298q-36 -58 -36 -100q0 -80 81 -119q74 -36 137 -36q84 0 119 63q76 137 102.5 296.5t26.5 359.5q0 41 -2 145q-106 -173 -231 -173h-1h-1q-2 0 -6 0.5t-10 0.5q-2 0 -5 0.5t-5.5 0.5
h-2.5h-2h-1q-38 7 -65.5 26t-43.5 43.5t-25.5 58t-13 64t-3.5 66.5q0 32 3.5 84t3.5 62q0 24 17 37.5t39 13.5t39 -13t17 -37q0 -5 -3.5 -39t-3.5 -61q0 -85 15 -144t46 -59h1q14 0 34 13q77 46 129.5 133t74.5 182q4 18 17.5 28.5t30.5 10.5h1q21 -1 37 -14.5t16 -37.5
q1 -50 5.5 -188.5t4.5 -215.5v-42q0 -205 -34 -368q-20 -103 -52 -180.5t-65.5 -121t-73 -70t-69.5 -34.5t-60 -8q-26 0 -43 4h-1q-25 1 -56.5 8t-72.5 25t-74 44.5t-56 72t-23 102.5q0 46 18 104q1 1 2 5l1 2q83 206 420 394h1q14 7 29 7q23 0 39 -16.5t16 -37.5z
M207 711.5q0 21.5 5 42.5q7 34 36 39q4 1 9 1q16 0 29 -10.5t16 -27.5q2 -5 2 -15v-1q-1 -4 -1 -8q0 -10 3 -20q4 -19 15 -30.5t24 -11.5q3 0 7 1v0h1h2q5 2 16 8q51 34 72 82q9 22 33 29l1 1h1h9q18 0 33.5 -10.5t20.5 -28.5v-1v-1q2 -14 -5 -30q-2 -5 -5 -11
q-45 -111 -143 -131h-13q-18 -3 -35 -3q-52 0 -85 26t-43 68q-5 21 -5 42.5z" />
    <glyph glyph-name="afii10050" unicode="&#x490;" horiz-adv-x="545" 
d="M373 293q0 -34 -6 -68q-5 -26 -13.5 -54t-25 -64t-37.5 -64t-53 -47t-68 -19h-12q-49 4 -98.5 44t-81 97.5t-31.5 110.5q0 51 36 88q18 17 36 17q22 0 38.5 -17t16.5 -39q0 -21 -15 -37q-6 -5 -6 -20q0 -25 18 -57t45 -51q26 -16 43 -16q28 0 51.5 33t35 73t11.5 71v4
q-3 72 -41.5 223t-38.5 234v13q0 21 18 37t40 16q14 0 30 -10q91 -62 170 -62q2 0 9 0.5t11 0.5q59 4 108 31l42 40q-25 15 -25 45q0 21 14 37.5t40 17.5h5q41 0 63 -21.5t22 -55.5q0 -36 -21.5 -74.5t-52.5 -58.5q-94 -60 -210 -60q-69 0 -141 26q6 -35 40 -163.5
t34 -200.5z" />
    <glyph glyph-name="afii10098" unicode="&#x491;" horiz-adv-x="585" 
d="M592 759q40 0 59.5 -35.5t19.5 -82.5q0 -59 -55 -117q-29 -30 -63.5 -48.5t-77 -26.5t-75 -10t-82.5 -2h-18q37 -105 37 -204q0 -135 -45 -201q-50 -71 -126 -71q-44 0 -80.5 23t-59 59t-35 77t-13.5 82v4q0 26 17.5 40.5t39.5 14.5q23 0 41.5 -15.5t19.5 -43.5
q2 -78 15 -100q16 -26 37 -26q9 0 20 2q7 2 19 17.5t15 29.5v1q12 37 12 82q0 6 1 26t1 29v6q-13 113 -68 214q-8 14 -8 28q0 24 17 42.5t44 18.5q3 0 18 -3v-1h1q46 -14 105 -14q101 0 162 22q67 23 67 72q0 5 -10 22t-10 31q0 23 15.5 40.5t41.5 17.5h1z" />
    <glyph glyph-name="endash" unicode="&#x2013;" horiz-adv-x="452" 
d="M149 220q279 0 279 -54q0 -30 -36 -37.5t-129 -8.5q-34 -1 -52 -1h-58q-65 0 -91 9.5t-26 37.5q0 27 32 40.5t81 13.5z" />
    <glyph glyph-name="emdash" unicode="&#x2014;" horiz-adv-x="894" 
d="M64 166q0 30 48.5 42.5t142.5 12.5q22 0 76.5 -3t85.5 -4h57h33.5h32.5h58.5t54 -1.5t50 -5t38 -8.5t27 -13.5t8.5 -19.5q0 -31 -58 -38.5t-222 -7.5q-73 -1 -115 -1h-111q-124 0 -165 8t-41 39z" />
    <glyph glyph-name="afii00208" unicode="&#x2015;" horiz-adv-x="810" 
d="M91 184q-11 0 -20 6.5t-11 15.5q-2 11 4.5 19.5t20.5 10.5q109 20 262 20q63 0 184 -4.5t175 -4.5q16 0 26 -10t10 -24t-10 -24t-26 -10q-53 0 -160.5 -1t-161.5 -1q-173 0 -293 7z" />
    <glyph glyph-name="quoteleft" unicode="&#x2018;" horiz-adv-x="120" 
d="M159 742q-2 -31 -23 -48t-44 -17q-18 0 -28 8q-40 31 -45 76q-1 8 -1 17q0 31 13 67t33 75t26 54q11 31 41 33q4 1 6 1q15 0 27.5 -9.5t14.5 -24.5q3 -15 -8 -32v-1q-12 -16 -22.5 -44t-10.5 -52v-10q1 -5 6.5 -20t10 -33t4.5 -34v-6z" />
    <glyph glyph-name="quoteright" unicode="&#x2019;" horiz-adv-x="199" 
d="M70 850q1 32 22 48.5t45 16.5q18 0 27 -8q40 -30 46 -76q1 -5 1 -17q0 -31 -13 -66.5t-33.5 -75t-25.5 -53.5q-12 -31 -42 -34h-5q-15 0 -28 9t-15 25q-1 3 -1 6q0 11 9 25h1v1q33 46 33 96q0 1 -0.5 5t-0.5 5t-10 33.5t-10 53.5v6z" />
    <glyph glyph-name="quotesinglbase" unicode="&#x201a;" horiz-adv-x="167" 
d="M39 81q1 32 22 48.5t45 16.5q17 0 27 -8q40 -31 46 -76q1 -8 1 -17q0 -31 -13 -66.5t-33 -75t-26 -53.5q-12 -31 -42 -34h-5q-15 0 -28 9t-15 25q-2 14 8 31h1v1q12 16 22.5 44t10.5 52q0 5 -1 10t-6 20t-9.5 33t-4.5 34v6z" />
    <glyph glyph-name="quotedblleft" unicode="&#x201c;" horiz-adv-x="286" 
d="M335 742q-2 -31 -23 -48t-44 -17q-18 0 -28 8q-40 31 -45 76q-1 8 -1 17q0 31 13 67t33 75t26 54q11 31 41 33q4 1 6 1q15 0 27.5 -9.5t14.5 -24.5q3 -15 -8 -32v-1q-12 -16 -22.5 -44t-10.5 -52v-10q1 -5 6.5 -20t10 -33t4.5 -34v-6zM159 742q-2 -31 -23 -48t-44 -17
q-18 0 -28 8q-40 31 -45 76q-1 8 -1 17q0 31 13 67t33 75t26 54q11 31 41 33q4 1 6 1q15 0 27.5 -9.5t14.5 -24.5q3 -15 -8 -32v-1q-12 -16 -22.5 -44t-10.5 -52v-10q1 -5 6.5 -20t10 -33t4.5 -34v-6z" />
    <glyph glyph-name="quotedblright" unicode="&#x201d;" horiz-adv-x="295" 
d="M27 885q1 33 22 49.5t45 16.5q16 0 27 -8q40 -30 46 -76q1 -6 1 -17q0 -31 -13 -67t-33 -74.5t-26 -53.5q-12 -31 -42 -34h-5q-15 0 -27.5 9t-15.5 25q-2 14 8 31h1v1q12 17 22.5 44.5t10.5 51.5v2t-0.5 4.5t-0.5 4.5q-1 4 -6 19.5t-9.5 33t-4.5 33.5v5zM203 885
q1 33 22 49.5t45 16.5q16 0 27 -8q40 -30 46 -76q1 -6 1 -17q0 -31 -13 -67t-33 -74.5t-26 -53.5q-12 -31 -42 -34h-5q-15 0 -27.5 9t-15.5 25q-2 14 8 31h1v1q12 17 22.5 44.5t10.5 51.5v2t-0.5 4.5t-0.5 4.5q-1 4 -6 19.5t-9.5 33t-4.5 33.5v5z" />
    <glyph glyph-name="quotedblbase" unicode="&#x201e;" horiz-adv-x="295" 
d="M15 84q1 33 22 49.5t45 16.5q16 0 27 -8q40 -30 46 -76q1 -6 1 -17q0 -31 -13 -67t-33 -74.5t-26 -53.5q-12 -31 -42 -34h-5q-15 0 -27.5 9t-15.5 25q-2 14 8 31h1v1q12 17 22.5 44.5t10.5 51.5v2t-0.5 4.5t-0.5 4.5q-1 4 -6 19.5t-9.5 33t-4.5 33.5v5zM191 84
q1 33 22 49.5t45 16.5q16 0 27 -8q40 -30 46 -76q1 -6 1 -17q0 -31 -13 -67t-33 -74.5t-26 -53.5q-12 -31 -42 -34h-5q-15 0 -27.5 9t-15.5 25q-2 14 8 31h1v1q12 17 22.5 44.5t10.5 51.5v2t-0.5 4.5t-0.5 4.5q-1 4 -6 19.5t-9.5 33t-4.5 33.5v5z" />
    <glyph glyph-name="Euro" unicode="&#x20ac;" horiz-adv-x="633" 
d="M583 -31q-79 -29 -160 -29q-31 0 -72 5q-103 15 -178 71t-98 149h-4q-12 0 -32 2.5t-28 2.5q-17 0 -26 12.5t-9 26.5t8.5 26t25.5 13q9 1 23 1h20h12q1 31 10 65q-36 2 -68 6q-15 2 -24 12.5t-9 23.5t9 23.5t24 12.5q29 4 103 8q50 88 160 178q105 85 200 85
q87 0 134 -79v-1q5 -9 5 -18q0 -16 -11.5 -27t-26.5 -11t-27 11v1l-1 1q-31 38 -78 38q-56 0 -123.5 -50.5t-116.5 -125.5q170 0 276 7h1h3q22 0 35.5 -13.5t13.5 -32.5q0 -16 -11.5 -28.5t-29.5 -14.5q-112 -12 -254 -12q-53 0 -80 1q-11 -28 -14 -52q81 -2 155 -2
q97 0 157 2h1q23 0 36.5 -14.5t13.5 -33.5q0 -16 -11.5 -28.5t-31.5 -13.5q-39 -1 -111 -1q-34 0 -101 0.5t-101 0.5q3 -9 10 -19q32 -56 98 -83.5t149 -27.5q67 0 131 17h2h2q27 0 39 -29q4 -9 4 -17q0 -18 -17 -34l-2 -3z" />
    <glyph glyph-name="uni20B4" unicode="&#x20b4;" horiz-adv-x="505" 
d="M86 326q-13 4 -19.5 14.5t-6.5 22.5q0 14 9 25.5t25 11.5h4h1q49 -7 128 -7h28q48 42 67 77q14 22 14 40q0 37 -82 37q-57 0 -97 -13q-7 -3 -14 -3q-16 0 -26 12t-10 27q0 21 20 31q53 28 129 28q42 0 78 -10t62.5 -37t26.5 -68q0 -27 -14 -60q-11 -29 -32 -57q16 1 51 2
h2q20 0 31 -13t11 -30q0 -18 -11.5 -32.5t-31.5 -14.5q-7 0 -13 1q-34 8 -77 8q-26 0 -39 -1q-37 -33 -42 -39q-2 -1 -4 -3.5t-2 -3.5h34q66 0 106 7h1h1q5 1 8 1q20 0 31.5 -13.5t11.5 -30.5t-12 -30.5t-32 -13.5h-8h-1q-39 6 -101 6q-16 0 -48.5 -0.5t-45.5 -0.5
q-16 -32 -16 -61v-6q6 -65 82 -65q38 0 79.5 15t61.5 31l1 1q16 11 31 11q19 0 33.5 -14t14.5 -33q0 -17 -15 -32q-34 -34 -85 -52t-104 -18q-49 0 -89.5 15.5t-68.5 51.5t-28 88q0 16 2 25q2 22 10 46q-22 2 -41 6q-14 2 -21 12.5t-7 21.5q0 15 10 27t27 12q11 0 70 -2
q14 19 30 37q-48 2 -88 13z" />
    <glyph glyph-name="afii61352" unicode="&#x2116;" horiz-adv-x="841" 
d="M145 -34q-1 -18 -13.5 -29t-28.5 -11q-20 0 -37 14.5t-19 37.5q-1 16 -1 36q0 44 4 93.5t15.5 108.5t28.5 105t47 77t69 31q60 0 130 -81q36 -41 171 -188q23 -25 35 -25q10 0 17 23t15 71.5t14 73.5q18 69 29.5 111t30.5 96t40 93t52.5 82.5t71.5 84.5q24 23 50 23
q25 0 41 -18.5t16 -42.5q0 -29 -23 -46q-55 -43 -92.5 -105.5t-58.5 -134t-36.5 -142.5t-40 -152t-57.5 -141q-9 -15 -26.5 -24t-34.5 -9q-14 0 -23 6q-49 27 -89 70.5t-84 106t-66 88.5q-41 48 -67 48q-14 0 -25.5 -14t-19 -42.5t-13 -55t-10 -68.5t-6.5 -65t-4 -62
q-2 -17 -2 -24z" />
    <glyph glyph-name="trademark" unicode="&#x2122;" horiz-adv-x="910" 
d="M78 801q-14 3 -21.5 13.5t-7.5 22.5q0 15 10 27t28 12q40 0 95 12q10 26 35 26q17 0 29 -14q4 1 16.5 2.5t18 2.5t16 2.5t16.5 3t14 4t13.5 5t10.5 5.5h1q14 8 26 8q21 0 32 -16.5t11 -34.5q0 -17 -10.5 -30.5t-30.5 -13.5h-11q-13 0 -44.5 -9t-42.5 -11q-21 -5 -25 -5
q0 -4 -1 -21t-1 -26v-15q0 -50 7 -61q21 -14 21 -36q0 -20 -16 -33.5t-35 -13.5q-16 0 -28 11.5t-14 32.5l-6.5 16.5t-7.5 27.5q-5 31 -5 59q0 29 1 45q-24 -3 -44 -3h-1l-48 5h-1zM431 644q-11 -13 -27 -13q-15 0 -26 12t-11 28q0 8 4 17q5 12 19.5 47t25.5 59.5t23 47.5v1
q7 11 19.5 17.5t25.5 6.5q8 0 15.5 -5t9.5 -14q5 -24 35 -48.5t58 -24.5q21 0 34 14l1 1q16 16 47 54t50 56v1q14 11 33 11q29 0 41 -25q23 -49 31.5 -139t17.5 -119q3 -8 3 -17q0 -19 -14 -30.5t-31 -11.5t-31 11.5t-16 32.5l-3.5 38.5l-4 44t-5 39.5t-7.5 41
q-21 -26 -35.5 -40.5t-40.5 -29.5t-55 -19q-6 -1 -16 -1q-23 0 -45 11t-32.5 20t-30.5 28q-33 -72 -62 -102z" />
  </font>
</defs>
</svg>
